%TF.GenerationSoftware,KiCad,Pcbnew,6.0.10-86aedd382b~118~ubuntu20.04.1*%
%TF.CreationDate,2022-12-19T01:24:13+02:00*%
%TF.ProjectId,unipolar stepper driver,756e6970-6f6c-4617-9220-737465707065,rev?*%
%TF.SameCoordinates,Original*%
%TF.FileFunction,Copper,L1,Top*%
%TF.FilePolarity,Positive*%
%FSLAX46Y46*%
G04 Gerber Fmt 4.6, Leading zero omitted, Abs format (unit mm)*
G04 Created by KiCad (PCBNEW 6.0.10-86aedd382b~118~ubuntu20.04.1) date 2022-12-19 01:24:13*
%MOMM*%
%LPD*%
G01*
G04 APERTURE LIST*
%TA.AperFunction,ComponentPad*%
%ADD10R,1.500000X1.050000*%
%TD*%
%TA.AperFunction,ComponentPad*%
%ADD11O,1.500000X1.050000*%
%TD*%
%TA.AperFunction,ComponentPad*%
%ADD12R,1.600000X1.600000*%
%TD*%
%TA.AperFunction,ComponentPad*%
%ADD13C,1.600000*%
%TD*%
%TA.AperFunction,ComponentPad*%
%ADD14R,1.500000X1.500000*%
%TD*%
%TA.AperFunction,ComponentPad*%
%ADD15O,1.500000X1.500000*%
%TD*%
%TA.AperFunction,ComponentPad*%
%ADD16O,1.600000X1.600000*%
%TD*%
%TA.AperFunction,ComponentPad*%
%ADD17R,1.700000X1.700000*%
%TD*%
%TA.AperFunction,ComponentPad*%
%ADD18O,1.700000X1.700000*%
%TD*%
%TA.AperFunction,ComponentPad*%
%ADD19R,2.000000X1.905000*%
%TD*%
%TA.AperFunction,ComponentPad*%
%ADD20O,2.000000X1.905000*%
%TD*%
%TA.AperFunction,Conductor*%
%ADD21C,0.800000*%
%TD*%
G04 APERTURE END LIST*
D10*
%TO.P,Q3,1,E*%
%TO.N,GND*%
X67373479Y-44779243D03*
D11*
%TO.P,Q3,2,B*%
%TO.N,Net-(Q3-Pad2)*%
X67373479Y-43509243D03*
%TO.P,Q3,3,C*%
%TO.N,Net-(D3-Pad1)*%
X67373479Y-42239243D03*
%TD*%
D12*
%TO.P,CP1,1*%
%TO.N,+5V*%
X45798359Y-22046243D03*
D13*
%TO.P,CP1,2*%
%TO.N,GND*%
X48298359Y-22046243D03*
%TD*%
D14*
%TO.P,D1,1,K*%
%TO.N,Net-(D1-Pad1)*%
X73236479Y-37159243D03*
D15*
%TO.P,D1,2,A*%
%TO.N,+5V*%
X80856479Y-37159243D03*
%TD*%
D13*
%TO.P,R3,1*%
%TO.N,Coil_3*%
X55583479Y-43763243D03*
D16*
%TO.P,R3,2*%
%TO.N,Net-(Q3-Pad2)*%
X63203479Y-43763243D03*
%TD*%
D10*
%TO.P,Q4,1,E*%
%TO.N,GND*%
X67500479Y-50240243D03*
D11*
%TO.P,Q4,2,B*%
%TO.N,Net-(Q4-Pad2)*%
X67500479Y-48970243D03*
%TO.P,Q4,3,C*%
%TO.N,Net-(D4-Pad1)*%
X67500479Y-47700243D03*
%TD*%
D14*
%TO.P,D3,1,K*%
%TO.N,Net-(D3-Pad1)*%
X73490479Y-43382243D03*
D15*
%TO.P,D3,2,A*%
%TO.N,+5V*%
X81110479Y-43382243D03*
%TD*%
D13*
%TO.P,C1,1*%
%TO.N,GND*%
X48761471Y-18236243D03*
%TO.P,C1,2*%
%TO.N,+5V*%
X46261471Y-18236243D03*
%TD*%
D14*
%TO.P,D4,1,K*%
%TO.N,Net-(D4-Pad1)*%
X73490479Y-46430243D03*
D15*
%TO.P,D4,2,A*%
%TO.N,+5V*%
X81110479Y-46430243D03*
%TD*%
D12*
%TO.P,uC1,1,VDD*%
%TO.N,+5V*%
X42512479Y-33867243D03*
D16*
%TO.P,uC1,2,GP5*%
%TO.N,unconnected-(uC1-Pad2)*%
X42512479Y-36407243D03*
%TO.P,uC1,3,GP4*%
%TO.N,Coil_4*%
X42512479Y-38947243D03*
%TO.P,uC1,4,GP3*%
%TO.N,Control_Input*%
X42512479Y-41487243D03*
%TO.P,uC1,5,GP2*%
%TO.N,Coil_3*%
X50132479Y-41487243D03*
%TO.P,uC1,6,GP1*%
%TO.N,Coil_2*%
X50132479Y-38947243D03*
%TO.P,uC1,7,GP0*%
%TO.N,Coil_1*%
X50132479Y-36407243D03*
%TO.P,uC1,8,VSS*%
%TO.N,GND*%
X50132479Y-33867243D03*
%TD*%
D17*
%TO.P,DebuggerPins1,1,Pin_1*%
%TO.N,Control_Input*%
X17483479Y-30428243D03*
D18*
%TO.P,DebuggerPins1,2,Pin_2*%
%TO.N,+5V*%
X17483479Y-32968243D03*
%TO.P,DebuggerPins1,3,Pin_3*%
%TO.N,GND*%
X17483479Y-35508243D03*
%TO.P,DebuggerPins1,4,Pin_4*%
%TO.N,Coil_1*%
X17483479Y-38048243D03*
%TO.P,DebuggerPins1,5,Pin_5*%
%TO.N,Coil_2*%
X17483479Y-40588243D03*
%TD*%
D13*
%TO.P,R5,1*%
%TO.N,GND*%
X42248479Y-29539243D03*
D16*
%TO.P,R5,2*%
%TO.N,Control_Input*%
X49868479Y-29539243D03*
%TD*%
D13*
%TO.P,R2,1*%
%TO.N,Coil_2*%
X55710479Y-37286243D03*
D16*
%TO.P,R2,2*%
%TO.N,Net-(Q2-Pad2)*%
X63330479Y-37286243D03*
%TD*%
D13*
%TO.P,R4,1*%
%TO.N,Coil_4*%
X55583479Y-48716243D03*
D16*
%TO.P,R4,2*%
%TO.N,Net-(Q4-Pad2)*%
X63203479Y-48716243D03*
%TD*%
D19*
%TO.P,PowerRegulator1,1,VI*%
%TO.N,+12V*%
X27643479Y-40588243D03*
D20*
%TO.P,PowerRegulator1,2,GND*%
%TO.N,GND*%
X27643479Y-38048243D03*
%TO.P,PowerRegulator1,3,VO*%
%TO.N,+5V*%
X27643479Y-35508243D03*
%TD*%
D17*
%TO.P,Output1,1,Pin_1*%
%TO.N,+5V*%
X86825479Y-47065243D03*
D18*
%TO.P,Output1,2,Pin_2*%
%TO.N,Net-(D4-Pad1)*%
X86825479Y-44525243D03*
%TO.P,Output1,3,Pin_3*%
%TO.N,Net-(D3-Pad1)*%
X86825479Y-41985243D03*
%TO.P,Output1,4,Pin_4*%
%TO.N,Net-(D2-Pad1)*%
X86825479Y-39445243D03*
%TO.P,Output1,5,Pin_5*%
%TO.N,Net-(D1-Pad1)*%
X86825479Y-36905243D03*
%TD*%
D17*
%TO.P,Input1,1,Pin_1*%
%TO.N,GND*%
X32850479Y-34253243D03*
D18*
%TO.P,Input1,2,Pin_2*%
%TO.N,+12V*%
X32850479Y-36793243D03*
%TO.P,Input1,3,Pin_3*%
%TO.N,Control_Input*%
X32850479Y-39333243D03*
%TD*%
D10*
%TO.P,Q2,1,E*%
%TO.N,GND*%
X67500479Y-38556243D03*
D11*
%TO.P,Q2,2,B*%
%TO.N,Net-(Q2-Pad2)*%
X67500479Y-37286243D03*
%TO.P,Q2,3,C*%
%TO.N,Net-(D2-Pad1)*%
X67500479Y-36016243D03*
%TD*%
D13*
%TO.P,R1,1*%
%TO.N,Coil_1*%
X55456479Y-31063243D03*
D16*
%TO.P,R1,2*%
%TO.N,Net-(Q1-Pad2)*%
X63076479Y-31063243D03*
%TD*%
D10*
%TO.P,Q1,1,E*%
%TO.N,GND*%
X67119479Y-32333243D03*
D11*
%TO.P,Q1,2,B*%
%TO.N,Net-(Q1-Pad2)*%
X67119479Y-31063243D03*
%TO.P,Q1,3,C*%
%TO.N,Net-(D1-Pad1)*%
X67119479Y-29793243D03*
%TD*%
D14*
%TO.P,D2,1,K*%
%TO.N,Net-(D2-Pad1)*%
X73490479Y-40334243D03*
D15*
%TO.P,D2,2,A*%
%TO.N,+5V*%
X81110479Y-40334243D03*
%TD*%
D21*
%TO.N,GND*%
X48298359Y-22046243D02*
X48298359Y-18699355D01*
X65108479Y-44779243D02*
X67373479Y-44779243D01*
X50132479Y-29803243D02*
X49868479Y-29539243D01*
X61803968Y-49295941D02*
X61803968Y-48083754D01*
X63687979Y-40818743D02*
X61803968Y-42702754D01*
X64155979Y-34428743D02*
X58250479Y-28523243D01*
X61803968Y-44395732D02*
X63584479Y-46176243D01*
X66251479Y-32333243D02*
X67119479Y-32333243D01*
X47361960Y-16836732D02*
X48761471Y-18236243D01*
X61803968Y-42702754D02*
X61803968Y-44395732D01*
X32850479Y-34253243D02*
X32850479Y-29668026D01*
X57234479Y-29539243D02*
X49868479Y-29539243D01*
X61803968Y-48083754D02*
X63711479Y-46176243D01*
X67500479Y-50240243D02*
X62748270Y-50240243D01*
X64155979Y-34428743D02*
X66251479Y-32333243D01*
X50132479Y-33867243D02*
X50132479Y-29803243D01*
X63711479Y-46176243D02*
X65108479Y-44779243D01*
X63584479Y-46176243D02*
X63711479Y-46176243D01*
X61930968Y-36653754D02*
X64155979Y-34428743D01*
X48298359Y-18699355D02*
X48761471Y-18236243D01*
X45681773Y-16836732D02*
X47361960Y-16836732D01*
X58250479Y-28523243D02*
X57234479Y-29539243D01*
X63687979Y-40818743D02*
X61930968Y-39061732D01*
X48761471Y-18236243D02*
X49035471Y-18236243D01*
X67500479Y-38556243D02*
X65950479Y-38556243D01*
X65950479Y-38556243D02*
X63687979Y-40818743D01*
X62748270Y-50240243D02*
X61803968Y-49295941D01*
X32850479Y-29668026D02*
X45681773Y-16836732D01*
X49868479Y-23616363D02*
X48298359Y-22046243D01*
X49868479Y-29539243D02*
X49868479Y-23616363D01*
X61930968Y-39061732D02*
X61930968Y-36653754D01*
%TO.N,+5V*%
X81110479Y-46430243D02*
X76157479Y-51383243D01*
X36259457Y-36793243D02*
X32850479Y-36793243D01*
X40848968Y-32203732D02*
X36259457Y-36793243D01*
X76157479Y-51383243D02*
X41994479Y-51383243D01*
X41994479Y-51383243D02*
X30056479Y-39445243D01*
X80856479Y-37159243D02*
X80856479Y-46176243D01*
X46261471Y-18236243D02*
X46261471Y-21583131D01*
X86825479Y-47065243D02*
X81745479Y-47065243D01*
X45798359Y-22046243D02*
X40848968Y-26995634D01*
X80856479Y-46176243D02*
X81110479Y-46430243D01*
X81745479Y-47065243D02*
X81110479Y-46430243D01*
X40848968Y-26995634D02*
X40848968Y-32203732D01*
X40848968Y-32203732D02*
X42512479Y-33867243D01*
X30198479Y-39445243D02*
X32850479Y-36793243D01*
X30056479Y-39445243D02*
X30198479Y-39445243D01*
X46261471Y-21583131D02*
X45798359Y-22046243D01*
%TO.N,Net-(D1-Pad1)*%
X73236479Y-34360243D02*
X73236479Y-37159243D01*
X73236479Y-37159243D02*
X77584550Y-32811172D01*
X68669479Y-29793243D02*
X73236479Y-34360243D01*
X67119479Y-29793243D02*
X68669479Y-29793243D01*
X82731408Y-32811172D02*
X86825479Y-36905243D01*
X77584550Y-32811172D02*
X82731408Y-32811172D01*
%TO.N,Net-(D2-Pad1)*%
X82243494Y-33810692D02*
X84459029Y-36026227D01*
X73490479Y-39789677D02*
X79469464Y-33810692D01*
X73490479Y-40334243D02*
X73490479Y-39789677D01*
X79469464Y-33810692D02*
X82243494Y-33810692D01*
X84459030Y-39826243D02*
X84840030Y-39445243D01*
X67500479Y-36016243D02*
X69172479Y-36016243D01*
X69172479Y-36016243D02*
X73490479Y-40334243D01*
X84840030Y-39445243D02*
X86825479Y-39445243D01*
X84459029Y-36026227D02*
X84459030Y-39826243D01*
%TO.N,Net-(D3-Pad1)*%
X83459510Y-36440242D02*
X83459510Y-41477243D01*
X78507449Y-38365273D02*
X78507449Y-36186241D01*
X83459510Y-41477243D02*
X83967510Y-41985243D01*
X79883478Y-34810212D02*
X81829481Y-34810213D01*
X83967510Y-41985243D02*
X86825479Y-41985243D01*
X81829481Y-34810213D02*
X83459510Y-36440242D01*
X72347479Y-42239243D02*
X73490479Y-43382243D01*
X86576479Y-41736243D02*
X86825479Y-41985243D01*
X67373479Y-42239243D02*
X72347479Y-42239243D01*
X73490479Y-43382243D02*
X78507449Y-38365273D01*
X78507449Y-36186241D02*
X79883478Y-34810212D01*
%TO.N,Net-(D4-Pad1)*%
X81415466Y-35809732D02*
X82459990Y-36854256D01*
X73490479Y-46430243D02*
X79506968Y-40413754D01*
X80297492Y-35809732D02*
X81415466Y-35809732D01*
X72220479Y-47700243D02*
X73490479Y-46430243D01*
X82459990Y-44572732D02*
X82507479Y-44525243D01*
X82459990Y-36854256D02*
X82459990Y-44572732D01*
X82507479Y-44525243D02*
X86825479Y-44525243D01*
X79506968Y-36600256D02*
X80297492Y-35809732D01*
X79506968Y-40413754D02*
X79506968Y-36600256D01*
X67500479Y-47700243D02*
X72220479Y-47700243D01*
%TO.N,Control_Input*%
X48732968Y-36023732D02*
X48732968Y-42119732D01*
X32850479Y-39333243D02*
X40358479Y-39333243D01*
X56469968Y-50115754D02*
X51140990Y-50115754D01*
X48732968Y-42119732D02*
X53929968Y-47316732D01*
X56215968Y-47316732D02*
X56982990Y-48083754D01*
X53929968Y-47316732D02*
X56215968Y-47316732D01*
X42248479Y-29539243D02*
X48732968Y-36023732D01*
X51140990Y-50115754D02*
X42512479Y-41487243D01*
X40358479Y-39333243D02*
X42512479Y-41487243D01*
X56982990Y-48083754D02*
X56982990Y-49602732D01*
X56982990Y-49602732D02*
X56469968Y-50115754D01*
%TO.N,Net-(Q1-Pad2)*%
X63076479Y-31063243D02*
X67119479Y-31063243D01*
%TO.N,Net-(Q2-Pad2)*%
X63330479Y-37286243D02*
X67500479Y-37286243D01*
%TO.N,Net-(Q4-Pad2)*%
X63203479Y-48716243D02*
X63457479Y-48970243D01*
X63457479Y-48970243D02*
X67500479Y-48970243D01*
%TO.N,Coil_1*%
X50132479Y-36387243D02*
X55456479Y-31063243D01*
X50132479Y-36407243D02*
X50132479Y-36387243D01*
%TO.N,Coil_2*%
X54049479Y-38947243D02*
X55710479Y-37286243D01*
X50132479Y-38947243D02*
X54049479Y-38947243D01*
%TO.N,Coil_3*%
X50132479Y-41487243D02*
X53307479Y-41487243D01*
X53307479Y-41487243D02*
X55583479Y-43763243D01*
%TO.N,Coil_4*%
X52281479Y-48716243D02*
X55583479Y-48716243D01*
X42512479Y-38947243D02*
X52281479Y-48716243D01*
%TO.N,Net-(Q3-Pad2)*%
X63457479Y-43509243D02*
X67373479Y-43509243D01*
X63203479Y-43763243D02*
X63457479Y-43509243D01*
%TD*%
M02*
