%TF.GenerationSoftware,KiCad,Pcbnew,(6.0.4-0)*%
%TF.CreationDate,2022-12-27T16:27:32+02:00*%
%TF.ProjectId,unipolar stepper driver,756e6970-6f6c-4617-9220-737465707065,rev?*%
%TF.SameCoordinates,Original*%
%TF.FileFunction,Copper,L1,Top*%
%TF.FilePolarity,Positive*%
%FSLAX46Y46*%
G04 Gerber Fmt 4.6, Leading zero omitted, Abs format (unit mm)*
G04 Created by KiCad (PCBNEW (6.0.4-0)) date 2022-12-27 16:27:32*
%MOMM*%
%LPD*%
G01*
G04 APERTURE LIST*
%ADD10C,0.375000*%
%TA.AperFunction,NonConductor*%
%ADD11C,0.375000*%
%TD*%
%TA.AperFunction,ComponentPad*%
%ADD12O,1.600000X1.600000*%
%TD*%
%TA.AperFunction,ComponentPad*%
%ADD13R,1.600000X1.600000*%
%TD*%
%TA.AperFunction,ComponentPad*%
%ADD14C,1.600000*%
%TD*%
%TA.AperFunction,ComponentPad*%
%ADD15R,1.500000X1.050000*%
%TD*%
%TA.AperFunction,ComponentPad*%
%ADD16O,1.500000X1.050000*%
%TD*%
%TA.AperFunction,ComponentPad*%
%ADD17R,2.000000X1.905000*%
%TD*%
%TA.AperFunction,ComponentPad*%
%ADD18O,2.000000X1.905000*%
%TD*%
%TA.AperFunction,ComponentPad*%
%ADD19O,1.700000X1.700000*%
%TD*%
%TA.AperFunction,ComponentPad*%
%ADD20R,1.700000X1.700000*%
%TD*%
%TA.AperFunction,ComponentPad*%
%ADD21R,1.500000X1.500000*%
%TD*%
%TA.AperFunction,ComponentPad*%
%ADD22O,1.500000X1.500000*%
%TD*%
%TA.AperFunction,Conductor*%
%ADD23C,0.800000*%
%TD*%
G04 APERTURE END LIST*
D10*
D11*
X37800000Y-6798571D02*
X37800000Y-8012857D01*
X37871428Y-8155714D01*
X37942857Y-8227142D01*
X38085714Y-8298571D01*
X38371428Y-8298571D01*
X38514285Y-8227142D01*
X38585714Y-8155714D01*
X38657142Y-8012857D01*
X38657142Y-6798571D01*
X39371428Y-7298571D02*
X39371428Y-8298571D01*
X39371428Y-7441428D02*
X39442857Y-7370000D01*
X39585714Y-7298571D01*
X39800000Y-7298571D01*
X39942857Y-7370000D01*
X40014285Y-7512857D01*
X40014285Y-8298571D01*
X40728571Y-8298571D02*
X40728571Y-7298571D01*
X40728571Y-6798571D02*
X40657142Y-6870000D01*
X40728571Y-6941428D01*
X40800000Y-6870000D01*
X40728571Y-6798571D01*
X40728571Y-6941428D01*
X41442857Y-7298571D02*
X41442857Y-8798571D01*
X41442857Y-7370000D02*
X41585714Y-7298571D01*
X41871428Y-7298571D01*
X42014285Y-7370000D01*
X42085714Y-7441428D01*
X42157142Y-7584285D01*
X42157142Y-8012857D01*
X42085714Y-8155714D01*
X42014285Y-8227142D01*
X41871428Y-8298571D01*
X41585714Y-8298571D01*
X41442857Y-8227142D01*
X43014285Y-8298571D02*
X42871428Y-8227142D01*
X42800000Y-8155714D01*
X42728571Y-8012857D01*
X42728571Y-7584285D01*
X42800000Y-7441428D01*
X42871428Y-7370000D01*
X43014285Y-7298571D01*
X43228571Y-7298571D01*
X43371428Y-7370000D01*
X43442857Y-7441428D01*
X43514285Y-7584285D01*
X43514285Y-8012857D01*
X43442857Y-8155714D01*
X43371428Y-8227142D01*
X43228571Y-8298571D01*
X43014285Y-8298571D01*
X44371428Y-8298571D02*
X44228571Y-8227142D01*
X44157142Y-8084285D01*
X44157142Y-6798571D01*
X45585714Y-8298571D02*
X45585714Y-7512857D01*
X45514285Y-7370000D01*
X45371428Y-7298571D01*
X45085714Y-7298571D01*
X44942857Y-7370000D01*
X45585714Y-8227142D02*
X45442857Y-8298571D01*
X45085714Y-8298571D01*
X44942857Y-8227142D01*
X44871428Y-8084285D01*
X44871428Y-7941428D01*
X44942857Y-7798571D01*
X45085714Y-7727142D01*
X45442857Y-7727142D01*
X45585714Y-7655714D01*
X46300000Y-8298571D02*
X46300000Y-7298571D01*
X46300000Y-7584285D02*
X46371428Y-7441428D01*
X46442857Y-7370000D01*
X46585714Y-7298571D01*
X46728571Y-7298571D01*
X48300000Y-8227142D02*
X48514285Y-8298571D01*
X48871428Y-8298571D01*
X49014285Y-8227142D01*
X49085714Y-8155714D01*
X49157142Y-8012857D01*
X49157142Y-7870000D01*
X49085714Y-7727142D01*
X49014285Y-7655714D01*
X48871428Y-7584285D01*
X48585714Y-7512857D01*
X48442857Y-7441428D01*
X48371428Y-7370000D01*
X48300000Y-7227142D01*
X48300000Y-7084285D01*
X48371428Y-6941428D01*
X48442857Y-6870000D01*
X48585714Y-6798571D01*
X48942857Y-6798571D01*
X49157142Y-6870000D01*
X49585714Y-7298571D02*
X50157142Y-7298571D01*
X49800000Y-6798571D02*
X49800000Y-8084285D01*
X49871428Y-8227142D01*
X50014285Y-8298571D01*
X50157142Y-8298571D01*
X51228571Y-8227142D02*
X51085714Y-8298571D01*
X50800000Y-8298571D01*
X50657142Y-8227142D01*
X50585714Y-8084285D01*
X50585714Y-7512857D01*
X50657142Y-7370000D01*
X50800000Y-7298571D01*
X51085714Y-7298571D01*
X51228571Y-7370000D01*
X51300000Y-7512857D01*
X51300000Y-7655714D01*
X50585714Y-7798571D01*
X51942857Y-7298571D02*
X51942857Y-8798571D01*
X51942857Y-7370000D02*
X52085714Y-7298571D01*
X52371428Y-7298571D01*
X52514285Y-7370000D01*
X52585714Y-7441428D01*
X52657142Y-7584285D01*
X52657142Y-8012857D01*
X52585714Y-8155714D01*
X52514285Y-8227142D01*
X52371428Y-8298571D01*
X52085714Y-8298571D01*
X51942857Y-8227142D01*
X53300000Y-7298571D02*
X53300000Y-8798571D01*
X53300000Y-7370000D02*
X53442857Y-7298571D01*
X53728571Y-7298571D01*
X53871428Y-7370000D01*
X53942857Y-7441428D01*
X54014285Y-7584285D01*
X54014285Y-8012857D01*
X53942857Y-8155714D01*
X53871428Y-8227142D01*
X53728571Y-8298571D01*
X53442857Y-8298571D01*
X53300000Y-8227142D01*
X55228571Y-8227142D02*
X55085714Y-8298571D01*
X54800000Y-8298571D01*
X54657142Y-8227142D01*
X54585714Y-8084285D01*
X54585714Y-7512857D01*
X54657142Y-7370000D01*
X54800000Y-7298571D01*
X55085714Y-7298571D01*
X55228571Y-7370000D01*
X55300000Y-7512857D01*
X55300000Y-7655714D01*
X54585714Y-7798571D01*
X55942857Y-8298571D02*
X55942857Y-7298571D01*
X55942857Y-7584285D02*
X56014285Y-7441428D01*
X56085714Y-7370000D01*
X56228571Y-7298571D01*
X56371428Y-7298571D01*
X58014285Y-8298571D02*
X58014285Y-6798571D01*
X58371428Y-6798571D01*
X58585714Y-6870000D01*
X58728571Y-7012857D01*
X58800000Y-7155714D01*
X58871428Y-7441428D01*
X58871428Y-7655714D01*
X58800000Y-7941428D01*
X58728571Y-8084285D01*
X58585714Y-8227142D01*
X58371428Y-8298571D01*
X58014285Y-8298571D01*
X59514285Y-8298571D02*
X59514285Y-7298571D01*
X59514285Y-7584285D02*
X59585714Y-7441428D01*
X59657142Y-7370000D01*
X59800000Y-7298571D01*
X59942857Y-7298571D01*
X60442857Y-8298571D02*
X60442857Y-7298571D01*
X60442857Y-6798571D02*
X60371428Y-6870000D01*
X60442857Y-6941428D01*
X60514285Y-6870000D01*
X60442857Y-6798571D01*
X60442857Y-6941428D01*
X61014285Y-7298571D02*
X61371428Y-8298571D01*
X61728571Y-7298571D01*
X62871428Y-8227142D02*
X62728571Y-8298571D01*
X62442857Y-8298571D01*
X62300000Y-8227142D01*
X62228571Y-8084285D01*
X62228571Y-7512857D01*
X62300000Y-7370000D01*
X62442857Y-7298571D01*
X62728571Y-7298571D01*
X62871428Y-7370000D01*
X62942857Y-7512857D01*
X62942857Y-7655714D01*
X62228571Y-7798571D01*
X63585714Y-8298571D02*
X63585714Y-7298571D01*
X63585714Y-7584285D02*
X63657142Y-7441428D01*
X63728571Y-7370000D01*
X63871428Y-7298571D01*
X64014285Y-7298571D01*
D12*
%TO.P,uC1,8,VSS*%
%TO.N,GND*%
X30236000Y4054000D03*
%TO.P,uC1,7,GP0*%
%TO.N,Coil_1*%
X30236000Y1514000D03*
%TO.P,uC1,6,GP1*%
%TO.N,Coil_2*%
X30236000Y-1026000D03*
%TO.P,uC1,5,GP2*%
%TO.N,Coil_3*%
X30236000Y-3566000D03*
%TO.P,uC1,4,GP3*%
%TO.N,Control_Input*%
X22616000Y-3566000D03*
%TO.P,uC1,3,GP4*%
%TO.N,Coil_4*%
X22616000Y-1026000D03*
%TO.P,uC1,2,GP5*%
%TO.N,unconnected-(uC1-Pad2)*%
X22616000Y1514000D03*
D13*
%TO.P,uC1,1,VDD*%
%TO.N,+5V*%
X22616000Y4054000D03*
%TD*%
D12*
%TO.P,R5,2*%
%TO.N,Control_Input*%
X17780000Y7918886D03*
D14*
%TO.P,R5,1*%
%TO.N,GND*%
X17780000Y15538886D03*
%TD*%
%TO.P,R4,1*%
%TO.N,Coil_4*%
X34544000Y-3556000D03*
D12*
%TO.P,R4,2*%
%TO.N,Net-(Q4-Pad2)*%
X42164000Y-3556000D03*
%TD*%
D14*
%TO.P,R3,1*%
%TO.N,Coil_3*%
X34544000Y1778000D03*
D12*
%TO.P,R3,2*%
%TO.N,Net-(Q3-Pad2)*%
X42164000Y1778000D03*
%TD*%
D14*
%TO.P,R2,1*%
%TO.N,Coil_2*%
X34544000Y7112000D03*
D12*
%TO.P,R2,2*%
%TO.N,Net-(Q2-Pad2)*%
X42164000Y7112000D03*
%TD*%
D14*
%TO.P,R1,1*%
%TO.N,Coil_1*%
X34544000Y12700000D03*
D12*
%TO.P,R1,2*%
%TO.N,Net-(Q1-Pad2)*%
X42164000Y12700000D03*
%TD*%
D15*
%TO.P,Q4,1,E*%
%TO.N,GND*%
X45974000Y-4826000D03*
D16*
%TO.P,Q4,2,B*%
%TO.N,Net-(Q4-Pad2)*%
X45974000Y-3556000D03*
%TO.P,Q4,3,C*%
%TO.N,Net-(D4-Pad1)*%
X45974000Y-2286000D03*
%TD*%
D15*
%TO.P,Q3,1,E*%
%TO.N,GND*%
X45974000Y508000D03*
D16*
%TO.P,Q3,2,B*%
%TO.N,Net-(Q3-Pad2)*%
X45974000Y1778000D03*
%TO.P,Q3,3,C*%
%TO.N,Net-(D3-Pad1)*%
X45974000Y3048000D03*
%TD*%
D15*
%TO.P,Q2,1,E*%
%TO.N,GND*%
X45974000Y5842000D03*
D16*
%TO.P,Q2,2,B*%
%TO.N,Net-(Q2-Pad2)*%
X45974000Y7112000D03*
%TO.P,Q2,3,C*%
%TO.N,Net-(D2-Pad1)*%
X45974000Y8382000D03*
%TD*%
D15*
%TO.P,Q1,1,E*%
%TO.N,GND*%
X45974000Y11324000D03*
D16*
%TO.P,Q1,2,B*%
%TO.N,Net-(Q1-Pad2)*%
X45974000Y12594000D03*
%TO.P,Q1,3,C*%
%TO.N,Net-(D1-Pad1)*%
X45974000Y13864000D03*
%TD*%
D17*
%TO.P,PowerRegulator1,1,VI*%
%TO.N,+12V*%
X27178000Y14478000D03*
D18*
%TO.P,PowerRegulator1,2,GND*%
%TO.N,GND*%
X27178000Y11938000D03*
%TO.P,PowerRegulator1,3,VO*%
%TO.N,+5V*%
X27178000Y9398000D03*
%TD*%
D19*
%TO.P,Output1,5,Pin_5*%
%TO.N,Net-(D1-Pad1)*%
X62230000Y9403000D03*
%TO.P,Output1,4,Pin_4*%
%TO.N,Net-(D2-Pad1)*%
X62230000Y6863000D03*
%TO.P,Output1,3,Pin_3*%
%TO.N,Net-(D3-Pad1)*%
X62230000Y4323000D03*
%TO.P,Output1,2,Pin_2*%
%TO.N,Net-(D4-Pad1)*%
X62230000Y1783000D03*
D20*
%TO.P,Output1,1,Pin_1*%
%TO.N,+5V*%
X62230000Y-757000D03*
%TD*%
%TO.P,Input1,1,Pin_1*%
%TO.N,GND*%
X14986000Y15523886D03*
D19*
%TO.P,Input1,2,Pin_2*%
%TO.N,+12V*%
X14986000Y12983886D03*
%TO.P,Input1,3,Pin_3*%
%TO.N,Control_Input*%
X14986000Y10443886D03*
%TD*%
D20*
%TO.P,DebuggerPins1,1,Pin_1*%
%TO.N,Control_Input*%
X14986000Y6902886D03*
D19*
%TO.P,DebuggerPins1,2,Pin_2*%
%TO.N,+5V*%
X14986000Y4362886D03*
%TO.P,DebuggerPins1,3,Pin_3*%
%TO.N,GND*%
X14986000Y1822886D03*
%TO.P,DebuggerPins1,4,Pin_4*%
%TO.N,Coil_1*%
X14986000Y-717114D03*
%TO.P,DebuggerPins1,5,Pin_5*%
%TO.N,Coil_2*%
X14986000Y-3257114D03*
%TD*%
D21*
%TO.P,D4,1,K*%
%TO.N,Net-(D4-Pad1)*%
X49017000Y-3556000D03*
D22*
%TO.P,D4,2,A*%
%TO.N,+5V*%
X56637000Y-3556000D03*
%TD*%
D21*
%TO.P,D3,1,K*%
%TO.N,Net-(D3-Pad1)*%
X49017000Y1778000D03*
D22*
%TO.P,D3,2,A*%
%TO.N,+5V*%
X56637000Y1778000D03*
%TD*%
D21*
%TO.P,D2,1,K*%
%TO.N,Net-(D2-Pad1)*%
X49017000Y6858000D03*
D22*
%TO.P,D2,2,A*%
%TO.N,+5V*%
X56637000Y6858000D03*
%TD*%
D21*
%TO.P,D1,1,K*%
%TO.N,Net-(D1-Pad1)*%
X49017000Y12446000D03*
D22*
%TO.P,D1,2,A*%
%TO.N,+5V*%
X56637000Y12446000D03*
%TD*%
D14*
%TO.P,CP1,2*%
%TO.N,GND*%
X22098000Y11245774D03*
D13*
%TO.P,CP1,1*%
%TO.N,+5V*%
X22098000Y8745774D03*
%TD*%
D14*
%TO.P,C1,2*%
%TO.N,+5V*%
X22098000Y14010000D03*
%TO.P,C1,1*%
%TO.N,GND*%
X22098000Y16510000D03*
%TD*%
D23*
%TO.N,GND*%
X14986000Y1822886D02*
X13536489Y373375D01*
X13536489Y373375D02*
X13536489Y-3857522D01*
X13536489Y-3857522D02*
X17643037Y-7964070D01*
X17643037Y-7964070D02*
X31541247Y-7964070D01*
X31541247Y-7964070D02*
X33550287Y-5955030D01*
X14986000Y1822886D02*
X13536489Y3272397D01*
X13536489Y3272397D02*
X13536489Y14074375D01*
X13536489Y14074375D02*
X14986000Y15523886D01*
%TO.N,Coil_2*%
X30236000Y-1026000D02*
X24297449Y-6964551D01*
X24297449Y-6964551D02*
X18693437Y-6964551D01*
X18693437Y-6964551D02*
X14986000Y-3257114D01*
%TO.N,Coil_1*%
X30236000Y1514000D02*
X25383520Y-3338480D01*
X25383520Y-3338480D02*
X25383520Y-4191223D01*
X25383520Y-4191223D02*
X23609712Y-5965031D01*
X23609712Y-5965031D02*
X21622288Y-5965031D01*
X21622288Y-5965031D02*
X16374371Y-717114D01*
X16374371Y-717114D02*
X14986000Y-717114D01*
%TO.N,+5V*%
X24384000Y-3777209D02*
X24384000Y-2175534D01*
X28836488Y2276954D02*
X28836489Y6263557D01*
X23195698Y-4965511D02*
X24384000Y-3777209D01*
X24384000Y-2175534D02*
X28836488Y2276954D01*
X33020000Y18034000D02*
X26018466Y18034000D01*
X26018466Y18034000D02*
X22098000Y14113534D01*
X22098000Y14113534D02*
X22098000Y14010000D01*
%TO.N,GND*%
X17780000Y15538886D02*
X20275114Y15538886D01*
X20320000Y9467774D02*
X20320000Y15494000D01*
X20275114Y15538886D02*
X21126886Y15538886D01*
X20320000Y15494000D02*
X20275114Y15538886D01*
X25908000Y16510000D02*
X24578961Y15180961D01*
X20320000Y7620000D02*
X20320000Y9467774D01*
X27178000Y11938000D02*
X27789522Y11938000D01*
X27789522Y11938000D02*
X28777511Y12925989D01*
X28777511Y12925989D02*
X28777511Y15926489D01*
X28194000Y16510000D02*
X25908000Y16510000D01*
X24578961Y15180961D02*
X24578961Y8720495D01*
X22462466Y6604000D02*
X21336000Y6604000D01*
X20320000Y9467774D02*
X22098000Y11245774D01*
X24578961Y8720495D02*
X22462466Y6604000D01*
X28777511Y15926489D02*
X28194000Y16510000D01*
X21336000Y6604000D02*
X20320000Y7620000D01*
X21126886Y15538886D02*
X22098000Y16510000D01*
%TO.N,+5V*%
X22098000Y14010000D02*
X23497511Y12610489D01*
X23497511Y12610489D02*
X23497511Y10145285D01*
X23497511Y10145285D02*
X22098000Y8745774D01*
%TO.N,GND*%
X14986000Y15523886D02*
X17765000Y15523886D01*
X17765000Y15523886D02*
X17780000Y15538886D01*
%TO.N,+12V*%
X27178000Y14478000D02*
X25578480Y12878480D01*
X25578480Y12878480D02*
X25578480Y8306480D01*
X19179511Y8790375D02*
X14986000Y12983886D01*
X25578480Y8306480D02*
X22860000Y5588000D01*
X22860000Y5588000D02*
X20828000Y5588000D01*
X20828000Y5588000D02*
X19179511Y7236489D01*
X19179511Y7236489D02*
X19179511Y8790375D01*
%TO.N,Control_Input*%
X17780000Y6002014D02*
X17873986Y6002014D01*
X17873986Y6002014D02*
X20574000Y3302000D01*
X20574000Y3302000D02*
X20574000Y-1524000D01*
X17780000Y7918886D02*
X17780000Y6002014D01*
X16002000Y7918886D02*
X15957114Y7918886D01*
X15957114Y7918886D02*
X14986000Y8890000D01*
X14986000Y8890000D02*
X14986000Y10443886D01*
X17780000Y7918886D02*
X16002000Y7918886D01*
X16002000Y7918886D02*
X14986000Y6902886D01*
X20574000Y-1524000D02*
X22616000Y-3566000D01*
%TO.N,+5V*%
X22616000Y4054000D02*
X22739534Y4054000D01*
X27178000Y8492466D02*
X27178000Y9398000D01*
X22739534Y4054000D02*
X27178000Y8492466D01*
X30145930Y11603930D02*
X27940000Y9398000D01*
X27940000Y9398000D02*
X27178000Y9398000D01*
X33528000Y18034000D02*
X33020000Y18034000D01*
X30145930Y11603930D02*
X30145930Y15159930D01*
X30145930Y15159930D02*
X33020000Y18034000D01*
X35306000Y18034000D02*
X33528000Y18034000D01*
X58611634Y18034000D02*
X35306000Y18034000D01*
X19574480Y-2503689D02*
X22036302Y-4965511D01*
X37764372Y1077906D02*
X34726233Y-1960233D01*
X28836489Y6263557D02*
X32144969Y9572037D01*
X18005594Y4362886D02*
X19574480Y2794000D01*
X22036302Y-4965511D02*
X23195698Y-4965511D01*
X32144969Y9572037D02*
X32144970Y13693713D01*
X34726233Y-1960233D02*
X34160558Y-1960233D01*
X15748000Y4362886D02*
X18005594Y4362886D01*
X33964302Y-4955511D02*
X35123698Y-4955511D01*
X32144970Y13693713D02*
X33674777Y15223520D01*
X33144489Y-2976302D02*
X33144489Y-4135698D01*
X33674777Y15223520D02*
X35413224Y15223519D01*
X37764372Y12872371D02*
X37764372Y1077906D01*
X19574480Y2794000D02*
X19574480Y-2503689D01*
X35413224Y15223519D02*
X37764372Y12872371D01*
X34160558Y-1960233D02*
X33144489Y-2976302D01*
X33144489Y-4135698D02*
X33964302Y-4955511D01*
X35123698Y-4955511D02*
X35943511Y-4135698D01*
X35943511Y-4135698D02*
X35943511Y-3570023D01*
X35943511Y-3570023D02*
X39763411Y249877D01*
X36576000Y18034000D02*
X35306000Y18034000D01*
X39763411Y249877D02*
X39763411Y14846589D01*
X39763411Y14846589D02*
X36576000Y18034000D01*
X62230000Y-757000D02*
X63679511Y692511D01*
X63679511Y692511D02*
X63679511Y12966123D01*
X63679511Y12966123D02*
X58611634Y18034000D01*
%TO.N,Coil_3*%
X30236000Y-3038000D02*
X33020000Y-254000D01*
X33020000Y-254000D02*
X33020000Y254000D01*
X33020000Y254000D02*
X34544000Y1778000D01*
X30236000Y-3566000D02*
X30236000Y-3038000D01*
%TO.N,GND*%
X30236000Y4054000D02*
X30236000Y6249534D01*
X30236000Y6249534D02*
X33144489Y9158023D01*
X33144489Y13279698D02*
X34088791Y14224000D01*
X33144489Y9158023D02*
X33144489Y13279698D01*
X36764852Y2019643D02*
X35123698Y378489D01*
X32144969Y-2562288D02*
X32144970Y-4549713D01*
X34088791Y14224000D02*
X34999209Y14224000D01*
X34999209Y14224000D02*
X36764852Y12458357D01*
X36764852Y12458357D02*
X36764852Y2019643D01*
X35123698Y378489D02*
X35085746Y378489D01*
X40584783Y-5955030D02*
X41584302Y-4955511D01*
X35085746Y378489D02*
X32144969Y-2562288D01*
X32144970Y-4549713D02*
X33550287Y-5955030D01*
X33550287Y-5955030D02*
X40584783Y-5955030D01*
X44396791Y11324000D02*
X40764489Y7691698D01*
X40764489Y6479511D02*
X42825396Y4418604D01*
X40764489Y7691698D02*
X40764489Y6479511D01*
%TO.N,Coil_4*%
X22616000Y-1026000D02*
X24120000Y-1026000D01*
X35827237Y16223040D02*
X38763891Y13286386D01*
X27836969Y2690969D02*
X27836970Y6754970D01*
X27836970Y6754970D02*
X31145449Y10063449D01*
X31145449Y10063449D02*
X31145451Y14107728D01*
X24120000Y-1026000D02*
X27836969Y2690969D01*
X31145451Y14107728D02*
X33260763Y16223040D01*
X33260763Y16223040D02*
X35827237Y16223040D01*
X38763891Y13286386D02*
X38763891Y663891D01*
X38763891Y663891D02*
X34544000Y-3556000D01*
%TO.N,GND*%
X45844489Y-4955511D02*
X42293511Y-4955511D01*
X42293511Y-4955511D02*
X41584302Y-4955511D01*
%TO.N,+5V*%
X22307114Y4362886D02*
X22616000Y4054000D01*
%TO.N,Coil_2*%
X32749519Y2613985D02*
X31831767Y1696233D01*
X34544000Y7112000D02*
X32749520Y5317520D01*
X31831767Y569767D02*
X30236000Y-1026000D01*
X32749520Y5317520D02*
X32749519Y2613985D01*
X31831767Y1696233D02*
X31831767Y569767D01*
%TO.N,Coil_1*%
X30236000Y1514000D02*
X31750000Y3028000D01*
X31750000Y3028000D02*
X31750000Y6350000D01*
X31750000Y6350000D02*
X34544000Y9144000D01*
X34544000Y9144000D02*
X34544000Y12700000D01*
%TO.N,GND*%
X42317396Y3910604D02*
X40764489Y2357698D01*
X44248791Y5842000D02*
X42317396Y3910604D01*
X45974000Y11324000D02*
X44396791Y11324000D01*
X45974000Y5842000D02*
X44248791Y5842000D01*
X40764489Y2357698D02*
X40764489Y637511D01*
X40764489Y637511D02*
X42571396Y-1169396D01*
X45974000Y-4826000D02*
X45844489Y-4955511D01*
X41584302Y-4955511D02*
X40764489Y-4135698D01*
X40764489Y-2976302D02*
X44248791Y508000D01*
X40764489Y-4135698D02*
X40764489Y-2976302D01*
X44248791Y508000D02*
X45974000Y508000D01*
%TO.N,Net-(Q2-Pad2)*%
X45974000Y7112000D02*
X42164000Y7112000D01*
%TO.N,Net-(Q1-Pad2)*%
X45974000Y12594000D02*
X42270000Y12594000D01*
X42270000Y12594000D02*
X42164000Y12700000D01*
%TO.N,Net-(Q3-Pad2)*%
X45974000Y1778000D02*
X42164000Y1778000D01*
%TO.N,Net-(Q4-Pad2)*%
X45974000Y-3556000D02*
X42164000Y-3556000D01*
%TO.N,Net-(D4-Pad1)*%
X49017000Y-3556000D02*
X47747000Y-2286000D01*
X47747000Y-2286000D02*
X45974000Y-2286000D01*
%TO.N,Net-(D3-Pad1)*%
X49017000Y1778000D02*
X47747000Y3048000D01*
X47747000Y3048000D02*
X45974000Y3048000D01*
%TO.N,Net-(D2-Pad1)*%
X49017000Y6858000D02*
X47493000Y8382000D01*
X47493000Y8382000D02*
X45974000Y8382000D01*
%TO.N,Net-(D1-Pad1)*%
X49017000Y12446000D02*
X47599000Y13864000D01*
X47599000Y13864000D02*
X45974000Y13864000D01*
X62230000Y9403000D02*
X62230000Y13002100D01*
X58247062Y16985038D02*
X53556038Y16985038D01*
X62230000Y13002100D02*
X58247062Y16985038D01*
X53556038Y16985038D02*
X49017000Y12446000D01*
%TO.N,Net-(D2-Pad1)*%
X62230000Y6863000D02*
X60165040Y8927960D01*
X60165040Y8927960D02*
X60165038Y13653528D01*
X52610960Y13274028D02*
X52610960Y10414000D01*
X60165038Y13653528D02*
X57833047Y15985519D01*
X57833047Y15985519D02*
X55322451Y15985519D01*
X55322451Y15985519D02*
X52610960Y13274028D01*
X49054960Y6858000D02*
X49017000Y6858000D01*
X52610960Y10414000D02*
X49054960Y6858000D01*
%TO.N,Net-(D3-Pad1)*%
X62230000Y4323000D02*
X60176520Y4323000D01*
X55736466Y14986000D02*
X53610480Y12860014D01*
X60176520Y4323000D02*
X59165520Y5334000D01*
X59165520Y5334000D02*
X59165519Y13239513D01*
X59165519Y13239513D02*
X57419032Y14986000D01*
X57419032Y14986000D02*
X55736466Y14986000D01*
X53610480Y12860014D02*
X53610480Y6371480D01*
X53610480Y6371480D02*
X49017000Y1778000D01*
%TO.N,Net-(D4-Pad1)*%
X59431000Y1783000D02*
X58166000Y3048000D01*
X58166000Y12825498D02*
X57021498Y13970000D01*
X54610000Y12446000D02*
X54610000Y508000D01*
X58166000Y3048000D02*
X58166000Y12825498D01*
X50546000Y-3556000D02*
X49017000Y-3556000D01*
X62230000Y1783000D02*
X59431000Y1783000D01*
X57021498Y13970000D02*
X56134000Y13970000D01*
X54610000Y508000D02*
X50546000Y-3556000D01*
X56134000Y13970000D02*
X54610000Y12446000D01*
%TO.N,+5V*%
X62230000Y-757000D02*
X59172000Y-757000D01*
X59172000Y-757000D02*
X56637000Y1778000D01*
X56637000Y12446000D02*
X56637000Y-3556000D01*
%TD*%
M02*
