%TF.GenerationSoftware,KiCad,Pcbnew,7.0.6-7.0.6~ubuntu22.04.1*%
%TF.CreationDate,2023-07-20T23:08:20+03:00*%
%TF.ProjectId,unipolar stepper driver,756e6970-6f6c-4617-9220-737465707065,rev?*%
%TF.SameCoordinates,Original*%
%TF.FileFunction,Copper,L1,Top*%
%TF.FilePolarity,Positive*%
%FSLAX46Y46*%
G04 Gerber Fmt 4.6, Leading zero omitted, Abs format (unit mm)*
G04 Created by KiCad (PCBNEW 7.0.6-7.0.6~ubuntu22.04.1) date 2023-07-20 23:08:20*
%MOMM*%
%LPD*%
G01*
G04 APERTURE LIST*
%ADD10C,0.375000*%
%TA.AperFunction,NonConductor*%
%ADD11C,0.375000*%
%TD*%
%TA.AperFunction,ComponentPad*%
%ADD12R,1.500000X1.050000*%
%TD*%
%TA.AperFunction,ComponentPad*%
%ADD13O,1.500000X1.050000*%
%TD*%
%TA.AperFunction,ComponentPad*%
%ADD14C,1.600000*%
%TD*%
%TA.AperFunction,ComponentPad*%
%ADD15O,1.600000X1.600000*%
%TD*%
%TA.AperFunction,ComponentPad*%
%ADD16R,1.700000X1.700000*%
%TD*%
%TA.AperFunction,ComponentPad*%
%ADD17O,1.700000X1.700000*%
%TD*%
%TA.AperFunction,ComponentPad*%
%ADD18R,1.500000X1.500000*%
%TD*%
%TA.AperFunction,ComponentPad*%
%ADD19O,1.500000X1.500000*%
%TD*%
%TA.AperFunction,ComponentPad*%
%ADD20R,1.600000X1.600000*%
%TD*%
%TA.AperFunction,ComponentPad*%
%ADD21R,2.000000X1.905000*%
%TD*%
%TA.AperFunction,ComponentPad*%
%ADD22O,2.000000X1.905000*%
%TD*%
%TA.AperFunction,Conductor*%
%ADD23C,0.800000*%
%TD*%
%TA.AperFunction,Profile*%
%ADD24C,0.100000*%
%TD*%
G04 APERTURE END LIST*
D10*
D11*
X37800000Y-6794428D02*
X37800000Y-8008714D01*
X37800000Y-8008714D02*
X37871429Y-8151571D01*
X37871429Y-8151571D02*
X37942858Y-8223000D01*
X37942858Y-8223000D02*
X38085715Y-8294428D01*
X38085715Y-8294428D02*
X38371429Y-8294428D01*
X38371429Y-8294428D02*
X38514286Y-8223000D01*
X38514286Y-8223000D02*
X38585715Y-8151571D01*
X38585715Y-8151571D02*
X38657143Y-8008714D01*
X38657143Y-8008714D02*
X38657143Y-6794428D01*
X39371429Y-7294428D02*
X39371429Y-8294428D01*
X39371429Y-7437285D02*
X39442858Y-7365857D01*
X39442858Y-7365857D02*
X39585715Y-7294428D01*
X39585715Y-7294428D02*
X39800001Y-7294428D01*
X39800001Y-7294428D02*
X39942858Y-7365857D01*
X39942858Y-7365857D02*
X40014287Y-7508714D01*
X40014287Y-7508714D02*
X40014287Y-8294428D01*
X40728572Y-8294428D02*
X40728572Y-7294428D01*
X40728572Y-6794428D02*
X40657144Y-6865857D01*
X40657144Y-6865857D02*
X40728572Y-6937285D01*
X40728572Y-6937285D02*
X40800001Y-6865857D01*
X40800001Y-6865857D02*
X40728572Y-6794428D01*
X40728572Y-6794428D02*
X40728572Y-6937285D01*
X41442858Y-7294428D02*
X41442858Y-8794428D01*
X41442858Y-7365857D02*
X41585716Y-7294428D01*
X41585716Y-7294428D02*
X41871430Y-7294428D01*
X41871430Y-7294428D02*
X42014287Y-7365857D01*
X42014287Y-7365857D02*
X42085716Y-7437285D01*
X42085716Y-7437285D02*
X42157144Y-7580142D01*
X42157144Y-7580142D02*
X42157144Y-8008714D01*
X42157144Y-8008714D02*
X42085716Y-8151571D01*
X42085716Y-8151571D02*
X42014287Y-8223000D01*
X42014287Y-8223000D02*
X41871430Y-8294428D01*
X41871430Y-8294428D02*
X41585716Y-8294428D01*
X41585716Y-8294428D02*
X41442858Y-8223000D01*
X43014287Y-8294428D02*
X42871430Y-8223000D01*
X42871430Y-8223000D02*
X42800001Y-8151571D01*
X42800001Y-8151571D02*
X42728573Y-8008714D01*
X42728573Y-8008714D02*
X42728573Y-7580142D01*
X42728573Y-7580142D02*
X42800001Y-7437285D01*
X42800001Y-7437285D02*
X42871430Y-7365857D01*
X42871430Y-7365857D02*
X43014287Y-7294428D01*
X43014287Y-7294428D02*
X43228573Y-7294428D01*
X43228573Y-7294428D02*
X43371430Y-7365857D01*
X43371430Y-7365857D02*
X43442859Y-7437285D01*
X43442859Y-7437285D02*
X43514287Y-7580142D01*
X43514287Y-7580142D02*
X43514287Y-8008714D01*
X43514287Y-8008714D02*
X43442859Y-8151571D01*
X43442859Y-8151571D02*
X43371430Y-8223000D01*
X43371430Y-8223000D02*
X43228573Y-8294428D01*
X43228573Y-8294428D02*
X43014287Y-8294428D01*
X44371430Y-8294428D02*
X44228573Y-8223000D01*
X44228573Y-8223000D02*
X44157144Y-8080142D01*
X44157144Y-8080142D02*
X44157144Y-6794428D01*
X45585716Y-8294428D02*
X45585716Y-7508714D01*
X45585716Y-7508714D02*
X45514287Y-7365857D01*
X45514287Y-7365857D02*
X45371430Y-7294428D01*
X45371430Y-7294428D02*
X45085716Y-7294428D01*
X45085716Y-7294428D02*
X44942858Y-7365857D01*
X45585716Y-8223000D02*
X45442858Y-8294428D01*
X45442858Y-8294428D02*
X45085716Y-8294428D01*
X45085716Y-8294428D02*
X44942858Y-8223000D01*
X44942858Y-8223000D02*
X44871430Y-8080142D01*
X44871430Y-8080142D02*
X44871430Y-7937285D01*
X44871430Y-7937285D02*
X44942858Y-7794428D01*
X44942858Y-7794428D02*
X45085716Y-7723000D01*
X45085716Y-7723000D02*
X45442858Y-7723000D01*
X45442858Y-7723000D02*
X45585716Y-7651571D01*
X46300001Y-8294428D02*
X46300001Y-7294428D01*
X46300001Y-7580142D02*
X46371430Y-7437285D01*
X46371430Y-7437285D02*
X46442859Y-7365857D01*
X46442859Y-7365857D02*
X46585716Y-7294428D01*
X46585716Y-7294428D02*
X46728573Y-7294428D01*
X48300001Y-8223000D02*
X48514287Y-8294428D01*
X48514287Y-8294428D02*
X48871429Y-8294428D01*
X48871429Y-8294428D02*
X49014287Y-8223000D01*
X49014287Y-8223000D02*
X49085715Y-8151571D01*
X49085715Y-8151571D02*
X49157144Y-8008714D01*
X49157144Y-8008714D02*
X49157144Y-7865857D01*
X49157144Y-7865857D02*
X49085715Y-7723000D01*
X49085715Y-7723000D02*
X49014287Y-7651571D01*
X49014287Y-7651571D02*
X48871429Y-7580142D01*
X48871429Y-7580142D02*
X48585715Y-7508714D01*
X48585715Y-7508714D02*
X48442858Y-7437285D01*
X48442858Y-7437285D02*
X48371429Y-7365857D01*
X48371429Y-7365857D02*
X48300001Y-7223000D01*
X48300001Y-7223000D02*
X48300001Y-7080142D01*
X48300001Y-7080142D02*
X48371429Y-6937285D01*
X48371429Y-6937285D02*
X48442858Y-6865857D01*
X48442858Y-6865857D02*
X48585715Y-6794428D01*
X48585715Y-6794428D02*
X48942858Y-6794428D01*
X48942858Y-6794428D02*
X49157144Y-6865857D01*
X49585715Y-7294428D02*
X50157143Y-7294428D01*
X49800000Y-6794428D02*
X49800000Y-8080142D01*
X49800000Y-8080142D02*
X49871429Y-8223000D01*
X49871429Y-8223000D02*
X50014286Y-8294428D01*
X50014286Y-8294428D02*
X50157143Y-8294428D01*
X51228572Y-8223000D02*
X51085715Y-8294428D01*
X51085715Y-8294428D02*
X50800001Y-8294428D01*
X50800001Y-8294428D02*
X50657143Y-8223000D01*
X50657143Y-8223000D02*
X50585715Y-8080142D01*
X50585715Y-8080142D02*
X50585715Y-7508714D01*
X50585715Y-7508714D02*
X50657143Y-7365857D01*
X50657143Y-7365857D02*
X50800001Y-7294428D01*
X50800001Y-7294428D02*
X51085715Y-7294428D01*
X51085715Y-7294428D02*
X51228572Y-7365857D01*
X51228572Y-7365857D02*
X51300001Y-7508714D01*
X51300001Y-7508714D02*
X51300001Y-7651571D01*
X51300001Y-7651571D02*
X50585715Y-7794428D01*
X51942857Y-7294428D02*
X51942857Y-8794428D01*
X51942857Y-7365857D02*
X52085715Y-7294428D01*
X52085715Y-7294428D02*
X52371429Y-7294428D01*
X52371429Y-7294428D02*
X52514286Y-7365857D01*
X52514286Y-7365857D02*
X52585715Y-7437285D01*
X52585715Y-7437285D02*
X52657143Y-7580142D01*
X52657143Y-7580142D02*
X52657143Y-8008714D01*
X52657143Y-8008714D02*
X52585715Y-8151571D01*
X52585715Y-8151571D02*
X52514286Y-8223000D01*
X52514286Y-8223000D02*
X52371429Y-8294428D01*
X52371429Y-8294428D02*
X52085715Y-8294428D01*
X52085715Y-8294428D02*
X51942857Y-8223000D01*
X53300000Y-7294428D02*
X53300000Y-8794428D01*
X53300000Y-7365857D02*
X53442858Y-7294428D01*
X53442858Y-7294428D02*
X53728572Y-7294428D01*
X53728572Y-7294428D02*
X53871429Y-7365857D01*
X53871429Y-7365857D02*
X53942858Y-7437285D01*
X53942858Y-7437285D02*
X54014286Y-7580142D01*
X54014286Y-7580142D02*
X54014286Y-8008714D01*
X54014286Y-8008714D02*
X53942858Y-8151571D01*
X53942858Y-8151571D02*
X53871429Y-8223000D01*
X53871429Y-8223000D02*
X53728572Y-8294428D01*
X53728572Y-8294428D02*
X53442858Y-8294428D01*
X53442858Y-8294428D02*
X53300000Y-8223000D01*
X55228572Y-8223000D02*
X55085715Y-8294428D01*
X55085715Y-8294428D02*
X54800001Y-8294428D01*
X54800001Y-8294428D02*
X54657143Y-8223000D01*
X54657143Y-8223000D02*
X54585715Y-8080142D01*
X54585715Y-8080142D02*
X54585715Y-7508714D01*
X54585715Y-7508714D02*
X54657143Y-7365857D01*
X54657143Y-7365857D02*
X54800001Y-7294428D01*
X54800001Y-7294428D02*
X55085715Y-7294428D01*
X55085715Y-7294428D02*
X55228572Y-7365857D01*
X55228572Y-7365857D02*
X55300001Y-7508714D01*
X55300001Y-7508714D02*
X55300001Y-7651571D01*
X55300001Y-7651571D02*
X54585715Y-7794428D01*
X55942857Y-8294428D02*
X55942857Y-7294428D01*
X55942857Y-7580142D02*
X56014286Y-7437285D01*
X56014286Y-7437285D02*
X56085715Y-7365857D01*
X56085715Y-7365857D02*
X56228572Y-7294428D01*
X56228572Y-7294428D02*
X56371429Y-7294428D01*
X58014285Y-8294428D02*
X58014285Y-6794428D01*
X58014285Y-6794428D02*
X58371428Y-6794428D01*
X58371428Y-6794428D02*
X58585714Y-6865857D01*
X58585714Y-6865857D02*
X58728571Y-7008714D01*
X58728571Y-7008714D02*
X58800000Y-7151571D01*
X58800000Y-7151571D02*
X58871428Y-7437285D01*
X58871428Y-7437285D02*
X58871428Y-7651571D01*
X58871428Y-7651571D02*
X58800000Y-7937285D01*
X58800000Y-7937285D02*
X58728571Y-8080142D01*
X58728571Y-8080142D02*
X58585714Y-8223000D01*
X58585714Y-8223000D02*
X58371428Y-8294428D01*
X58371428Y-8294428D02*
X58014285Y-8294428D01*
X59514285Y-8294428D02*
X59514285Y-7294428D01*
X59514285Y-7580142D02*
X59585714Y-7437285D01*
X59585714Y-7437285D02*
X59657143Y-7365857D01*
X59657143Y-7365857D02*
X59800000Y-7294428D01*
X59800000Y-7294428D02*
X59942857Y-7294428D01*
X60442856Y-8294428D02*
X60442856Y-7294428D01*
X60442856Y-6794428D02*
X60371428Y-6865857D01*
X60371428Y-6865857D02*
X60442856Y-6937285D01*
X60442856Y-6937285D02*
X60514285Y-6865857D01*
X60514285Y-6865857D02*
X60442856Y-6794428D01*
X60442856Y-6794428D02*
X60442856Y-6937285D01*
X61014285Y-7294428D02*
X61371428Y-8294428D01*
X61371428Y-8294428D02*
X61728571Y-7294428D01*
X62871428Y-8223000D02*
X62728571Y-8294428D01*
X62728571Y-8294428D02*
X62442857Y-8294428D01*
X62442857Y-8294428D02*
X62299999Y-8223000D01*
X62299999Y-8223000D02*
X62228571Y-8080142D01*
X62228571Y-8080142D02*
X62228571Y-7508714D01*
X62228571Y-7508714D02*
X62299999Y-7365857D01*
X62299999Y-7365857D02*
X62442857Y-7294428D01*
X62442857Y-7294428D02*
X62728571Y-7294428D01*
X62728571Y-7294428D02*
X62871428Y-7365857D01*
X62871428Y-7365857D02*
X62942857Y-7508714D01*
X62942857Y-7508714D02*
X62942857Y-7651571D01*
X62942857Y-7651571D02*
X62228571Y-7794428D01*
X63585713Y-8294428D02*
X63585713Y-7294428D01*
X63585713Y-7580142D02*
X63657142Y-7437285D01*
X63657142Y-7437285D02*
X63728571Y-7365857D01*
X63728571Y-7365857D02*
X63871428Y-7294428D01*
X63871428Y-7294428D02*
X64014285Y-7294428D01*
D12*
X45974000Y5842000D03*
D13*
X45974000Y7112000D03*
X45974000Y8382000D03*
D14*
X34544000Y-3556000D03*
D15*
X42164000Y-3556000D03*
D14*
X22098000Y16510000D03*
X22098000Y14010000D03*
X34544000Y1778000D03*
D15*
X42164000Y1778000D03*
D16*
X14986000Y6902886D03*
D17*
X14986000Y4362886D03*
X14986000Y1822886D03*
X14986000Y-717114D03*
X14986000Y-3257114D03*
D16*
X14986000Y15523886D03*
D17*
X14986000Y12983886D03*
X14986000Y10443886D03*
D14*
X34544000Y12700000D03*
D15*
X42164000Y12700000D03*
D14*
X34544000Y7112000D03*
D15*
X42164000Y7112000D03*
D12*
X45974000Y-4826000D03*
D13*
X45974000Y-3556000D03*
X45974000Y-2286000D03*
D18*
X49017000Y1778000D03*
D19*
X56637000Y1778000D03*
D18*
X49017000Y-3556000D03*
D19*
X56637000Y-3556000D03*
D20*
X22616000Y4054000D03*
D15*
X22616000Y1514000D03*
X22616000Y-1026000D03*
X22616000Y-3566000D03*
X30236000Y-3566000D03*
X30236000Y-1026000D03*
X30236000Y1514000D03*
X30236000Y4054000D03*
D12*
X45974000Y11324000D03*
D13*
X45974000Y12594000D03*
X45974000Y13864000D03*
D21*
X27178000Y14478000D03*
D22*
X27178000Y11938000D03*
X27178000Y9398000D03*
D20*
X22098000Y8745774D03*
D14*
X22098000Y11245774D03*
D16*
X62230000Y-757000D03*
D17*
X62230000Y1783000D03*
X62230000Y4323000D03*
X62230000Y6863000D03*
X62230000Y9403000D03*
D18*
X49017000Y12446000D03*
D19*
X56637000Y12446000D03*
D18*
X49017000Y6858000D03*
D19*
X56637000Y6858000D03*
D14*
X17780000Y15538886D03*
D15*
X17780000Y7918886D03*
D12*
X45974000Y508000D03*
D13*
X45974000Y1778000D03*
X45974000Y3048000D03*
D23*
X33144489Y13279698D02*
X34088791Y14224000D01*
X28194000Y16510000D02*
X25908000Y16510000D01*
X31541247Y-7964070D02*
X33550287Y-5955030D01*
X40764489Y7691698D02*
X40764489Y6479511D01*
X40764489Y-4135698D02*
X40764489Y-2976302D01*
X42293511Y-4955511D02*
X41584302Y-4955511D01*
X45974000Y-4826000D02*
X45844489Y-4955511D01*
X13536489Y14074375D02*
X14986000Y15523886D01*
X35085746Y378489D02*
X32144969Y-2562288D01*
X17643037Y-7964070D02*
X31541247Y-7964070D01*
X28777511Y12925989D02*
X28777511Y15926489D01*
X24578961Y15180961D02*
X24578961Y8720495D01*
X40764489Y6479511D02*
X42825396Y4418604D01*
X33550287Y-5955030D02*
X40584783Y-5955030D01*
X40764489Y2357698D02*
X40764489Y637511D01*
X40764489Y637511D02*
X42571396Y-1169396D01*
X35123698Y378489D02*
X35085746Y378489D01*
X21126886Y15538886D02*
X22098000Y16510000D01*
X20320000Y9467774D02*
X20320000Y15494000D01*
X34999209Y14224000D02*
X36764852Y12458357D01*
X21336000Y6604000D02*
X20320000Y7620000D01*
X20320000Y7620000D02*
X20320000Y9467774D01*
X44396791Y11324000D02*
X40764489Y7691698D01*
X32144970Y-4549713D02*
X33550287Y-5955030D01*
X20320000Y15494000D02*
X20275114Y15538886D01*
X45974000Y11324000D02*
X44396791Y11324000D01*
X13536489Y-3857522D02*
X17643037Y-7964070D01*
X27789522Y11938000D02*
X28777511Y12925989D01*
X34088791Y14224000D02*
X34999209Y14224000D01*
X36764852Y2019643D02*
X35123698Y378489D01*
X14986000Y1822886D02*
X13536489Y373375D01*
X32144969Y-2562288D02*
X32144970Y-4549713D01*
X13536489Y3272397D02*
X13536489Y14074375D01*
X17780000Y15538886D02*
X20275114Y15538886D01*
X44248791Y508000D02*
X45974000Y508000D01*
X20320000Y9467774D02*
X22098000Y11245774D01*
X14986000Y15523886D02*
X17765000Y15523886D01*
X20275114Y15538886D02*
X21126886Y15538886D01*
X24578961Y8720495D02*
X22462466Y6604000D01*
X30236000Y6249534D02*
X33144489Y9158023D01*
X33144489Y9158023D02*
X33144489Y13279698D01*
X44248791Y5842000D02*
X42317396Y3910604D01*
X17765000Y15523886D02*
X17780000Y15538886D01*
X13536489Y373375D02*
X13536489Y-3857522D01*
X22462466Y6604000D02*
X21336000Y6604000D01*
X40584783Y-5955030D02*
X41584302Y-4955511D01*
X14986000Y1822886D02*
X13536489Y3272397D01*
X42317396Y3910604D02*
X40764489Y2357698D01*
X27178000Y11938000D02*
X27789522Y11938000D01*
X45974000Y5842000D02*
X44248791Y5842000D01*
X41584302Y-4955511D02*
X40764489Y-4135698D01*
X30236000Y4054000D02*
X30236000Y6249534D01*
X36764852Y12458357D02*
X36764852Y2019643D01*
X28777511Y15926489D02*
X28194000Y16510000D01*
X25908000Y16510000D02*
X24578961Y15180961D01*
X45844489Y-4955511D02*
X42293511Y-4955511D01*
X40764489Y-2976302D02*
X44248791Y508000D01*
X32144970Y13693713D02*
X33674777Y15223520D01*
X63679511Y12966123D02*
X58611634Y18034000D01*
X33528000Y18034000D02*
X33020000Y18034000D01*
X23497511Y12610489D02*
X23497511Y10145285D01*
X35306000Y18034000D02*
X33528000Y18034000D01*
X22036302Y-4965511D02*
X23195698Y-4965511D01*
X39763411Y249877D02*
X39763411Y14846589D01*
X18005594Y4362886D02*
X19574480Y2794000D01*
X28836489Y6263557D02*
X32144969Y9572037D01*
X30145930Y11603930D02*
X27940000Y9398000D01*
X34726233Y-1960233D02*
X34160558Y-1960233D01*
X33144489Y-4135698D02*
X33964302Y-4955511D01*
X62230000Y-757000D02*
X63679511Y692511D01*
X33020000Y18034000D02*
X26018466Y18034000D01*
X15748000Y4362886D02*
X18005594Y4362886D01*
X32144969Y9572037D02*
X32144970Y13693713D01*
X27940000Y9398000D02*
X27178000Y9398000D01*
X36576000Y18034000D02*
X35306000Y18034000D01*
X34160558Y-1960233D02*
X33144489Y-2976302D01*
X23195698Y-4965511D02*
X24384000Y-3777209D01*
X19574480Y2794000D02*
X19574480Y-2503689D01*
X24384000Y-3777209D02*
X24384000Y-2175534D01*
X26018466Y18034000D02*
X22098000Y14113534D01*
X22098000Y14113534D02*
X22098000Y14010000D01*
X35943511Y-3570023D02*
X39763411Y249877D01*
X22307114Y4362886D02*
X22616000Y4054000D01*
X22739534Y4054000D02*
X27178000Y8492466D01*
X58611634Y18034000D02*
X35306000Y18034000D01*
X30145930Y11603930D02*
X30145930Y15159930D01*
X33144489Y-2976302D02*
X33144489Y-4135698D01*
X30145930Y15159930D02*
X33020000Y18034000D01*
X22098000Y14010000D02*
X23497511Y12610489D01*
X37764372Y12872371D02*
X37764372Y1077906D01*
X35123698Y-4955511D02*
X35943511Y-4135698D01*
X35943511Y-4135698D02*
X35943511Y-3570023D01*
X39763411Y14846589D02*
X36576000Y18034000D01*
X24384000Y-2175534D02*
X28836488Y2276954D01*
X22616000Y4054000D02*
X22739534Y4054000D01*
X33964302Y-4955511D02*
X35123698Y-4955511D01*
X35413224Y15223519D02*
X37764372Y12872371D01*
X56637000Y12446000D02*
X56637000Y-3556000D01*
X23497511Y10145285D02*
X22098000Y8745774D01*
X59172000Y-757000D02*
X56637000Y1778000D01*
X62230000Y-757000D02*
X59172000Y-757000D01*
X27178000Y8492466D02*
X27178000Y9398000D01*
X33674777Y15223520D02*
X35413224Y15223519D01*
X37764372Y1077906D02*
X34726233Y-1960233D01*
X63679511Y692511D02*
X63679511Y12966123D01*
X19574480Y-2503689D02*
X22036302Y-4965511D01*
X28836488Y2276954D02*
X28836489Y6263557D01*
X53556038Y16985038D02*
X49017000Y12446000D01*
X62230000Y13002100D02*
X58247062Y16985038D01*
X49017000Y12446000D02*
X47599000Y13864000D01*
X58247062Y16985038D02*
X53556038Y16985038D01*
X47599000Y13864000D02*
X45974000Y13864000D01*
X62230000Y9403000D02*
X62230000Y13002100D01*
X60165040Y8927960D02*
X60165038Y13653528D01*
X60165038Y13653528D02*
X57833047Y15985519D01*
X57833047Y15985519D02*
X55322451Y15985519D01*
X49054960Y6858000D02*
X49017000Y6858000D01*
X52610960Y10414000D02*
X49054960Y6858000D01*
X62230000Y6863000D02*
X60165040Y8927960D01*
X49017000Y6858000D02*
X47493000Y8382000D01*
X55322451Y15985519D02*
X52610960Y13274028D01*
X52610960Y13274028D02*
X52610960Y10414000D01*
X47493000Y8382000D02*
X45974000Y8382000D01*
X53610480Y12860014D02*
X53610480Y6371480D01*
X47747000Y3048000D02*
X45974000Y3048000D01*
X55736466Y14986000D02*
X53610480Y12860014D01*
X60176520Y4323000D02*
X59165520Y5334000D01*
X53610480Y6371480D02*
X49017000Y1778000D01*
X59165520Y5334000D02*
X59165519Y13239513D01*
X62230000Y4323000D02*
X60176520Y4323000D01*
X49017000Y1778000D02*
X47747000Y3048000D01*
X59165519Y13239513D02*
X57419032Y14986000D01*
X57419032Y14986000D02*
X55736466Y14986000D01*
X62230000Y1783000D02*
X59431000Y1783000D01*
X50546000Y-3556000D02*
X49017000Y-3556000D01*
X58166000Y3048000D02*
X58166000Y12825498D01*
X54610000Y12446000D02*
X54610000Y508000D01*
X57021498Y13970000D02*
X56134000Y13970000D01*
X58166000Y12825498D02*
X57021498Y13970000D01*
X49017000Y-3556000D02*
X47747000Y-2286000D01*
X47747000Y-2286000D02*
X45974000Y-2286000D01*
X54610000Y508000D02*
X50546000Y-3556000D01*
X56134000Y13970000D02*
X54610000Y12446000D01*
X59431000Y1783000D02*
X58166000Y3048000D01*
X15957114Y7918886D02*
X14986000Y8890000D01*
X17780000Y7918886D02*
X16002000Y7918886D01*
X20574000Y-1524000D02*
X22616000Y-3566000D01*
X16002000Y7918886D02*
X14986000Y6902886D01*
X17780000Y6002014D02*
X17873986Y6002014D01*
X17873986Y6002014D02*
X20574000Y3302000D01*
X14986000Y8890000D02*
X14986000Y10443886D01*
X16002000Y7918886D02*
X15957114Y7918886D01*
X20574000Y3302000D02*
X20574000Y-1524000D01*
X17780000Y7918886D02*
X17780000Y6002014D01*
X42270000Y12594000D02*
X42164000Y12700000D01*
X45974000Y12594000D02*
X42270000Y12594000D01*
X19179511Y8790375D02*
X14986000Y12983886D01*
X22860000Y5588000D02*
X20828000Y5588000D01*
X25578480Y12878480D02*
X25578480Y8306480D01*
X27178000Y14478000D02*
X25578480Y12878480D01*
X25578480Y8306480D02*
X22860000Y5588000D01*
X19179511Y7236489D02*
X19179511Y8790375D01*
X20828000Y5588000D02*
X19179511Y7236489D01*
X45974000Y7112000D02*
X42164000Y7112000D01*
X45974000Y-3556000D02*
X42164000Y-3556000D01*
X25383520Y-4191223D02*
X23609712Y-5965031D01*
X34544000Y9144000D02*
X34544000Y12700000D01*
X25383520Y-3338480D02*
X25383520Y-4191223D01*
X16374371Y-717114D02*
X14986000Y-717114D01*
X31750000Y6350000D02*
X34544000Y9144000D01*
X30236000Y1514000D02*
X31750000Y3028000D01*
X30236000Y1514000D02*
X25383520Y-3338480D01*
X23609712Y-5965031D02*
X21622288Y-5965031D01*
X21622288Y-5965031D02*
X16374371Y-717114D01*
X31750000Y3028000D02*
X31750000Y6350000D01*
X34544000Y7112000D02*
X32749520Y5317520D01*
X24297449Y-6964551D02*
X18693437Y-6964551D01*
X32749519Y2613985D02*
X31831767Y1696233D01*
X31831767Y1696233D02*
X31831767Y569767D01*
X32749520Y5317520D02*
X32749519Y2613985D01*
X30236000Y-1026000D02*
X24297449Y-6964551D01*
X31831767Y569767D02*
X30236000Y-1026000D01*
X18693437Y-6964551D02*
X14986000Y-3257114D01*
X33020000Y254000D02*
X34544000Y1778000D01*
X30236000Y-3566000D02*
X30236000Y-3038000D01*
X30236000Y-3038000D02*
X33020000Y-254000D01*
X33020000Y-254000D02*
X33020000Y254000D01*
X27836970Y6754970D02*
X31145449Y10063449D01*
X31145451Y14107728D02*
X33260763Y16223040D01*
X35827237Y16223040D02*
X38763891Y13286386D01*
X38763891Y663891D02*
X34544000Y-3556000D01*
X27836969Y2690969D02*
X27836970Y6754970D01*
X24120000Y-1026000D02*
X27836969Y2690969D01*
X31145449Y10063449D02*
X31145451Y14107728D01*
X38763891Y13286386D02*
X38763891Y663891D01*
X22616000Y-1026000D02*
X24120000Y-1026000D01*
X33260763Y16223040D02*
X35827237Y16223040D01*
X45974000Y1778000D02*
X42164000Y1778000D01*
D24*
X64770000Y-8890000D02*
X64770000Y19304000D01*
X12700000Y19304000D02*
X12700000Y-8890000D01*
X12700000Y-8890000D02*
X64770000Y-8890000D01*
X64770000Y19304000D02*
X12700000Y19304000D01*
M02*
