%TF.GenerationSoftware,KiCad,Pcbnew,7.0.8-7.0.8~ubuntu22.04.1*%
%TF.CreationDate,2023-10-04T15:15:36+03:00*%
%TF.ProjectId,unipolar stepper driver,756e6970-6f6c-4617-9220-737465707065,rev?*%
%TF.SameCoordinates,Original*%
%TF.FileFunction,Copper,L1,Top*%
%TF.FilePolarity,Positive*%
%FSLAX46Y46*%
G04 Gerber Fmt 4.6, Leading zero omitted, Abs format (unit mm)*
G04 Created by KiCad (PCBNEW 7.0.8-7.0.8~ubuntu22.04.1) date 2023-10-04 15:15:36*
%MOMM*%
%LPD*%
G01*
G04 APERTURE LIST*
%TA.AperFunction,ComponentPad*%
%ADD10R,1.700000X1.700000*%
%TD*%
%TA.AperFunction,ComponentPad*%
%ADD11R,1.500000X1.050000*%
%TD*%
%TA.AperFunction,ComponentPad*%
%ADD12O,1.500000X1.050000*%
%TD*%
%TA.AperFunction,ComponentPad*%
%ADD13C,1.600000*%
%TD*%
%TA.AperFunction,ComponentPad*%
%ADD14O,1.600000X1.600000*%
%TD*%
%TA.AperFunction,ComponentPad*%
%ADD15O,1.700000X1.700000*%
%TD*%
%TA.AperFunction,ComponentPad*%
%ADD16R,1.500000X1.500000*%
%TD*%
%TA.AperFunction,ComponentPad*%
%ADD17O,1.500000X1.500000*%
%TD*%
%TA.AperFunction,ComponentPad*%
%ADD18R,1.600000X1.600000*%
%TD*%
%TA.AperFunction,ComponentPad*%
%ADD19R,2.000000X1.905000*%
%TD*%
%TA.AperFunction,ComponentPad*%
%ADD20O,2.000000X1.905000*%
%TD*%
%TA.AperFunction,Conductor*%
%ADD21C,0.800000*%
%TD*%
%TA.AperFunction,Profile*%
%ADD22C,0.100000*%
%TD*%
G04 APERTURE END LIST*
D10*
X24500000Y-32700000D03*
D11*
X50679057Y-28357057D03*
D12*
X50679057Y-27087057D03*
X50679057Y-25817057D03*
D13*
X39249057Y-37755057D03*
D14*
X46869057Y-37755057D03*
D13*
X26803057Y-17689057D03*
X26803057Y-20189057D03*
X39249057Y-32421057D03*
D14*
X46869057Y-32421057D03*
D10*
X19691057Y-27296171D03*
D15*
X19691057Y-29836171D03*
X19691057Y-32376171D03*
X19691057Y-34916171D03*
X19691057Y-37456171D03*
D10*
X19691057Y-18675171D03*
D15*
X19691057Y-21215171D03*
X19691057Y-23755171D03*
D13*
X39249057Y-21499057D03*
D14*
X46869057Y-21499057D03*
D13*
X39249057Y-27087057D03*
D14*
X46869057Y-27087057D03*
D11*
X50679057Y-39025057D03*
D12*
X50679057Y-37755057D03*
X50679057Y-36485057D03*
D16*
X53722057Y-32421057D03*
D17*
X61342057Y-32421057D03*
D16*
X53722057Y-37755057D03*
D17*
X61342057Y-37755057D03*
D18*
X27321057Y-30145057D03*
D14*
X27321057Y-32685057D03*
X27321057Y-35225057D03*
X27321057Y-37765057D03*
X34941057Y-37765057D03*
X34941057Y-35225057D03*
X34941057Y-32685057D03*
X34941057Y-30145057D03*
D11*
X50679057Y-22875057D03*
D12*
X50679057Y-21605057D03*
X50679057Y-20335057D03*
D19*
X31883057Y-19721057D03*
D20*
X31883057Y-22261057D03*
X31883057Y-24801057D03*
D18*
X26803057Y-25453283D03*
D13*
X26803057Y-22953283D03*
D10*
X66935057Y-34956057D03*
D15*
X66935057Y-32416057D03*
X66935057Y-29876057D03*
X66935057Y-27336057D03*
X66935057Y-24796057D03*
D16*
X53722057Y-21753057D03*
D17*
X61342057Y-21753057D03*
D16*
X53722057Y-27341057D03*
D17*
X61342057Y-27341057D03*
D13*
X22485057Y-18660171D03*
D14*
X22485057Y-26280171D03*
D11*
X50679057Y-33691057D03*
D12*
X50679057Y-32421057D03*
X50679057Y-31151057D03*
D21*
X24737271Y-35723057D02*
X22614213Y-33599999D01*
X22485057Y-28197043D02*
X22500000Y-28197043D01*
X25279057Y-35723057D02*
X24737271Y-35723057D01*
X22500000Y-28197043D02*
X22579043Y-28197043D01*
X22614213Y-33599999D02*
X22614213Y-28311256D01*
X22614213Y-28311256D02*
X22500000Y-28197043D01*
X42469429Y-21326686D02*
X40118281Y-18975538D01*
X42469429Y-33121151D02*
X42469429Y-21326686D01*
X39431290Y-36159290D02*
X42469429Y-33121151D01*
X21600000Y-31745114D02*
X19691057Y-29836171D01*
X37849546Y-37175359D02*
X38865615Y-36159290D01*
X38669359Y-39154568D02*
X37849546Y-38334755D01*
X39828755Y-39154568D02*
X38669359Y-39154568D01*
X40648568Y-38334755D02*
X39828755Y-39154568D01*
X22200000Y-34600000D02*
X22177471Y-34600000D01*
X40648568Y-37769080D02*
X40648568Y-38334755D01*
X44468468Y-19352468D02*
X44468468Y-33949180D01*
X27900755Y-39164568D02*
X26741359Y-39164568D01*
X38865615Y-36159290D02*
X39431290Y-36159290D01*
X44468468Y-33949180D02*
X40648568Y-37769080D01*
X29089057Y-37976266D02*
X27900755Y-39164568D01*
X37849546Y-38334755D02*
X37849546Y-37175359D01*
X41281057Y-16165057D02*
X44468468Y-19352468D01*
X33541546Y-27935500D02*
X33541545Y-31922103D01*
X40118281Y-18975538D02*
X38379834Y-18975537D01*
X38379834Y-18975537D02*
X36850027Y-20505344D01*
X29089057Y-36374591D02*
X29089057Y-37976266D01*
X36850027Y-20505344D02*
X36850026Y-24627020D01*
X36850026Y-24627020D02*
X33541546Y-27935500D01*
X33541545Y-31922103D02*
X29089057Y-36374591D01*
X26741359Y-39164568D02*
X24279537Y-36702746D01*
X24279537Y-36702746D02*
X24279537Y-36679537D01*
X24279537Y-36679537D02*
X22200000Y-34600000D01*
X22177471Y-34600000D02*
X21600000Y-34022529D01*
X21600000Y-34022529D02*
X21600000Y-31745114D01*
X24500000Y-32700000D02*
X27306114Y-32700000D01*
X27306114Y-32700000D02*
X27321057Y-32685057D01*
X37849546Y-20919359D02*
X38793848Y-19975057D01*
X32899057Y-17689057D02*
X30613057Y-17689057D01*
X36246304Y-42163127D02*
X38255344Y-40154087D01*
X46998568Y-39154568D02*
X46289359Y-39154568D01*
X50679057Y-39025057D02*
X50549546Y-39154568D01*
X18241546Y-20124682D02*
X19691057Y-18675171D01*
X39790803Y-33820568D02*
X36850026Y-36761345D01*
X22348094Y-42163127D02*
X36246304Y-42163127D01*
X33482568Y-21273068D02*
X33482568Y-18272568D01*
X45469546Y-27719546D02*
X45469546Y-26507359D01*
X29284018Y-19018096D02*
X29284018Y-25478562D01*
X38255344Y-40154087D02*
X45289840Y-40154087D01*
X45469546Y-26507359D02*
X49101848Y-22875057D01*
X39828755Y-33820568D02*
X39790803Y-33820568D01*
X25831943Y-18660171D02*
X26803057Y-17689057D01*
X47530453Y-29780453D02*
X48953848Y-28357057D01*
X25025057Y-24731283D02*
X25025057Y-18705057D01*
X45469546Y-31841359D02*
X47530453Y-29780453D01*
X39704266Y-19975057D02*
X41469909Y-21740700D01*
X26041057Y-27595057D02*
X25025057Y-26579057D01*
X25025057Y-26579057D02*
X25025057Y-24731283D01*
X36850027Y-38748770D02*
X38255344Y-40154087D01*
X48953848Y-28357057D02*
X50679057Y-28357057D01*
X45469546Y-37175359D02*
X47276453Y-35368453D01*
X25025057Y-18705057D02*
X24980171Y-18660171D01*
X18241546Y-38056579D02*
X22348094Y-42163127D01*
X47530453Y-29780453D02*
X45469546Y-27719546D01*
X32494579Y-22261057D02*
X33482568Y-21273068D01*
X38793848Y-19975057D02*
X39704266Y-19975057D01*
X45469546Y-38334755D02*
X45469546Y-37175359D01*
X41469909Y-32179414D02*
X39828755Y-33820568D01*
X19691057Y-32376171D02*
X18241546Y-33825682D01*
X48953848Y-33691057D02*
X50679057Y-33691057D01*
X36850026Y-36761345D02*
X36850027Y-38748770D01*
X18241546Y-30926660D02*
X18241546Y-20124682D01*
X22485057Y-18660171D02*
X24980171Y-18660171D01*
X46289359Y-39154568D02*
X45469546Y-38334755D01*
X47276453Y-35368453D02*
X45469546Y-33561546D01*
X25025057Y-24731283D02*
X26803057Y-22953283D01*
X19691057Y-18675171D02*
X22470057Y-18675171D01*
X24980171Y-18660171D02*
X25831943Y-18660171D01*
X45469546Y-33561546D02*
X45469546Y-31841359D01*
X29284018Y-25478562D02*
X27167523Y-27595057D01*
X34941057Y-27949523D02*
X37849546Y-25041034D01*
X37849546Y-25041034D02*
X37849546Y-20919359D01*
X22470057Y-18675171D02*
X22485057Y-18660171D01*
X18241546Y-33825682D02*
X18241546Y-38056579D01*
X27167523Y-27595057D02*
X26041057Y-27595057D01*
X45289840Y-40154087D02*
X46289359Y-39154568D01*
X19691057Y-32376171D02*
X18241546Y-30926660D01*
X47276453Y-35368453D02*
X48953848Y-33691057D01*
X31883057Y-22261057D02*
X32494579Y-22261057D01*
X34941057Y-30145057D02*
X34941057Y-27949523D01*
X41469909Y-21740700D02*
X41469909Y-32179414D01*
X33482568Y-18272568D02*
X32899057Y-17689057D01*
X30613057Y-17689057D02*
X29284018Y-19018096D01*
X49101848Y-22875057D02*
X50679057Y-22875057D01*
X50549546Y-39154568D02*
X46998568Y-39154568D01*
X61342057Y-37755057D02*
X61342057Y-32421057D01*
X68384568Y-21232934D02*
X63316691Y-16165057D01*
X28202568Y-21588568D02*
X28202568Y-24053772D01*
X34850987Y-22595127D02*
X32645057Y-24801057D01*
X66935057Y-34956057D02*
X68384568Y-33506546D01*
X37725057Y-16165057D02*
X41281057Y-16165057D01*
X61342057Y-27341057D02*
X61342057Y-21753057D01*
X32645057Y-24801057D02*
X31883057Y-24801057D01*
X41281057Y-16165057D02*
X63316691Y-16165057D01*
X30723523Y-16165057D02*
X26803057Y-20085523D01*
X26803057Y-20085523D02*
X26803057Y-20189057D01*
X27012171Y-29836171D02*
X27321057Y-30145057D01*
X27444591Y-30145057D02*
X31883057Y-25706591D01*
X34850987Y-22595127D02*
X34850987Y-19039127D01*
X34850987Y-19039127D02*
X37725057Y-16165057D01*
X26803057Y-20189057D02*
X28202568Y-21588568D01*
X27321057Y-30145057D02*
X27444591Y-30145057D01*
X30723523Y-16165057D02*
X37725057Y-16165057D01*
X28202568Y-24053772D02*
X26803057Y-25453283D01*
X63877057Y-34956057D02*
X61342057Y-32421057D01*
X66935057Y-34956057D02*
X63877057Y-34956057D01*
X31883057Y-25706591D02*
X31883057Y-24801057D01*
X68384568Y-33506546D02*
X68384568Y-21232934D01*
X61342057Y-32421057D02*
X61342057Y-27341057D01*
X58261095Y-17214019D02*
X53722057Y-21753057D01*
X66935057Y-21196957D02*
X62952119Y-17214019D01*
X53722057Y-21753057D02*
X52304057Y-20335057D01*
X62952119Y-17214019D02*
X58261095Y-17214019D01*
X52304057Y-20335057D02*
X50679057Y-20335057D01*
X66935057Y-24796057D02*
X66935057Y-21196957D01*
X64870097Y-25271097D02*
X64870095Y-20545529D01*
X64870095Y-20545529D02*
X62538104Y-18213538D01*
X62538104Y-18213538D02*
X60027508Y-18213538D01*
X53760017Y-27341057D02*
X53722057Y-27341057D01*
X57316017Y-23785057D02*
X53760017Y-27341057D01*
X66935057Y-27336057D02*
X64870097Y-25271097D01*
X53722057Y-27341057D02*
X52198057Y-25817057D01*
X60027508Y-18213538D02*
X57316017Y-20925029D01*
X57316017Y-20925029D02*
X57316017Y-23785057D01*
X52198057Y-25817057D02*
X50679057Y-25817057D01*
X58315537Y-21339043D02*
X58315537Y-27827577D01*
X52452057Y-31151057D02*
X50679057Y-31151057D01*
X60441523Y-19213057D02*
X58315537Y-21339043D01*
X64881577Y-29876057D02*
X63870577Y-28865057D01*
X58315537Y-27827577D02*
X53722057Y-32421057D01*
X63870577Y-28865057D02*
X63870576Y-20959544D01*
X66935057Y-29876057D02*
X64881577Y-29876057D01*
X53722057Y-32421057D02*
X52452057Y-31151057D01*
X63870576Y-20959544D02*
X62124089Y-19213057D01*
X62124089Y-19213057D02*
X60441523Y-19213057D01*
X66935057Y-32416057D02*
X64136057Y-32416057D01*
X55251057Y-37755057D02*
X53722057Y-37755057D01*
X62871057Y-31151057D02*
X62871057Y-21373559D01*
X59315057Y-21753057D02*
X59315057Y-33691057D01*
X61726555Y-20229057D02*
X60839057Y-20229057D01*
X62871057Y-21373559D02*
X61726555Y-20229057D01*
X53722057Y-37755057D02*
X52452057Y-36485057D01*
X52452057Y-36485057D02*
X50679057Y-36485057D01*
X59315057Y-33691057D02*
X55251057Y-37755057D01*
X60839057Y-20229057D02*
X59315057Y-21753057D01*
X64136057Y-32416057D02*
X62871057Y-31151057D01*
X20662171Y-26280171D02*
X19691057Y-25309057D01*
X22485057Y-26280171D02*
X20707057Y-26280171D01*
X25279057Y-35723057D02*
X27321057Y-37765057D01*
X20707057Y-26280171D02*
X19691057Y-27296171D01*
X19691057Y-25309057D02*
X19691057Y-23755171D01*
X20707057Y-26280171D02*
X20662171Y-26280171D01*
X22485057Y-26280171D02*
X22485057Y-28197043D01*
X46975057Y-21605057D02*
X46869057Y-21499057D01*
X50679057Y-21605057D02*
X46975057Y-21605057D01*
X23884568Y-25408682D02*
X19691057Y-21215171D01*
X27565057Y-28611057D02*
X25533057Y-28611057D01*
X30283537Y-21320577D02*
X30283537Y-25892577D01*
X31883057Y-19721057D02*
X30283537Y-21320577D01*
X30283537Y-25892577D02*
X27565057Y-28611057D01*
X23884568Y-26962568D02*
X23884568Y-25408682D01*
X25533057Y-28611057D02*
X23884568Y-26962568D01*
X50679057Y-27087057D02*
X46869057Y-27087057D01*
X50679057Y-37755057D02*
X46869057Y-37755057D01*
X30088577Y-38390280D02*
X28314769Y-40164088D01*
X39249057Y-25055057D02*
X39249057Y-21499057D01*
X30088577Y-37537537D02*
X30088577Y-38390280D01*
X21079428Y-34916171D02*
X19691057Y-34916171D01*
X36455057Y-27849057D02*
X39249057Y-25055057D01*
X34941057Y-32685057D02*
X36455057Y-31171057D01*
X34941057Y-32685057D02*
X30088577Y-37537537D01*
X28314769Y-40164088D02*
X26327345Y-40164088D01*
X26327345Y-40164088D02*
X21079428Y-34916171D01*
X36455057Y-31171057D02*
X36455057Y-27849057D01*
X39249057Y-27087057D02*
X37454577Y-28881537D01*
X29002506Y-41163608D02*
X23398494Y-41163608D01*
X37454576Y-31585072D02*
X36536824Y-32502824D01*
X36536824Y-32502824D02*
X36536824Y-33629290D01*
X37454577Y-28881537D02*
X37454576Y-31585072D01*
X34941057Y-35225057D02*
X29002506Y-41163608D01*
X36536824Y-33629290D02*
X34941057Y-35225057D01*
X23398494Y-41163608D02*
X19691057Y-37456171D01*
X37725057Y-33945057D02*
X39249057Y-32421057D01*
X34941057Y-37765057D02*
X34941057Y-37237057D01*
X34941057Y-37237057D02*
X37725057Y-34453057D01*
X37725057Y-34453057D02*
X37725057Y-33945057D01*
X32542027Y-27444087D02*
X35850506Y-24135608D01*
X35850508Y-20091329D02*
X37965820Y-17976017D01*
X40532294Y-17976017D02*
X43468948Y-20912671D01*
X43468948Y-33535166D02*
X39249057Y-37755057D01*
X32542026Y-31508088D02*
X32542027Y-27444087D01*
X28825057Y-35225057D02*
X32542026Y-31508088D01*
X35850506Y-24135608D02*
X35850508Y-20091329D01*
X43468948Y-20912671D02*
X43468948Y-33535166D01*
X27321057Y-35225057D02*
X28825057Y-35225057D01*
X37965820Y-17976017D02*
X40532294Y-17976017D01*
X50679057Y-32421057D02*
X46869057Y-32421057D01*
D22*
X69475057Y-43089057D02*
X69475057Y-14895057D01*
X17405057Y-14895057D02*
X17405057Y-43089057D01*
X17405057Y-43089057D02*
X69475057Y-43089057D01*
X69475057Y-14895057D02*
X17405057Y-14895057D01*
M02*
