%TF.GenerationSoftware,KiCad,Pcbnew,6.0.10-86aedd382b~118~ubuntu20.04.1*%
%TF.CreationDate,2023-01-05T00:51:07+02:00*%
%TF.ProjectId,PSU controller,50535520-636f-46e7-9472-6f6c6c65722e,rev?*%
%TF.SameCoordinates,Original*%
%TF.FileFunction,Copper,L1,Top*%
%TF.FilePolarity,Positive*%
%FSLAX46Y46*%
G04 Gerber Fmt 4.6, Leading zero omitted, Abs format (unit mm)*
G04 Created by KiCad (PCBNEW 6.0.10-86aedd382b~118~ubuntu20.04.1) date 2023-01-05 00:51:07*
%MOMM*%
%LPD*%
G01*
G04 APERTURE LIST*
%TA.AperFunction,Profile*%
%ADD10C,0.100000*%
%TD*%
%TA.AperFunction,ComponentPad*%
%ADD11O,1.500000X1.500000*%
%TD*%
%TA.AperFunction,ComponentPad*%
%ADD12R,1.500000X1.500000*%
%TD*%
%TA.AperFunction,ComponentPad*%
%ADD13C,2.500000*%
%TD*%
%TA.AperFunction,ComponentPad*%
%ADD14C,3.000000*%
%TD*%
%TA.AperFunction,ComponentPad*%
%ADD15O,1.050000X1.500000*%
%TD*%
%TA.AperFunction,ComponentPad*%
%ADD16R,1.050000X1.500000*%
%TD*%
%TA.AperFunction,ComponentPad*%
%ADD17O,1.700000X1.700000*%
%TD*%
%TA.AperFunction,ComponentPad*%
%ADD18R,1.700000X1.700000*%
%TD*%
%TA.AperFunction,ComponentPad*%
%ADD19R,3.000000X3.000000*%
%TD*%
%TA.AperFunction,ComponentPad*%
%ADD20O,1.600000X1.600000*%
%TD*%
%TA.AperFunction,ComponentPad*%
%ADD21C,1.600000*%
%TD*%
%TA.AperFunction,ComponentPad*%
%ADD22R,1.600000X1.600000*%
%TD*%
%TA.AperFunction,ComponentPad*%
%ADD23O,1.800000X1.800000*%
%TD*%
%TA.AperFunction,ComponentPad*%
%ADD24R,1.800000X1.800000*%
%TD*%
%TA.AperFunction,Conductor*%
%ADD25C,1.500000*%
%TD*%
%TA.AperFunction,Conductor*%
%ADD26C,0.800000*%
%TD*%
G04 APERTURE END LIST*
D10*
X3500000Y36885000D02*
X51125000Y36885000D01*
X51125000Y19740000D02*
X51125000Y4500000D01*
X51125000Y36885000D02*
X51125000Y20375000D01*
X3500000Y4500000D02*
X3500000Y36885000D01*
X51125000Y20375000D02*
X51125000Y19740000D01*
X51125000Y4500000D02*
X3500000Y4500000D01*
D11*
X46045000Y28625000D03*
D12*
X46045000Y21005000D03*
D13*
X19610000Y30735000D03*
D14*
X19660000Y18485000D03*
X7610000Y18535000D03*
D13*
X7610000Y30735000D03*
D14*
X13660000Y32685000D03*
D15*
X44665424Y31805000D03*
X43395424Y31805000D03*
D16*
X42125424Y31805000D03*
D17*
X38415000Y9555000D03*
X40955000Y9555000D03*
X43495000Y9555000D03*
D18*
X46035000Y9555000D03*
D14*
X19375000Y8945000D03*
D19*
X24455000Y8945000D03*
D20*
X48585000Y28630000D03*
D21*
X48585000Y21010000D03*
D20*
X40965000Y28630000D03*
D21*
X40965000Y21010000D03*
D20*
X43505000Y21010000D03*
D21*
X43505000Y28630000D03*
X43525000Y12755000D03*
X46025000Y12755000D03*
X42140000Y17200000D03*
D22*
X44140000Y17200000D03*
D23*
X48458000Y15324000D03*
D24*
X48458000Y17864000D03*
D14*
X13660000Y8945000D03*
D19*
X8580000Y8945000D03*
D13*
X37390000Y30735000D03*
D14*
X37440000Y18485000D03*
X25390000Y18535000D03*
D13*
X25390000Y30735000D03*
D14*
X31440000Y32685000D03*
D25*
X31440000Y32685000D02*
X31440000Y15930000D01*
X31440000Y15930000D02*
X24455000Y8945000D01*
X13660000Y32685000D02*
X5160000Y24185000D01*
X6585000Y6495000D02*
X16925000Y6495000D01*
X5160000Y7920000D02*
X6585000Y6495000D01*
X5160000Y24185000D02*
X5160000Y7920000D01*
X16925000Y6495000D02*
X19375000Y8945000D01*
X7610000Y18535000D02*
X7610000Y9915000D01*
X7610000Y9915000D02*
X8580000Y8945000D01*
X23250000Y18535000D02*
X13660000Y8945000D01*
X25390000Y18535000D02*
X23250000Y18535000D01*
D26*
X33340000Y34785000D02*
X23660000Y34785000D01*
X48458000Y15188000D02*
X46025000Y12755000D01*
X46035000Y9555000D02*
X42885000Y6405000D01*
X44140000Y14640000D02*
X46025000Y12755000D01*
X33614999Y9165787D02*
X33614999Y26959999D01*
X44140000Y17200000D02*
X44140000Y14640000D01*
X42885000Y6405000D02*
X36375786Y6405000D01*
X44140000Y19100000D02*
X44140000Y17200000D01*
X46035000Y9570000D02*
X46045000Y9580000D01*
X36375786Y6405000D02*
X33614999Y9165787D01*
X48458000Y15324000D02*
X48458000Y15188000D01*
X46045000Y21005000D02*
X44140000Y19100000D01*
X33614999Y26959999D02*
X37390000Y30735000D01*
X23660000Y34785000D02*
X19610000Y30735000D01*
X46025000Y9600000D02*
X46025000Y12755000D01*
X37390000Y30735000D02*
X33340000Y34785000D01*
X46035000Y9555000D02*
X46035000Y9570000D01*
X46025000Y12755000D02*
X46045000Y12755000D01*
X46045000Y9580000D02*
X46025000Y9600000D01*
X40955000Y9555000D02*
X39075000Y7675000D01*
X36520000Y7675000D02*
X34615000Y9580000D01*
X42140000Y14140000D02*
X43525000Y12755000D01*
X39695000Y28630000D02*
X40965000Y28630000D01*
X39075000Y7675000D02*
X36520000Y7675000D01*
X40955000Y9555000D02*
X43495000Y9555000D01*
X43495000Y12725000D02*
X43525000Y12755000D01*
X40965000Y30644576D02*
X42125424Y31805000D01*
X43495000Y9555000D02*
X43495000Y12725000D01*
X42140000Y17200000D02*
X42140000Y14140000D01*
X34615000Y9580000D02*
X34615000Y23550000D01*
X40965000Y28630000D02*
X40965000Y30644576D01*
X34615000Y23550000D02*
X39695000Y28630000D01*
X40330000Y13390000D02*
X38415000Y11475000D01*
X38415000Y11475000D02*
X38415000Y9555000D01*
X43505000Y21010000D02*
X40330000Y17835000D01*
X40330000Y17835000D02*
X40330000Y13390000D01*
X44665424Y31805000D02*
X44665424Y30004576D01*
X19098704Y28630000D02*
X23285000Y28630000D01*
X19545001Y35785001D02*
X17760000Y34000000D01*
X23285000Y28630000D02*
X25390000Y30735000D01*
X44665424Y30004576D02*
X46045000Y28625000D01*
X19545001Y35785001D02*
X12660001Y35785001D01*
X17760000Y29968704D02*
X19098704Y28630000D01*
X12660001Y35785001D02*
X7610000Y30735000D01*
X44665424Y31805000D02*
X44665424Y33355000D01*
X44665424Y33355000D02*
X42235423Y35785001D01*
X42235423Y35785001D02*
X19545001Y35785001D01*
X17760000Y34000000D02*
X17760000Y29968704D01*
X46045000Y28625000D02*
X48580000Y28625000D01*
X48580000Y28625000D02*
X48585000Y28630000D01*
X48585000Y21010000D02*
X48585000Y17991000D01*
X48585000Y17991000D02*
X48458000Y17864000D01*
X40965000Y26090000D02*
X43505000Y28630000D01*
X40965000Y21010000D02*
X40965000Y26090000D01*
X43505000Y28630000D02*
X43505000Y31695424D01*
X43505000Y31695424D02*
X43395424Y31805000D01*
M02*
