%TF.GenerationSoftware,KiCad,Pcbnew,(6.0.4-0)*%
%TF.CreationDate,2023-05-10T13:58:51+03:00*%
%TF.ProjectId,n-channel,6e2d6368-616e-46e6-956c-2e6b69636164,rev?*%
%TF.SameCoordinates,Original*%
%TF.FileFunction,Copper,L1,Top*%
%TF.FilePolarity,Positive*%
%FSLAX46Y46*%
G04 Gerber Fmt 4.6, Leading zero omitted, Abs format (unit mm)*
G04 Created by KiCad (PCBNEW (6.0.4-0)) date 2023-05-10 13:58:51*
%MOMM*%
%LPD*%
G01*
G04 APERTURE LIST*
%TA.AperFunction,Profile*%
%ADD10C,0.050000*%
%TD*%
%TA.AperFunction,ComponentPad*%
%ADD11O,1.400000X1.400000*%
%TD*%
%TA.AperFunction,ComponentPad*%
%ADD12C,1.400000*%
%TD*%
%TA.AperFunction,ComponentPad*%
%ADD13R,1.700000X1.700000*%
%TD*%
%TA.AperFunction,ComponentPad*%
%ADD14O,2.000000X1.905000*%
%TD*%
%TA.AperFunction,ComponentPad*%
%ADD15R,2.000000X1.905000*%
%TD*%
%TA.AperFunction,ComponentPad*%
%ADD16R,1.500000X1.050000*%
%TD*%
%TA.AperFunction,ComponentPad*%
%ADD17O,1.500000X1.050000*%
%TD*%
%TA.AperFunction,ComponentPad*%
%ADD18O,2.200000X2.200000*%
%TD*%
%TA.AperFunction,ComponentPad*%
%ADD19R,2.200000X2.200000*%
%TD*%
%TA.AperFunction,ComponentPad*%
%ADD20C,1.600000*%
%TD*%
%TA.AperFunction,ComponentPad*%
%ADD21R,1.600000X1.600000*%
%TD*%
%TA.AperFunction,Conductor*%
%ADD22C,2.000000*%
%TD*%
%TA.AperFunction,Conductor*%
%ADD23C,1.500000*%
%TD*%
%TA.AperFunction,Conductor*%
%ADD24C,0.800000*%
%TD*%
%TA.AperFunction,Conductor*%
%ADD25C,1.000000*%
%TD*%
G04 APERTURE END LIST*
D10*
X92000000Y-122000000D02*
X92000000Y-76500000D01*
X92000000Y-122000000D02*
X144000000Y-122000000D01*
X144000000Y-76500000D02*
X144000000Y-122000000D01*
X92000000Y-76500000D02*
X144000000Y-76500000D01*
D11*
X97739200Y-105359200D03*
D12*
X105359200Y-105359200D03*
D13*
X94589600Y-105460800D03*
D11*
X116992400Y-97282000D03*
D12*
X116992400Y-89662000D03*
D14*
X116789200Y-107594400D03*
X116789200Y-105054400D03*
D15*
X116789200Y-102514400D03*
D16*
X110540800Y-106629200D03*
D17*
X110540800Y-104089200D03*
X110540800Y-105359200D03*
D18*
X96266000Y-100736400D03*
D19*
X96266000Y-90576400D03*
D18*
X121513600Y-96875600D03*
D19*
X121513600Y-86715600D03*
D20*
X104089200Y-96734000D03*
D21*
X104089200Y-94234000D03*
D20*
X112369600Y-96429200D03*
X112369600Y-93929200D03*
X126847600Y-95972000D03*
X126847600Y-93472000D03*
D22*
X105664000Y-109931200D02*
X100086800Y-104354000D01*
X100086800Y-104354000D02*
X100086800Y-100736400D01*
D23*
X104089200Y-96734000D02*
X112064800Y-96734000D01*
X112064800Y-96734000D02*
X112369600Y-96429200D01*
X96266000Y-100736400D02*
X100086800Y-100736400D01*
X100086800Y-100736400D02*
X104089200Y-96734000D01*
D22*
X105664000Y-109931200D02*
X114452400Y-109931200D01*
D24*
X110540800Y-105359200D02*
X105359200Y-105359200D01*
X115824000Y-106629200D02*
X116789200Y-107594400D01*
X110540800Y-106629200D02*
X115824000Y-106629200D01*
D22*
X114452400Y-109931200D02*
X116789200Y-107594400D01*
X126847600Y-100536000D02*
X126847600Y-95972000D01*
X119789200Y-107594400D02*
X126847600Y-100536000D01*
X116789200Y-107594400D02*
X119789200Y-107594400D01*
X114452400Y-109931200D02*
X114452400Y-120802400D01*
X121513600Y-101902502D02*
X121513600Y-96875600D01*
X118361702Y-105054400D02*
X121513600Y-101902502D01*
X116789200Y-105054400D02*
X118361702Y-105054400D01*
X124917200Y-93472000D02*
X126847600Y-93472000D01*
X121513600Y-96875600D02*
X124917200Y-93472000D01*
X141986000Y-93472000D02*
X142290800Y-93167200D01*
X126847600Y-93472000D02*
X141986000Y-93472000D01*
X122885200Y-88087200D02*
X121513600Y-86715600D01*
X142290800Y-88087200D02*
X122885200Y-88087200D01*
X119938800Y-86715600D02*
X116992400Y-89662000D01*
X121513600Y-86715600D02*
X119938800Y-86715600D01*
X116636800Y-89662000D02*
X112369600Y-93929200D01*
X116992400Y-89662000D02*
X116636800Y-89662000D01*
X104394000Y-93929200D02*
X104089200Y-94234000D01*
X112369600Y-93929200D02*
X104394000Y-93929200D01*
X99923600Y-94234000D02*
X96266000Y-90576400D01*
X104089200Y-94234000D02*
X99923600Y-94234000D01*
X121513600Y-86715600D02*
X121513600Y-77825600D01*
D24*
X115214400Y-104089200D02*
X116789200Y-102514400D01*
X110540800Y-104089200D02*
X115214400Y-104089200D01*
D25*
X116789200Y-97485200D02*
X116992400Y-97282000D01*
X116789200Y-102514400D02*
X116789200Y-97485200D01*
X94589600Y-105460800D02*
X97790000Y-105460800D01*
M02*
