%TF.GenerationSoftware,KiCad,Pcbnew,(6.0.4-0)*%
%TF.CreationDate,2023-05-10T13:58:51+03:00*%
%TF.ProjectId,n-channel,6e2d6368-616e-46e6-956c-2e6b69636164,rev?*%
%TF.SameCoordinates,Original*%
%TF.FileFunction,Copper,L1,Top*%
%TF.FilePolarity,Positive*%
%FSLAX46Y46*%
G04 Gerber Fmt 4.6, Leading zero omitted, Abs format (unit mm)*
G04 Created by KiCad (PCBNEW (6.0.4-0)) date 2023-05-10 13:58:51*
%MOMM*%
%LPD*%
G01*
G04 APERTURE LIST*
%TA.AperFunction,Profile*%
%ADD10C,0.050000*%
%TD*%
%TA.AperFunction,ComponentPad*%
%ADD11O,1.400000X1.400000*%
%TD*%
%TA.AperFunction,ComponentPad*%
%ADD12C,1.400000*%
%TD*%
%TA.AperFunction,ComponentPad*%
%ADD13R,1.700000X1.700000*%
%TD*%
%TA.AperFunction,ComponentPad*%
%ADD14O,2.000000X1.905000*%
%TD*%
%TA.AperFunction,ComponentPad*%
%ADD15R,2.000000X1.905000*%
%TD*%
%TA.AperFunction,ComponentPad*%
%ADD16R,1.500000X1.050000*%
%TD*%
%TA.AperFunction,ComponentPad*%
%ADD17O,1.500000X1.050000*%
%TD*%
%TA.AperFunction,ComponentPad*%
%ADD18O,2.200000X2.200000*%
%TD*%
%TA.AperFunction,ComponentPad*%
%ADD19R,2.200000X2.200000*%
%TD*%
%TA.AperFunction,ComponentPad*%
%ADD20C,1.600000*%
%TD*%
%TA.AperFunction,ComponentPad*%
%ADD21R,1.600000X1.600000*%
%TD*%
%TA.AperFunction,Conductor*%
%ADD22C,2.000000*%
%TD*%
%TA.AperFunction,Conductor*%
%ADD23C,1.500000*%
%TD*%
%TA.AperFunction,Conductor*%
%ADD24C,0.800000*%
%TD*%
%TA.AperFunction,Conductor*%
%ADD25C,1.000000*%
%TD*%
G04 APERTURE END LIST*
D10*
X2000000Y2000000D02*
X2000000Y47500000D01*
X2000000Y2000000D02*
X54000000Y2000000D01*
X54000000Y47500000D02*
X54000000Y2000000D01*
X2000000Y47500000D02*
X54000000Y47500000D01*
D11*
X7739200Y18640800D03*
D12*
X15359200Y18640800D03*
D13*
X4589600Y18539200D03*
D11*
X26992400Y26718000D03*
D12*
X26992400Y34338000D03*
D14*
X26789200Y16405600D03*
X26789200Y18945600D03*
D15*
X26789200Y21485600D03*
D16*
X20540800Y17370800D03*
D17*
X20540800Y19910800D03*
X20540800Y18640800D03*
D18*
X6266000Y23263600D03*
D19*
X6266000Y33423600D03*
D18*
X31513600Y27124400D03*
D19*
X31513600Y37284400D03*
D20*
X14089200Y27266000D03*
D21*
X14089200Y29766000D03*
D20*
X22369600Y27570800D03*
X22369600Y30070800D03*
X36847600Y28028000D03*
X36847600Y30528000D03*
D22*
X15664000Y14068800D02*
X10086800Y19646000D01*
X10086800Y19646000D02*
X10086800Y23263600D01*
D23*
X14089200Y27266000D02*
X22064800Y27266000D01*
X22064800Y27266000D02*
X22369600Y27570800D01*
X6266000Y23263600D02*
X10086800Y23263600D01*
X10086800Y23263600D02*
X14089200Y27266000D01*
D22*
X15664000Y14068800D02*
X24452400Y14068800D01*
D24*
X20540800Y18640800D02*
X15359200Y18640800D01*
X25824000Y17370800D02*
X26789200Y16405600D01*
X20540800Y17370800D02*
X25824000Y17370800D01*
D22*
X24452400Y14068800D02*
X26789200Y16405600D01*
X36847600Y23464000D02*
X36847600Y28028000D01*
X29789200Y16405600D02*
X36847600Y23464000D01*
X26789200Y16405600D02*
X29789200Y16405600D01*
X24452400Y14068800D02*
X24452400Y3197600D01*
X31513600Y22097498D02*
X31513600Y27124400D01*
X28361702Y18945600D02*
X31513600Y22097498D01*
X26789200Y18945600D02*
X28361702Y18945600D01*
X34917200Y30528000D02*
X36847600Y30528000D01*
X31513600Y27124400D02*
X34917200Y30528000D01*
X51986000Y30528000D02*
X52290800Y30832800D01*
X36847600Y30528000D02*
X51986000Y30528000D01*
X32885200Y35912800D02*
X31513600Y37284400D01*
X52290800Y35912800D02*
X32885200Y35912800D01*
X29938800Y37284400D02*
X26992400Y34338000D01*
X31513600Y37284400D02*
X29938800Y37284400D01*
X26636800Y34338000D02*
X22369600Y30070800D01*
X26992400Y34338000D02*
X26636800Y34338000D01*
X14394000Y30070800D02*
X14089200Y29766000D01*
X22369600Y30070800D02*
X14394000Y30070800D01*
X9923600Y29766000D02*
X6266000Y33423600D01*
X14089200Y29766000D02*
X9923600Y29766000D01*
X31513600Y37284400D02*
X31513600Y46174400D01*
D24*
X25214400Y19910800D02*
X26789200Y21485600D01*
X20540800Y19910800D02*
X25214400Y19910800D01*
D25*
X26789200Y26514800D02*
X26992400Y26718000D01*
X26789200Y21485600D02*
X26789200Y26514800D01*
X4589600Y18539200D02*
X7790000Y18539200D01*
M02*
