%TF.GenerationSoftware,KiCad,Pcbnew,7.0.6-7.0.6~ubuntu22.04.1*%
%TF.CreationDate,2023-07-11T06:33:26+03:00*%
%TF.ProjectId,PSU controller,50535520-636f-46e7-9472-6f6c6c65722e,rev?*%
%TF.SameCoordinates,Original*%
%TF.FileFunction,Copper,L2,Bot*%
%TF.FilePolarity,Positive*%
%FSLAX46Y46*%
G04 Gerber Fmt 4.6, Leading zero omitted, Abs format (unit mm)*
G04 Created by KiCad (PCBNEW 7.0.6-7.0.6~ubuntu22.04.1) date 2023-07-11 06:33:26*
%MOMM*%
%LPD*%
G01*
G04 APERTURE LIST*
%TA.AperFunction,ComponentPad*%
%ADD10R,1.500000X1.500000*%
%TD*%
%TA.AperFunction,ComponentPad*%
%ADD11O,1.500000X1.500000*%
%TD*%
%TA.AperFunction,ComponentPad*%
%ADD12C,3.000000*%
%TD*%
%TA.AperFunction,ComponentPad*%
%ADD13C,2.500000*%
%TD*%
%TA.AperFunction,ComponentPad*%
%ADD14R,1.050000X1.500000*%
%TD*%
%TA.AperFunction,ComponentPad*%
%ADD15O,1.050000X1.500000*%
%TD*%
%TA.AperFunction,ComponentPad*%
%ADD16R,1.700000X1.700000*%
%TD*%
%TA.AperFunction,ComponentPad*%
%ADD17O,1.700000X1.700000*%
%TD*%
%TA.AperFunction,ComponentPad*%
%ADD18R,3.000000X3.000000*%
%TD*%
%TA.AperFunction,ComponentPad*%
%ADD19C,1.600000*%
%TD*%
%TA.AperFunction,ComponentPad*%
%ADD20O,1.600000X1.600000*%
%TD*%
%TA.AperFunction,ComponentPad*%
%ADD21R,1.600000X1.600000*%
%TD*%
%TA.AperFunction,ComponentPad*%
%ADD22R,1.800000X1.800000*%
%TD*%
%TA.AperFunction,ComponentPad*%
%ADD23O,1.800000X1.800000*%
%TD*%
%TA.AperFunction,Conductor*%
%ADD24C,1.500000*%
%TD*%
%TA.AperFunction,Conductor*%
%ADD25C,0.800000*%
%TD*%
%TA.AperFunction,Profile*%
%ADD26C,0.100000*%
%TD*%
G04 APERTURE END LIST*
D10*
X42885000Y-16180000D03*
D11*
X42885000Y-8560000D03*
D12*
X10500000Y-4500000D03*
D13*
X4450000Y-6450000D03*
D12*
X4450000Y-18650000D03*
X16500000Y-18700000D03*
D13*
X16450000Y-6450000D03*
D14*
X38965424Y-5380000D03*
D15*
X40235424Y-5380000D03*
X41505424Y-5380000D03*
D16*
X42875000Y-27630000D03*
D17*
X40335000Y-27630000D03*
X37795000Y-27630000D03*
X35255000Y-27630000D03*
D18*
X21295000Y-28240000D03*
D12*
X16215000Y-28240000D03*
D19*
X45425000Y-16175000D03*
D20*
X45425000Y-8555000D03*
D19*
X37805000Y-16175000D03*
D20*
X37805000Y-8555000D03*
D19*
X40345000Y-8555000D03*
D20*
X40345000Y-16175000D03*
D19*
X42865000Y-24430000D03*
X40365000Y-24430000D03*
D21*
X40980000Y-19985000D03*
D19*
X38980000Y-19985000D03*
D22*
X45298000Y-19321000D03*
D23*
X45298000Y-21861000D03*
D18*
X5420000Y-28240000D03*
D12*
X10500000Y-28240000D03*
X28280000Y-4500000D03*
D13*
X22230000Y-6450000D03*
D12*
X22230000Y-18650000D03*
X34280000Y-18700000D03*
D13*
X34230000Y-6450000D03*
D24*
X28280000Y-4500000D02*
X28280000Y-21255000D01*
X28280000Y-21255000D02*
X21295000Y-28240000D01*
X10500000Y-4500000D02*
X2000000Y-13000000D01*
X3425000Y-30690000D02*
X13765000Y-30690000D01*
X2000000Y-29265000D02*
X3425000Y-30690000D01*
X2000000Y-13000000D02*
X2000000Y-29265000D01*
X13765000Y-30690000D02*
X16215000Y-28240000D01*
X4450000Y-18650000D02*
X4450000Y-27270000D01*
X4450000Y-27270000D02*
X5420000Y-28240000D01*
X20090000Y-18650000D02*
X10500000Y-28240000D01*
X22230000Y-18650000D02*
X20090000Y-18650000D01*
D25*
X30180000Y-2400000D02*
X20500000Y-2400000D01*
X45298000Y-21997000D02*
X42865000Y-24430000D01*
X42875000Y-27630000D02*
X39725000Y-30780000D01*
X40980000Y-22545000D02*
X42865000Y-24430000D01*
X30454999Y-28019213D02*
X30454999Y-10225001D01*
X40980000Y-19985000D02*
X40980000Y-22545000D01*
X39725000Y-30780000D02*
X33215786Y-30780000D01*
X40980000Y-18085000D02*
X40980000Y-19985000D01*
X42875000Y-27615000D02*
X42885000Y-27605000D01*
X33215786Y-30780000D02*
X30454999Y-28019213D01*
X45298000Y-21861000D02*
X45298000Y-21997000D01*
X42885000Y-16180000D02*
X40980000Y-18085000D01*
X30454999Y-10225001D02*
X34230000Y-6450000D01*
X20500000Y-2400000D02*
X16450000Y-6450000D01*
X42865000Y-27585000D02*
X42865000Y-24430000D01*
X34230000Y-6450000D02*
X30180000Y-2400000D01*
X42875000Y-27630000D02*
X42875000Y-27615000D01*
X42865000Y-24430000D02*
X42885000Y-24430000D01*
X42885000Y-27605000D02*
X42865000Y-27585000D01*
X37795000Y-27630000D02*
X35915000Y-29510000D01*
X33360000Y-29510000D02*
X31455000Y-27605000D01*
X38980000Y-23045000D02*
X40365000Y-24430000D01*
X36535000Y-8555000D02*
X37805000Y-8555000D01*
X35915000Y-29510000D02*
X33360000Y-29510000D01*
X37795000Y-27630000D02*
X40335000Y-27630000D01*
X40335000Y-24460000D02*
X40365000Y-24430000D01*
X37805000Y-6540424D02*
X38965424Y-5380000D01*
X40335000Y-27630000D02*
X40335000Y-24460000D01*
X38980000Y-19985000D02*
X38980000Y-23045000D01*
X31455000Y-27605000D02*
X31455000Y-13635000D01*
X37805000Y-8555000D02*
X37805000Y-6540424D01*
X31455000Y-13635000D02*
X36535000Y-8555000D01*
X37170000Y-23795000D02*
X35255000Y-25710000D01*
X35255000Y-25710000D02*
X35255000Y-27630000D01*
X40345000Y-16175000D02*
X37170000Y-19350000D01*
X37170000Y-19350000D02*
X37170000Y-23795000D01*
X41505424Y-5380000D02*
X41505424Y-7180424D01*
X15938704Y-8555000D02*
X20125000Y-8555000D01*
X16385001Y-1399999D02*
X14600000Y-3185000D01*
X20125000Y-8555000D02*
X22230000Y-6450000D01*
X41505424Y-7180424D02*
X42885000Y-8560000D01*
X16385001Y-1399999D02*
X9500001Y-1399999D01*
X14600000Y-7216296D02*
X15938704Y-8555000D01*
X9500001Y-1399999D02*
X4450000Y-6450000D01*
X41505424Y-5380000D02*
X41505424Y-3830000D01*
X41505424Y-3830000D02*
X39075423Y-1399999D01*
X39075423Y-1399999D02*
X16385001Y-1399999D01*
X14600000Y-3185000D02*
X14600000Y-7216296D01*
X42885000Y-8560000D02*
X45420000Y-8560000D01*
X45420000Y-8560000D02*
X45425000Y-8555000D01*
X45425000Y-16175000D02*
X45425000Y-19194000D01*
X45425000Y-19194000D02*
X45298000Y-19321000D01*
X37805000Y-11095000D02*
X40345000Y-8555000D01*
X37805000Y-16175000D02*
X37805000Y-11095000D01*
X40345000Y-8555000D02*
X40345000Y-5489576D01*
X40345000Y-5489576D02*
X40235424Y-5380000D01*
D26*
X340000Y-300000D02*
X47965000Y-300000D01*
X47965000Y-17445000D02*
X47965000Y-32685000D01*
X47965000Y-300000D02*
X47965000Y-16810000D01*
X340000Y-32685000D02*
X340000Y-300000D01*
X47965000Y-16810000D02*
X47965000Y-17445000D01*
X47965000Y-32685000D02*
X340000Y-32685000D01*
M02*
