%TF.GenerationSoftware,KiCad,Pcbnew,6.0.10-86aedd382b~118~ubuntu20.04.1*%
%TF.CreationDate,2022-12-25T21:54:14+02:00*%
%TF.ProjectId,PSU controller,50535520-636f-46e7-9472-6f6c6c65722e,rev?*%
%TF.SameCoordinates,Original*%
%TF.FileFunction,Copper,L1,Top*%
%TF.FilePolarity,Positive*%
%FSLAX46Y46*%
G04 Gerber Fmt 4.6, Leading zero omitted, Abs format (unit mm)*
G04 Created by KiCad (PCBNEW 6.0.10-86aedd382b~118~ubuntu20.04.1) date 2022-12-25 21:54:14*
%MOMM*%
%LPD*%
G01*
G04 APERTURE LIST*
%TA.AperFunction,Profile*%
%ADD10C,0.100000*%
%TD*%
%TA.AperFunction,ComponentPad*%
%ADD11R,1.500000X1.500000*%
%TD*%
%TA.AperFunction,ComponentPad*%
%ADD12O,1.500000X1.500000*%
%TD*%
%TA.AperFunction,ComponentPad*%
%ADD13C,3.000000*%
%TD*%
%TA.AperFunction,ComponentPad*%
%ADD14C,2.500000*%
%TD*%
%TA.AperFunction,ComponentPad*%
%ADD15R,1.050000X1.500000*%
%TD*%
%TA.AperFunction,ComponentPad*%
%ADD16O,1.050000X1.500000*%
%TD*%
%TA.AperFunction,ComponentPad*%
%ADD17R,1.700000X1.700000*%
%TD*%
%TA.AperFunction,ComponentPad*%
%ADD18O,1.700000X1.700000*%
%TD*%
%TA.AperFunction,ComponentPad*%
%ADD19R,3.000000X3.000000*%
%TD*%
%TA.AperFunction,ComponentPad*%
%ADD20C,1.600000*%
%TD*%
%TA.AperFunction,ComponentPad*%
%ADD21O,1.600000X1.600000*%
%TD*%
%TA.AperFunction,ComponentPad*%
%ADD22R,1.600000X1.600000*%
%TD*%
%TA.AperFunction,ComponentPad*%
%ADD23R,1.800000X1.800000*%
%TD*%
%TA.AperFunction,ComponentPad*%
%ADD24O,1.800000X1.800000*%
%TD*%
%TA.AperFunction,Conductor*%
%ADD25C,1.500000*%
%TD*%
%TA.AperFunction,Conductor*%
%ADD26C,0.800000*%
%TD*%
G04 APERTURE END LIST*
D10*
X124460000Y-109220000D02*
X172085000Y-109220000D01*
X172085000Y-126365000D02*
X172085000Y-141605000D01*
X172085000Y-109220000D02*
X172085000Y-125730000D01*
X124460000Y-141605000D02*
X124460000Y-109220000D01*
X172085000Y-125730000D02*
X172085000Y-126365000D01*
X172085000Y-141605000D02*
X124460000Y-141605000D01*
D11*
%TO.P,D1,1,K*%
%TO.N,+12V*%
X167005000Y-125100000D03*
D12*
%TO.P,D1,2,A*%
%TO.N,Net-(Q1-Pad3)*%
X167005000Y-117480000D03*
%TD*%
D13*
%TO.P,Relay2,1*%
%TO.N,Net-(AC_in1-Pad2)*%
X134620000Y-113420000D03*
D14*
%TO.P,Relay2,2*%
%TO.N,Net-(Q1-Pad3)*%
X128570000Y-115370000D03*
D13*
%TO.P,Relay2,3*%
%TO.N,Net-(Relay2-Pad3)*%
X128570000Y-127570000D03*
%TO.P,Relay2,4*%
%TO.N,unconnected-(Relay2-Pad4)*%
X140620000Y-127620000D03*
D14*
%TO.P,Relay2,5*%
%TO.N,+12V*%
X140570000Y-115370000D03*
%TD*%
D15*
%TO.P,Q1,1,E*%
%TO.N,GND*%
X163085424Y-114300000D03*
D16*
%TO.P,Q1,2,B*%
%TO.N,Net-(R1-Pad1)*%
X164355424Y-114300000D03*
%TO.P,Q1,3,C*%
%TO.N,Net-(Q1-Pad3)*%
X165625424Y-114300000D03*
%TD*%
D17*
%TO.P,CircuitPowerControl1,1,Pin_1*%
%TO.N,+12V*%
X166995000Y-136550000D03*
D18*
%TO.P,CircuitPowerControl1,2,Pin_2*%
%TO.N,GND*%
X164455000Y-136550000D03*
%TO.P,CircuitPowerControl1,3,Pin_3*%
X161915000Y-136550000D03*
%TO.P,CircuitPowerControl1,4,Pin_4*%
%TO.N,Net-(CircuitPowerControl1-Pad4)*%
X159375000Y-136550000D03*
%TD*%
D19*
%TO.P,AC_in1,1,Pin_1*%
%TO.N,Net-(AC_in1-Pad1)*%
X145415000Y-137160000D03*
D13*
%TO.P,AC_in1,2,Pin_2*%
%TO.N,Net-(AC_in1-Pad2)*%
X140335000Y-137160000D03*
%TD*%
D20*
%TO.P,R3,1*%
%TO.N,Net-(LED1-Pad1)*%
X169545000Y-125095000D03*
D21*
%TO.P,R3,2*%
%TO.N,Net-(Q1-Pad3)*%
X169545000Y-117475000D03*
%TD*%
D20*
%TO.P,R1,1*%
%TO.N,Net-(R1-Pad1)*%
X161925000Y-125095000D03*
D21*
%TO.P,R1,2*%
%TO.N,GND*%
X161925000Y-117475000D03*
%TD*%
D20*
%TO.P,R2,1*%
%TO.N,Net-(R1-Pad1)*%
X164465000Y-117475000D03*
D21*
%TO.P,R2,2*%
%TO.N,Net-(CircuitPowerControl1-Pad4)*%
X164465000Y-125095000D03*
%TD*%
D20*
%TO.P,C1,1*%
%TO.N,+12V*%
X166985000Y-133350000D03*
%TO.P,C1,2*%
%TO.N,GND*%
X164485000Y-133350000D03*
%TD*%
D22*
%TO.P,CP1,1*%
%TO.N,+12V*%
X166690112Y-128905000D03*
D20*
%TO.P,CP1,2*%
%TO.N,GND*%
X164690112Y-128905000D03*
%TD*%
D23*
%TO.P,LED1,1,K*%
%TO.N,Net-(LED1-Pad1)*%
X170180000Y-127635000D03*
D24*
%TO.P,LED1,2,A*%
%TO.N,+12V*%
X170180000Y-130175000D03*
%TD*%
D19*
%TO.P,AC_out1,1,Pin_1*%
%TO.N,Net-(Relay2-Pad3)*%
X129540000Y-137160000D03*
D13*
%TO.P,AC_out1,2,Pin_2*%
%TO.N,Net-(AC_out1-Pad2)*%
X134620000Y-137160000D03*
%TD*%
%TO.P,Relay1,1*%
%TO.N,Net-(AC_in1-Pad1)*%
X152400000Y-113420000D03*
D14*
%TO.P,Relay1,2*%
%TO.N,Net-(Q1-Pad3)*%
X146350000Y-115370000D03*
D13*
%TO.P,Relay1,3*%
%TO.N,Net-(AC_out1-Pad2)*%
X146350000Y-127570000D03*
%TO.P,Relay1,4*%
%TO.N,unconnected-(Relay1-Pad4)*%
X158400000Y-127620000D03*
D14*
%TO.P,Relay1,5*%
%TO.N,+12V*%
X158350000Y-115370000D03*
%TD*%
D25*
%TO.N,Net-(AC_in1-Pad1)*%
X152400000Y-113420000D02*
X152400000Y-130175000D01*
X152400000Y-130175000D02*
X145415000Y-137160000D01*
%TO.N,Net-(AC_in1-Pad2)*%
X134620000Y-113420000D02*
X126120000Y-121920000D01*
X127545000Y-139610000D02*
X137885000Y-139610000D01*
X126120000Y-138185000D02*
X127545000Y-139610000D01*
X126120000Y-121920000D02*
X126120000Y-138185000D01*
X137885000Y-139610000D02*
X140335000Y-137160000D01*
%TO.N,Net-(Relay2-Pad3)*%
X128570000Y-127570000D02*
X128570000Y-136190000D01*
X128570000Y-136190000D02*
X129540000Y-137160000D01*
%TO.N,Net-(AC_out1-Pad2)*%
X144210000Y-127570000D02*
X134620000Y-137160000D01*
X146350000Y-127570000D02*
X144210000Y-127570000D01*
D26*
%TO.N,+12V*%
X154300000Y-111320000D02*
X144620000Y-111320000D01*
X166995000Y-136550000D02*
X163845000Y-139700000D01*
X154574999Y-136939213D02*
X154574999Y-119145001D01*
X167005000Y-133350000D02*
X170180000Y-130175000D01*
X166690112Y-128905000D02*
X166690112Y-125414888D01*
X163845000Y-139700000D02*
X157335786Y-139700000D01*
X166995000Y-136535000D02*
X167005000Y-136525000D01*
X157335786Y-139700000D02*
X154574999Y-136939213D01*
X166985000Y-133350000D02*
X167005000Y-133350000D01*
X167960112Y-130175000D02*
X166690112Y-128905000D01*
X154574999Y-119145001D02*
X158350000Y-115370000D01*
X144620000Y-111320000D02*
X140570000Y-115370000D01*
X166985000Y-136505000D02*
X166985000Y-133350000D01*
X158350000Y-115370000D02*
X154300000Y-111320000D01*
X166995000Y-136550000D02*
X166995000Y-136535000D01*
X166690112Y-125414888D02*
X167005000Y-125100000D01*
X167005000Y-136525000D02*
X166985000Y-136505000D01*
X170180000Y-130175000D02*
X167960112Y-130175000D01*
%TO.N,GND*%
X161915000Y-136550000D02*
X160035000Y-138430000D01*
X157480000Y-138430000D02*
X155575000Y-136525000D01*
X164485000Y-133350000D02*
X164485000Y-129110112D01*
X160655000Y-117475000D02*
X161925000Y-117475000D01*
X160035000Y-138430000D02*
X157480000Y-138430000D01*
X161915000Y-136550000D02*
X164455000Y-136550000D01*
X164455000Y-133380000D02*
X164485000Y-133350000D01*
X161925000Y-115460424D02*
X163085424Y-114300000D01*
X164455000Y-136550000D02*
X164455000Y-133380000D01*
X155575000Y-136525000D02*
X155575000Y-122555000D01*
X164485000Y-129110112D02*
X164690112Y-128905000D01*
X161925000Y-117475000D02*
X161925000Y-115460424D01*
X155575000Y-122555000D02*
X160655000Y-117475000D01*
%TO.N,Net-(CircuitPowerControl1-Pad4)*%
X161290000Y-132715000D02*
X159375000Y-134630000D01*
X159375000Y-134630000D02*
X159375000Y-136550000D01*
X164465000Y-125095000D02*
X161290000Y-128270000D01*
X161290000Y-128270000D02*
X161290000Y-132715000D01*
%TO.N,Net-(Q1-Pad3)*%
X165625424Y-114300000D02*
X165625424Y-116100424D01*
X140058704Y-117475000D02*
X144245000Y-117475000D01*
X140505001Y-110319999D02*
X138720000Y-112105000D01*
X144245000Y-117475000D02*
X146350000Y-115370000D01*
X165625424Y-116100424D02*
X167005000Y-117480000D01*
X140505001Y-110319999D02*
X133620001Y-110319999D01*
X138720000Y-116136296D02*
X140058704Y-117475000D01*
X133620001Y-110319999D02*
X128570000Y-115370000D01*
X165625424Y-114300000D02*
X165625424Y-112750000D01*
X165625424Y-112750000D02*
X163195423Y-110319999D01*
X163195423Y-110319999D02*
X140505001Y-110319999D01*
X138720000Y-112105000D02*
X138720000Y-116136296D01*
X167005000Y-117480000D02*
X169540000Y-117480000D01*
X169540000Y-117480000D02*
X169545000Y-117475000D01*
%TO.N,Net-(LED1-Pad1)*%
X170180000Y-125730000D02*
X169545000Y-125095000D01*
X170180000Y-127635000D02*
X170180000Y-125730000D01*
%TO.N,Net-(R1-Pad1)*%
X161925000Y-120015000D02*
X164465000Y-117475000D01*
X161925000Y-125095000D02*
X161925000Y-120015000D01*
X164465000Y-117475000D02*
X164465000Y-114409576D01*
X164465000Y-114409576D02*
X164355424Y-114300000D01*
%TD*%
M02*
