%TF.GenerationSoftware,KiCad,Pcbnew,6.0.10-86aedd382b~118~ubuntu20.04.1*%
%TF.CreationDate,2023-01-05T00:51:07+02:00*%
%TF.ProjectId,PSU controller,50535520-636f-46e7-9472-6f6c6c65722e,rev?*%
%TF.SameCoordinates,Original*%
%TF.FileFunction,Copper,L1,Top*%
%TF.FilePolarity,Positive*%
%FSLAX46Y46*%
G04 Gerber Fmt 4.6, Leading zero omitted, Abs format (unit mm)*
G04 Created by KiCad (PCBNEW 6.0.10-86aedd382b~118~ubuntu20.04.1) date 2023-01-05 00:51:07*
%MOMM*%
%LPD*%
G01*
G04 APERTURE LIST*
%TA.AperFunction,Profile*%
%ADD10C,0.100000*%
%TD*%
%TA.AperFunction,ComponentPad*%
%ADD11O,1.500000X1.500000*%
%TD*%
%TA.AperFunction,ComponentPad*%
%ADD12R,1.500000X1.500000*%
%TD*%
%TA.AperFunction,ComponentPad*%
%ADD13C,2.500000*%
%TD*%
%TA.AperFunction,ComponentPad*%
%ADD14C,3.000000*%
%TD*%
%TA.AperFunction,ComponentPad*%
%ADD15O,1.050000X1.500000*%
%TD*%
%TA.AperFunction,ComponentPad*%
%ADD16R,1.050000X1.500000*%
%TD*%
%TA.AperFunction,ComponentPad*%
%ADD17O,1.700000X1.700000*%
%TD*%
%TA.AperFunction,ComponentPad*%
%ADD18R,1.700000X1.700000*%
%TD*%
%TA.AperFunction,ComponentPad*%
%ADD19R,3.000000X3.000000*%
%TD*%
%TA.AperFunction,ComponentPad*%
%ADD20O,1.600000X1.600000*%
%TD*%
%TA.AperFunction,ComponentPad*%
%ADD21C,1.600000*%
%TD*%
%TA.AperFunction,ComponentPad*%
%ADD22R,1.600000X1.600000*%
%TD*%
%TA.AperFunction,ComponentPad*%
%ADD23O,1.800000X1.800000*%
%TD*%
%TA.AperFunction,ComponentPad*%
%ADD24R,1.800000X1.800000*%
%TD*%
%TA.AperFunction,Conductor*%
%ADD25C,1.500000*%
%TD*%
%TA.AperFunction,Conductor*%
%ADD26C,0.800000*%
%TD*%
G04 APERTURE END LIST*
D10*
X130429000Y-80772000D02*
X178054000Y-80772000D01*
X178054000Y-97917000D02*
X178054000Y-113157000D01*
X178054000Y-80772000D02*
X178054000Y-97282000D01*
X130429000Y-113157000D02*
X130429000Y-80772000D01*
X178054000Y-97282000D02*
X178054000Y-97917000D01*
X178054000Y-113157000D02*
X130429000Y-113157000D01*
D11*
X172974000Y-89032000D03*
D12*
X172974000Y-96652000D03*
D13*
X146539000Y-86922000D03*
D14*
X146589000Y-99172000D03*
X134539000Y-99122000D03*
D13*
X134539000Y-86922000D03*
D14*
X140589000Y-84972000D03*
D15*
X171594424Y-85852000D03*
X170324424Y-85852000D03*
D16*
X169054424Y-85852000D03*
D17*
X165344000Y-108102000D03*
X167884000Y-108102000D03*
X170424000Y-108102000D03*
D18*
X172964000Y-108102000D03*
D14*
X146304000Y-108712000D03*
D19*
X151384000Y-108712000D03*
D20*
X175514000Y-89027000D03*
D21*
X175514000Y-96647000D03*
D20*
X167894000Y-89027000D03*
D21*
X167894000Y-96647000D03*
D20*
X170434000Y-96647000D03*
D21*
X170434000Y-89027000D03*
X170454000Y-104902000D03*
X172954000Y-104902000D03*
X169069000Y-100457000D03*
D22*
X171069000Y-100457000D03*
D23*
X175387000Y-102333000D03*
D24*
X175387000Y-99793000D03*
D14*
X140589000Y-108712000D03*
D19*
X135509000Y-108712000D03*
D13*
X164319000Y-86922000D03*
D14*
X164369000Y-99172000D03*
X152319000Y-99122000D03*
D13*
X152319000Y-86922000D03*
D14*
X158369000Y-84972000D03*
D25*
X158369000Y-84972000D02*
X158369000Y-101727000D01*
X158369000Y-101727000D02*
X151384000Y-108712000D01*
X140589000Y-84972000D02*
X132089000Y-93472000D01*
X133514000Y-111162000D02*
X143854000Y-111162000D01*
X132089000Y-109737000D02*
X133514000Y-111162000D01*
X132089000Y-93472000D02*
X132089000Y-109737000D01*
X143854000Y-111162000D02*
X146304000Y-108712000D01*
X134539000Y-99122000D02*
X134539000Y-107742000D01*
X134539000Y-107742000D02*
X135509000Y-108712000D01*
X150179000Y-99122000D02*
X140589000Y-108712000D01*
X152319000Y-99122000D02*
X150179000Y-99122000D01*
D26*
X160269000Y-82872000D02*
X150589000Y-82872000D01*
X175387000Y-102469000D02*
X172954000Y-104902000D01*
X172964000Y-108102000D02*
X169814000Y-111252000D01*
X171069000Y-103017000D02*
X172954000Y-104902000D01*
X160543999Y-108491213D02*
X160543999Y-90697001D01*
X171069000Y-100457000D02*
X171069000Y-103017000D01*
X169814000Y-111252000D02*
X163304786Y-111252000D01*
X171069000Y-98557000D02*
X171069000Y-100457000D01*
X172964000Y-108087000D02*
X172974000Y-108077000D01*
X163304786Y-111252000D02*
X160543999Y-108491213D01*
X175387000Y-102333000D02*
X175387000Y-102469000D01*
X172974000Y-96652000D02*
X171069000Y-98557000D01*
X160543999Y-90697001D02*
X164319000Y-86922000D01*
X150589000Y-82872000D02*
X146539000Y-86922000D01*
X172954000Y-108057000D02*
X172954000Y-104902000D01*
X164319000Y-86922000D02*
X160269000Y-82872000D01*
X172964000Y-108102000D02*
X172964000Y-108087000D01*
X172954000Y-104902000D02*
X172974000Y-104902000D01*
X172974000Y-108077000D02*
X172954000Y-108057000D01*
X167884000Y-108102000D02*
X166004000Y-109982000D01*
X163449000Y-109982000D02*
X161544000Y-108077000D01*
X169069000Y-103517000D02*
X170454000Y-104902000D01*
X166624000Y-89027000D02*
X167894000Y-89027000D01*
X166004000Y-109982000D02*
X163449000Y-109982000D01*
X167884000Y-108102000D02*
X170424000Y-108102000D01*
X170424000Y-104932000D02*
X170454000Y-104902000D01*
X167894000Y-87012424D02*
X169054424Y-85852000D01*
X170424000Y-108102000D02*
X170424000Y-104932000D01*
X169069000Y-100457000D02*
X169069000Y-103517000D01*
X161544000Y-108077000D02*
X161544000Y-94107000D01*
X167894000Y-89027000D02*
X167894000Y-87012424D01*
X161544000Y-94107000D02*
X166624000Y-89027000D01*
X167259000Y-104267000D02*
X165344000Y-106182000D01*
X165344000Y-106182000D02*
X165344000Y-108102000D01*
X170434000Y-96647000D02*
X167259000Y-99822000D01*
X167259000Y-99822000D02*
X167259000Y-104267000D01*
X171594424Y-85852000D02*
X171594424Y-87652424D01*
X146027704Y-89027000D02*
X150214000Y-89027000D01*
X146474001Y-81871999D02*
X144689000Y-83657000D01*
X150214000Y-89027000D02*
X152319000Y-86922000D01*
X171594424Y-87652424D02*
X172974000Y-89032000D01*
X146474001Y-81871999D02*
X139589001Y-81871999D01*
X144689000Y-87688296D02*
X146027704Y-89027000D01*
X139589001Y-81871999D02*
X134539000Y-86922000D01*
X171594424Y-85852000D02*
X171594424Y-84302000D01*
X171594424Y-84302000D02*
X169164423Y-81871999D01*
X169164423Y-81871999D02*
X146474001Y-81871999D01*
X144689000Y-83657000D02*
X144689000Y-87688296D01*
X172974000Y-89032000D02*
X175509000Y-89032000D01*
X175509000Y-89032000D02*
X175514000Y-89027000D01*
X175514000Y-96647000D02*
X175514000Y-99666000D01*
X175514000Y-99666000D02*
X175387000Y-99793000D01*
X167894000Y-91567000D02*
X170434000Y-89027000D01*
X167894000Y-96647000D02*
X167894000Y-91567000D01*
X170434000Y-89027000D02*
X170434000Y-85961576D01*
X170434000Y-85961576D02*
X170324424Y-85852000D01*
M02*
