%TF.GenerationSoftware,KiCad,Pcbnew,6.0.10-86aedd382b~118~ubuntu20.04.1*%
%TF.CreationDate,2022-12-28T23:40:20+02:00*%
%TF.ProjectId,PSU controller,50535520-636f-46e7-9472-6f6c6c65722e,rev?*%
%TF.SameCoordinates,Original*%
%TF.FileFunction,Copper,L1,Top*%
%TF.FilePolarity,Positive*%
%FSLAX46Y46*%
G04 Gerber Fmt 4.6, Leading zero omitted, Abs format (unit mm)*
G04 Created by KiCad (PCBNEW 6.0.10-86aedd382b~118~ubuntu20.04.1) date 2022-12-28 23:40:20*
%MOMM*%
%LPD*%
G01*
G04 APERTURE LIST*
%TA.AperFunction,Profile*%
%ADD10C,0.100000*%
%TD*%
%TA.AperFunction,ComponentPad*%
%ADD11O,1.500000X1.500000*%
%TD*%
%TA.AperFunction,ComponentPad*%
%ADD12R,1.500000X1.500000*%
%TD*%
%TA.AperFunction,ComponentPad*%
%ADD13C,2.500000*%
%TD*%
%TA.AperFunction,ComponentPad*%
%ADD14C,3.000000*%
%TD*%
%TA.AperFunction,ComponentPad*%
%ADD15O,1.050000X1.500000*%
%TD*%
%TA.AperFunction,ComponentPad*%
%ADD16R,1.050000X1.500000*%
%TD*%
%TA.AperFunction,ComponentPad*%
%ADD17O,1.700000X1.700000*%
%TD*%
%TA.AperFunction,ComponentPad*%
%ADD18R,1.700000X1.700000*%
%TD*%
%TA.AperFunction,ComponentPad*%
%ADD19R,3.000000X3.000000*%
%TD*%
%TA.AperFunction,ComponentPad*%
%ADD20O,1.600000X1.600000*%
%TD*%
%TA.AperFunction,ComponentPad*%
%ADD21C,1.600000*%
%TD*%
%TA.AperFunction,ComponentPad*%
%ADD22R,1.600000X1.600000*%
%TD*%
%TA.AperFunction,ComponentPad*%
%ADD23O,1.800000X1.800000*%
%TD*%
%TA.AperFunction,ComponentPad*%
%ADD24R,1.800000X1.800000*%
%TD*%
%TA.AperFunction,Conductor*%
%ADD25C,1.500000*%
%TD*%
%TA.AperFunction,Conductor*%
%ADD26C,0.800000*%
%TD*%
G04 APERTURE END LIST*
D10*
X124460000Y-109220000D02*
X172085000Y-109220000D01*
X172085000Y-126365000D02*
X172085000Y-141605000D01*
X172085000Y-109220000D02*
X172085000Y-125730000D01*
X124460000Y-141605000D02*
X124460000Y-109220000D01*
X172085000Y-125730000D02*
X172085000Y-126365000D01*
X172085000Y-141605000D02*
X124460000Y-141605000D01*
D11*
X167005000Y-117480000D03*
D12*
X167005000Y-125100000D03*
D13*
X140570000Y-115370000D03*
D14*
X140620000Y-127620000D03*
X128570000Y-127570000D03*
D13*
X128570000Y-115370000D03*
D14*
X134620000Y-113420000D03*
D15*
X165625424Y-114300000D03*
X164355424Y-114300000D03*
D16*
X163085424Y-114300000D03*
D17*
X159375000Y-136550000D03*
X161915000Y-136550000D03*
X164455000Y-136550000D03*
D18*
X166995000Y-136550000D03*
D14*
X140335000Y-137160000D03*
D19*
X145415000Y-137160000D03*
D20*
X169545000Y-117475000D03*
D21*
X169545000Y-125095000D03*
D20*
X161925000Y-117475000D03*
D21*
X161925000Y-125095000D03*
D20*
X164465000Y-125095000D03*
D21*
X164465000Y-117475000D03*
X164485000Y-133350000D03*
X166985000Y-133350000D03*
X163100000Y-128905000D03*
D22*
X165100000Y-128905000D03*
D23*
X169418000Y-130781000D03*
D24*
X169418000Y-128241000D03*
D14*
X134620000Y-137160000D03*
D19*
X129540000Y-137160000D03*
D13*
X158350000Y-115370000D03*
D14*
X158400000Y-127620000D03*
X146350000Y-127570000D03*
D13*
X146350000Y-115370000D03*
D14*
X152400000Y-113420000D03*
D25*
X144210000Y-127570000D02*
X134620000Y-137160000D01*
X146350000Y-127570000D02*
X144210000Y-127570000D01*
X128570000Y-127570000D02*
X128570000Y-136190000D01*
X128570000Y-136190000D02*
X129540000Y-137160000D01*
D26*
X155575000Y-136525000D02*
X155575000Y-122555000D01*
X155575000Y-122555000D02*
X160655000Y-117475000D01*
X160655000Y-117475000D02*
X161925000Y-117475000D01*
X154574999Y-119145001D02*
X158350000Y-115370000D01*
X154574999Y-136939213D02*
X154574999Y-119145001D01*
X157480000Y-138430000D02*
X155575000Y-136525000D01*
X160035000Y-138430000D02*
X157480000Y-138430000D01*
X161915000Y-136550000D02*
X160035000Y-138430000D01*
X161290000Y-128270000D02*
X161290000Y-132715000D01*
X164465000Y-125095000D02*
X161290000Y-128270000D01*
X159375000Y-134630000D02*
X159375000Y-136550000D01*
X161290000Y-132715000D02*
X159375000Y-134630000D01*
X158350000Y-115370000D02*
X154300000Y-111320000D01*
X154300000Y-111320000D02*
X144620000Y-111320000D01*
X144620000Y-111320000D02*
X140570000Y-115370000D01*
X144245000Y-117475000D02*
X146350000Y-115370000D01*
X140058704Y-117475000D02*
X144245000Y-117475000D01*
D25*
X152400000Y-113420000D02*
X152400000Y-130175000D01*
X152400000Y-130175000D02*
X145415000Y-137160000D01*
D26*
X166995000Y-136550000D02*
X163845000Y-139700000D01*
X163845000Y-139700000D02*
X157335786Y-139700000D01*
X157335786Y-139700000D02*
X154574999Y-136939213D01*
D25*
X134620000Y-113420000D02*
X126120000Y-121920000D01*
X127545000Y-139610000D02*
X137885000Y-139610000D01*
X126120000Y-138185000D02*
X127545000Y-139610000D01*
X126120000Y-121920000D02*
X126120000Y-138185000D01*
X137885000Y-139610000D02*
X140335000Y-137160000D01*
D26*
X169418000Y-130917000D02*
X166985000Y-133350000D01*
X165100000Y-131465000D02*
X166985000Y-133350000D01*
X165100000Y-128905000D02*
X165100000Y-131465000D01*
X165100000Y-127005000D02*
X165100000Y-128905000D01*
X166995000Y-136535000D02*
X167005000Y-136525000D01*
X169418000Y-130781000D02*
X169418000Y-130917000D01*
X167005000Y-125100000D02*
X165100000Y-127005000D01*
X166985000Y-136505000D02*
X166985000Y-133350000D01*
X166995000Y-136550000D02*
X166995000Y-136535000D01*
X166985000Y-133350000D02*
X167005000Y-133350000D01*
X167005000Y-136525000D02*
X166985000Y-136505000D01*
X163100000Y-131965000D02*
X164485000Y-133350000D01*
X161915000Y-136550000D02*
X164455000Y-136550000D01*
X164455000Y-133380000D02*
X164485000Y-133350000D01*
X161925000Y-115460424D02*
X163085424Y-114300000D01*
X164455000Y-136550000D02*
X164455000Y-133380000D01*
X163100000Y-128905000D02*
X163100000Y-131965000D01*
X161925000Y-117475000D02*
X161925000Y-115460424D01*
X165625424Y-114300000D02*
X165625424Y-116100424D01*
X140505001Y-110319999D02*
X138720000Y-112105000D01*
X165625424Y-116100424D02*
X167005000Y-117480000D01*
X140505001Y-110319999D02*
X133620001Y-110319999D01*
X138720000Y-116136296D02*
X140058704Y-117475000D01*
X133620001Y-110319999D02*
X128570000Y-115370000D01*
X165625424Y-114300000D02*
X165625424Y-112750000D01*
X165625424Y-112750000D02*
X163195423Y-110319999D01*
X163195423Y-110319999D02*
X140505001Y-110319999D01*
X138720000Y-112105000D02*
X138720000Y-116136296D01*
X167005000Y-117480000D02*
X169540000Y-117480000D01*
X169540000Y-117480000D02*
X169545000Y-117475000D01*
X169545000Y-125095000D02*
X169545000Y-128114000D01*
X169545000Y-128114000D02*
X169418000Y-128241000D01*
X161925000Y-120015000D02*
X164465000Y-117475000D01*
X161925000Y-125095000D02*
X161925000Y-120015000D01*
X164465000Y-117475000D02*
X164465000Y-114409576D01*
X164465000Y-114409576D02*
X164355424Y-114300000D01*
M02*
