%TF.GenerationSoftware,KiCad,Pcbnew,7.0.8*%
%TF.CreationDate,2023-11-18T19:46:02+02:00*%
%TF.ProjectId,limit_switch,6c696d69-745f-4737-9769-7463682e6b69,rev?*%
%TF.SameCoordinates,Original*%
%TF.FileFunction,Copper,L1,Top*%
%TF.FilePolarity,Positive*%
%FSLAX46Y46*%
G04 Gerber Fmt 4.6, Leading zero omitted, Abs format (unit mm)*
G04 Created by KiCad (PCBNEW 7.0.8) date 2023-11-18 19:46:02*
%MOMM*%
%LPD*%
G01*
G04 APERTURE LIST*
%TA.AperFunction,ComponentPad*%
%ADD10C,1.600000*%
%TD*%
%TA.AperFunction,ComponentPad*%
%ADD11O,1.600000X1.600000*%
%TD*%
%TA.AperFunction,ComponentPad*%
%ADD12R,1.700000X1.700000*%
%TD*%
%TA.AperFunction,ComponentPad*%
%ADD13O,1.700000X1.700000*%
%TD*%
%TA.AperFunction,ComponentPad*%
%ADD14R,1.600000X1.600000*%
%TD*%
%TA.AperFunction,Conductor*%
%ADD15C,0.800000*%
%TD*%
%TA.AperFunction,Profile*%
%ADD16C,0.100000*%
%TD*%
G04 APERTURE END LIST*
D10*
X154051000Y-110363000D03*
D11*
X146431000Y-110363000D03*
D10*
X126873000Y-104775000D03*
D11*
X134493000Y-104775000D03*
D12*
X124034000Y-111565000D03*
D13*
X124034000Y-114105000D03*
D12*
X124034000Y-105507000D03*
D13*
X124034000Y-108047000D03*
D14*
X136662000Y-110358000D03*
D11*
X136662000Y-112898000D03*
X144282000Y-112898000D03*
X144282000Y-110358000D03*
D10*
X154051000Y-99187000D03*
D11*
X146431000Y-99187000D03*
D10*
X126873000Y-109728000D03*
D11*
X134493000Y-109728000D03*
D12*
X124034000Y-117699000D03*
D13*
X124034000Y-120239000D03*
D12*
X124034000Y-99411000D03*
D13*
X124034000Y-101951000D03*
D12*
X157353000Y-110871000D03*
D13*
X157353000Y-108331000D03*
X157353000Y-105791000D03*
D10*
X154051000Y-104775000D03*
D11*
X146431000Y-104775000D03*
D14*
X136662000Y-104770000D03*
D11*
X136662000Y-107310000D03*
X144282000Y-107310000D03*
X144282000Y-104770000D03*
D10*
X126873000Y-99187000D03*
D11*
X134493000Y-99187000D03*
D12*
X157353000Y-101981000D03*
D13*
X157353000Y-99441000D03*
D14*
X136662000Y-99182000D03*
D11*
X136662000Y-101722000D03*
X144282000Y-101722000D03*
X144282000Y-99182000D03*
D15*
X146147000Y-114763000D02*
X144282000Y-112898000D01*
X142748000Y-108844000D02*
X142748000Y-103256000D01*
X157353000Y-101981000D02*
X160877001Y-105505001D01*
X158837956Y-114763000D02*
X146147000Y-114763000D01*
X160877001Y-105505001D02*
X160877001Y-112723955D01*
X142748000Y-108844000D02*
X144282000Y-107310000D01*
X142748000Y-103256000D02*
X144282000Y-101722000D01*
X160877001Y-112723955D02*
X158837956Y-114763000D01*
X142748000Y-111364000D02*
X142748000Y-108844000D01*
X144282000Y-112898000D02*
X142748000Y-111364000D01*
X126873000Y-104775000D02*
X126873000Y-99187000D01*
X124258000Y-99187000D02*
X124034000Y-99411000D01*
X126873000Y-109728000D02*
X126873000Y-104775000D01*
X126873000Y-99187000D02*
X124258000Y-99187000D01*
X154051000Y-99187000D02*
X154051000Y-110363000D01*
X154051000Y-99187000D02*
X157099000Y-99187000D01*
X157099000Y-99187000D02*
X157353000Y-99441000D01*
X127445786Y-111128000D02*
X126300214Y-111128000D01*
X124034000Y-108861786D02*
X124034000Y-108047000D01*
X128273000Y-110300786D02*
X127445786Y-111128000D01*
X128273000Y-108497101D02*
X128273000Y-110300786D01*
X136662000Y-101722000D02*
X135048101Y-101722000D01*
X135048101Y-101722000D02*
X128273000Y-108497101D01*
X126300214Y-111128000D02*
X124034000Y-108861786D01*
X132678000Y-107310000D02*
X125883000Y-114105000D01*
X125883000Y-114105000D02*
X124034000Y-114105000D01*
X136662000Y-107310000D02*
X132678000Y-107310000D01*
X136662000Y-112898000D02*
X135048101Y-112898000D01*
X127707101Y-120239000D02*
X124034000Y-120239000D01*
X135048101Y-112898000D02*
X127707101Y-120239000D01*
X136662000Y-99182000D02*
X134498000Y-99182000D01*
X134498000Y-99182000D02*
X134493000Y-99187000D01*
X134498000Y-104770000D02*
X134493000Y-104775000D01*
X136662000Y-104770000D02*
X134498000Y-104770000D01*
X136032000Y-109728000D02*
X136662000Y-110358000D01*
X134493000Y-109728000D02*
X136032000Y-109728000D01*
X153478214Y-111763000D02*
X156461000Y-111763000D01*
X149336000Y-102092000D02*
X146431000Y-99187000D01*
X146431000Y-99187000D02*
X144287000Y-99187000D01*
X144287000Y-99187000D02*
X144282000Y-99182000D01*
X149336000Y-107620786D02*
X153478214Y-111763000D01*
X149336000Y-102092000D02*
X149336000Y-107620786D01*
X156461000Y-111763000D02*
X157353000Y-110871000D01*
X158877000Y-111895528D02*
X158877000Y-109005000D01*
X146431000Y-106172000D02*
X153022000Y-112763000D01*
X144287000Y-104775000D02*
X144282000Y-104770000D01*
X146431000Y-104775000D02*
X144287000Y-104775000D01*
X158877000Y-109005000D02*
X158203000Y-108331000D01*
X146431000Y-104775000D02*
X146431000Y-106172000D01*
X153022000Y-112763000D02*
X158009528Y-112763000D01*
X158009528Y-112763000D02*
X158877000Y-111895528D01*
X158203000Y-108331000D02*
X157353000Y-108331000D01*
X149831000Y-113763000D02*
X158423742Y-113763000D01*
X144287000Y-110363000D02*
X144282000Y-110358000D01*
X159877001Y-112309741D02*
X159877000Y-108315000D01*
X159877000Y-108315000D02*
X157353000Y-105791000D01*
X146431000Y-110363000D02*
X149831000Y-113763000D01*
X146431000Y-110363000D02*
X144287000Y-110363000D01*
X158423742Y-113763000D02*
X159877001Y-112309741D01*
X124034000Y-105507000D02*
X122584000Y-106957000D01*
X122584000Y-110115000D02*
X124034000Y-111565000D01*
X124034000Y-101951000D02*
X124034000Y-105507000D01*
X122584000Y-113015000D02*
X122584000Y-116249000D01*
X122584000Y-116249000D02*
X124034000Y-117699000D01*
X122584000Y-106957000D02*
X122584000Y-110115000D01*
X124034000Y-111565000D02*
X122584000Y-113015000D01*
D16*
X168275000Y-97409000D02*
X168275000Y-122174000D01*
X113284000Y-122174000D02*
X168275000Y-122174000D01*
X113284000Y-97536000D02*
X168275000Y-97409000D01*
X113284000Y-122174000D02*
X113284000Y-97536000D01*
M02*
