  0
SECTION
  2
HEADER
  9
$ANGBASE
  50
0.0
  9
$ANGDIR
  70
1
  9
$MEASUREMENT
  70
1
  0
ENDSEC
  0
SECTION
  2
TABLES
  0
TABLE
  2
LTYPE
  70
4
  0
LTYPE
  5
40F
  2
CONTINUOUS
  70
0
  3
Solid line
  72
65
  73
0
  40
0.0
  0
LTYPE
  5
410
  2
DASHDOT
 70
0
  3
Dash Dot ____ _ ____ _
 72
65
 73
4
 40
2.0
 49
1.25
 49
-0.25
 49
0.25
 49
-0.25
  0
LTYPE
  5
411
  2
DASHED
 70
0
  3
Dashed __ __ __ __ __
 72
65
 73
2
 40
0.75
 49
0.5
 49
-0.25
  0
LTYPE
  5
43B
  2
DOTTED
 70
0
  3
Dotted .  .  .  .
 72
65
 73
2
 40
0.2
 49
0.0
 49
-0.2
  0
ENDTAB
  0
TABLE
  2
STYLE
  70
4
  0
STYLE
  2
KICAD
  70
0
  40
0
  41
1
  42
1
  50
0
  71
0
  3
isocp.shx
  0
STYLE
  2
KICADB
  70
0
  40
0
  41
1
  42
1
  50
0
  71
0
  3
isocp.shx
  0
STYLE
  2
KICADI
  70
0
  40
0
  41
1
  42
1
  50
15
  71
0
  3
isocp.shx
  0
STYLE
  2
KICADBI
  70
0
  40
0
  41
1
  42
1
  50
15
  71
0
  3
isocp.shx
  0
ENDTAB
  0
TABLE
  2
LAYER
  70
1
  0
LAYER
  2
BLACK
  70
0
  62
7
  6
CONTINUOUS
  0
ENDTAB
  0
ENDSEC
  0
SECTION
  2
ENTITIES
0
LINE
8
BLACK
6
CONTINUOUS
10
158.501
20
-81.0091
11
158.669
21
-81.069
0
LINE
8
BLACK
6
CONTINUOUS
10
158.669
20
-81.069
11
158.819
21
-81.1645
0
LINE
8
BLACK
6
CONTINUOUS
10
158.819
20
-81.1645
11
158.945
21
-81.2911
0
LINE
8
BLACK
6
CONTINUOUS
10
158.945
20
-81.2911
11
159.039
21
-81.4423
0
LINE
8
BLACK
6
CONTINUOUS
10
159.039
20
-81.4423
11
159.098
21
-81.6108
0
LINE
8
BLACK
6
CONTINUOUS
10
159.098
20
-81.6108
11
159.118
21
-81.788
0
LINE
8
BLACK
6
CONTINUOUS
10
159.118
20
-81.788
11
159.118
21
-81.8103
0
LINE
8
BLACK
6
CONTINUOUS
10
159.118
20
-81.8103
11
159.093
21
-81.987
0
LINE
8
BLACK
6
CONTINUOUS
10
159.093
20
-81.987
11
159.03
21
-82.1537
0
LINE
8
BLACK
6
CONTINUOUS
10
159.03
20
-82.1537
11
158.931
21
-82.3022
0
LINE
8
BLACK
6
CONTINUOUS
10
158.931
20
-82.3022
11
158.802
21
-82.4252
0
LINE
8
BLACK
6
CONTINUOUS
10
158.802
20
-82.4252
11
158.718
21
-82.4751
0
LINE
8
BLACK
6
CONTINUOUS
10
158.718
20
-82.4751
11
158.718
21
-85.1349
0
LINE
8
BLACK
6
CONTINUOUS
10
158.718
20
-85.1349
11
158.713
21
-85.166
0
LINE
8
BLACK
6
CONTINUOUS
10
158.713
20
-85.166
11
158.713
21
-85.1975
0
LINE
8
BLACK
6
CONTINUOUS
10
158.713
20
-85.1975
11
158.703
21
-85.2274
0
LINE
8
BLACK
6
CONTINUOUS
10
158.703
20
-85.2274
11
158.698
21
-85.2585
0
LINE
8
BLACK
6
CONTINUOUS
10
158.698
20
-85.2585
11
158.684
21
-85.2865
0
LINE
8
BLACK
6
CONTINUOUS
10
158.684
20
-85.2865
11
158.674
21
-85.3165
0
LINE
8
BLACK
6
CONTINUOUS
10
158.674
20
-85.3165
11
158.656
21
-85.342
0
LINE
8
BLACK
6
CONTINUOUS
10
158.656
20
-85.342
11
158.655
21
-85.3439
0
LINE
8
BLACK
6
CONTINUOUS
10
158.655
20
-85.3439
11
158.655
21
-86.398
0
LINE
8
BLACK
6
CONTINUOUS
10
158.655
20
-86.398
11
157.621
21
-86.398
0
LINE
8
BLACK
6
CONTINUOUS
10
157.621
20
-86.398
11
153.305
21
-90.7131
0
LINE
8
BLACK
6
CONTINUOUS
10
153.305
20
-90.7131
11
153.305
21
-95.5898
0
LINE
8
BLACK
6
CONTINUOUS
10
153.305
20
-95.5898
11
154.335
21
-96.619
0
LINE
8
BLACK
6
CONTINUOUS
10
154.335
20
-96.619
11
155.369
21
-96.619
0
LINE
8
BLACK
6
CONTINUOUS
10
155.369
20
-96.619
11
155.369
21
-98.219
0
LINE
8
BLACK
6
CONTINUOUS
10
155.369
20
-98.219
11
153.769
21
-98.219
0
LINE
8
BLACK
6
CONTINUOUS
10
153.769
20
-98.219
11
153.769
21
-97.1847
0
LINE
8
BLACK
6
CONTINUOUS
10
153.769
20
-97.1847
11
152.905
21
-96.3212
0
LINE
8
BLACK
6
CONTINUOUS
10
152.905
20
-96.3212
11
148.599
21
-100.628
0
LINE
8
BLACK
6
CONTINUOUS
10
148.599
20
-100.628
11
148.573
21
-100.646
0
LINE
8
BLACK
6
CONTINUOUS
10
148.573
20
-100.646
11
148.551
21
-100.669
0
LINE
8
BLACK
6
CONTINUOUS
10
148.551
20
-100.669
11
148.523
21
-100.683
0
LINE
8
BLACK
6
CONTINUOUS
10
148.523
20
-100.683
11
148.498
21
-100.701
0
LINE
8
BLACK
6
CONTINUOUS
10
148.498
20
-100.701
11
148.468
21
-100.711
0
LINE
8
BLACK
6
CONTINUOUS
10
148.468
20
-100.711
11
148.44
21
-100.725
0
LINE
8
BLACK
6
CONTINUOUS
10
148.44
20
-100.725
11
148.408
21
-100.73
0
LINE
8
BLACK
6
CONTINUOUS
10
148.408
20
-100.73
11
148.379
21
-100.74
0
LINE
8
BLACK
6
CONTINUOUS
10
148.379
20
-100.74
11
148.347
21
-100.74
0
LINE
8
BLACK
6
CONTINUOUS
10
148.347
20
-100.74
11
148.316
21
-100.745
0
LINE
8
BLACK
6
CONTINUOUS
10
148.316
20
-100.745
11
145.652
21
-100.745
0
LINE
8
BLACK
6
CONTINUOUS
10
145.652
20
-100.745
11
145.595
21
-100.845
0
LINE
8
BLACK
6
CONTINUOUS
10
145.595
20
-100.845
11
145.476
21
-100.977
0
LINE
8
BLACK
6
CONTINUOUS
10
145.476
20
-100.977
11
145.332
21
-101.081
0
LINE
8
BLACK
6
CONTINUOUS
10
145.332
20
-101.081
11
145.17
21
-101.153
0
LINE
8
BLACK
6
CONTINUOUS
10
145.17
20
-101.153
11
144.996
21
-101.19
0
LINE
8
BLACK
6
CONTINUOUS
10
144.996
20
-101.19
11
144.818
21
-101.19
0
LINE
8
BLACK
6
CONTINUOUS
10
144.818
20
-101.19
11
144.661
21
-101.157
0
LINE
8
BLACK
6
CONTINUOUS
10
144.661
20
-101.157
11
142.75
21
-103.068
0
LINE
8
BLACK
6
CONTINUOUS
10
142.75
20
-103.068
11
154.217
21
-114.535
0
LINE
8
BLACK
6
CONTINUOUS
10
154.217
20
-114.535
11
188.048
21
-114.535
0
LINE
8
BLACK
6
CONTINUOUS
10
188.048
20
-114.535
11
192.436
21
-110.147
0
LINE
8
BLACK
6
CONTINUOUS
10
192.436
20
-110.147
11
192.433
21
-110.138
0
LINE
8
BLACK
6
CONTINUOUS
10
192.433
20
-110.138
11
192.417
21
-109.972
0
LINE
8
BLACK
6
CONTINUOUS
10
192.417
20
-109.972
11
192.438
21
-109.806
0
LINE
8
BLACK
6
CONTINUOUS
10
192.438
20
-109.806
11
192.495
21
-109.649
0
LINE
8
BLACK
6
CONTINUOUS
10
192.495
20
-109.649
11
192.513
21
-109.621
0
LINE
8
BLACK
6
CONTINUOUS
10
192.513
20
-109.621
11
192.513
21
-107.293
0
LINE
8
BLACK
6
CONTINUOUS
10
192.513
20
-107.293
11
192.486
21
-107.249
0
LINE
8
BLACK
6
CONTINUOUS
10
192.486
20
-107.249
11
192.433
21
-107.09
0
LINE
8
BLACK
6
CONTINUOUS
10
192.433
20
-107.09
11
192.417
21
-106.924
0
LINE
8
BLACK
6
CONTINUOUS
10
192.417
20
-106.924
11
192.438
21
-106.758
0
LINE
8
BLACK
6
CONTINUOUS
10
192.438
20
-106.758
11
192.495
21
-106.601
0
LINE
8
BLACK
6
CONTINUOUS
10
192.495
20
-106.601
11
192.513
21
-106.573
0
LINE
8
BLACK
6
CONTINUOUS
10
192.513
20
-106.573
11
192.513
21
-104.245
0
LINE
8
BLACK
6
CONTINUOUS
10
192.513
20
-104.245
11
192.486
21
-104.201
0
LINE
8
BLACK
6
CONTINUOUS
10
192.486
20
-104.201
11
192.433
21
-104.042
0
LINE
8
BLACK
6
CONTINUOUS
10
192.433
20
-104.042
11
192.417
21
-103.876
0
LINE
8
BLACK
6
CONTINUOUS
10
192.417
20
-103.876
11
192.438
21
-103.71
0
LINE
8
BLACK
6
CONTINUOUS
10
192.438
20
-103.71
11
192.495
21
-103.553
0
LINE
8
BLACK
6
CONTINUOUS
10
192.495
20
-103.553
11
192.513
21
-103.525
0
LINE
8
BLACK
6
CONTINUOUS
10
192.513
20
-103.525
11
192.513
21
-101.34
0
LINE
8
BLACK
6
CONTINUOUS
10
192.513
20
-101.34
11
192.435
21
-101.289
0
LINE
8
BLACK
6
CONTINUOUS
10
192.435
20
-101.289
11
192.319
21
-101.169
0
LINE
8
BLACK
6
CONTINUOUS
10
192.319
20
-101.169
11
192.232
21
-101.026
0
LINE
8
BLACK
6
CONTINUOUS
10
192.232
20
-101.026
11
192.179
21
-100.867
0
LINE
8
BLACK
6
CONTINUOUS
10
192.179
20
-100.867
11
192.163
21
-100.701
0
LINE
8
BLACK
6
CONTINUOUS
10
192.163
20
-100.701
11
192.184
21
-100.535
0
LINE
8
BLACK
6
CONTINUOUS
10
192.184
20
-100.535
11
192.241
21
-100.378
0
LINE
8
BLACK
6
CONTINUOUS
10
192.241
20
-100.378
11
192.332
21
-100.237
0
LINE
8
BLACK
6
CONTINUOUS
10
192.332
20
-100.237
11
192.451
21
-100.12
0
LINE
8
BLACK
6
CONTINUOUS
10
192.451
20
-100.12
11
192.594
21
-100.032
0
LINE
8
BLACK
6
CONTINUOUS
10
192.594
20
-100.032
11
192.752
21
-99.9785
0
LINE
8
BLACK
6
CONTINUOUS
10
192.752
20
-99.9785
11
192.918
21
-99.961
0
LINE
8
BLACK
6
CONTINUOUS
10
192.918
20
-99.961
11
193.084
21
-99.9808
0
LINE
8
BLACK
6
CONTINUOUS
10
193.084
20
-99.9808
11
193.242
21
-100.037
0
LINE
8
BLACK
6
CONTINUOUS
10
193.242
20
-100.037
11
193.383
21
-100.126
0
LINE
8
BLACK
6
CONTINUOUS
10
193.383
20
-100.126
11
193.501
21
-100.245
0
LINE
8
BLACK
6
CONTINUOUS
10
193.501
20
-100.245
11
193.589
21
-100.387
0
LINE
8
BLACK
6
CONTINUOUS
10
193.589
20
-100.387
11
193.644
21
-100.545
0
LINE
8
BLACK
6
CONTINUOUS
10
193.644
20
-100.545
11
193.663
21
-100.711
0
LINE
8
BLACK
6
CONTINUOUS
10
193.663
20
-100.711
11
193.663
21
-100.732
0
LINE
8
BLACK
6
CONTINUOUS
10
193.663
20
-100.732
11
193.639
21
-100.898
0
LINE
8
BLACK
6
CONTINUOUS
10
193.639
20
-100.898
11
193.58
21
-101.054
0
LINE
8
BLACK
6
CONTINUOUS
10
193.58
20
-101.054
11
193.488
21
-101.193
0
LINE
8
BLACK
6
CONTINUOUS
10
193.488
20
-101.193
11
193.366
21
-101.308
0
LINE
8
BLACK
6
CONTINUOUS
10
193.366
20
-101.308
11
193.313
21
-101.34
0
LINE
8
BLACK
6
CONTINUOUS
10
193.313
20
-101.34
11
193.313
21
-103.153
0
LINE
8
BLACK
6
CONTINUOUS
10
193.313
20
-103.153
11
193.338
21
-103.156
0
LINE
8
BLACK
6
CONTINUOUS
10
193.338
20
-103.156
11
193.496
21
-103.212
0
LINE
8
BLACK
6
CONTINUOUS
10
193.496
20
-103.212
11
193.637
21
-103.301
0
LINE
8
BLACK
6
CONTINUOUS
10
193.637
20
-103.301
11
193.755
21
-103.42
0
LINE
8
BLACK
6
CONTINUOUS
10
193.755
20
-103.42
11
193.843
21
-103.562
0
LINE
8
BLACK
6
CONTINUOUS
10
193.843
20
-103.562
11
193.898
21
-103.72
0
LINE
8
BLACK
6
CONTINUOUS
10
193.898
20
-103.72
11
193.917
21
-103.886
0
LINE
8
BLACK
6
CONTINUOUS
10
193.917
20
-103.886
11
193.917
21
-103.907
0
LINE
8
BLACK
6
CONTINUOUS
10
193.917
20
-103.907
11
193.893
21
-104.073
0
LINE
8
BLACK
6
CONTINUOUS
10
193.893
20
-104.073
11
193.834
21
-104.229
0
LINE
8
BLACK
6
CONTINUOUS
10
193.834
20
-104.229
11
193.742
21
-104.368
0
LINE
8
BLACK
6
CONTINUOUS
10
193.742
20
-104.368
11
193.62
21
-104.483
0
LINE
8
BLACK
6
CONTINUOUS
10
193.62
20
-104.483
11
193.477
21
-104.569
0
LINE
8
BLACK
6
CONTINUOUS
10
193.477
20
-104.569
11
193.318
21
-104.621
0
LINE
8
BLACK
6
CONTINUOUS
10
193.318
20
-104.621
11
193.313
21
-104.621
0
LINE
8
BLACK
6
CONTINUOUS
10
193.313
20
-104.621
11
193.313
21
-106.201
0
LINE
8
BLACK
6
CONTINUOUS
10
193.313
20
-106.201
11
193.338
21
-106.204
0
LINE
8
BLACK
6
CONTINUOUS
10
193.338
20
-106.204
11
193.496
21
-106.26
0
LINE
8
BLACK
6
CONTINUOUS
10
193.496
20
-106.26
11
193.637
21
-106.349
0
LINE
8
BLACK
6
CONTINUOUS
10
193.637
20
-106.349
11
193.755
21
-106.468
0
LINE
8
BLACK
6
CONTINUOUS
10
193.755
20
-106.468
11
193.843
21
-106.61
0
LINE
8
BLACK
6
CONTINUOUS
10
193.843
20
-106.61
11
193.898
21
-106.768
0
LINE
8
BLACK
6
CONTINUOUS
10
193.898
20
-106.768
11
193.917
21
-106.934
0
LINE
8
BLACK
6
CONTINUOUS
10
193.917
20
-106.934
11
193.917
21
-106.955
0
LINE
8
BLACK
6
CONTINUOUS
10
193.917
20
-106.955
11
193.893
21
-107.121
0
LINE
8
BLACK
6
CONTINUOUS
10
193.893
20
-107.121
11
193.834
21
-107.277
0
LINE
8
BLACK
6
CONTINUOUS
10
193.834
20
-107.277
11
193.742
21
-107.416
0
LINE
8
BLACK
6
CONTINUOUS
10
193.742
20
-107.416
11
193.62
21
-107.531
0
LINE
8
BLACK
6
CONTINUOUS
10
193.62
20
-107.531
11
193.477
21
-107.617
0
LINE
8
BLACK
6
CONTINUOUS
10
193.477
20
-107.617
11
193.318
21
-107.669
0
LINE
8
BLACK
6
CONTINUOUS
10
193.318
20
-107.669
11
193.313
21
-107.669
0
LINE
8
BLACK
6
CONTINUOUS
10
193.313
20
-107.669
11
193.313
21
-109.249
0
LINE
8
BLACK
6
CONTINUOUS
10
193.313
20
-109.249
11
193.338
21
-109.252
0
LINE
8
BLACK
6
CONTINUOUS
10
193.338
20
-109.252
11
193.496
21
-109.308
0
LINE
8
BLACK
6
CONTINUOUS
10
193.496
20
-109.308
11
193.637
21
-109.397
0
LINE
8
BLACK
6
CONTINUOUS
10
193.637
20
-109.397
11
193.755
21
-109.516
0
LINE
8
BLACK
6
CONTINUOUS
10
193.755
20
-109.516
11
193.843
21
-109.658
0
LINE
8
BLACK
6
CONTINUOUS
10
193.843
20
-109.658
11
193.898
21
-109.816
0
LINE
8
BLACK
6
CONTINUOUS
10
193.898
20
-109.816
11
193.917
21
-109.982
0
LINE
8
BLACK
6
CONTINUOUS
10
193.917
20
-109.982
11
193.917
21
-110.003
0
LINE
8
BLACK
6
CONTINUOUS
10
193.917
20
-110.003
11
193.897
21
-110.146
0
LINE
8
BLACK
6
CONTINUOUS
10
193.897
20
-110.146
11
193.968
21
-110.217
0
LINE
8
BLACK
6
CONTINUOUS
10
193.968
20
-110.217
11
198.032
21
-110.217
0
LINE
8
BLACK
6
CONTINUOUS
10
198.032
20
-110.217
11
198.032
21
-109.767
0
LINE
8
BLACK
6
CONTINUOUS
10
198.032
20
-109.767
11
199.732
21
-109.767
0
LINE
8
BLACK
6
CONTINUOUS
10
199.732
20
-109.767
11
199.732
21
-111.467
0
LINE
8
BLACK
6
CONTINUOUS
10
199.732
20
-111.467
11
198.032
21
-111.467
0
LINE
8
BLACK
6
CONTINUOUS
10
198.032
20
-111.467
11
198.032
21
-111.017
0
LINE
8
BLACK
6
CONTINUOUS
10
198.032
20
-111.017
11
193.802
21
-111.017
0
LINE
8
BLACK
6
CONTINUOUS
10
193.802
20
-111.017
11
193.771
21
-111.012
0
LINE
8
BLACK
6
CONTINUOUS
10
193.771
20
-111.012
11
193.739
21
-111.012
0
LINE
8
BLACK
6
CONTINUOUS
10
193.739
20
-111.012
11
193.709
21
-111.002
0
LINE
8
BLACK
6
CONTINUOUS
10
193.709
20
-111.002
11
193.678
21
-110.997
0
LINE
8
BLACK
6
CONTINUOUS
10
193.678
20
-110.997
11
193.65
21
-110.983
0
LINE
8
BLACK
6
CONTINUOUS
10
193.65
20
-110.983
11
193.62
21
-110.973
0
LINE
8
BLACK
6
CONTINUOUS
10
193.62
20
-110.973
11
193.595
21
-110.955
0
LINE
8
BLACK
6
CONTINUOUS
10
193.595
20
-110.955
11
193.567
21
-110.941
0
LINE
8
BLACK
6
CONTINUOUS
10
193.567
20
-110.941
11
193.545
21
-110.918
0
LINE
8
BLACK
6
CONTINUOUS
10
193.545
20
-110.918
11
193.519
21
-110.9
0
LINE
8
BLACK
6
CONTINUOUS
10
193.519
20
-110.9
11
193.332
21
-110.712
0
LINE
8
BLACK
6
CONTINUOUS
10
193.332
20
-110.712
11
193.318
21
-110.717
0
LINE
8
BLACK
6
CONTINUOUS
10
193.318
20
-110.717
11
193.151
21
-110.732
0
LINE
8
BLACK
6
CONTINUOUS
10
193.151
20
-110.732
11
193.003
21
-110.712
0
LINE
8
BLACK
6
CONTINUOUS
10
193.003
20
-110.712
11
188.497
21
-115.218
0
LINE
8
BLACK
6
CONTINUOUS
10
188.497
20
-115.218
11
188.471
21
-115.236
0
LINE
8
BLACK
6
CONTINUOUS
10
188.471
20
-115.236
11
188.449
21
-115.259
0
LINE
8
BLACK
6
CONTINUOUS
10
188.449
20
-115.259
11
188.421
21
-115.273
0
LINE
8
BLACK
6
CONTINUOUS
10
188.421
20
-115.273
11
188.396
21
-115.291
0
LINE
8
BLACK
6
CONTINUOUS
10
188.396
20
-115.291
11
188.366
21
-115.301
0
LINE
8
BLACK
6
CONTINUOUS
10
188.366
20
-115.301
11
188.338
21
-115.315
0
LINE
8
BLACK
6
CONTINUOUS
10
188.338
20
-115.315
11
188.307
21
-115.32
0
LINE
8
BLACK
6
CONTINUOUS
10
188.307
20
-115.32
11
188.277
21
-115.33
0
LINE
8
BLACK
6
CONTINUOUS
10
188.277
20
-115.33
11
188.245
21
-115.33
0
LINE
8
BLACK
6
CONTINUOUS
10
188.245
20
-115.33
11
188.214
21
-115.335
0
LINE
8
BLACK
6
CONTINUOUS
10
188.214
20
-115.335
11
154.051
21
-115.335
0
LINE
8
BLACK
6
CONTINUOUS
10
154.051
20
-115.335
11
154.02
21
-115.33
0
LINE
8
BLACK
6
CONTINUOUS
10
154.02
20
-115.33
11
153.988
21
-115.33
0
LINE
8
BLACK
6
CONTINUOUS
10
153.988
20
-115.33
11
153.958
21
-115.32
0
LINE
8
BLACK
6
CONTINUOUS
10
153.958
20
-115.32
11
153.927
21
-115.315
0
LINE
8
BLACK
6
CONTINUOUS
10
153.927
20
-115.315
11
153.899
21
-115.301
0
LINE
8
BLACK
6
CONTINUOUS
10
153.899
20
-115.301
11
153.869
21
-115.291
0
LINE
8
BLACK
6
CONTINUOUS
10
153.869
20
-115.291
11
153.844
21
-115.273
0
LINE
8
BLACK
6
CONTINUOUS
10
153.844
20
-115.273
11
153.816
21
-115.259
0
LINE
8
BLACK
6
CONTINUOUS
10
153.816
20
-115.259
11
153.794
21
-115.236
0
LINE
8
BLACK
6
CONTINUOUS
10
153.794
20
-115.236
11
153.768
21
-115.218
0
LINE
8
BLACK
6
CONTINUOUS
10
153.768
20
-115.218
11
141.83
21
-103.28
0
LINE
8
BLACK
6
CONTINUOUS
10
141.83
20
-103.28
11
141.812
21
-103.254
0
LINE
8
BLACK
6
CONTINUOUS
10
141.812
20
-103.254
11
141.789
21
-103.232
0
LINE
8
BLACK
6
CONTINUOUS
10
141.789
20
-103.232
11
141.775
21
-103.204
0
LINE
8
BLACK
6
CONTINUOUS
10
141.775
20
-103.204
11
141.757
21
-103.179
0
LINE
8
BLACK
6
CONTINUOUS
10
141.757
20
-103.179
11
141.747
21
-103.149
0
LINE
8
BLACK
6
CONTINUOUS
10
141.747
20
-103.149
11
141.733
21
-103.121
0
LINE
8
BLACK
6
CONTINUOUS
10
141.733
20
-103.121
11
141.728
21
-103.09
0
LINE
8
BLACK
6
CONTINUOUS
10
141.728
20
-103.09
11
141.718
21
-103.06
0
LINE
8
BLACK
6
CONTINUOUS
10
141.718
20
-103.06
11
141.718
21
-103.028
0
LINE
8
BLACK
6
CONTINUOUS
10
141.718
20
-103.028
11
141.713
21
-102.997
0
LINE
8
BLACK
6
CONTINUOUS
10
141.713
20
-102.997
11
141.718
21
-102.966
0
LINE
8
BLACK
6
CONTINUOUS
10
141.718
20
-102.966
11
141.718
21
-102.934
0
LINE
8
BLACK
6
CONTINUOUS
10
141.718
20
-102.934
11
141.728
21
-102.904
0
LINE
8
BLACK
6
CONTINUOUS
10
141.728
20
-102.904
11
141.733
21
-102.873
0
LINE
8
BLACK
6
CONTINUOUS
10
141.733
20
-102.873
11
141.747
21
-102.845
0
LINE
8
BLACK
6
CONTINUOUS
10
141.747
20
-102.845
11
141.757
21
-102.815
0
LINE
8
BLACK
6
CONTINUOUS
10
141.757
20
-102.815
11
141.775
21
-102.79
0
LINE
8
BLACK
6
CONTINUOUS
10
141.775
20
-102.79
11
141.789
21
-102.762
0
LINE
8
BLACK
6
CONTINUOUS
10
141.789
20
-102.762
11
141.812
21
-102.74
0
LINE
8
BLACK
6
CONTINUOUS
10
141.812
20
-102.74
11
141.83
21
-102.714
0
LINE
8
BLACK
6
CONTINUOUS
10
141.83
20
-102.714
11
141.856
21
-102.696
0
LINE
8
BLACK
6
CONTINUOUS
10
141.856
20
-102.696
11
141.878
21
-102.673
0
LINE
8
BLACK
6
CONTINUOUS
10
141.878
20
-102.673
11
141.906
21
-102.659
0
LINE
8
BLACK
6
CONTINUOUS
10
141.906
20
-102.659
11
141.931
21
-102.641
0
LINE
8
BLACK
6
CONTINUOUS
10
141.931
20
-102.641
11
141.961
21
-102.631
0
LINE
8
BLACK
6
CONTINUOUS
10
141.961
20
-102.631
11
141.989
21
-102.617
0
LINE
8
BLACK
6
CONTINUOUS
10
141.989
20
-102.617
11
142.02
21
-102.612
0
LINE
8
BLACK
6
CONTINUOUS
10
142.02
20
-102.612
11
142.05
21
-102.602
0
LINE
8
BLACK
6
CONTINUOUS
10
142.05
20
-102.602
11
142.082
21
-102.602
0
LINE
8
BLACK
6
CONTINUOUS
10
142.082
20
-102.602
11
142.085
21
-102.601
0
LINE
8
BLACK
6
CONTINUOUS
10
142.085
20
-102.601
11
144.097
21
-100.589
0
LINE
8
BLACK
6
CONTINUOUS
10
144.097
20
-100.589
11
144.076
21
-100.522
0
LINE
8
BLACK
6
CONTINUOUS
10
144.076
20
-100.522
11
144.057
21
-100.345
0
LINE
8
BLACK
6
CONTINUOUS
10
144.057
20
-100.345
11
144.076
21
-100.168
0
LINE
8
BLACK
6
CONTINUOUS
10
144.076
20
-100.168
11
144.13
21
-99.9993
0
LINE
8
BLACK
6
CONTINUOUS
10
144.13
20
-99.9993
11
144.219
21
-99.8454
0
LINE
8
BLACK
6
CONTINUOUS
10
144.219
20
-99.8454
11
144.338
21
-99.7133
0
LINE
8
BLACK
6
CONTINUOUS
10
144.338
20
-99.7133
11
144.482
21
-99.6089
0
LINE
8
BLACK
6
CONTINUOUS
10
144.482
20
-99.6089
11
144.644
21
-99.5366
0
LINE
8
BLACK
6
CONTINUOUS
10
144.644
20
-99.5366
11
144.818
21
-99.4997
0
LINE
8
BLACK
6
CONTINUOUS
10
144.818
20
-99.4997
11
144.996
21
-99.4997
0
LINE
8
BLACK
6
CONTINUOUS
10
144.996
20
-99.4997
11
145.17
21
-99.5366
0
LINE
8
BLACK
6
CONTINUOUS
10
145.17
20
-99.5366
11
145.332
21
-99.6089
0
LINE
8
BLACK
6
CONTINUOUS
10
145.332
20
-99.6089
11
145.476
21
-99.7133
0
LINE
8
BLACK
6
CONTINUOUS
10
145.476
20
-99.7133
11
145.595
21
-99.8454
0
LINE
8
BLACK
6
CONTINUOUS
10
145.595
20
-99.8454
11
145.652
21
-99.945
0
LINE
8
BLACK
6
CONTINUOUS
10
145.652
20
-99.945
11
148.15
21
-99.945
0
LINE
8
BLACK
6
CONTINUOUS
10
148.15
20
-99.945
11
152.505
21
-95.5898
0
LINE
8
BLACK
6
CONTINUOUS
10
152.505
20
-95.5898
11
152.505
21
-90.5474
0
LINE
8
BLACK
6
CONTINUOUS
10
152.505
20
-90.5474
11
152.51
21
-90.5163
0
LINE
8
BLACK
6
CONTINUOUS
10
152.51
20
-90.5163
11
152.51
21
-90.4848
0
LINE
8
BLACK
6
CONTINUOUS
10
152.51
20
-90.4848
11
152.52
21
-90.4549
0
LINE
8
BLACK
6
CONTINUOUS
10
152.52
20
-90.4549
11
152.525
21
-90.4238
0
LINE
8
BLACK
6
CONTINUOUS
10
152.525
20
-90.4238
11
152.539
21
-90.3957
0
LINE
8
BLACK
6
CONTINUOUS
10
152.539
20
-90.3957
11
152.549
21
-90.3658
0
LINE
8
BLACK
6
CONTINUOUS
10
152.549
20
-90.3658
11
152.568
21
-90.3403
0
LINE
8
BLACK
6
CONTINUOUS
10
152.568
20
-90.3403
11
152.582
21
-90.3123
0
LINE
8
BLACK
6
CONTINUOUS
10
152.582
20
-90.3123
11
152.604
21
-90.29
0
LINE
8
BLACK
6
CONTINUOUS
10
152.604
20
-90.29
11
152.623
21
-90.2645
0
LINE
8
BLACK
6
CONTINUOUS
10
152.623
20
-90.2645
11
157.055
21
-85.8323
0
LINE
8
BLACK
6
CONTINUOUS
10
157.055
20
-85.8323
11
157.055
21
-84.798
0
LINE
8
BLACK
6
CONTINUOUS
10
157.055
20
-84.798
11
157.918
21
-84.798
0
LINE
8
BLACK
6
CONTINUOUS
10
157.918
20
-84.798
11
157.918
21
-82.4764
0
LINE
8
BLACK
6
CONTINUOUS
10
157.918
20
-82.4764
11
157.808
21
-82.4044
0
LINE
8
BLACK
6
CONTINUOUS
10
157.808
20
-82.4044
11
157.684
21
-82.2761
0
LINE
8
BLACK
6
CONTINUOUS
10
157.684
20
-82.2761
11
157.592
21
-82.1236
0
LINE
8
BLACK
6
CONTINUOUS
10
157.592
20
-82.1236
11
157.535
21
-81.9543
0
LINE
8
BLACK
6
CONTINUOUS
10
157.535
20
-81.9543
11
157.518
21
-81.7768
0
LINE
8
BLACK
6
CONTINUOUS
10
157.518
20
-81.7768
11
157.54
21
-81.5999
0
LINE
8
BLACK
6
CONTINUOUS
10
157.54
20
-81.5999
11
157.601
21
-81.4323
0
LINE
8
BLACK
6
CONTINUOUS
10
157.601
20
-81.4323
11
157.698
21
-81.2824
0
LINE
8
BLACK
6
CONTINUOUS
10
157.698
20
-81.2824
11
157.825
21
-81.1576
0
LINE
8
BLACK
6
CONTINUOUS
10
157.825
20
-81.1576
11
157.977
21
-81.0641
0
LINE
8
BLACK
6
CONTINUOUS
10
157.977
20
-81.0641
11
158.146
21
-81.0067
0
LINE
8
BLACK
6
CONTINUOUS
10
158.146
20
-81.0067
11
158.324
21
-80.988
0
LINE
8
BLACK
6
CONTINUOUS
10
158.324
20
-80.988
11
158.501
21
-81.0091
0
LINE
8
BLACK
6
CONTINUOUS
10
170.59
20
-91.7922
11
176.213
21
-97.4148
0
LINE
8
BLACK
6
CONTINUOUS
10
176.213
20
-97.4148
11
178.025
21
-95.6022
0
LINE
8
BLACK
6
CONTINUOUS
10
178.025
20
-95.6022
11
178.051
21
-95.5837
0
LINE
8
BLACK
6
CONTINUOUS
10
178.051
20
-95.5837
11
178.073
21
-95.5614
0
LINE
8
BLACK
6
CONTINUOUS
10
178.073
20
-95.5614
11
178.101
21
-95.5471
0
LINE
8
BLACK
6
CONTINUOUS
10
178.101
20
-95.5471
11
178.126
21
-95.5286
0
LINE
8
BLACK
6
CONTINUOUS
10
178.126
20
-95.5286
11
178.156
21
-95.5189
0
LINE
8
BLACK
6
CONTINUOUS
10
178.156
20
-95.5189
11
178.184
21
-95.5046
0
LINE
8
BLACK
6
CONTINUOUS
10
178.184
20
-95.5046
11
178.215
21
-95.4997
0
LINE
8
BLACK
6
CONTINUOUS
10
178.215
20
-95.4997
11
178.245
21
-95.4899
0
LINE
8
BLACK
6
CONTINUOUS
10
178.245
20
-95.4899
11
178.277
21
-95.4899
0
LINE
8
BLACK
6
CONTINUOUS
10
178.277
20
-95.4899
11
178.308
21
-95.485
0
LINE
8
BLACK
6
CONTINUOUS
10
178.308
20
-95.485
11
178.426
21
-95.485
0
LINE
8
BLACK
6
CONTINUOUS
10
178.426
20
-95.485
11
178.426
21
-95.36
0
LINE
8
BLACK
6
CONTINUOUS
10
178.426
20
-95.36
11
179.926
21
-95.36
0
LINE
8
BLACK
6
CONTINUOUS
10
179.926
20
-95.36
11
179.926
21
-96.41
0
LINE
8
BLACK
6
CONTINUOUS
10
179.926
20
-96.41
11
178.426
21
-96.41
0
LINE
8
BLACK
6
CONTINUOUS
10
178.426
20
-96.41
11
178.426
21
-96.3327
0
LINE
8
BLACK
6
CONTINUOUS
10
178.426
20
-96.3327
11
176.495
21
-98.2633
0
LINE
8
BLACK
6
CONTINUOUS
10
176.495
20
-98.2633
11
174.387
21
-100.371
0
LINE
8
BLACK
6
CONTINUOUS
10
174.387
20
-100.371
11
174.387
21
-102.448
0
LINE
8
BLACK
6
CONTINUOUS
10
174.387
20
-102.448
11
175.744
21
-103.805
0
LINE
8
BLACK
6
CONTINUOUS
10
175.744
20
-103.805
11
177.724
21
-101.825
0
LINE
8
BLACK
6
CONTINUOUS
10
177.724
20
-101.825
11
177.75
21
-101.807
0
LINE
8
BLACK
6
CONTINUOUS
10
177.75
20
-101.807
11
177.772
21
-101.784
0
LINE
8
BLACK
6
CONTINUOUS
10
177.772
20
-101.784
11
177.8
21
-101.77
0
LINE
8
BLACK
6
CONTINUOUS
10
177.8
20
-101.77
11
177.825
21
-101.752
0
LINE
8
BLACK
6
CONTINUOUS
10
177.825
20
-101.752
11
177.855
21
-101.742
0
LINE
8
BLACK
6
CONTINUOUS
10
177.855
20
-101.742
11
177.883
21
-101.728
0
LINE
8
BLACK
6
CONTINUOUS
10
177.883
20
-101.728
11
177.914
21
-101.723
0
LINE
8
BLACK
6
CONTINUOUS
10
177.914
20
-101.723
11
177.944
21
-101.713
0
LINE
8
BLACK
6
CONTINUOUS
10
177.944
20
-101.713
11
177.976
21
-101.713
0
LINE
8
BLACK
6
CONTINUOUS
10
177.976
20
-101.713
11
178.007
21
-101.708
0
LINE
8
BLACK
6
CONTINUOUS
10
178.007
20
-101.708
11
178.807
21
-101.708
0
LINE
8
BLACK
6
CONTINUOUS
10
178.807
20
-101.708
11
178.807
21
-101.583
0
LINE
8
BLACK
6
CONTINUOUS
10
178.807
20
-101.583
11
180.307
21
-101.583
0
LINE
8
BLACK
6
CONTINUOUS
10
180.307
20
-101.583
11
180.307
21
-102.633
0
LINE
8
BLACK
6
CONTINUOUS
10
180.307
20
-102.633
11
178.807
21
-102.633
0
LINE
8
BLACK
6
CONTINUOUS
10
178.807
20
-102.633
11
178.807
21
-102.508
0
LINE
8
BLACK
6
CONTINUOUS
10
178.807
20
-102.508
11
178.173
21
-102.508
0
LINE
8
BLACK
6
CONTINUOUS
10
178.173
20
-102.508
11
174.26
21
-106.42
0
LINE
8
BLACK
6
CONTINUOUS
10
174.26
20
-106.42
11
174.26
21
-107.782
0
LINE
8
BLACK
6
CONTINUOUS
10
174.26
20
-107.782
11
175.704
21
-109.226
0
LINE
8
BLACK
6
CONTINUOUS
10
175.704
20
-109.226
11
176.882
21
-108.048
0
LINE
8
BLACK
6
CONTINUOUS
10
176.882
20
-108.048
11
176.908
21
-108.03
0
LINE
8
BLACK
6
CONTINUOUS
10
176.908
20
-108.03
11
176.93
21
-108.007
0
LINE
8
BLACK
6
CONTINUOUS
10
176.93
20
-108.007
11
176.958
21
-107.993
0
LINE
8
BLACK
6
CONTINUOUS
10
176.958
20
-107.993
11
176.983
21
-107.975
0
LINE
8
BLACK
6
CONTINUOUS
10
176.983
20
-107.975
11
177.013
21
-107.965
0
LINE
8
BLACK
6
CONTINUOUS
10
177.013
20
-107.965
11
177.041
21
-107.951
0
LINE
8
BLACK
6
CONTINUOUS
10
177.041
20
-107.951
11
177.072
21
-107.946
0
LINE
8
BLACK
6
CONTINUOUS
10
177.072
20
-107.946
11
177.102
21
-107.936
0
LINE
8
BLACK
6
CONTINUOUS
10
177.102
20
-107.936
11
177.134
21
-107.936
0
LINE
8
BLACK
6
CONTINUOUS
10
177.134
20
-107.936
11
177.165
21
-107.931
0
LINE
8
BLACK
6
CONTINUOUS
10
177.165
20
-107.931
11
178.68
21
-107.931
0
LINE
8
BLACK
6
CONTINUOUS
10
178.68
20
-107.931
11
178.68
21
-107.806
0
LINE
8
BLACK
6
CONTINUOUS
10
178.68
20
-107.806
11
180.18
21
-107.806
0
LINE
8
BLACK
6
CONTINUOUS
10
180.18
20
-107.806
11
180.18
21
-108.856
0
LINE
8
BLACK
6
CONTINUOUS
10
180.18
20
-108.856
11
178.68
21
-108.856
0
LINE
8
BLACK
6
CONTINUOUS
10
178.68
20
-108.856
11
178.68
21
-108.731
0
LINE
8
BLACK
6
CONTINUOUS
10
178.68
20
-108.731
11
177.331
21
-108.731
0
LINE
8
BLACK
6
CONTINUOUS
10
177.331
20
-108.731
11
176.051
21
-110.011
0
LINE
8
BLACK
6
CONTINUOUS
10
176.051
20
-110.011
11
174.26
21
-111.801
0
LINE
8
BLACK
6
CONTINUOUS
10
174.26
20
-111.801
11
174.26
21
-112.682
0
LINE
8
BLACK
6
CONTINUOUS
10
174.26
20
-112.682
11
174.97
21
-113.392
0
LINE
8
BLACK
6
CONTINUOUS
10
174.97
20
-113.392
11
178.807
21
-113.392
0
LINE
8
BLACK
6
CONTINUOUS
10
178.807
20
-113.392
11
178.807
21
-113.267
0
LINE
8
BLACK
6
CONTINUOUS
10
178.807
20
-113.267
11
180.307
21
-113.267
0
LINE
8
BLACK
6
CONTINUOUS
10
180.307
20
-113.267
11
180.307
21
-114.317
0
LINE
8
BLACK
6
CONTINUOUS
10
180.307
20
-114.317
11
178.807
21
-114.317
0
LINE
8
BLACK
6
CONTINUOUS
10
178.807
20
-114.317
11
178.807
21
-114.192
0
LINE
8
BLACK
6
CONTINUOUS
10
178.807
20
-114.192
11
174.805
21
-114.192
0
LINE
8
BLACK
6
CONTINUOUS
10
174.805
20
-114.192
11
174.774
21
-114.187
0
LINE
8
BLACK
6
CONTINUOUS
10
174.774
20
-114.187
11
174.742
21
-114.187
0
LINE
8
BLACK
6
CONTINUOUS
10
174.742
20
-114.187
11
174.712
21
-114.177
0
LINE
8
BLACK
6
CONTINUOUS
10
174.712
20
-114.177
11
174.681
21
-114.172
0
LINE
8
BLACK
6
CONTINUOUS
10
174.681
20
-114.172
11
174.653
21
-114.158
0
LINE
8
BLACK
6
CONTINUOUS
10
174.653
20
-114.158
11
174.623
21
-114.148
0
LINE
8
BLACK
6
CONTINUOUS
10
174.623
20
-114.148
11
174.598
21
-114.13
0
LINE
8
BLACK
6
CONTINUOUS
10
174.598
20
-114.13
11
174.57
21
-114.116
0
LINE
8
BLACK
6
CONTINUOUS
10
174.57
20
-114.116
11
174.547
21
-114.093
0
LINE
8
BLACK
6
CONTINUOUS
10
174.547
20
-114.093
11
174.522
21
-114.075
0
LINE
8
BLACK
6
CONTINUOUS
10
174.522
20
-114.075
11
173.578
21
-113.131
0
LINE
8
BLACK
6
CONTINUOUS
10
173.578
20
-113.131
11
173.559
21
-113.105
0
LINE
8
BLACK
6
CONTINUOUS
10
173.559
20
-113.105
11
173.537
21
-113.083
0
LINE
8
BLACK
6
CONTINUOUS
10
173.537
20
-113.083
11
173.523
21
-113.055
0
LINE
8
BLACK
6
CONTINUOUS
10
173.523
20
-113.055
11
173.504
21
-113.029
0
LINE
8
BLACK
6
CONTINUOUS
10
173.504
20
-113.029
11
173.494
21
-112.999
0
LINE
8
BLACK
6
CONTINUOUS
10
173.494
20
-112.999
11
173.48
21
-112.971
0
LINE
8
BLACK
6
CONTINUOUS
10
173.48
20
-112.971
11
173.475
21
-112.94
0
LINE
8
BLACK
6
CONTINUOUS
10
173.475
20
-112.94
11
173.465
21
-112.91
0
LINE
8
BLACK
6
CONTINUOUS
10
173.465
20
-112.91
11
173.465
21
-112.879
0
LINE
8
BLACK
6
CONTINUOUS
10
173.465
20
-112.879
11
173.46
21
-112.848
0
LINE
8
BLACK
6
CONTINUOUS
10
173.46
20
-112.848
11
173.46
21
-111.636
0
LINE
8
BLACK
6
CONTINUOUS
10
173.46
20
-111.636
11
173.465
21
-111.604
0
LINE
8
BLACK
6
CONTINUOUS
10
173.465
20
-111.604
11
173.465
21
-111.573
0
LINE
8
BLACK
6
CONTINUOUS
10
173.465
20
-111.573
11
173.475
21
-111.543
0
LINE
8
BLACK
6
CONTINUOUS
10
173.475
20
-111.543
11
173.48
21
-111.512
0
LINE
8
BLACK
6
CONTINUOUS
10
173.48
20
-111.512
11
173.494
21
-111.484
0
LINE
8
BLACK
6
CONTINUOUS
10
173.494
20
-111.484
11
173.504
21
-111.454
0
LINE
8
BLACK
6
CONTINUOUS
10
173.504
20
-111.454
11
173.523
21
-111.428
0
LINE
8
BLACK
6
CONTINUOUS
10
173.523
20
-111.428
11
173.537
21
-111.4
0
LINE
8
BLACK
6
CONTINUOUS
10
173.537
20
-111.4
11
173.559
21
-111.378
0
LINE
8
BLACK
6
CONTINUOUS
10
173.559
20
-111.378
11
173.578
21
-111.353
0
LINE
8
BLACK
6
CONTINUOUS
10
173.578
20
-111.353
11
175.139
21
-109.791
0
LINE
8
BLACK
6
CONTINUOUS
10
175.139
20
-109.791
11
173.578
21
-108.23
0
LINE
8
BLACK
6
CONTINUOUS
10
173.578
20
-108.23
11
173.559
21
-108.205
0
LINE
8
BLACK
6
CONTINUOUS
10
173.559
20
-108.205
11
173.537
21
-108.183
0
LINE
8
BLACK
6
CONTINUOUS
10
173.537
20
-108.183
11
173.523
21
-108.155
0
LINE
8
BLACK
6
CONTINUOUS
10
173.523
20
-108.155
11
173.504
21
-108.129
0
LINE
8
BLACK
6
CONTINUOUS
10
173.504
20
-108.129
11
173.494
21
-108.099
0
LINE
8
BLACK
6
CONTINUOUS
10
173.494
20
-108.099
11
173.48
21
-108.071
0
LINE
8
BLACK
6
CONTINUOUS
10
173.48
20
-108.071
11
173.475
21
-108.04
0
LINE
8
BLACK
6
CONTINUOUS
10
173.475
20
-108.04
11
173.465
21
-108.01
0
LINE
8
BLACK
6
CONTINUOUS
10
173.465
20
-108.01
11
173.465
21
-107.979
0
LINE
8
BLACK
6
CONTINUOUS
10
173.465
20
-107.979
11
173.46
21
-107.947
0
LINE
8
BLACK
6
CONTINUOUS
10
173.46
20
-107.947
11
173.46
21
-106.255
0
LINE
8
BLACK
6
CONTINUOUS
10
173.46
20
-106.255
11
173.465
21
-106.223
0
LINE
8
BLACK
6
CONTINUOUS
10
173.465
20
-106.223
11
173.465
21
-106.192
0
LINE
8
BLACK
6
CONTINUOUS
10
173.465
20
-106.192
11
173.475
21
-106.162
0
LINE
8
BLACK
6
CONTINUOUS
10
173.475
20
-106.162
11
173.48
21
-106.131
0
LINE
8
BLACK
6
CONTINUOUS
10
173.48
20
-106.131
11
173.494
21
-106.103
0
LINE
8
BLACK
6
CONTINUOUS
10
173.494
20
-106.103
11
173.504
21
-106.073
0
LINE
8
BLACK
6
CONTINUOUS
10
173.504
20
-106.073
11
173.523
21
-106.047
0
LINE
8
BLACK
6
CONTINUOUS
10
173.523
20
-106.047
11
173.537
21
-106.019
0
LINE
8
BLACK
6
CONTINUOUS
10
173.537
20
-106.019
11
173.559
21
-105.997
0
LINE
8
BLACK
6
CONTINUOUS
10
173.559
20
-105.997
11
173.578
21
-105.972
0
LINE
8
BLACK
6
CONTINUOUS
10
173.578
20
-105.972
11
175.179
21
-104.37
0
LINE
8
BLACK
6
CONTINUOUS
10
175.179
20
-104.37
11
173.705
21
-102.896
0
LINE
8
BLACK
6
CONTINUOUS
10
173.705
20
-102.896
11
173.686
21
-102.871
0
LINE
8
BLACK
6
CONTINUOUS
10
173.686
20
-102.871
11
173.664
21
-102.849
0
LINE
8
BLACK
6
CONTINUOUS
10
173.664
20
-102.849
11
173.65
21
-102.821
0
LINE
8
BLACK
6
CONTINUOUS
10
173.65
20
-102.821
11
173.631
21
-102.795
0
LINE
8
BLACK
6
CONTINUOUS
10
173.631
20
-102.795
11
173.621
21
-102.765
0
LINE
8
BLACK
6
CONTINUOUS
10
173.621
20
-102.765
11
173.607
21
-102.737
0
LINE
8
BLACK
6
CONTINUOUS
10
173.607
20
-102.737
11
173.602
21
-102.706
0
LINE
8
BLACK
6
CONTINUOUS
10
173.602
20
-102.706
11
173.592
21
-102.676
0
LINE
8
BLACK
6
CONTINUOUS
10
173.592
20
-102.676
11
173.592
21
-102.645
0
LINE
8
BLACK
6
CONTINUOUS
10
173.592
20
-102.645
11
173.587
21
-102.613
0
LINE
8
BLACK
6
CONTINUOUS
10
173.587
20
-102.613
11
173.587
21
-100.206
0
LINE
8
BLACK
6
CONTINUOUS
10
173.587
20
-100.206
11
173.592
21
-100.174
0
LINE
8
BLACK
6
CONTINUOUS
10
173.592
20
-100.174
11
173.592
21
-100.143
0
LINE
8
BLACK
6
CONTINUOUS
10
173.592
20
-100.143
11
173.602
21
-100.113
0
LINE
8
BLACK
6
CONTINUOUS
10
173.602
20
-100.113
11
173.607
21
-100.082
0
LINE
8
BLACK
6
CONTINUOUS
10
173.607
20
-100.082
11
173.621
21
-100.054
0
LINE
8
BLACK
6
CONTINUOUS
10
173.621
20
-100.054
11
173.631
21
-100.024
0
LINE
8
BLACK
6
CONTINUOUS
10
173.631
20
-100.024
11
173.65
21
-99.9984
0
LINE
8
BLACK
6
CONTINUOUS
10
173.65
20
-99.9984
11
173.664
21
-99.9704
0
LINE
8
BLACK
6
CONTINUOUS
10
173.664
20
-99.9704
11
173.686
21
-99.9481
0
LINE
8
BLACK
6
CONTINUOUS
10
173.686
20
-99.9481
11
173.705
21
-99.9227
0
LINE
8
BLACK
6
CONTINUOUS
10
173.705
20
-99.9227
11
175.647
21
-97.9805
0
LINE
8
BLACK
6
CONTINUOUS
10
175.647
20
-97.9805
11
170.307
21
-92.6407
0
LINE
8
BLACK
6
CONTINUOUS
10
170.307
20
-92.6407
11
169.574
21
-93.3738
0
LINE
8
BLACK
6
CONTINUOUS
10
169.574
20
-93.3738
11
169.548
21
-93.3923
0
LINE
8
BLACK
6
CONTINUOUS
10
169.548
20
-93.3923
11
169.526
21
-93.4146
0
LINE
8
BLACK
6
CONTINUOUS
10
169.526
20
-93.4146
11
169.498
21
-93.4289
0
LINE
8
BLACK
6
CONTINUOUS
10
169.498
20
-93.4289
11
169.473
21
-93.4474
0
LINE
8
BLACK
6
CONTINUOUS
10
169.473
20
-93.4474
11
169.443
21
-93.4571
0
LINE
8
BLACK
6
CONTINUOUS
10
169.443
20
-93.4571
11
169.415
21
-93.4714
0
LINE
8
BLACK
6
CONTINUOUS
10
169.415
20
-93.4714
11
169.384
21
-93.4763
0
LINE
8
BLACK
6
CONTINUOUS
10
169.384
20
-93.4763
11
169.354
21
-93.4861
0
LINE
8
BLACK
6
CONTINUOUS
10
169.354
20
-93.4861
11
169.322
21
-93.4861
0
LINE
8
BLACK
6
CONTINUOUS
10
169.322
20
-93.4861
11
169.291
21
-93.491
0
LINE
8
BLACK
6
CONTINUOUS
10
169.291
20
-93.491
11
162.614
21
-93.491
0
LINE
8
BLACK
6
CONTINUOUS
10
162.614
20
-93.491
11
162.589
21
-93.5282
0
LINE
8
BLACK
6
CONTINUOUS
10
162.589
20
-93.5282
11
162.589
21
-96.7313
0
LINE
8
BLACK
6
CONTINUOUS
10
162.589
20
-96.7313
11
162.69
21
-96.7955
0
LINE
8
BLACK
6
CONTINUOUS
10
162.69
20
-96.7955
11
162.816
21
-96.9221
0
LINE
8
BLACK
6
CONTINUOUS
10
162.816
20
-96.9221
11
162.91
21
-97.0733
0
LINE
8
BLACK
6
CONTINUOUS
10
162.91
20
-97.0733
11
162.969
21
-97.2418
0
LINE
8
BLACK
6
CONTINUOUS
10
162.969
20
-97.2418
11
162.989
21
-97.419
0
LINE
8
BLACK
6
CONTINUOUS
10
162.989
20
-97.419
11
162.989
21
-97.4413
0
LINE
8
BLACK
6
CONTINUOUS
10
162.989
20
-97.4413
11
162.964
21
-97.618
0
LINE
8
BLACK
6
CONTINUOUS
10
162.964
20
-97.618
11
162.901
21
-97.7847
0
LINE
8
BLACK
6
CONTINUOUS
10
162.901
20
-97.7847
11
162.802
21
-97.9332
0
LINE
8
BLACK
6
CONTINUOUS
10
162.802
20
-97.9332
11
162.673
21
-98.0562
0
LINE
8
BLACK
6
CONTINUOUS
10
162.673
20
-98.0562
11
162.519
21
-98.1475
0
LINE
8
BLACK
6
CONTINUOUS
10
162.519
20
-98.1475
11
162.35
21
-98.2027
0
LINE
8
BLACK
6
CONTINUOUS
10
162.35
20
-98.2027
11
162.172
21
-98.2188
0
LINE
8
BLACK
6
CONTINUOUS
10
162.172
20
-98.2188
11
161.995
21
-98.1952
0
LINE
8
BLACK
6
CONTINUOUS
10
161.995
20
-98.1952
11
161.828
21
-98.1331
0
LINE
8
BLACK
6
CONTINUOUS
10
161.828
20
-98.1331
11
161.679
21
-98.0354
0
LINE
8
BLACK
6
CONTINUOUS
10
161.679
20
-98.0354
11
161.555
21
-97.9071
0
LINE
8
BLACK
6
CONTINUOUS
10
161.555
20
-97.9071
11
161.463
21
-97.7546
0
LINE
8
BLACK
6
CONTINUOUS
10
161.463
20
-97.7546
11
161.406
21
-97.5853
0
LINE
8
BLACK
6
CONTINUOUS
10
161.406
20
-97.5853
11
161.389
21
-97.4078
0
LINE
8
BLACK
6
CONTINUOUS
10
161.389
20
-97.4078
11
161.411
21
-97.2309
0
LINE
8
BLACK
6
CONTINUOUS
10
161.411
20
-97.2309
11
161.472
21
-97.0633
0
LINE
8
BLACK
6
CONTINUOUS
10
161.472
20
-97.0633
11
161.569
21
-96.9134
0
LINE
8
BLACK
6
CONTINUOUS
10
161.569
20
-96.9134
11
161.696
21
-96.7886
0
LINE
8
BLACK
6
CONTINUOUS
10
161.696
20
-96.7886
11
161.789
21
-96.7317
0
LINE
8
BLACK
6
CONTINUOUS
10
161.789
20
-96.7317
11
161.789
21
-93.8749
0
LINE
8
BLACK
6
CONTINUOUS
10
161.789
20
-93.8749
11
161.731
21
-93.8672
0
LINE
8
BLACK
6
CONTINUOUS
10
161.731
20
-93.8672
11
161.564
21
-93.8051
0
LINE
8
BLACK
6
CONTINUOUS
10
161.564
20
-93.8051
11
161.415
21
-93.7074
0
LINE
8
BLACK
6
CONTINUOUS
10
161.415
20
-93.7074
11
161.291
21
-93.5791
0
LINE
8
BLACK
6
CONTINUOUS
10
161.291
20
-93.5791
11
161.199
21
-93.4266
0
LINE
8
BLACK
6
CONTINUOUS
10
161.199
20
-93.4266
11
161.142
21
-93.2573
0
LINE
8
BLACK
6
CONTINUOUS
10
161.142
20
-93.2573
11
161.125
21
-93.0798
0
LINE
8
BLACK
6
CONTINUOUS
10
161.125
20
-93.0798
11
161.147
21
-92.9029
0
LINE
8
BLACK
6
CONTINUOUS
10
161.147
20
-92.9029
11
161.208
21
-92.7353
0
LINE
8
BLACK
6
CONTINUOUS
10
161.208
20
-92.7353
11
161.305
21
-92.5854
0
LINE
8
BLACK
6
CONTINUOUS
10
161.305
20
-92.5854
11
161.432
21
-92.4606
0
LINE
8
BLACK
6
CONTINUOUS
10
161.432
20
-92.4606
11
161.525
21
-92.4037
0
LINE
8
BLACK
6
CONTINUOUS
10
161.525
20
-92.4037
11
161.525
21
-87.3338
0
LINE
8
BLACK
6
CONTINUOUS
10
161.525
20
-87.3338
11
160.559
21
-86.3677
0
LINE
8
BLACK
6
CONTINUOUS
10
160.559
20
-86.3677
11
160.516
21
-86.3817
0
LINE
8
BLACK
6
CONTINUOUS
10
160.516
20
-86.3817
11
160.338
21
-86.3978
0
LINE
8
BLACK
6
CONTINUOUS
10
160.338
20
-86.3978
11
160.161
21
-86.3742
0
LINE
8
BLACK
6
CONTINUOUS
10
160.161
20
-86.3742
11
159.994
21
-86.3121
0
LINE
8
BLACK
6
CONTINUOUS
10
159.994
20
-86.3121
11
159.845
21
-86.2144
0
LINE
8
BLACK
6
CONTINUOUS
10
159.845
20
-86.2144
11
159.721
21
-86.0861
0
LINE
8
BLACK
6
CONTINUOUS
10
159.721
20
-86.0861
11
159.629
21
-85.9336
0
LINE
8
BLACK
6
CONTINUOUS
10
159.629
20
-85.9336
11
159.572
21
-85.7643
0
LINE
8
BLACK
6
CONTINUOUS
10
159.572
20
-85.7643
11
159.555
21
-85.5868
0
LINE
8
BLACK
6
CONTINUOUS
10
159.555
20
-85.5868
11
159.577
21
-85.4099
0
LINE
8
BLACK
6
CONTINUOUS
10
159.577
20
-85.4099
11
159.638
21
-85.2423
0
LINE
8
BLACK
6
CONTINUOUS
10
159.638
20
-85.2423
11
159.735
21
-85.0924
0
LINE
8
BLACK
6
CONTINUOUS
10
159.735
20
-85.0924
11
159.862
21
-84.9676
0
LINE
8
BLACK
6
CONTINUOUS
10
159.862
20
-84.9676
11
159.955
21
-84.9107
0
LINE
8
BLACK
6
CONTINUOUS
10
159.955
20
-84.9107
11
159.955
21
-82.2511
0
LINE
8
BLACK
6
CONTINUOUS
10
159.955
20
-82.2511
11
159.96
21
-82.22
0
LINE
8
BLACK
6
CONTINUOUS
10
159.96
20
-82.22
11
159.96
21
-82.1885
0
LINE
8
BLACK
6
CONTINUOUS
10
159.96
20
-82.1885
11
159.97
21
-82.1586
0
LINE
8
BLACK
6
CONTINUOUS
10
159.97
20
-82.1586
11
159.974
21
-82.1275
0
LINE
8
BLACK
6
CONTINUOUS
10
159.974
20
-82.1275
11
159.989
21
-82.0995
0
LINE
8
BLACK
6
CONTINUOUS
10
159.989
20
-82.0995
11
159.998
21
-82.0695
0
LINE
8
BLACK
6
CONTINUOUS
10
159.998
20
-82.0695
11
160.017
21
-82.044
0
LINE
8
BLACK
6
CONTINUOUS
10
160.017
20
-82.044
11
160.031
21
-82.016
0
LINE
8
BLACK
6
CONTINUOUS
10
160.031
20
-82.016
11
160.05
21
-81.9975
0
LINE
8
BLACK
6
CONTINUOUS
10
160.05
20
-81.9975
11
160.035
21
-81.9543
0
LINE
8
BLACK
6
CONTINUOUS
10
160.035
20
-81.9543
11
160.018
21
-81.7768
0
LINE
8
BLACK
6
CONTINUOUS
10
160.018
20
-81.7768
11
160.04
21
-81.5999
0
LINE
8
BLACK
6
CONTINUOUS
10
160.04
20
-81.5999
11
160.047
21
-81.5825
0
LINE
8
BLACK
6
CONTINUOUS
10
160.047
20
-81.5825
11
159.253
21
-80.7885
0
LINE
8
BLACK
6
CONTINUOUS
10
159.253
20
-80.7885
11
157.904
21
-80.7885
0
LINE
8
BLACK
6
CONTINUOUS
10
157.904
20
-80.7885
11
145.307
21
-93.3855
0
LINE
8
BLACK
6
CONTINUOUS
10
145.307
20
-93.3855
11
145.307
21
-96.955
0
LINE
8
BLACK
6
CONTINUOUS
10
145.307
20
-96.955
11
145.757
21
-96.955
0
LINE
8
BLACK
6
CONTINUOUS
10
145.757
20
-96.955
11
145.757
21
-98.655
0
LINE
8
BLACK
6
CONTINUOUS
10
145.757
20
-98.655
11
144.057
21
-98.655
0
LINE
8
BLACK
6
CONTINUOUS
10
144.057
20
-98.655
11
144.057
21
-96.955
0
LINE
8
BLACK
6
CONTINUOUS
10
144.057
20
-96.955
11
144.507
21
-96.955
0
LINE
8
BLACK
6
CONTINUOUS
10
144.507
20
-96.955
11
144.507
21
-93.2198
0
LINE
8
BLACK
6
CONTINUOUS
10
144.507
20
-93.2198
11
144.512
21
-93.1887
0
LINE
8
BLACK
6
CONTINUOUS
10
144.512
20
-93.1887
11
144.512
21
-93.1572
0
LINE
8
BLACK
6
CONTINUOUS
10
144.512
20
-93.1572
11
144.522
21
-93.1273
0
LINE
8
BLACK
6
CONTINUOUS
10
144.522
20
-93.1273
11
144.527
21
-93.0962
0
LINE
8
BLACK
6
CONTINUOUS
10
144.527
20
-93.0962
11
144.541
21
-93.0681
0
LINE
8
BLACK
6
CONTINUOUS
10
144.541
20
-93.0681
11
144.551
21
-93.0382
0
LINE
8
BLACK
6
CONTINUOUS
10
144.551
20
-93.0382
11
144.569
21
-93.0127
0
LINE
8
BLACK
6
CONTINUOUS
10
144.569
20
-93.0127
11
144.583
21
-92.9847
0
LINE
8
BLACK
6
CONTINUOUS
10
144.583
20
-92.9847
11
144.606
21
-92.9624
0
LINE
8
BLACK
6
CONTINUOUS
10
144.606
20
-92.9624
11
144.624
21
-92.9369
0
LINE
8
BLACK
6
CONTINUOUS
10
144.624
20
-92.9369
11
157.455
21
-80.1056
0
LINE
8
BLACK
6
CONTINUOUS
10
157.455
20
-80.1056
11
157.481
21
-80.0871
0
LINE
8
BLACK
6
CONTINUOUS
10
157.481
20
-80.0871
11
157.503
21
-80.0649
0
LINE
8
BLACK
6
CONTINUOUS
10
157.503
20
-80.0649
11
157.531
21
-80.0506
0
LINE
8
BLACK
6
CONTINUOUS
10
157.531
20
-80.0506
11
157.557
21
-80.0321
0
LINE
8
BLACK
6
CONTINUOUS
10
157.557
20
-80.0321
11
157.587
21
-80.0224
0
LINE
8
BLACK
6
CONTINUOUS
10
157.587
20
-80.0224
11
157.615
21
-80.0081
0
LINE
8
BLACK
6
CONTINUOUS
10
157.615
20
-80.0081
11
157.646
21
-80.0031
0
LINE
8
BLACK
6
CONTINUOUS
10
157.646
20
-80.0031
11
157.676
21
-79.9934
0
LINE
8
BLACK
6
CONTINUOUS
10
157.676
20
-79.9934
11
157.707
21
-79.9934
0
LINE
8
BLACK
6
CONTINUOUS
10
157.707
20
-79.9934
11
157.738
21
-79.9885
0
LINE
8
BLACK
6
CONTINUOUS
10
157.738
20
-79.9885
11
159.418
21
-79.9885
0
LINE
8
BLACK
6
CONTINUOUS
10
159.418
20
-79.9885
11
159.45
21
-79.9934
0
LINE
8
BLACK
6
CONTINUOUS
10
159.45
20
-79.9934
11
159.481
21
-79.9934
0
LINE
8
BLACK
6
CONTINUOUS
10
159.481
20
-79.9934
11
159.511
21
-80.0031
0
LINE
8
BLACK
6
CONTINUOUS
10
159.511
20
-80.0031
11
159.542
21
-80.0081
0
LINE
8
BLACK
6
CONTINUOUS
10
159.542
20
-80.0081
11
159.57
21
-80.0224
0
LINE
8
BLACK
6
CONTINUOUS
10
159.57
20
-80.0224
11
159.6
21
-80.0321
0
LINE
8
BLACK
6
CONTINUOUS
10
159.6
20
-80.0321
11
159.626
21
-80.0506
0
LINE
8
BLACK
6
CONTINUOUS
10
159.626
20
-80.0506
11
159.654
21
-80.0649
0
LINE
8
BLACK
6
CONTINUOUS
10
159.654
20
-80.0649
11
159.676
21
-80.0871
0
LINE
8
BLACK
6
CONTINUOUS
10
159.676
20
-80.0871
11
159.701
21
-80.1056
0
LINE
8
BLACK
6
CONTINUOUS
10
159.701
20
-80.1056
11
160.613
21
-81.0178
0
LINE
8
BLACK
6
CONTINUOUS
10
160.613
20
-81.0178
11
160.646
21
-81.0067
0
LINE
8
BLACK
6
CONTINUOUS
10
160.646
20
-81.0067
11
160.824
21
-80.988
0
LINE
8
BLACK
6
CONTINUOUS
10
160.824
20
-80.988
11
161.001
21
-81.0091
0
LINE
8
BLACK
6
CONTINUOUS
10
161.001
20
-81.0091
11
161.169
21
-81.069
0
LINE
8
BLACK
6
CONTINUOUS
10
161.169
20
-81.069
11
161.319
21
-81.1645
0
LINE
8
BLACK
6
CONTINUOUS
10
161.319
20
-81.1645
11
161.445
21
-81.2911
0
LINE
8
BLACK
6
CONTINUOUS
10
161.445
20
-81.2911
11
161.539
21
-81.4423
0
LINE
8
BLACK
6
CONTINUOUS
10
161.539
20
-81.4423
11
161.598
21
-81.6108
0
LINE
8
BLACK
6
CONTINUOUS
10
161.598
20
-81.6108
11
161.618
21
-81.788
0
LINE
8
BLACK
6
CONTINUOUS
10
161.618
20
-81.788
11
161.618
21
-81.8103
0
LINE
8
BLACK
6
CONTINUOUS
10
161.618
20
-81.8103
11
161.593
21
-81.987
0
LINE
8
BLACK
6
CONTINUOUS
10
161.593
20
-81.987
11
161.53
21
-82.1537
0
LINE
8
BLACK
6
CONTINUOUS
10
161.53
20
-82.1537
11
161.431
21
-82.3022
0
LINE
8
BLACK
6
CONTINUOUS
10
161.431
20
-82.3022
11
161.302
21
-82.4252
0
LINE
8
BLACK
6
CONTINUOUS
10
161.302
20
-82.4252
11
161.148
21
-82.5165
0
LINE
8
BLACK
6
CONTINUOUS
10
161.148
20
-82.5165
11
160.979
21
-82.5717
0
LINE
8
BLACK
6
CONTINUOUS
10
160.979
20
-82.5717
11
160.801
21
-82.5878
0
LINE
8
BLACK
6
CONTINUOUS
10
160.801
20
-82.5878
11
160.755
21
-82.5816
0
LINE
8
BLACK
6
CONTINUOUS
10
160.755
20
-82.5816
11
160.755
21
-84.9103
0
LINE
8
BLACK
6
CONTINUOUS
10
160.755
20
-84.9103
11
160.856
21
-84.9745
0
LINE
8
BLACK
6
CONTINUOUS
10
160.856
20
-84.9745
11
160.982
21
-85.1011
0
LINE
8
BLACK
6
CONTINUOUS
10
160.982
20
-85.1011
11
161.076
21
-85.2523
0
LINE
8
BLACK
6
CONTINUOUS
10
161.076
20
-85.2523
11
161.135
21
-85.4208
0
LINE
8
BLACK
6
CONTINUOUS
10
161.135
20
-85.4208
11
161.155
21
-85.598
0
LINE
8
BLACK
6
CONTINUOUS
10
161.155
20
-85.598
11
161.155
21
-85.6203
0
LINE
8
BLACK
6
CONTINUOUS
10
161.155
20
-85.6203
11
161.13
21
-85.797
0
LINE
8
BLACK
6
CONTINUOUS
10
161.13
20
-85.797
11
161.127
21
-85.8044
0
LINE
8
BLACK
6
CONTINUOUS
10
161.127
20
-85.8044
11
162.208
21
-86.8853
0
LINE
8
BLACK
6
CONTINUOUS
10
162.208
20
-86.8853
11
162.226
21
-86.9107
0
LINE
8
BLACK
6
CONTINUOUS
10
162.226
20
-86.9107
11
162.249
21
-86.933
0
LINE
8
BLACK
6
CONTINUOUS
10
162.249
20
-86.933
11
162.263
21
-86.9611
0
LINE
8
BLACK
6
CONTINUOUS
10
162.263
20
-86.9611
11
162.281
21
-86.9865
0
LINE
8
BLACK
6
CONTINUOUS
10
162.281
20
-86.9865
11
162.291
21
-87.0165
0
LINE
8
BLACK
6
CONTINUOUS
10
162.291
20
-87.0165
11
162.305
21
-87.0445
0
LINE
8
BLACK
6
CONTINUOUS
10
162.305
20
-87.0445
11
162.31
21
-87.0756
0
LINE
8
BLACK
6
CONTINUOUS
10
162.31
20
-87.0756
11
162.32
21
-87.1055
0
LINE
8
BLACK
6
CONTINUOUS
10
162.32
20
-87.1055
11
162.32
21
-87.137
0
LINE
8
BLACK
6
CONTINUOUS
10
162.32
20
-87.137
11
162.325
21
-87.1681
0
LINE
8
BLACK
6
CONTINUOUS
10
162.325
20
-87.1681
11
162.325
21
-92.4033
0
LINE
8
BLACK
6
CONTINUOUS
10
162.325
20
-92.4033
11
162.426
21
-92.4675
0
LINE
8
BLACK
6
CONTINUOUS
10
162.426
20
-92.4675
11
162.552
21
-92.5941
0
LINE
8
BLACK
6
CONTINUOUS
10
162.552
20
-92.5941
11
162.613
21
-92.691
0
LINE
8
BLACK
6
CONTINUOUS
10
162.613
20
-92.691
11
169.125
21
-92.691
0
LINE
8
BLACK
6
CONTINUOUS
10
169.125
20
-92.691
11
170.024
21
-91.7922
0
LINE
8
BLACK
6
CONTINUOUS
10
170.024
20
-91.7922
11
170.125
21
-91.7186
0
LINE
8
BLACK
6
CONTINUOUS
10
170.125
20
-91.7186
11
170.244
21
-91.6799
0
LINE
8
BLACK
6
CONTINUOUS
10
170.244
20
-91.6799
11
170.37
21
-91.6799
0
LINE
8
BLACK
6
CONTINUOUS
10
170.37
20
-91.6799
11
170.489
21
-91.7186
0
LINE
8
BLACK
6
CONTINUOUS
10
170.489
20
-91.7186
11
170.59
21
-91.7922
0
LINE
8
BLACK
6
CONTINUOUS
10
154.488
20
-92.3121
11
154.656
21
-92.372
0
LINE
8
BLACK
6
CONTINUOUS
10
154.656
20
-92.372
11
154.806
21
-92.4675
0
LINE
8
BLACK
6
CONTINUOUS
10
154.806
20
-92.4675
11
154.932
21
-92.5941
0
LINE
8
BLACK
6
CONTINUOUS
10
154.932
20
-92.5941
11
155.026
21
-92.7453
0
LINE
8
BLACK
6
CONTINUOUS
10
155.026
20
-92.7453
11
155.085
21
-92.9138
0
LINE
8
BLACK
6
CONTINUOUS
10
155.085
20
-92.9138
11
155.105
21
-93.091
0
LINE
8
BLACK
6
CONTINUOUS
10
155.105
20
-93.091
11
155.105
21
-93.1133
0
LINE
8
BLACK
6
CONTINUOUS
10
155.105
20
-93.1133
11
155.08
21
-93.29
0
LINE
8
BLACK
6
CONTINUOUS
10
155.08
20
-93.29
11
155.077
21
-93.2974
0
LINE
8
BLACK
6
CONTINUOUS
10
155.077
20
-93.2974
11
161.072
21
-99.2926
0
LINE
8
BLACK
6
CONTINUOUS
10
161.072
20
-99.2926
11
161.091
21
-99.3181
0
LINE
8
BLACK
6
CONTINUOUS
10
161.091
20
-99.3181
11
161.113
21
-99.3404
0
LINE
8
BLACK
6
CONTINUOUS
10
161.113
20
-99.3404
11
161.127
21
-99.3684
0
LINE
8
BLACK
6
CONTINUOUS
10
161.127
20
-99.3684
11
161.146
21
-99.3939
0
LINE
8
BLACK
6
CONTINUOUS
10
161.146
20
-99.3939
11
161.156
21
-99.4238
0
LINE
8
BLACK
6
CONTINUOUS
10
161.156
20
-99.4238
11
161.17
21
-99.4519
0
LINE
8
BLACK
6
CONTINUOUS
10
161.17
20
-99.4519
11
161.175
21
-99.483
0
LINE
8
BLACK
6
CONTINUOUS
10
161.175
20
-99.483
11
161.185
21
-99.5129
0
LINE
8
BLACK
6
CONTINUOUS
10
161.185
20
-99.5129
11
161.185
21
-99.5444
0
LINE
8
BLACK
6
CONTINUOUS
10
161.185
20
-99.5444
11
161.189
21
-99.5755
0
LINE
8
BLACK
6
CONTINUOUS
10
161.189
20
-99.5755
11
161.189
21
-105.506
0
LINE
8
BLACK
6
CONTINUOUS
10
161.189
20
-105.506
11
166.152
21
-110.468
0
LINE
8
BLACK
6
CONTINUOUS
10
166.152
20
-110.468
11
168.272
21
-110.468
0
LINE
8
BLACK
6
CONTINUOUS
10
168.272
20
-110.468
11
168.304
21
-110.473
0
LINE
8
BLACK
6
CONTINUOUS
10
168.304
20
-110.473
11
168.335
21
-110.473
0
LINE
8
BLACK
6
CONTINUOUS
10
168.335
20
-110.473
11
168.365
21
-110.483
0
LINE
8
BLACK
6
CONTINUOUS
10
168.365
20
-110.483
11
168.396
21
-110.488
0
LINE
8
BLACK
6
CONTINUOUS
10
168.396
20
-110.488
11
168.424
21
-110.502
0
LINE
8
BLACK
6
CONTINUOUS
10
168.424
20
-110.502
11
168.454
21
-110.512
0
LINE
8
BLACK
6
CONTINUOUS
10
168.454
20
-110.512
11
168.48
21
-110.531
0
LINE
8
BLACK
6
CONTINUOUS
10
168.48
20
-110.531
11
168.508
21
-110.545
0
LINE
8
BLACK
6
CONTINUOUS
10
168.508
20
-110.545
11
168.53
21
-110.567
0
LINE
8
BLACK
6
CONTINUOUS
10
168.53
20
-110.567
11
168.555
21
-110.586
0
LINE
8
BLACK
6
CONTINUOUS
10
168.555
20
-110.586
11
169.322
21
-111.353
0
LINE
8
BLACK
6
CONTINUOUS
10
169.322
20
-111.353
11
169.341
21
-111.378
0
LINE
8
BLACK
6
CONTINUOUS
10
169.341
20
-111.378
11
169.363
21
-111.4
0
LINE
8
BLACK
6
CONTINUOUS
10
169.363
20
-111.4
11
169.377
21
-111.428
0
LINE
8
BLACK
6
CONTINUOUS
10
169.377
20
-111.428
11
169.396
21
-111.454
0
LINE
8
BLACK
6
CONTINUOUS
10
169.396
20
-111.454
11
169.406
21
-111.484
0
LINE
8
BLACK
6
CONTINUOUS
10
169.406
20
-111.484
11
169.42
21
-111.512
0
LINE
8
BLACK
6
CONTINUOUS
10
169.42
20
-111.512
11
169.425
21
-111.543
0
LINE
8
BLACK
6
CONTINUOUS
10
169.425
20
-111.543
11
169.435
21
-111.573
0
LINE
8
BLACK
6
CONTINUOUS
10
169.435
20
-111.573
11
169.435
21
-111.604
0
LINE
8
BLACK
6
CONTINUOUS
10
169.435
20
-111.604
11
169.44
21
-111.636
0
LINE
8
BLACK
6
CONTINUOUS
10
169.44
20
-111.636
11
169.44
21
-113.154
0
LINE
8
BLACK
6
CONTINUOUS
10
169.44
20
-113.154
11
169.435
21
-113.186
0
LINE
8
BLACK
6
CONTINUOUS
10
169.435
20
-113.186
11
169.435
21
-113.217
0
LINE
8
BLACK
6
CONTINUOUS
10
169.435
20
-113.217
11
169.425
21
-113.247
0
LINE
8
BLACK
6
CONTINUOUS
10
169.425
20
-113.247
11
169.42
21
-113.278
0
LINE
8
BLACK
6
CONTINUOUS
10
169.42
20
-113.278
11
169.406
21
-113.306
0
LINE
8
BLACK
6
CONTINUOUS
10
169.406
20
-113.306
11
169.396
21
-113.336
0
LINE
8
BLACK
6
CONTINUOUS
10
169.396
20
-113.336
11
169.377
21
-113.362
0
LINE
8
BLACK
6
CONTINUOUS
10
169.377
20
-113.362
11
169.363
21
-113.39
0
LINE
8
BLACK
6
CONTINUOUS
10
169.363
20
-113.39
11
169.341
21
-113.412
0
LINE
8
BLACK
6
CONTINUOUS
10
169.341
20
-113.412
11
169.322
21
-113.437
0
LINE
8
BLACK
6
CONTINUOUS
10
169.322
20
-113.437
11
168.809
21
-113.95
0
LINE
8
BLACK
6
CONTINUOUS
10
168.809
20
-113.95
11
168.784
21
-113.969
0
LINE
8
BLACK
6
CONTINUOUS
10
168.784
20
-113.969
11
168.762
21
-113.991
0
LINE
8
BLACK
6
CONTINUOUS
10
168.762
20
-113.991
11
168.734
21
-114.005
0
LINE
8
BLACK
6
CONTINUOUS
10
168.734
20
-114.005
11
168.708
21
-114.024
0
LINE
8
BLACK
6
CONTINUOUS
10
168.708
20
-114.024
11
168.678
21
-114.034
0
LINE
8
BLACK
6
CONTINUOUS
10
168.678
20
-114.034
11
168.65
21
-114.048
0
LINE
8
BLACK
6
CONTINUOUS
10
168.65
20
-114.048
11
168.619
21
-114.053
0
LINE
8
BLACK
6
CONTINUOUS
10
168.619
20
-114.053
11
168.589
21
-114.063
0
LINE
8
BLACK
6
CONTINUOUS
10
168.589
20
-114.063
11
168.558
21
-114.063
0
LINE
8
BLACK
6
CONTINUOUS
10
168.558
20
-114.063
11
168.526
21
-114.068
0
LINE
8
BLACK
6
CONTINUOUS
10
168.526
20
-114.068
11
163.198
21
-114.068
0
LINE
8
BLACK
6
CONTINUOUS
10
163.198
20
-114.068
11
163.166
21
-114.063
0
LINE
8
BLACK
6
CONTINUOUS
10
163.166
20
-114.063
11
163.135
21
-114.063
0
LINE
8
BLACK
6
CONTINUOUS
10
163.135
20
-114.063
11
163.105
21
-114.053
0
LINE
8
BLACK
6
CONTINUOUS
10
163.105
20
-114.053
11
163.074
21
-114.048
0
LINE
8
BLACK
6
CONTINUOUS
10
163.074
20
-114.048
11
163.046
21
-114.034
0
LINE
8
BLACK
6
CONTINUOUS
10
163.046
20
-114.034
11
163.016
21
-114.024
0
LINE
8
BLACK
6
CONTINUOUS
10
163.016
20
-114.024
11
162.99
21
-114.005
0
LINE
8
BLACK
6
CONTINUOUS
10
162.99
20
-114.005
11
162.962
21
-113.991
0
LINE
8
BLACK
6
CONTINUOUS
10
162.962
20
-113.991
11
162.94
21
-113.969
0
LINE
8
BLACK
6
CONTINUOUS
10
162.94
20
-113.969
11
162.915
21
-113.95
0
LINE
8
BLACK
6
CONTINUOUS
10
162.915
20
-113.95
11
154.773
21
-105.809
0
LINE
8
BLACK
6
CONTINUOUS
10
154.773
20
-105.809
11
154.73
21
-105.823
0
LINE
8
BLACK
6
CONTINUOUS
10
154.73
20
-105.823
11
154.552
21
-105.839
0
LINE
8
BLACK
6
CONTINUOUS
10
154.552
20
-105.839
11
154.375
21
-105.815
0
LINE
8
BLACK
6
CONTINUOUS
10
154.375
20
-105.815
11
154.208
21
-105.753
0
LINE
8
BLACK
6
CONTINUOUS
10
154.208
20
-105.753
11
154.059
21
-105.655
0
LINE
8
BLACK
6
CONTINUOUS
10
154.059
20
-105.655
11
153.935
21
-105.527
0
LINE
8
BLACK
6
CONTINUOUS
10
153.935
20
-105.527
11
153.843
21
-105.375
0
LINE
8
BLACK
6
CONTINUOUS
10
153.843
20
-105.375
11
153.786
21
-105.205
0
LINE
8
BLACK
6
CONTINUOUS
10
153.786
20
-105.205
11
153.769
21
-105.028
0
LINE
8
BLACK
6
CONTINUOUS
10
153.769
20
-105.028
11
153.791
21
-104.851
0
LINE
8
BLACK
6
CONTINUOUS
10
153.791
20
-104.851
11
153.798
21
-104.833
0
LINE
8
BLACK
6
CONTINUOUS
10
153.798
20
-104.833
11
152.249
21
-103.285
0
LINE
8
BLACK
6
CONTINUOUS
10
152.249
20
-103.285
11
145.652
21
-103.285
0
LINE
8
BLACK
6
CONTINUOUS
10
145.652
20
-103.285
11
145.595
21
-103.385
0
LINE
8
BLACK
6
CONTINUOUS
10
145.595
20
-103.385
11
145.476
21
-103.517
0
LINE
8
BLACK
6
CONTINUOUS
10
145.476
20
-103.517
11
145.332
21
-103.621
0
LINE
8
BLACK
6
CONTINUOUS
10
145.332
20
-103.621
11
145.17
21
-103.693
0
LINE
8
BLACK
6
CONTINUOUS
10
145.17
20
-103.693
11
144.996
21
-103.73
0
LINE
8
BLACK
6
CONTINUOUS
10
144.996
20
-103.73
11
144.818
21
-103.73
0
LINE
8
BLACK
6
CONTINUOUS
10
144.818
20
-103.73
11
144.644
21
-103.693
0
LINE
8
BLACK
6
CONTINUOUS
10
144.644
20
-103.693
11
144.482
21
-103.621
0
LINE
8
BLACK
6
CONTINUOUS
10
144.482
20
-103.621
11
144.338
21
-103.517
0
LINE
8
BLACK
6
CONTINUOUS
10
144.338
20
-103.517
11
144.219
21
-103.385
0
LINE
8
BLACK
6
CONTINUOUS
10
144.219
20
-103.385
11
144.13
21
-103.231
0
LINE
8
BLACK
6
CONTINUOUS
10
144.13
20
-103.231
11
144.076
21
-103.062
0
LINE
8
BLACK
6
CONTINUOUS
10
144.076
20
-103.062
11
144.057
21
-102.885
0
LINE
8
BLACK
6
CONTINUOUS
10
144.057
20
-102.885
11
144.076
21
-102.708
0
LINE
8
BLACK
6
CONTINUOUS
10
144.076
20
-102.708
11
144.13
21
-102.539
0
LINE
8
BLACK
6
CONTINUOUS
10
144.13
20
-102.539
11
144.219
21
-102.385
0
LINE
8
BLACK
6
CONTINUOUS
10
144.219
20
-102.385
11
144.338
21
-102.253
0
LINE
8
BLACK
6
CONTINUOUS
10
144.338
20
-102.253
11
144.482
21
-102.149
0
LINE
8
BLACK
6
CONTINUOUS
10
144.482
20
-102.149
11
144.644
21
-102.077
0
LINE
8
BLACK
6
CONTINUOUS
10
144.644
20
-102.077
11
144.818
21
-102.04
0
LINE
8
BLACK
6
CONTINUOUS
10
144.818
20
-102.04
11
144.996
21
-102.04
0
LINE
8
BLACK
6
CONTINUOUS
10
144.996
20
-102.04
11
145.17
21
-102.077
0
LINE
8
BLACK
6
CONTINUOUS
10
145.17
20
-102.077
11
145.332
21
-102.149
0
LINE
8
BLACK
6
CONTINUOUS
10
145.332
20
-102.149
11
145.476
21
-102.253
0
LINE
8
BLACK
6
CONTINUOUS
10
145.476
20
-102.253
11
145.595
21
-102.385
0
LINE
8
BLACK
6
CONTINUOUS
10
145.595
20
-102.385
11
145.652
21
-102.485
0
LINE
8
BLACK
6
CONTINUOUS
10
145.652
20
-102.485
11
152.415
21
-102.485
0
LINE
8
BLACK
6
CONTINUOUS
10
152.415
20
-102.485
11
152.446
21
-102.49
0
LINE
8
BLACK
6
CONTINUOUS
10
152.446
20
-102.49
11
152.478
21
-102.49
0
LINE
8
BLACK
6
CONTINUOUS
10
152.478
20
-102.49
11
152.508
21
-102.5
0
LINE
8
BLACK
6
CONTINUOUS
10
152.508
20
-102.5
11
152.539
21
-102.505
0
LINE
8
BLACK
6
CONTINUOUS
10
152.539
20
-102.505
11
152.567
21
-102.519
0
LINE
8
BLACK
6
CONTINUOUS
10
152.567
20
-102.519
11
152.597
21
-102.529
0
LINE
8
BLACK
6
CONTINUOUS
10
152.597
20
-102.529
11
152.622
21
-102.547
0
LINE
8
BLACK
6
CONTINUOUS
10
152.622
20
-102.547
11
152.65
21
-102.561
0
LINE
8
BLACK
6
CONTINUOUS
10
152.65
20
-102.561
11
152.672
21
-102.584
0
LINE
8
BLACK
6
CONTINUOUS
10
152.672
20
-102.584
11
152.698
21
-102.602
0
LINE
8
BLACK
6
CONTINUOUS
10
152.698
20
-102.602
11
154.364
21
-104.269
0
LINE
8
BLACK
6
CONTINUOUS
10
154.364
20
-104.269
11
154.397
21
-104.258
0
LINE
8
BLACK
6
CONTINUOUS
10
154.397
20
-104.258
11
154.575
21
-104.239
0
LINE
8
BLACK
6
CONTINUOUS
10
154.575
20
-104.239
11
154.752
21
-104.26
0
LINE
8
BLACK
6
CONTINUOUS
10
154.752
20
-104.26
11
154.92
21
-104.32
0
LINE
8
BLACK
6
CONTINUOUS
10
154.92
20
-104.32
11
155.07
21
-104.416
0
LINE
8
BLACK
6
CONTINUOUS
10
155.07
20
-104.416
11
155.196
21
-104.542
0
LINE
8
BLACK
6
CONTINUOUS
10
155.196
20
-104.542
11
155.29
21
-104.693
0
LINE
8
BLACK
6
CONTINUOUS
10
155.29
20
-104.693
11
155.349
21
-104.862
0
LINE
8
BLACK
6
CONTINUOUS
10
155.349
20
-104.862
11
155.369
21
-105.039
0
LINE
8
BLACK
6
CONTINUOUS
10
155.369
20
-105.039
11
155.369
21
-105.061
0
LINE
8
BLACK
6
CONTINUOUS
10
155.369
20
-105.061
11
155.344
21
-105.238
0
LINE
8
BLACK
6
CONTINUOUS
10
155.344
20
-105.238
11
155.341
21
-105.245
0
LINE
8
BLACK
6
CONTINUOUS
10
155.341
20
-105.245
11
163.363
21
-113.268
0
LINE
8
BLACK
6
CONTINUOUS
10
163.363
20
-113.268
11
168.361
21
-113.268
0
LINE
8
BLACK
6
CONTINUOUS
10
168.361
20
-113.268
11
168.64
21
-112.989
0
LINE
8
BLACK
6
CONTINUOUS
10
168.64
20
-112.989
11
168.64
21
-111.801
0
LINE
8
BLACK
6
CONTINUOUS
10
168.64
20
-111.801
11
168.107
21
-111.268
0
LINE
8
BLACK
6
CONTINUOUS
10
168.107
20
-111.268
11
165.986
21
-111.268
0
LINE
8
BLACK
6
CONTINUOUS
10
165.986
20
-111.268
11
165.955
21
-111.264
0
LINE
8
BLACK
6
CONTINUOUS
10
165.955
20
-111.264
11
165.924
21
-111.264
0
LINE
8
BLACK
6
CONTINUOUS
10
165.924
20
-111.264
11
165.894
21
-111.254
0
LINE
8
BLACK
6
CONTINUOUS
10
165.894
20
-111.254
11
165.863
21
-111.249
0
LINE
8
BLACK
6
CONTINUOUS
10
165.863
20
-111.249
11
165.835
21
-111.235
0
LINE
8
BLACK
6
CONTINUOUS
10
165.835
20
-111.235
11
165.805
21
-111.225
0
LINE
8
BLACK
6
CONTINUOUS
10
165.805
20
-111.225
11
165.779
21
-111.206
0
LINE
8
BLACK
6
CONTINUOUS
10
165.779
20
-111.206
11
165.751
21
-111.192
0
LINE
8
BLACK
6
CONTINUOUS
10
165.751
20
-111.192
11
165.729
21
-111.17
0
LINE
8
BLACK
6
CONTINUOUS
10
165.729
20
-111.17
11
165.704
21
-111.151
0
LINE
8
BLACK
6
CONTINUOUS
10
165.704
20
-111.151
11
160.507
21
-105.954
0
LINE
8
BLACK
6
CONTINUOUS
10
160.507
20
-105.954
11
160.488
21
-105.929
0
LINE
8
BLACK
6
CONTINUOUS
10
160.488
20
-105.929
11
160.466
21
-105.907
0
LINE
8
BLACK
6
CONTINUOUS
10
160.466
20
-105.907
11
160.452
21
-105.879
0
LINE
8
BLACK
6
CONTINUOUS
10
160.452
20
-105.879
11
160.433
21
-105.853
0
LINE
8
BLACK
6
CONTINUOUS
10
160.433
20
-105.853
11
160.423
21
-105.823
0
LINE
8
BLACK
6
CONTINUOUS
10
160.423
20
-105.823
11
160.409
21
-105.795
0
LINE
8
BLACK
6
CONTINUOUS
10
160.409
20
-105.795
11
160.404
21
-105.764
0
LINE
8
BLACK
6
CONTINUOUS
10
160.404
20
-105.764
11
160.394
21
-105.734
0
LINE
8
BLACK
6
CONTINUOUS
10
160.394
20
-105.734
11
160.394
21
-105.703
0
LINE
8
BLACK
6
CONTINUOUS
10
160.394
20
-105.703
11
160.389
21
-105.671
0
LINE
8
BLACK
6
CONTINUOUS
10
160.389
20
-105.671
11
160.389
21
-99.7412
0
LINE
8
BLACK
6
CONTINUOUS
10
160.389
20
-99.7412
11
154.509
21
-93.8607
0
LINE
8
BLACK
6
CONTINUOUS
10
154.509
20
-93.8607
11
154.466
21
-93.8747
0
LINE
8
BLACK
6
CONTINUOUS
10
154.466
20
-93.8747
11
154.288
21
-93.8908
0
LINE
8
BLACK
6
CONTINUOUS
10
154.288
20
-93.8908
11
154.111
21
-93.8672
0
LINE
8
BLACK
6
CONTINUOUS
10
154.111
20
-93.8672
11
153.944
21
-93.8051
0
LINE
8
BLACK
6
CONTINUOUS
10
153.944
20
-93.8051
11
153.795
21
-93.7074
0
LINE
8
BLACK
6
CONTINUOUS
10
153.795
20
-93.7074
11
153.671
21
-93.5791
0
LINE
8
BLACK
6
CONTINUOUS
10
153.671
20
-93.5791
11
153.579
21
-93.4266
0
LINE
8
BLACK
6
CONTINUOUS
10
153.579
20
-93.4266
11
153.522
21
-93.2573
0
LINE
8
BLACK
6
CONTINUOUS
10
153.522
20
-93.2573
11
153.505
21
-93.0798
0
LINE
8
BLACK
6
CONTINUOUS
10
153.505
20
-93.0798
11
153.527
21
-92.9029
0
LINE
8
BLACK
6
CONTINUOUS
10
153.527
20
-92.9029
11
153.588
21
-92.7353
0
LINE
8
BLACK
6
CONTINUOUS
10
153.588
20
-92.7353
11
153.685
21
-92.5854
0
LINE
8
BLACK
6
CONTINUOUS
10
153.685
20
-92.5854
11
153.812
21
-92.4606
0
LINE
8
BLACK
6
CONTINUOUS
10
153.812
20
-92.4606
11
153.964
21
-92.3671
0
LINE
8
BLACK
6
CONTINUOUS
10
153.964
20
-92.3671
11
154.133
21
-92.3097
0
LINE
8
BLACK
6
CONTINUOUS
10
154.133
20
-92.3097
11
154.311
21
-92.291
0
LINE
8
BLACK
6
CONTINUOUS
10
154.311
20
-92.291
11
154.488
21
-92.3121
0
LINE
8
BLACK
6
CONTINUOUS
10
175.443
20
-111.489
11
175.611
21
-111.549
0
LINE
8
BLACK
6
CONTINUOUS
10
175.611
20
-111.549
11
175.761
21
-111.645
0
LINE
8
BLACK
6
CONTINUOUS
10
175.761
20
-111.645
11
175.887
21
-111.771
0
LINE
8
BLACK
6
CONTINUOUS
10
175.887
20
-111.771
11
175.981
21
-111.922
0
LINE
8
BLACK
6
CONTINUOUS
10
175.981
20
-111.922
11
176.04
21
-112.091
0
LINE
8
BLACK
6
CONTINUOUS
10
176.04
20
-112.091
11
176.044
21
-112.122
0
LINE
8
BLACK
6
CONTINUOUS
10
176.044
20
-112.122
11
178.999
21
-112.122
0
LINE
8
BLACK
6
CONTINUOUS
10
178.999
20
-112.122
11
179.06
21
-112.073
0
LINE
8
BLACK
6
CONTINUOUS
10
179.06
20
-112.073
11
179.191
21
-112.016
0
LINE
8
BLACK
6
CONTINUOUS
10
179.191
20
-112.016
11
179.332
21
-111.997
0
LINE
8
BLACK
6
CONTINUOUS
10
179.332
20
-111.997
11
179.782
21
-111.997
0
LINE
8
BLACK
6
CONTINUOUS
10
179.782
20
-111.997
11
179.859
21
-112.003
0
LINE
8
BLACK
6
CONTINUOUS
10
179.859
20
-112.003
11
179.996
21
-112.042
0
LINE
8
BLACK
6
CONTINUOUS
10
179.996
20
-112.042
11
180.117
21
-112.117
0
LINE
8
BLACK
6
CONTINUOUS
10
180.117
20
-112.117
11
180.213
21
-112.222
0
LINE
8
BLACK
6
CONTINUOUS
10
180.213
20
-112.222
11
180.278
21
-112.349
0
LINE
8
BLACK
6
CONTINUOUS
10
180.278
20
-112.349
11
180.306
21
-112.489
0
LINE
8
BLACK
6
CONTINUOUS
10
180.306
20
-112.489
11
180.296
21
-112.631
0
LINE
8
BLACK
6
CONTINUOUS
10
180.296
20
-112.631
11
180.247
21
-112.765
0
LINE
8
BLACK
6
CONTINUOUS
10
180.247
20
-112.765
11
180.165
21
-112.881
0
LINE
8
BLACK
6
CONTINUOUS
10
180.165
20
-112.881
11
180.054
21
-112.971
0
LINE
8
BLACK
6
CONTINUOUS
10
180.054
20
-112.971
11
179.923
21
-113.028
0
LINE
8
BLACK
6
CONTINUOUS
10
179.923
20
-113.028
11
179.782
21
-113.047
0
LINE
8
BLACK
6
CONTINUOUS
10
179.782
20
-113.047
11
179.332
21
-113.047
0
LINE
8
BLACK
6
CONTINUOUS
10
179.332
20
-113.047
11
179.255
21
-113.041
0
LINE
8
BLACK
6
CONTINUOUS
10
179.255
20
-113.041
11
179.118
21
-113.002
0
LINE
8
BLACK
6
CONTINUOUS
10
179.118
20
-113.002
11
178.997
21
-112.927
0
LINE
8
BLACK
6
CONTINUOUS
10
178.997
20
-112.927
11
178.993
21
-112.922
0
LINE
8
BLACK
6
CONTINUOUS
10
178.993
20
-112.922
11
175.716
21
-112.922
0
LINE
8
BLACK
6
CONTINUOUS
10
175.716
20
-112.922
11
175.59
21
-112.997
0
LINE
8
BLACK
6
CONTINUOUS
10
175.59
20
-112.997
11
175.421
21
-113.052
0
LINE
8
BLACK
6
CONTINUOUS
10
175.421
20
-113.052
11
175.243
21
-113.068
0
LINE
8
BLACK
6
CONTINUOUS
10
175.243
20
-113.068
11
175.066
21
-113.044
0
LINE
8
BLACK
6
CONTINUOUS
10
175.066
20
-113.044
11
174.899
21
-112.982
0
LINE
8
BLACK
6
CONTINUOUS
10
174.899
20
-112.982
11
174.75
21
-112.884
0
LINE
8
BLACK
6
CONTINUOUS
10
174.75
20
-112.884
11
174.626
21
-112.756
0
LINE
8
BLACK
6
CONTINUOUS
10
174.626
20
-112.756
11
174.534
21
-112.604
0
LINE
8
BLACK
6
CONTINUOUS
10
174.534
20
-112.604
11
174.477
21
-112.434
0
LINE
8
BLACK
6
CONTINUOUS
10
174.477
20
-112.434
11
174.46
21
-112.257
0
LINE
8
BLACK
6
CONTINUOUS
10
174.46
20
-112.257
11
174.482
21
-112.08
0
LINE
8
BLACK
6
CONTINUOUS
10
174.482
20
-112.08
11
174.543
21
-111.912
0
LINE
8
BLACK
6
CONTINUOUS
10
174.543
20
-111.912
11
174.64
21
-111.762
0
LINE
8
BLACK
6
CONTINUOUS
10
174.64
20
-111.762
11
174.767
21
-111.638
0
LINE
8
BLACK
6
CONTINUOUS
10
174.767
20
-111.638
11
174.919
21
-111.544
0
LINE
8
BLACK
6
CONTINUOUS
10
174.919
20
-111.544
11
175.088
21
-111.487
0
LINE
8
BLACK
6
CONTINUOUS
10
175.088
20
-111.487
11
175.266
21
-111.468
0
LINE
8
BLACK
6
CONTINUOUS
10
175.266
20
-111.468
11
175.443
21
-111.489
0
LINE
8
BLACK
6
CONTINUOUS
10
154.752
20
-101.72
11
154.92
21
-101.78
0
LINE
8
BLACK
6
CONTINUOUS
10
154.92
20
-101.78
11
155.07
21
-101.876
0
LINE
8
BLACK
6
CONTINUOUS
10
155.07
20
-101.876
11
155.196
21
-102.002
0
LINE
8
BLACK
6
CONTINUOUS
10
155.196
20
-102.002
11
155.29
21
-102.153
0
LINE
8
BLACK
6
CONTINUOUS
10
155.29
20
-102.153
11
155.349
21
-102.322
0
LINE
8
BLACK
6
CONTINUOUS
10
155.349
20
-102.322
11
155.369
21
-102.499
0
LINE
8
BLACK
6
CONTINUOUS
10
155.369
20
-102.499
11
155.369
21
-102.521
0
LINE
8
BLACK
6
CONTINUOUS
10
155.369
20
-102.521
11
155.344
21
-102.698
0
LINE
8
BLACK
6
CONTINUOUS
10
155.344
20
-102.698
11
155.341
21
-102.705
0
LINE
8
BLACK
6
CONTINUOUS
10
155.341
20
-102.705
11
164.504
21
-111.868
0
LINE
8
BLACK
6
CONTINUOUS
10
164.504
20
-111.868
11
166.952
21
-111.868
0
LINE
8
BLACK
6
CONTINUOUS
10
166.952
20
-111.868
11
167.02
21
-111.762
0
LINE
8
BLACK
6
CONTINUOUS
10
167.02
20
-111.762
11
167.147
21
-111.638
0
LINE
8
BLACK
6
CONTINUOUS
10
167.147
20
-111.638
11
167.299
21
-111.544
0
LINE
8
BLACK
6
CONTINUOUS
10
167.299
20
-111.544
11
167.468
21
-111.487
0
LINE
8
BLACK
6
CONTINUOUS
10
167.468
20
-111.487
11
167.646
21
-111.468
0
LINE
8
BLACK
6
CONTINUOUS
10
167.646
20
-111.468
11
167.823
21
-111.489
0
LINE
8
BLACK
6
CONTINUOUS
10
167.823
20
-111.489
11
167.991
21
-111.549
0
LINE
8
BLACK
6
CONTINUOUS
10
167.991
20
-111.549
11
168.141
21
-111.645
0
LINE
8
BLACK
6
CONTINUOUS
10
168.141
20
-111.645
11
168.267
21
-111.771
0
LINE
8
BLACK
6
CONTINUOUS
10
168.267
20
-111.771
11
168.361
21
-111.922
0
LINE
8
BLACK
6
CONTINUOUS
10
168.361
20
-111.922
11
168.42
21
-112.091
0
LINE
8
BLACK
6
CONTINUOUS
10
168.42
20
-112.091
11
168.44
21
-112.268
0
LINE
8
BLACK
6
CONTINUOUS
10
168.44
20
-112.268
11
168.44
21
-112.29
0
LINE
8
BLACK
6
CONTINUOUS
10
168.44
20
-112.29
11
168.415
21
-112.467
0
LINE
8
BLACK
6
CONTINUOUS
10
168.415
20
-112.467
11
168.352
21
-112.634
0
LINE
8
BLACK
6
CONTINUOUS
10
168.352
20
-112.634
11
168.253
21
-112.782
0
LINE
8
BLACK
6
CONTINUOUS
10
168.253
20
-112.782
11
168.124
21
-112.905
0
LINE
8
BLACK
6
CONTINUOUS
10
168.124
20
-112.905
11
167.97
21
-112.997
0
LINE
8
BLACK
6
CONTINUOUS
10
167.97
20
-112.997
11
167.801
21
-113.052
0
LINE
8
BLACK
6
CONTINUOUS
10
167.801
20
-113.052
11
167.623
21
-113.068
0
LINE
8
BLACK
6
CONTINUOUS
10
167.623
20
-113.068
11
167.446
21
-113.044
0
LINE
8
BLACK
6
CONTINUOUS
10
167.446
20
-113.044
11
167.279
21
-112.982
0
LINE
8
BLACK
6
CONTINUOUS
10
167.279
20
-112.982
11
167.13
21
-112.884
0
LINE
8
BLACK
6
CONTINUOUS
10
167.13
20
-112.884
11
167.006
21
-112.756
0
LINE
8
BLACK
6
CONTINUOUS
10
167.006
20
-112.756
11
166.953
21
-112.668
0
LINE
8
BLACK
6
CONTINUOUS
10
166.953
20
-112.668
11
164.338
21
-112.668
0
LINE
8
BLACK
6
CONTINUOUS
10
164.338
20
-112.668
11
164.307
21
-112.663
0
LINE
8
BLACK
6
CONTINUOUS
10
164.307
20
-112.663
11
164.275
21
-112.663
0
LINE
8
BLACK
6
CONTINUOUS
10
164.275
20
-112.663
11
164.245
21
-112.653
0
LINE
8
BLACK
6
CONTINUOUS
10
164.245
20
-112.653
11
164.214
21
-112.648
0
LINE
8
BLACK
6
CONTINUOUS
10
164.214
20
-112.648
11
164.186
21
-112.634
0
LINE
8
BLACK
6
CONTINUOUS
10
164.186
20
-112.634
11
164.156
21
-112.624
0
LINE
8
BLACK
6
CONTINUOUS
10
164.156
20
-112.624
11
164.131
21
-112.606
0
LINE
8
BLACK
6
CONTINUOUS
10
164.131
20
-112.606
11
164.103
21
-112.592
0
LINE
8
BLACK
6
CONTINUOUS
10
164.103
20
-112.592
11
164.081
21
-112.569
0
LINE
8
BLACK
6
CONTINUOUS
10
164.081
20
-112.569
11
164.055
21
-112.551
0
LINE
8
BLACK
6
CONTINUOUS
10
164.055
20
-112.551
11
154.773
21
-103.269
0
LINE
8
BLACK
6
CONTINUOUS
10
154.773
20
-103.269
11
154.73
21
-103.283
0
LINE
8
BLACK
6
CONTINUOUS
10
154.73
20
-103.283
11
154.552
21
-103.299
0
LINE
8
BLACK
6
CONTINUOUS
10
154.552
20
-103.299
11
154.375
21
-103.275
0
LINE
8
BLACK
6
CONTINUOUS
10
154.375
20
-103.275
11
154.208
21
-103.213
0
LINE
8
BLACK
6
CONTINUOUS
10
154.208
20
-103.213
11
154.059
21
-103.115
0
LINE
8
BLACK
6
CONTINUOUS
10
154.059
20
-103.115
11
153.935
21
-102.987
0
LINE
8
BLACK
6
CONTINUOUS
10
153.935
20
-102.987
11
153.843
21
-102.835
0
LINE
8
BLACK
6
CONTINUOUS
10
153.843
20
-102.835
11
153.786
21
-102.665
0
LINE
8
BLACK
6
CONTINUOUS
10
153.786
20
-102.665
11
153.769
21
-102.488
0
LINE
8
BLACK
6
CONTINUOUS
10
153.769
20
-102.488
11
153.791
21
-102.311
0
LINE
8
BLACK
6
CONTINUOUS
10
153.791
20
-102.311
11
153.852
21
-102.143
0
LINE
8
BLACK
6
CONTINUOUS
10
153.852
20
-102.143
11
153.949
21
-101.993
0
LINE
8
BLACK
6
CONTINUOUS
10
153.949
20
-101.993
11
154.076
21
-101.869
0
LINE
8
BLACK
6
CONTINUOUS
10
154.076
20
-101.869
11
154.228
21
-101.775
0
LINE
8
BLACK
6
CONTINUOUS
10
154.228
20
-101.775
11
154.397
21
-101.718
0
LINE
8
BLACK
6
CONTINUOUS
10
154.397
20
-101.718
11
154.575
21
-101.699
0
LINE
8
BLACK
6
CONTINUOUS
10
154.575
20
-101.699
11
154.752
21
-101.72
0
LINE
8
BLACK
6
CONTINUOUS
10
193.503
20
-98.9664
11
193.535
21
-98.9664
0
LINE
8
BLACK
6
CONTINUOUS
10
193.535
20
-98.9664
11
193.564
21
-98.9761
0
LINE
8
BLACK
6
CONTINUOUS
10
193.564
20
-98.9761
11
193.596
21
-98.9811
0
LINE
8
BLACK
6
CONTINUOUS
10
193.596
20
-98.9811
11
193.624
21
-98.9954
0
LINE
8
BLACK
6
CONTINUOUS
10
193.624
20
-98.9954
11
193.654
21
-99.0051
0
LINE
8
BLACK
6
CONTINUOUS
10
193.654
20
-99.0051
11
193.679
21
-99.0236
0
LINE
8
BLACK
6
CONTINUOUS
10
193.679
20
-99.0236
11
193.707
21
-99.0379
0
LINE
8
BLACK
6
CONTINUOUS
10
193.707
20
-99.0379
11
193.729
21
-99.0601
0
LINE
8
BLACK
6
CONTINUOUS
10
193.729
20
-99.0601
11
193.755
21
-99.0786
0
LINE
8
BLACK
6
CONTINUOUS
10
193.755
20
-99.0786
11
194.799
21
-100.123
0
LINE
8
BLACK
6
CONTINUOUS
10
194.799
20
-100.123
11
194.818
21
-100.149
0
LINE
8
BLACK
6
CONTINUOUS
10
194.818
20
-100.149
11
194.84
21
-100.171
0
LINE
8
BLACK
6
CONTINUOUS
10
194.84
20
-100.171
11
194.854
21
-100.199
0
LINE
8
BLACK
6
CONTINUOUS
10
194.854
20
-100.199
11
194.873
21
-100.224
0
LINE
8
BLACK
6
CONTINUOUS
10
194.873
20
-100.224
11
194.883
21
-100.254
0
LINE
8
BLACK
6
CONTINUOUS
10
194.883
20
-100.254
11
194.897
21
-100.282
0
LINE
8
BLACK
6
CONTINUOUS
10
194.897
20
-100.282
11
194.902
21
-100.314
0
LINE
8
BLACK
6
CONTINUOUS
10
194.902
20
-100.314
11
194.912
21
-100.343
0
LINE
8
BLACK
6
CONTINUOUS
10
194.912
20
-100.343
11
194.912
21
-100.375
0
LINE
8
BLACK
6
CONTINUOUS
10
194.912
20
-100.375
11
194.917
21
-100.406
0
LINE
8
BLACK
6
CONTINUOUS
10
194.917
20
-100.406
11
194.917
21
-107.677
0
LINE
8
BLACK
6
CONTINUOUS
10
194.917
20
-107.677
11
198.137
21
-107.677
0
LINE
8
BLACK
6
CONTINUOUS
10
198.137
20
-107.677
11
198.194
21
-107.577
0
LINE
8
BLACK
6
CONTINUOUS
10
198.194
20
-107.577
11
198.313
21
-107.445
0
LINE
8
BLACK
6
CONTINUOUS
10
198.313
20
-107.445
11
198.457
21
-107.341
0
LINE
8
BLACK
6
CONTINUOUS
10
198.457
20
-107.341
11
198.619
21
-107.269
0
LINE
8
BLACK
6
CONTINUOUS
10
198.619
20
-107.269
11
198.793
21
-107.232
0
LINE
8
BLACK
6
CONTINUOUS
10
198.793
20
-107.232
11
198.971
21
-107.232
0
LINE
8
BLACK
6
CONTINUOUS
10
198.971
20
-107.232
11
199.145
21
-107.269
0
LINE
8
BLACK
6
CONTINUOUS
10
199.145
20
-107.269
11
199.307
21
-107.341
0
LINE
8
BLACK
6
CONTINUOUS
10
199.307
20
-107.341
11
199.451
21
-107.445
0
LINE
8
BLACK
6
CONTINUOUS
10
199.451
20
-107.445
11
199.57
21
-107.577
0
LINE
8
BLACK
6
CONTINUOUS
10
199.57
20
-107.577
11
199.659
21
-107.731
0
LINE
8
BLACK
6
CONTINUOUS
10
199.659
20
-107.731
11
199.713
21
-107.9
0
LINE
8
BLACK
6
CONTINUOUS
10
199.713
20
-107.9
11
199.732
21
-108.077
0
LINE
8
BLACK
6
CONTINUOUS
10
199.732
20
-108.077
11
199.713
21
-108.254
0
LINE
8
BLACK
6
CONTINUOUS
10
199.713
20
-108.254
11
199.659
21
-108.423
0
LINE
8
BLACK
6
CONTINUOUS
10
199.659
20
-108.423
11
199.57
21
-108.577
0
LINE
8
BLACK
6
CONTINUOUS
10
199.57
20
-108.577
11
199.451
21
-108.709
0
LINE
8
BLACK
6
CONTINUOUS
10
199.451
20
-108.709
11
199.307
21
-108.813
0
LINE
8
BLACK
6
CONTINUOUS
10
199.307
20
-108.813
11
199.145
21
-108.885
0
LINE
8
BLACK
6
CONTINUOUS
10
199.145
20
-108.885
11
198.971
21
-108.922
0
LINE
8
BLACK
6
CONTINUOUS
10
198.971
20
-108.922
11
198.793
21
-108.922
0
LINE
8
BLACK
6
CONTINUOUS
10
198.793
20
-108.922
11
198.619
21
-108.885
0
LINE
8
BLACK
6
CONTINUOUS
10
198.619
20
-108.885
11
198.457
21
-108.813
0
LINE
8
BLACK
6
CONTINUOUS
10
198.457
20
-108.813
11
198.313
21
-108.709
0
LINE
8
BLACK
6
CONTINUOUS
10
198.313
20
-108.709
11
198.194
21
-108.577
0
LINE
8
BLACK
6
CONTINUOUS
10
198.194
20
-108.577
11
198.137
21
-108.477
0
LINE
8
BLACK
6
CONTINUOUS
10
198.137
20
-108.477
11
194.703
21
-108.477
0
LINE
8
BLACK
6
CONTINUOUS
10
194.703
20
-108.477
11
194.698
21
-108.481
0
LINE
8
BLACK
6
CONTINUOUS
10
194.698
20
-108.481
11
194.668
21
-108.491
0
LINE
8
BLACK
6
CONTINUOUS
10
194.668
20
-108.491
11
194.64
21
-108.505
0
LINE
8
BLACK
6
CONTINUOUS
10
194.64
20
-108.505
11
194.609
21
-108.51
0
LINE
8
BLACK
6
CONTINUOUS
10
194.609
20
-108.51
11
194.579
21
-108.52
0
LINE
8
BLACK
6
CONTINUOUS
10
194.579
20
-108.52
11
194.548
21
-108.52
0
LINE
8
BLACK
6
CONTINUOUS
10
194.548
20
-108.52
11
194.517
21
-108.524
0
LINE
8
BLACK
6
CONTINUOUS
10
194.517
20
-108.524
11
194.485
21
-108.52
0
LINE
8
BLACK
6
CONTINUOUS
10
194.485
20
-108.52
11
194.454
21
-108.52
0
LINE
8
BLACK
6
CONTINUOUS
10
194.454
20
-108.52
11
194.424
21
-108.51
0
LINE
8
BLACK
6
CONTINUOUS
10
194.424
20
-108.51
11
194.393
21
-108.505
0
LINE
8
BLACK
6
CONTINUOUS
10
194.393
20
-108.505
11
194.365
21
-108.491
0
LINE
8
BLACK
6
CONTINUOUS
10
194.365
20
-108.491
11
194.335
21
-108.481
0
LINE
8
BLACK
6
CONTINUOUS
10
194.335
20
-108.481
11
194.309
21
-108.462
0
LINE
8
BLACK
6
CONTINUOUS
10
194.309
20
-108.462
11
194.281
21
-108.448
0
LINE
8
BLACK
6
CONTINUOUS
10
194.281
20
-108.448
11
194.259
21
-108.426
0
LINE
8
BLACK
6
CONTINUOUS
10
194.259
20
-108.426
11
194.234
21
-108.407
0
LINE
8
BLACK
6
CONTINUOUS
10
194.234
20
-108.407
11
194.215
21
-108.382
0
LINE
8
BLACK
6
CONTINUOUS
10
194.215
20
-108.382
11
194.193
21
-108.36
0
LINE
8
BLACK
6
CONTINUOUS
10
194.193
20
-108.36
11
194.179
21
-108.332
0
LINE
8
BLACK
6
CONTINUOUS
10
194.179
20
-108.332
11
194.16
21
-108.306
0
LINE
8
BLACK
6
CONTINUOUS
10
194.16
20
-108.306
11
194.15
21
-108.276
0
LINE
8
BLACK
6
CONTINUOUS
10
194.15
20
-108.276
11
194.136
21
-108.248
0
LINE
8
BLACK
6
CONTINUOUS
10
194.136
20
-108.248
11
194.131
21
-108.217
0
LINE
8
BLACK
6
CONTINUOUS
10
194.131
20
-108.217
11
194.121
21
-108.187
0
LINE
8
BLACK
6
CONTINUOUS
10
194.121
20
-108.187
11
194.121
21
-108.156
0
LINE
8
BLACK
6
CONTINUOUS
10
194.121
20
-108.156
11
194.117
21
-108.124
0
LINE
8
BLACK
6
CONTINUOUS
10
194.117
20
-108.124
11
194.117
21
-100.572
0
LINE
8
BLACK
6
CONTINUOUS
10
194.117
20
-100.572
11
193.306
21
-99.7615
0
LINE
8
BLACK
6
CONTINUOUS
10
193.306
20
-99.7615
11
192.52
21
-99.7615
0
LINE
8
BLACK
6
CONTINUOUS
10
192.52
20
-99.7615
11
191.963
21
-100.318
0
LINE
8
BLACK
6
CONTINUOUS
10
191.963
20
-100.318
11
191.963
21
-103.966
0
LINE
8
BLACK
6
CONTINUOUS
10
191.963
20
-103.966
11
191.959
21
-103.997
0
LINE
8
BLACK
6
CONTINUOUS
10
191.959
20
-103.997
11
191.959
21
-104.028
0
LINE
8
BLACK
6
CONTINUOUS
10
191.959
20
-104.028
11
191.949
21
-104.058
0
LINE
8
BLACK
6
CONTINUOUS
10
191.949
20
-104.058
11
191.944
21
-104.089
0
LINE
8
BLACK
6
CONTINUOUS
10
191.944
20
-104.089
11
191.93
21
-104.117
0
LINE
8
BLACK
6
CONTINUOUS
10
191.93
20
-104.117
11
191.92
21
-104.147
0
LINE
8
BLACK
6
CONTINUOUS
10
191.92
20
-104.147
11
191.901
21
-104.173
0
LINE
8
BLACK
6
CONTINUOUS
10
191.901
20
-104.173
11
191.887
21
-104.201
0
LINE
8
BLACK
6
CONTINUOUS
10
191.887
20
-104.201
11
191.865
21
-104.223
0
LINE
8
BLACK
6
CONTINUOUS
10
191.865
20
-104.223
11
191.846
21
-104.248
0
LINE
8
BLACK
6
CONTINUOUS
10
191.846
20
-104.248
11
186.297
21
-109.798
0
LINE
8
BLACK
6
CONTINUOUS
10
186.297
20
-109.798
11
186.297
21
-110.732
0
LINE
8
BLACK
6
CONTINUOUS
10
186.297
20
-110.732
11
185.363
21
-110.732
0
LINE
8
BLACK
6
CONTINUOUS
10
185.363
20
-110.732
11
184.56
21
-111.535
0
LINE
8
BLACK
6
CONTINUOUS
10
184.56
20
-111.535
11
184.534
21
-111.553
0
LINE
8
BLACK
6
CONTINUOUS
10
184.534
20
-111.553
11
184.512
21
-111.576
0
LINE
8
BLACK
6
CONTINUOUS
10
184.512
20
-111.576
11
184.484
21
-111.59
0
LINE
8
BLACK
6
CONTINUOUS
10
184.484
20
-111.59
11
184.459
21
-111.608
0
LINE
8
BLACK
6
CONTINUOUS
10
184.459
20
-111.608
11
184.429
21
-111.618
0
LINE
8
BLACK
6
CONTINUOUS
10
184.429
20
-111.618
11
184.401
21
-111.632
0
LINE
8
BLACK
6
CONTINUOUS
10
184.401
20
-111.632
11
184.37
21
-111.637
0
LINE
8
BLACK
6
CONTINUOUS
10
184.37
20
-111.637
11
184.34
21
-111.647
0
LINE
8
BLACK
6
CONTINUOUS
10
184.34
20
-111.647
11
184.308
21
-111.647
0
LINE
8
BLACK
6
CONTINUOUS
10
184.308
20
-111.647
11
184.277
21
-111.652
0
LINE
8
BLACK
6
CONTINUOUS
10
184.277
20
-111.652
11
180.115
21
-111.652
0
LINE
8
BLACK
6
CONTINUOUS
10
180.115
20
-111.652
11
180.054
21
-111.701
0
LINE
8
BLACK
6
CONTINUOUS
10
180.054
20
-111.701
11
179.923
21
-111.758
0
LINE
8
BLACK
6
CONTINUOUS
10
179.923
20
-111.758
11
179.782
21
-111.777
0
LINE
8
BLACK
6
CONTINUOUS
10
179.782
20
-111.777
11
179.332
21
-111.777
0
LINE
8
BLACK
6
CONTINUOUS
10
179.332
20
-111.777
11
179.255
21
-111.771
0
LINE
8
BLACK
6
CONTINUOUS
10
179.255
20
-111.771
11
179.118
21
-111.732
0
LINE
8
BLACK
6
CONTINUOUS
10
179.118
20
-111.732
11
178.997
21
-111.657
0
LINE
8
BLACK
6
CONTINUOUS
10
178.997
20
-111.657
11
178.901
21
-111.552
0
LINE
8
BLACK
6
CONTINUOUS
10
178.901
20
-111.552
11
178.836
21
-111.425
0
LINE
8
BLACK
6
CONTINUOUS
10
178.836
20
-111.425
11
178.808
21
-111.285
0
LINE
8
BLACK
6
CONTINUOUS
10
178.808
20
-111.285
11
178.818
21
-111.143
0
LINE
8
BLACK
6
CONTINUOUS
10
178.818
20
-111.143
11
178.867
21
-111.009
0
LINE
8
BLACK
6
CONTINUOUS
10
178.867
20
-111.009
11
178.949
21
-110.893
0
LINE
8
BLACK
6
CONTINUOUS
10
178.949
20
-110.893
11
179.06
21
-110.803
0
LINE
8
BLACK
6
CONTINUOUS
10
179.06
20
-110.803
11
179.191
21
-110.746
0
LINE
8
BLACK
6
CONTINUOUS
10
179.191
20
-110.746
11
179.332
21
-110.727
0
LINE
8
BLACK
6
CONTINUOUS
10
179.332
20
-110.727
11
179.782
21
-110.727
0
LINE
8
BLACK
6
CONTINUOUS
10
179.782
20
-110.727
11
179.859
21
-110.733
0
LINE
8
BLACK
6
CONTINUOUS
10
179.859
20
-110.733
11
179.996
21
-110.772
0
LINE
8
BLACK
6
CONTINUOUS
10
179.996
20
-110.772
11
180.117
21
-110.847
0
LINE
8
BLACK
6
CONTINUOUS
10
180.117
20
-110.847
11
180.121
21
-110.852
0
LINE
8
BLACK
6
CONTINUOUS
10
180.121
20
-110.852
11
184.111
21
-110.852
0
LINE
8
BLACK
6
CONTINUOUS
10
184.111
20
-110.852
11
184.797
21
-110.166
0
LINE
8
BLACK
6
CONTINUOUS
10
184.797
20
-110.166
11
184.797
21
-109.232
0
LINE
8
BLACK
6
CONTINUOUS
10
184.797
20
-109.232
11
185.731
21
-109.232
0
LINE
8
BLACK
6
CONTINUOUS
10
185.731
20
-109.232
11
191.163
21
-103.8
0
LINE
8
BLACK
6
CONTINUOUS
10
191.163
20
-103.8
11
191.163
21
-100.152
0
LINE
8
BLACK
6
CONTINUOUS
10
191.163
20
-100.152
11
191.168
21
-100.121
0
LINE
8
BLACK
6
CONTINUOUS
10
191.168
20
-100.121
11
191.168
21
-100.089
0
LINE
8
BLACK
6
CONTINUOUS
10
191.168
20
-100.089
11
191.178
21
-100.06
0
LINE
8
BLACK
6
CONTINUOUS
10
191.178
20
-100.06
11
191.183
21
-100.028
0
LINE
8
BLACK
6
CONTINUOUS
10
191.183
20
-100.028
11
191.197
21
-100
0
LINE
8
BLACK
6
CONTINUOUS
10
191.197
20
-100
11
191.207
21
-99.9704
0
LINE
8
BLACK
6
CONTINUOUS
10
191.207
20
-99.9704
11
191.226
21
-99.9449
0
LINE
8
BLACK
6
CONTINUOUS
10
191.226
20
-99.9449
11
191.24
21
-99.9169
0
LINE
8
BLACK
6
CONTINUOUS
10
191.24
20
-99.9169
11
191.262
21
-99.8946
0
LINE
8
BLACK
6
CONTINUOUS
10
191.262
20
-99.8946
11
191.281
21
-99.8692
0
LINE
8
BLACK
6
CONTINUOUS
10
191.281
20
-99.8692
11
192.071
21
-99.0786
0
LINE
8
BLACK
6
CONTINUOUS
10
192.071
20
-99.0786
11
192.097
21
-99.0601
0
LINE
8
BLACK
6
CONTINUOUS
10
192.097
20
-99.0601
11
192.119
21
-99.0379
0
LINE
8
BLACK
6
CONTINUOUS
10
192.119
20
-99.0379
11
192.147
21
-99.0236
0
LINE
8
BLACK
6
CONTINUOUS
10
192.147
20
-99.0236
11
192.172
21
-99.0051
0
LINE
8
BLACK
6
CONTINUOUS
10
192.172
20
-99.0051
11
192.202
21
-98.9954
0
LINE
8
BLACK
6
CONTINUOUS
10
192.202
20
-98.9954
11
192.23
21
-98.9811
0
LINE
8
BLACK
6
CONTINUOUS
10
192.23
20
-98.9811
11
192.261
21
-98.9761
0
LINE
8
BLACK
6
CONTINUOUS
10
192.261
20
-98.9761
11
192.291
21
-98.9664
0
LINE
8
BLACK
6
CONTINUOUS
10
192.291
20
-98.9664
11
192.323
21
-98.9664
0
LINE
8
BLACK
6
CONTINUOUS
10
192.323
20
-98.9664
11
192.354
21
-98.9615
0
LINE
8
BLACK
6
CONTINUOUS
10
192.354
20
-98.9615
11
193.472
21
-98.9615
0
LINE
8
BLACK
6
CONTINUOUS
10
193.472
20
-98.9615
11
193.503
21
-98.9664
0
LINE
8
BLACK
6
CONTINUOUS
10
162.372
20
-104.26
11
162.54
21
-104.32
0
LINE
8
BLACK
6
CONTINUOUS
10
162.54
20
-104.32
11
162.69
21
-104.416
0
LINE
8
BLACK
6
CONTINUOUS
10
162.69
20
-104.416
11
162.816
21
-104.542
0
LINE
8
BLACK
6
CONTINUOUS
10
162.816
20
-104.542
11
162.877
21
-104.639
0
LINE
8
BLACK
6
CONTINUOUS
10
162.877
20
-104.639
11
165.364
21
-104.639
0
LINE
8
BLACK
6
CONTINUOUS
10
165.364
20
-104.639
11
165.395
21
-104.644
0
LINE
8
BLACK
6
CONTINUOUS
10
165.395
20
-104.644
11
165.427
21
-104.644
0
LINE
8
BLACK
6
CONTINUOUS
10
165.427
20
-104.644
11
165.457
21
-104.654
0
LINE
8
BLACK
6
CONTINUOUS
10
165.457
20
-104.654
11
165.488
21
-104.659
0
LINE
8
BLACK
6
CONTINUOUS
10
165.488
20
-104.659
11
165.516
21
-104.673
0
LINE
8
BLACK
6
CONTINUOUS
10
165.516
20
-104.673
11
165.546
21
-104.683
0
LINE
8
BLACK
6
CONTINUOUS
10
165.546
20
-104.683
11
165.571
21
-104.701
0
LINE
8
BLACK
6
CONTINUOUS
10
165.571
20
-104.701
11
165.599
21
-104.715
0
LINE
8
BLACK
6
CONTINUOUS
10
165.599
20
-104.715
11
165.621
21
-104.738
0
LINE
8
BLACK
6
CONTINUOUS
10
165.621
20
-104.738
11
165.647
21
-104.756
0
LINE
8
BLACK
6
CONTINUOUS
10
165.647
20
-104.756
11
167.435
21
-106.545
0
LINE
8
BLACK
6
CONTINUOUS
10
167.435
20
-106.545
11
167.468
21
-106.534
0
LINE
8
BLACK
6
CONTINUOUS
10
167.468
20
-106.534
11
167.646
21
-106.515
0
LINE
8
BLACK
6
CONTINUOUS
10
167.646
20
-106.515
11
167.823
21
-106.536
0
LINE
8
BLACK
6
CONTINUOUS
10
167.823
20
-106.536
11
167.991
21
-106.596
0
LINE
8
BLACK
6
CONTINUOUS
10
167.991
20
-106.596
11
168.141
21
-106.692
0
LINE
8
BLACK
6
CONTINUOUS
10
168.141
20
-106.692
11
168.267
21
-106.818
0
LINE
8
BLACK
6
CONTINUOUS
10
168.267
20
-106.818
11
168.361
21
-106.969
0
LINE
8
BLACK
6
CONTINUOUS
10
168.361
20
-106.969
11
168.42
21
-107.138
0
LINE
8
BLACK
6
CONTINUOUS
10
168.42
20
-107.138
11
168.44
21
-107.315
0
LINE
8
BLACK
6
CONTINUOUS
10
168.44
20
-107.315
11
168.44
21
-107.337
0
LINE
8
BLACK
6
CONTINUOUS
10
168.44
20
-107.337
11
168.415
21
-107.514
0
LINE
8
BLACK
6
CONTINUOUS
10
168.415
20
-107.514
11
168.352
21
-107.681
0
LINE
8
BLACK
6
CONTINUOUS
10
168.352
20
-107.681
11
168.253
21
-107.829
0
LINE
8
BLACK
6
CONTINUOUS
10
168.253
20
-107.829
11
168.124
21
-107.952
0
LINE
8
BLACK
6
CONTINUOUS
10
168.124
20
-107.952
11
167.97
21
-108.044
0
LINE
8
BLACK
6
CONTINUOUS
10
167.97
20
-108.044
11
167.801
21
-108.099
0
LINE
8
BLACK
6
CONTINUOUS
10
167.801
20
-108.099
11
167.623
21
-108.115
0
LINE
8
BLACK
6
CONTINUOUS
10
167.623
20
-108.115
11
167.446
21
-108.091
0
LINE
8
BLACK
6
CONTINUOUS
10
167.446
20
-108.091
11
167.279
21
-108.029
0
LINE
8
BLACK
6
CONTINUOUS
10
167.279
20
-108.029
11
167.13
21
-107.931
0
LINE
8
BLACK
6
CONTINUOUS
10
167.13
20
-107.931
11
167.006
21
-107.803
0
LINE
8
BLACK
6
CONTINUOUS
10
167.006
20
-107.803
11
166.914
21
-107.651
0
LINE
8
BLACK
6
CONTINUOUS
10
166.914
20
-107.651
11
166.857
21
-107.481
0
LINE
8
BLACK
6
CONTINUOUS
10
166.857
20
-107.481
11
166.84
21
-107.304
0
LINE
8
BLACK
6
CONTINUOUS
10
166.84
20
-107.304
11
166.862
21
-107.127
0
LINE
8
BLACK
6
CONTINUOUS
10
166.862
20
-107.127
11
166.869
21
-107.109
0
LINE
8
BLACK
6
CONTINUOUS
10
166.869
20
-107.109
11
165.198
21
-105.439
0
LINE
8
BLACK
6
CONTINUOUS
10
165.198
20
-105.439
11
162.878
21
-105.439
0
LINE
8
BLACK
6
CONTINUOUS
10
162.878
20
-105.439
11
162.802
21
-105.553
0
LINE
8
BLACK
6
CONTINUOUS
10
162.802
20
-105.553
11
162.673
21
-105.676
0
LINE
8
BLACK
6
CONTINUOUS
10
162.673
20
-105.676
11
162.519
21
-105.768
0
LINE
8
BLACK
6
CONTINUOUS
10
162.519
20
-105.768
11
162.35
21
-105.823
0
LINE
8
BLACK
6
CONTINUOUS
10
162.35
20
-105.823
11
162.172
21
-105.839
0
LINE
8
BLACK
6
CONTINUOUS
10
162.172
20
-105.839
11
161.995
21
-105.815
0
LINE
8
BLACK
6
CONTINUOUS
10
161.995
20
-105.815
11
161.828
21
-105.753
0
LINE
8
BLACK
6
CONTINUOUS
10
161.828
20
-105.753
11
161.679
21
-105.655
0
LINE
8
BLACK
6
CONTINUOUS
10
161.679
20
-105.655
11
161.555
21
-105.527
0
LINE
8
BLACK
6
CONTINUOUS
10
161.555
20
-105.527
11
161.463
21
-105.375
0
LINE
8
BLACK
6
CONTINUOUS
10
161.463
20
-105.375
11
161.406
21
-105.205
0
LINE
8
BLACK
6
CONTINUOUS
10
161.406
20
-105.205
11
161.389
21
-105.028
0
LINE
8
BLACK
6
CONTINUOUS
10
161.389
20
-105.028
11
161.411
21
-104.851
0
LINE
8
BLACK
6
CONTINUOUS
10
161.411
20
-104.851
11
161.472
21
-104.683
0
LINE
8
BLACK
6
CONTINUOUS
10
161.472
20
-104.683
11
161.569
21
-104.533
0
LINE
8
BLACK
6
CONTINUOUS
10
161.569
20
-104.533
11
161.696
21
-104.409
0
LINE
8
BLACK
6
CONTINUOUS
10
161.696
20
-104.409
11
161.848
21
-104.315
0
LINE
8
BLACK
6
CONTINUOUS
10
161.848
20
-104.315
11
162.017
21
-104.258
0
LINE
8
BLACK
6
CONTINUOUS
10
162.017
20
-104.258
11
162.195
21
-104.239
0
LINE
8
BLACK
6
CONTINUOUS
10
162.195
20
-104.239
11
162.372
21
-104.26
0
LINE
8
BLACK
6
CONTINUOUS
10
175.443
20
-106.536
11
175.611
21
-106.596
0
LINE
8
BLACK
6
CONTINUOUS
10
175.611
20
-106.596
11
175.713
21
-106.661
0
LINE
8
BLACK
6
CONTINUOUS
10
175.713
20
-106.661
11
178.872
21
-106.661
0
LINE
8
BLACK
6
CONTINUOUS
10
178.872
20
-106.661
11
178.933
21
-106.612
0
LINE
8
BLACK
6
CONTINUOUS
10
178.933
20
-106.612
11
179.064
21
-106.555
0
LINE
8
BLACK
6
CONTINUOUS
10
179.064
20
-106.555
11
179.205
21
-106.536
0
LINE
8
BLACK
6
CONTINUOUS
10
179.205
20
-106.536
11
179.655
21
-106.536
0
LINE
8
BLACK
6
CONTINUOUS
10
179.655
20
-106.536
11
179.732
21
-106.542
0
LINE
8
BLACK
6
CONTINUOUS
10
179.732
20
-106.542
11
179.869
21
-106.581
0
LINE
8
BLACK
6
CONTINUOUS
10
179.869
20
-106.581
11
179.99
21
-106.656
0
LINE
8
BLACK
6
CONTINUOUS
10
179.99
20
-106.656
11
180.086
21
-106.761
0
LINE
8
BLACK
6
CONTINUOUS
10
180.086
20
-106.761
11
180.151
21
-106.888
0
LINE
8
BLACK
6
CONTINUOUS
10
180.151
20
-106.888
11
180.179
21
-107.028
0
LINE
8
BLACK
6
CONTINUOUS
10
180.179
20
-107.028
11
180.169
21
-107.17
0
LINE
8
BLACK
6
CONTINUOUS
10
180.169
20
-107.17
11
180.12
21
-107.304
0
LINE
8
BLACK
6
CONTINUOUS
10
180.12
20
-107.304
11
180.038
21
-107.42
0
LINE
8
BLACK
6
CONTINUOUS
10
180.038
20
-107.42
11
179.927
21
-107.51
0
LINE
8
BLACK
6
CONTINUOUS
10
179.927
20
-107.51
11
179.796
21
-107.567
0
LINE
8
BLACK
6
CONTINUOUS
10
179.796
20
-107.567
11
179.655
21
-107.586
0
LINE
8
BLACK
6
CONTINUOUS
10
179.655
20
-107.586
11
179.205
21
-107.586
0
LINE
8
BLACK
6
CONTINUOUS
10
179.205
20
-107.586
11
179.128
21
-107.58
0
LINE
8
BLACK
6
CONTINUOUS
10
179.128
20
-107.58
11
178.991
21
-107.541
0
LINE
8
BLACK
6
CONTINUOUS
10
178.991
20
-107.541
11
178.87
21
-107.466
0
LINE
8
BLACK
6
CONTINUOUS
10
178.87
20
-107.466
11
178.866
21
-107.461
0
LINE
8
BLACK
6
CONTINUOUS
10
178.866
20
-107.461
11
176.042
21
-107.461
0
LINE
8
BLACK
6
CONTINUOUS
10
176.042
20
-107.461
11
176.035
21
-107.514
0
LINE
8
BLACK
6
CONTINUOUS
10
176.035
20
-107.514
11
175.972
21
-107.681
0
LINE
8
BLACK
6
CONTINUOUS
10
175.972
20
-107.681
11
175.873
21
-107.829
0
LINE
8
BLACK
6
CONTINUOUS
10
175.873
20
-107.829
11
175.744
21
-107.952
0
LINE
8
BLACK
6
CONTINUOUS
10
175.744
20
-107.952
11
175.59
21
-108.044
0
LINE
8
BLACK
6
CONTINUOUS
10
175.59
20
-108.044
11
175.421
21
-108.099
0
LINE
8
BLACK
6
CONTINUOUS
10
175.421
20
-108.099
11
175.243
21
-108.115
0
LINE
8
BLACK
6
CONTINUOUS
10
175.243
20
-108.115
11
175.066
21
-108.091
0
LINE
8
BLACK
6
CONTINUOUS
10
175.066
20
-108.091
11
174.899
21
-108.029
0
LINE
8
BLACK
6
CONTINUOUS
10
174.899
20
-108.029
11
174.75
21
-107.931
0
LINE
8
BLACK
6
CONTINUOUS
10
174.75
20
-107.931
11
174.626
21
-107.803
0
LINE
8
BLACK
6
CONTINUOUS
10
174.626
20
-107.803
11
174.534
21
-107.651
0
LINE
8
BLACK
6
CONTINUOUS
10
174.534
20
-107.651
11
174.477
21
-107.481
0
LINE
8
BLACK
6
CONTINUOUS
10
174.477
20
-107.481
11
174.46
21
-107.304
0
LINE
8
BLACK
6
CONTINUOUS
10
174.46
20
-107.304
11
174.482
21
-107.127
0
LINE
8
BLACK
6
CONTINUOUS
10
174.482
20
-107.127
11
174.543
21
-106.959
0
LINE
8
BLACK
6
CONTINUOUS
10
174.543
20
-106.959
11
174.64
21
-106.809
0
LINE
8
BLACK
6
CONTINUOUS
10
174.64
20
-106.809
11
174.767
21
-106.685
0
LINE
8
BLACK
6
CONTINUOUS
10
174.767
20
-106.685
11
174.919
21
-106.591
0
LINE
8
BLACK
6
CONTINUOUS
10
174.919
20
-106.591
11
175.088
21
-106.534
0
LINE
8
BLACK
6
CONTINUOUS
10
175.088
20
-106.534
11
175.266
21
-106.515
0
LINE
8
BLACK
6
CONTINUOUS
10
175.266
20
-106.515
11
175.443
21
-106.536
0
LINE
8
BLACK
6
CONTINUOUS
10
193.886
20
-97.962
11
193.917
21
-97.9669
0
LINE
8
BLACK
6
CONTINUOUS
10
193.917
20
-97.9669
11
193.949
21
-97.9669
0
LINE
8
BLACK
6
CONTINUOUS
10
193.949
20
-97.9669
11
193.979
21
-97.9766
0
LINE
8
BLACK
6
CONTINUOUS
10
193.979
20
-97.9766
11
194.01
21
-97.9815
0
LINE
8
BLACK
6
CONTINUOUS
10
194.01
20
-97.9815
11
194.038
21
-97.9958
0
LINE
8
BLACK
6
CONTINUOUS
10
194.038
20
-97.9958
11
194.068
21
-98.0056
0
LINE
8
BLACK
6
CONTINUOUS
10
194.068
20
-98.0056
11
194.093
21
-98.0241
0
LINE
8
BLACK
6
CONTINUOUS
10
194.093
20
-98.0241
11
194.121
21
-98.0384
0
LINE
8
BLACK
6
CONTINUOUS
10
194.121
20
-98.0384
11
194.143
21
-98.0606
0
LINE
8
BLACK
6
CONTINUOUS
10
194.143
20
-98.0606
11
194.169
21
-98.0791
0
LINE
8
BLACK
6
CONTINUOUS
10
194.169
20
-98.0791
11
195.799
21
-99.7092
0
LINE
8
BLACK
6
CONTINUOUS
10
195.799
20
-99.7092
11
195.817
21
-99.7346
0
LINE
8
BLACK
6
CONTINUOUS
10
195.817
20
-99.7346
11
195.84
21
-99.7569
0
LINE
8
BLACK
6
CONTINUOUS
10
195.84
20
-99.7569
11
195.854
21
-99.7849
0
LINE
8
BLACK
6
CONTINUOUS
10
195.854
20
-99.7849
11
195.872
21
-99.8104
0
LINE
8
BLACK
6
CONTINUOUS
10
195.872
20
-99.8104
11
195.882
21
-99.8403
0
LINE
8
BLACK
6
CONTINUOUS
10
195.882
20
-99.8403
11
195.896
21
-99.8684
0
LINE
8
BLACK
6
CONTINUOUS
10
195.896
20
-99.8684
11
195.901
21
-99.8995
0
LINE
8
BLACK
6
CONTINUOUS
10
195.901
20
-99.8995
11
195.911
21
-99.9294
0
LINE
8
BLACK
6
CONTINUOUS
10
195.911
20
-99.9294
11
195.911
21
-99.9609
0
LINE
8
BLACK
6
CONTINUOUS
10
195.911
20
-99.9609
11
195.916
21
-99.992
0
LINE
8
BLACK
6
CONTINUOUS
10
195.916
20
-99.992
11
195.916
21
-104.863
0
LINE
8
BLACK
6
CONTINUOUS
10
195.916
20
-104.863
11
196.19
21
-105.137
0
LINE
8
BLACK
6
CONTINUOUS
10
196.19
20
-105.137
11
198.137
21
-105.137
0
LINE
8
BLACK
6
CONTINUOUS
10
198.137
20
-105.137
11
198.194
21
-105.037
0
LINE
8
BLACK
6
CONTINUOUS
10
198.194
20
-105.037
11
198.313
21
-104.905
0
LINE
8
BLACK
6
CONTINUOUS
10
198.313
20
-104.905
11
198.457
21
-104.801
0
LINE
8
BLACK
6
CONTINUOUS
10
198.457
20
-104.801
11
198.619
21
-104.729
0
LINE
8
BLACK
6
CONTINUOUS
10
198.619
20
-104.729
11
198.793
21
-104.692
0
LINE
8
BLACK
6
CONTINUOUS
10
198.793
20
-104.692
11
198.971
21
-104.692
0
LINE
8
BLACK
6
CONTINUOUS
10
198.971
20
-104.692
11
199.145
21
-104.729
0
LINE
8
BLACK
6
CONTINUOUS
10
199.145
20
-104.729
11
199.307
21
-104.801
0
LINE
8
BLACK
6
CONTINUOUS
10
199.307
20
-104.801
11
199.451
21
-104.905
0
LINE
8
BLACK
6
CONTINUOUS
10
199.451
20
-104.905
11
199.57
21
-105.037
0
LINE
8
BLACK
6
CONTINUOUS
10
199.57
20
-105.037
11
199.659
21
-105.191
0
LINE
8
BLACK
6
CONTINUOUS
10
199.659
20
-105.191
11
199.713
21
-105.36
0
LINE
8
BLACK
6
CONTINUOUS
10
199.713
20
-105.36
11
199.732
21
-105.537
0
LINE
8
BLACK
6
CONTINUOUS
10
199.732
20
-105.537
11
199.713
21
-105.714
0
LINE
8
BLACK
6
CONTINUOUS
10
199.713
20
-105.714
11
199.659
21
-105.883
0
LINE
8
BLACK
6
CONTINUOUS
10
199.659
20
-105.883
11
199.57
21
-106.037
0
LINE
8
BLACK
6
CONTINUOUS
10
199.57
20
-106.037
11
199.451
21
-106.169
0
LINE
8
BLACK
6
CONTINUOUS
10
199.451
20
-106.169
11
199.307
21
-106.273
0
LINE
8
BLACK
6
CONTINUOUS
10
199.307
20
-106.273
11
199.145
21
-106.345
0
LINE
8
BLACK
6
CONTINUOUS
10
199.145
20
-106.345
11
198.971
21
-106.382
0
LINE
8
BLACK
6
CONTINUOUS
10
198.971
20
-106.382
11
198.793
21
-106.382
0
LINE
8
BLACK
6
CONTINUOUS
10
198.793
20
-106.382
11
198.619
21
-106.345
0
LINE
8
BLACK
6
CONTINUOUS
10
198.619
20
-106.345
11
198.457
21
-106.273
0
LINE
8
BLACK
6
CONTINUOUS
10
198.457
20
-106.273
11
198.313
21
-106.169
0
LINE
8
BLACK
6
CONTINUOUS
10
198.313
20
-106.169
11
198.194
21
-106.037
0
LINE
8
BLACK
6
CONTINUOUS
10
198.194
20
-106.037
11
198.137
21
-105.937
0
LINE
8
BLACK
6
CONTINUOUS
10
198.137
20
-105.937
11
196.024
21
-105.937
0
LINE
8
BLACK
6
CONTINUOUS
10
196.024
20
-105.937
11
195.993
21
-105.932
0
LINE
8
BLACK
6
CONTINUOUS
10
195.993
20
-105.932
11
195.961
21
-105.932
0
LINE
8
BLACK
6
CONTINUOUS
10
195.961
20
-105.932
11
195.932
21
-105.922
0
LINE
8
BLACK
6
CONTINUOUS
10
195.932
20
-105.922
11
195.9
21
-105.917
0
LINE
8
BLACK
6
CONTINUOUS
10
195.9
20
-105.917
11
195.872
21
-105.903
0
LINE
8
BLACK
6
CONTINUOUS
10
195.872
20
-105.903
11
195.842
21
-105.893
0
LINE
8
BLACK
6
CONTINUOUS
10
195.842
20
-105.893
11
195.817
21
-105.875
0
LINE
8
BLACK
6
CONTINUOUS
10
195.817
20
-105.875
11
195.789
21
-105.861
0
LINE
8
BLACK
6
CONTINUOUS
10
195.789
20
-105.861
11
195.767
21
-105.838
0
LINE
8
BLACK
6
CONTINUOUS
10
195.767
20
-105.838
11
195.741
21
-105.82
0
LINE
8
BLACK
6
CONTINUOUS
10
195.741
20
-105.82
11
195.233
21
-105.312
0
LINE
8
BLACK
6
CONTINUOUS
10
195.233
20
-105.312
11
195.215
21
-105.286
0
LINE
8
BLACK
6
CONTINUOUS
10
195.215
20
-105.286
11
195.192
21
-105.264
0
LINE
8
BLACK
6
CONTINUOUS
10
195.192
20
-105.264
11
195.178
21
-105.236
0
LINE
8
BLACK
6
CONTINUOUS
10
195.178
20
-105.236
11
195.16
21
-105.211
0
LINE
8
BLACK
6
CONTINUOUS
10
195.16
20
-105.211
11
195.15
21
-105.181
0
LINE
8
BLACK
6
CONTINUOUS
10
195.15
20
-105.181
11
195.136
21
-105.153
0
LINE
8
BLACK
6
CONTINUOUS
10
195.136
20
-105.153
11
195.131
21
-105.122
0
LINE
8
BLACK
6
CONTINUOUS
10
195.131
20
-105.122
11
195.121
21
-105.092
0
LINE
8
BLACK
6
CONTINUOUS
10
195.121
20
-105.092
11
195.121
21
-105.06
0
LINE
8
BLACK
6
CONTINUOUS
10
195.121
20
-105.06
11
195.116
21
-105.029
0
LINE
8
BLACK
6
CONTINUOUS
10
195.116
20
-105.029
11
195.116
21
-100.158
0
LINE
8
BLACK
6
CONTINUOUS
10
195.116
20
-100.158
11
193.72
21
-98.762
0
LINE
8
BLACK
6
CONTINUOUS
10
193.72
20
-98.762
11
192.106
21
-98.762
0
LINE
8
BLACK
6
CONTINUOUS
10
192.106
20
-98.762
11
190.964
21
-99.9037
0
LINE
8
BLACK
6
CONTINUOUS
10
190.964
20
-99.9037
11
190.964
21
-101.917
0
LINE
8
BLACK
6
CONTINUOUS
10
190.964
20
-101.917
11
190.959
21
-101.948
0
LINE
8
BLACK
6
CONTINUOUS
10
190.959
20
-101.948
11
190.959
21
-101.98
0
LINE
8
BLACK
6
CONTINUOUS
10
190.959
20
-101.98
11
190.949
21
-102.01
0
LINE
8
BLACK
6
CONTINUOUS
10
190.949
20
-102.01
11
190.944
21
-102.041
0
LINE
8
BLACK
6
CONTINUOUS
10
190.944
20
-102.041
11
190.93
21
-102.069
0
LINE
8
BLACK
6
CONTINUOUS
10
190.93
20
-102.069
11
190.92
21
-102.099
0
LINE
8
BLACK
6
CONTINUOUS
10
190.92
20
-102.099
11
190.902
21
-102.124
0
LINE
8
BLACK
6
CONTINUOUS
10
190.902
20
-102.124
11
190.888
21
-102.152
0
LINE
8
BLACK
6
CONTINUOUS
10
190.888
20
-102.152
11
190.865
21
-102.174
0
LINE
8
BLACK
6
CONTINUOUS
10
190.865
20
-102.174
11
190.847
21
-102.2
0
LINE
8
BLACK
6
CONTINUOUS
10
190.847
20
-102.2
11
186.297
21
-106.75
0
LINE
8
BLACK
6
CONTINUOUS
10
186.297
20
-106.75
11
186.297
21
-107.684
0
LINE
8
BLACK
6
CONTINUOUS
10
186.297
20
-107.684
11
184.797
21
-107.684
0
LINE
8
BLACK
6
CONTINUOUS
10
184.797
20
-107.684
11
184.797
21
-106.75
0
LINE
8
BLACK
6
CONTINUOUS
10
184.797
20
-106.75
11
184.238
21
-106.191
0
LINE
8
BLACK
6
CONTINUOUS
10
184.238
20
-106.191
11
179.988
21
-106.191
0
LINE
8
BLACK
6
CONTINUOUS
10
179.988
20
-106.191
11
179.927
21
-106.24
0
LINE
8
BLACK
6
CONTINUOUS
10
179.927
20
-106.24
11
179.796
21
-106.297
0
LINE
8
BLACK
6
CONTINUOUS
10
179.796
20
-106.297
11
179.655
21
-106.316
0
LINE
8
BLACK
6
CONTINUOUS
10
179.655
20
-106.316
11
179.205
21
-106.316
0
LINE
8
BLACK
6
CONTINUOUS
10
179.205
20
-106.316
11
179.128
21
-106.31
0
LINE
8
BLACK
6
CONTINUOUS
10
179.128
20
-106.31
11
178.991
21
-106.271
0
LINE
8
BLACK
6
CONTINUOUS
10
178.991
20
-106.271
11
178.87
21
-106.196
0
LINE
8
BLACK
6
CONTINUOUS
10
178.87
20
-106.196
11
178.774
21
-106.091
0
LINE
8
BLACK
6
CONTINUOUS
10
178.774
20
-106.091
11
178.709
21
-105.964
0
LINE
8
BLACK
6
CONTINUOUS
10
178.709
20
-105.964
11
178.681
21
-105.824
0
LINE
8
BLACK
6
CONTINUOUS
10
178.681
20
-105.824
11
178.691
21
-105.682
0
LINE
8
BLACK
6
CONTINUOUS
10
178.691
20
-105.682
11
178.74
21
-105.548
0
LINE
8
BLACK
6
CONTINUOUS
10
178.74
20
-105.548
11
178.822
21
-105.432
0
LINE
8
BLACK
6
CONTINUOUS
10
178.822
20
-105.432
11
178.933
21
-105.342
0
LINE
8
BLACK
6
CONTINUOUS
10
178.933
20
-105.342
11
179.064
21
-105.285
0
LINE
8
BLACK
6
CONTINUOUS
10
179.064
20
-105.285
11
179.205
21
-105.266
0
LINE
8
BLACK
6
CONTINUOUS
10
179.205
20
-105.266
11
179.655
21
-105.266
0
LINE
8
BLACK
6
CONTINUOUS
10
179.655
20
-105.266
11
179.732
21
-105.272
0
LINE
8
BLACK
6
CONTINUOUS
10
179.732
20
-105.272
11
179.869
21
-105.311
0
LINE
8
BLACK
6
CONTINUOUS
10
179.869
20
-105.311
11
179.99
21
-105.386
0
LINE
8
BLACK
6
CONTINUOUS
10
179.99
20
-105.386
11
179.994
21
-105.391
0
LINE
8
BLACK
6
CONTINUOUS
10
179.994
20
-105.391
11
184.404
21
-105.391
0
LINE
8
BLACK
6
CONTINUOUS
10
184.404
20
-105.391
11
184.435
21
-105.396
0
LINE
8
BLACK
6
CONTINUOUS
10
184.435
20
-105.396
11
184.467
21
-105.396
0
LINE
8
BLACK
6
CONTINUOUS
10
184.467
20
-105.396
11
184.497
21
-105.406
0
LINE
8
BLACK
6
CONTINUOUS
10
184.497
20
-105.406
11
184.528
21
-105.411
0
LINE
8
BLACK
6
CONTINUOUS
10
184.528
20
-105.411
11
184.556
21
-105.425
0
LINE
8
BLACK
6
CONTINUOUS
10
184.556
20
-105.425
11
184.586
21
-105.435
0
LINE
8
BLACK
6
CONTINUOUS
10
184.586
20
-105.435
11
184.611
21
-105.453
0
LINE
8
BLACK
6
CONTINUOUS
10
184.611
20
-105.453
11
184.639
21
-105.467
0
LINE
8
BLACK
6
CONTINUOUS
10
184.639
20
-105.467
11
184.661
21
-105.49
0
LINE
8
BLACK
6
CONTINUOUS
10
184.661
20
-105.49
11
184.687
21
-105.508
0
LINE
8
BLACK
6
CONTINUOUS
10
184.687
20
-105.508
11
185.363
21
-106.184
0
LINE
8
BLACK
6
CONTINUOUS
10
185.363
20
-106.184
11
185.731
21
-106.184
0
LINE
8
BLACK
6
CONTINUOUS
10
185.731
20
-106.184
11
190.164
21
-101.751
0
LINE
8
BLACK
6
CONTINUOUS
10
190.164
20
-101.751
11
190.164
21
-99.738
0
LINE
8
BLACK
6
CONTINUOUS
10
190.164
20
-99.738
11
190.169
21
-99.7069
0
LINE
8
BLACK
6
CONTINUOUS
10
190.169
20
-99.7069
11
190.169
21
-99.6754
0
LINE
8
BLACK
6
CONTINUOUS
10
190.169
20
-99.6754
11
190.179
21
-99.6455
0
LINE
8
BLACK
6
CONTINUOUS
10
190.179
20
-99.6455
11
190.184
21
-99.6144
0
LINE
8
BLACK
6
CONTINUOUS
10
190.184
20
-99.6144
11
190.198
21
-99.5863
0
LINE
8
BLACK
6
CONTINUOUS
10
190.198
20
-99.5863
11
190.208
21
-99.5564
0
LINE
8
BLACK
6
CONTINUOUS
10
190.208
20
-99.5564
11
190.226
21
-99.5309
0
LINE
8
BLACK
6
CONTINUOUS
10
190.226
20
-99.5309
11
190.24
21
-99.5029
0
LINE
8
BLACK
6
CONTINUOUS
10
190.24
20
-99.5029
11
190.263
21
-99.4806
0
LINE
8
BLACK
6
CONTINUOUS
10
190.263
20
-99.4806
11
190.281
21
-99.4552
0
LINE
8
BLACK
6
CONTINUOUS
10
190.281
20
-99.4552
11
191.657
21
-98.0791
0
LINE
8
BLACK
6
CONTINUOUS
10
191.657
20
-98.0791
11
191.683
21
-98.0606
0
LINE
8
BLACK
6
CONTINUOUS
10
191.683
20
-98.0606
11
191.705
21
-98.0384
0
LINE
8
BLACK
6
CONTINUOUS
10
191.705
20
-98.0384
11
191.733
21
-98.0241
0
LINE
8
BLACK
6
CONTINUOUS
10
191.733
20
-98.0241
11
191.758
21
-98.0056
0
LINE
8
BLACK
6
CONTINUOUS
10
191.758
20
-98.0056
11
191.788
21
-97.9958
0
LINE
8
BLACK
6
CONTINUOUS
10
191.788
20
-97.9958
11
191.816
21
-97.9815
0
LINE
8
BLACK
6
CONTINUOUS
10
191.816
20
-97.9815
11
191.847
21
-97.9766
0
LINE
8
BLACK
6
CONTINUOUS
10
191.847
20
-97.9766
11
191.877
21
-97.9669
0
LINE
8
BLACK
6
CONTINUOUS
10
191.877
20
-97.9669
11
191.909
21
-97.9669
0
LINE
8
BLACK
6
CONTINUOUS
10
191.909
20
-97.9669
11
191.94
21
-97.962
0
LINE
8
BLACK
6
CONTINUOUS
10
191.94
20
-97.962
11
193.886
21
-97.962
0
LINE
8
BLACK
6
CONTINUOUS
10
140.7
20
-105.093
11
138.7
21
-105.093
0
LINE
8
BLACK
6
CONTINUOUS
10
138.7
20
-105.093
11
138.7
21
-103.188
0
LINE
8
BLACK
6
CONTINUOUS
10
138.7
20
-103.188
11
140.7
21
-103.188
0
LINE
8
BLACK
6
CONTINUOUS
10
140.7
20
-103.188
11
140.7
21
-105.093
0
LINE
8
BLACK
6
CONTINUOUS
10
129.803
20
-103.332
11
129.965
21
-103.404
0
LINE
8
BLACK
6
CONTINUOUS
10
129.965
20
-103.404
11
130.109
21
-103.508
0
LINE
8
BLACK
6
CONTINUOUS
10
130.109
20
-103.508
11
130.228
21
-103.64
0
LINE
8
BLACK
6
CONTINUOUS
10
130.228
20
-103.64
11
130.317
21
-103.794
0
LINE
8
BLACK
6
CONTINUOUS
10
130.317
20
-103.794
11
130.371
21
-103.963
0
LINE
8
BLACK
6
CONTINUOUS
10
130.371
20
-103.963
11
130.39
21
-104.14
0
LINE
8
BLACK
6
CONTINUOUS
10
130.39
20
-104.14
11
130.371
21
-104.317
0
LINE
8
BLACK
6
CONTINUOUS
10
130.371
20
-104.317
11
130.317
21
-104.486
0
LINE
8
BLACK
6
CONTINUOUS
10
130.317
20
-104.486
11
130.228
21
-104.64
0
LINE
8
BLACK
6
CONTINUOUS
10
130.228
20
-104.64
11
130.109
21
-104.772
0
LINE
8
BLACK
6
CONTINUOUS
10
130.109
20
-104.772
11
129.965
21
-104.876
0
LINE
8
BLACK
6
CONTINUOUS
10
129.965
20
-104.876
11
129.803
21
-104.948
0
LINE
8
BLACK
6
CONTINUOUS
10
129.803
20
-104.948
11
129.629
21
-104.985
0
LINE
8
BLACK
6
CONTINUOUS
10
129.629
20
-104.985
11
129.451
21
-104.985
0
LINE
8
BLACK
6
CONTINUOUS
10
129.451
20
-104.985
11
129.277
21
-104.948
0
LINE
8
BLACK
6
CONTINUOUS
10
129.277
20
-104.948
11
129.115
21
-104.876
0
LINE
8
BLACK
6
CONTINUOUS
10
129.115
20
-104.876
11
128.971
21
-104.772
0
LINE
8
BLACK
6
CONTINUOUS
10
128.971
20
-104.772
11
128.852
21
-104.64
0
LINE
8
BLACK
6
CONTINUOUS
10
128.852
20
-104.64
11
128.763
21
-104.486
0
LINE
8
BLACK
6
CONTINUOUS
10
128.763
20
-104.486
11
128.709
21
-104.317
0
LINE
8
BLACK
6
CONTINUOUS
10
128.709
20
-104.317
11
128.69
21
-104.14
0
LINE
8
BLACK
6
CONTINUOUS
10
128.69
20
-104.14
11
128.709
21
-103.963
0
LINE
8
BLACK
6
CONTINUOUS
10
128.709
20
-103.963
11
128.763
21
-103.794
0
LINE
8
BLACK
6
CONTINUOUS
10
128.763
20
-103.794
11
128.852
21
-103.64
0
LINE
8
BLACK
6
CONTINUOUS
10
128.852
20
-103.64
11
128.971
21
-103.508
0
LINE
8
BLACK
6
CONTINUOUS
10
128.971
20
-103.508
11
129.115
21
-103.404
0
LINE
8
BLACK
6
CONTINUOUS
10
129.115
20
-103.404
11
129.277
21
-103.332
0
LINE
8
BLACK
6
CONTINUOUS
10
129.277
20
-103.332
11
129.451
21
-103.295
0
LINE
8
BLACK
6
CONTINUOUS
10
129.451
20
-103.295
11
129.629
21
-103.295
0
LINE
8
BLACK
6
CONTINUOUS
10
129.629
20
-103.295
11
129.803
21
-103.332
0
LINE
8
BLACK
6
CONTINUOUS
10
194.331
20
-96.9674
11
194.363
21
-96.9674
0
LINE
8
BLACK
6
CONTINUOUS
10
194.363
20
-96.9674
11
194.393
21
-96.9771
0
LINE
8
BLACK
6
CONTINUOUS
10
194.393
20
-96.9771
11
194.424
21
-96.982
0
LINE
8
BLACK
6
CONTINUOUS
10
194.424
20
-96.982
11
194.452
21
-96.9963
0
LINE
8
BLACK
6
CONTINUOUS
10
194.452
20
-96.9963
11
194.482
21
-97.006
0
LINE
8
BLACK
6
CONTINUOUS
10
194.482
20
-97.006
11
194.507
21
-97.0245
0
LINE
8
BLACK
6
CONTINUOUS
10
194.507
20
-97.0245
11
194.535
21
-97.0388
0
LINE
8
BLACK
6
CONTINUOUS
10
194.535
20
-97.0388
11
194.557
21
-97.0611
0
LINE
8
BLACK
6
CONTINUOUS
10
194.557
20
-97.0611
11
194.583
21
-97.0796
0
LINE
8
BLACK
6
CONTINUOUS
10
194.583
20
-97.0796
11
196.798
21
-99.2951
0
LINE
8
BLACK
6
CONTINUOUS
10
196.798
20
-99.2951
11
196.817
21
-99.3206
0
LINE
8
BLACK
6
CONTINUOUS
10
196.817
20
-99.3206
11
196.839
21
-99.3429
0
LINE
8
BLACK
6
CONTINUOUS
10
196.839
20
-99.3429
11
196.853
21
-99.3709
0
LINE
8
BLACK
6
CONTINUOUS
10
196.853
20
-99.3709
11
196.872
21
-99.3964
0
LINE
8
BLACK
6
CONTINUOUS
10
196.872
20
-99.3964
11
196.882
21
-99.4263
0
LINE
8
BLACK
6
CONTINUOUS
10
196.882
20
-99.4263
11
196.896
21
-99.4544
0
LINE
8
BLACK
6
CONTINUOUS
10
196.896
20
-99.4544
11
196.901
21
-99.4855
0
LINE
8
BLACK
6
CONTINUOUS
10
196.901
20
-99.4855
11
196.911
21
-99.5154
0
LINE
8
BLACK
6
CONTINUOUS
10
196.911
20
-99.5154
11
196.911
21
-99.5469
0
LINE
8
BLACK
6
CONTINUOUS
10
196.911
20
-99.5469
11
196.916
21
-99.578
0
LINE
8
BLACK
6
CONTINUOUS
10
196.916
20
-99.578
11
196.916
21
-102.597
0
LINE
8
BLACK
6
CONTINUOUS
10
196.916
20
-102.597
11
198.137
21
-102.597
0
LINE
8
BLACK
6
CONTINUOUS
10
198.137
20
-102.597
11
198.194
21
-102.497
0
LINE
8
BLACK
6
CONTINUOUS
10
198.194
20
-102.497
11
198.313
21
-102.365
0
LINE
8
BLACK
6
CONTINUOUS
10
198.313
20
-102.365
11
198.457
21
-102.261
0
LINE
8
BLACK
6
CONTINUOUS
10
198.457
20
-102.261
11
198.619
21
-102.189
0
LINE
8
BLACK
6
CONTINUOUS
10
198.619
20
-102.189
11
198.793
21
-102.152
0
LINE
8
BLACK
6
CONTINUOUS
10
198.793
20
-102.152
11
198.971
21
-102.152
0
LINE
8
BLACK
6
CONTINUOUS
10
198.971
20
-102.152
11
199.145
21
-102.189
0
LINE
8
BLACK
6
CONTINUOUS
10
199.145
20
-102.189
11
199.307
21
-102.261
0
LINE
8
BLACK
6
CONTINUOUS
10
199.307
20
-102.261
11
199.451
21
-102.365
0
LINE
8
BLACK
6
CONTINUOUS
10
199.451
20
-102.365
11
199.57
21
-102.497
0
LINE
8
BLACK
6
CONTINUOUS
10
199.57
20
-102.497
11
199.659
21
-102.651
0
LINE
8
BLACK
6
CONTINUOUS
10
199.659
20
-102.651
11
199.713
21
-102.82
0
LINE
8
BLACK
6
CONTINUOUS
10
199.713
20
-102.82
11
199.732
21
-102.997
0
LINE
8
BLACK
6
CONTINUOUS
10
199.732
20
-102.997
11
199.713
21
-103.174
0
LINE
8
BLACK
6
CONTINUOUS
10
199.713
20
-103.174
11
199.659
21
-103.343
0
LINE
8
BLACK
6
CONTINUOUS
10
199.659
20
-103.343
11
199.57
21
-103.497
0
LINE
8
BLACK
6
CONTINUOUS
10
199.57
20
-103.497
11
199.451
21
-103.629
0
LINE
8
BLACK
6
CONTINUOUS
10
199.451
20
-103.629
11
199.307
21
-103.733
0
LINE
8
BLACK
6
CONTINUOUS
10
199.307
20
-103.733
11
199.145
21
-103.805
0
LINE
8
BLACK
6
CONTINUOUS
10
199.145
20
-103.805
11
198.971
21
-103.842
0
LINE
8
BLACK
6
CONTINUOUS
10
198.971
20
-103.842
11
198.793
21
-103.842
0
LINE
8
BLACK
6
CONTINUOUS
10
198.793
20
-103.842
11
198.619
21
-103.805
0
LINE
8
BLACK
6
CONTINUOUS
10
198.619
20
-103.805
11
198.457
21
-103.733
0
LINE
8
BLACK
6
CONTINUOUS
10
198.457
20
-103.733
11
198.313
21
-103.629
0
LINE
8
BLACK
6
CONTINUOUS
10
198.313
20
-103.629
11
198.194
21
-103.497
0
LINE
8
BLACK
6
CONTINUOUS
10
198.194
20
-103.497
11
198.137
21
-103.397
0
LINE
8
BLACK
6
CONTINUOUS
10
198.137
20
-103.397
11
197.062
21
-103.397
0
LINE
8
BLACK
6
CONTINUOUS
10
197.062
20
-103.397
11
196.798
21
-103.661
0
LINE
8
BLACK
6
CONTINUOUS
10
196.798
20
-103.661
11
196.773
21
-103.679
0
LINE
8
BLACK
6
CONTINUOUS
10
196.773
20
-103.679
11
196.751
21
-103.702
0
LINE
8
BLACK
6
CONTINUOUS
10
196.751
20
-103.702
11
196.723
21
-103.716
0
LINE
8
BLACK
6
CONTINUOUS
10
196.723
20
-103.716
11
196.697
21
-103.734
0
LINE
8
BLACK
6
CONTINUOUS
10
196.697
20
-103.734
11
196.667
21
-103.744
0
LINE
8
BLACK
6
CONTINUOUS
10
196.667
20
-103.744
11
196.639
21
-103.758
0
LINE
8
BLACK
6
CONTINUOUS
10
196.639
20
-103.758
11
196.608
21
-103.763
0
LINE
8
BLACK
6
CONTINUOUS
10
196.608
20
-103.763
11
196.578
21
-103.773
0
LINE
8
BLACK
6
CONTINUOUS
10
196.578
20
-103.773
11
196.547
21
-103.773
0
LINE
8
BLACK
6
CONTINUOUS
10
196.547
20
-103.773
11
196.516
21
-103.778
0
LINE
8
BLACK
6
CONTINUOUS
10
196.516
20
-103.778
11
196.484
21
-103.773
0
LINE
8
BLACK
6
CONTINUOUS
10
196.484
20
-103.773
11
196.453
21
-103.773
0
LINE
8
BLACK
6
CONTINUOUS
10
196.453
20
-103.773
11
196.423
21
-103.763
0
LINE
8
BLACK
6
CONTINUOUS
10
196.423
20
-103.763
11
196.392
21
-103.758
0
LINE
8
BLACK
6
CONTINUOUS
10
196.392
20
-103.758
11
196.364
21
-103.744
0
LINE
8
BLACK
6
CONTINUOUS
10
196.364
20
-103.744
11
196.334
21
-103.734
0
LINE
8
BLACK
6
CONTINUOUS
10
196.334
20
-103.734
11
196.308
21
-103.716
0
LINE
8
BLACK
6
CONTINUOUS
10
196.308
20
-103.716
11
196.28
21
-103.702
0
LINE
8
BLACK
6
CONTINUOUS
10
196.28
20
-103.702
11
196.258
21
-103.679
0
LINE
8
BLACK
6
CONTINUOUS
10
196.258
20
-103.679
11
196.233
21
-103.661
0
LINE
8
BLACK
6
CONTINUOUS
10
196.233
20
-103.661
11
196.214
21
-103.635
0
LINE
8
BLACK
6
CONTINUOUS
10
196.214
20
-103.635
11
196.192
21
-103.613
0
LINE
8
BLACK
6
CONTINUOUS
10
196.192
20
-103.613
11
196.178
21
-103.585
0
LINE
8
BLACK
6
CONTINUOUS
10
196.178
20
-103.585
11
196.159
21
-103.56
0
LINE
8
BLACK
6
CONTINUOUS
10
196.159
20
-103.56
11
196.149
21
-103.53
0
LINE
8
BLACK
6
CONTINUOUS
10
196.149
20
-103.53
11
196.135
21
-103.502
0
LINE
8
BLACK
6
CONTINUOUS
10
196.135
20
-103.502
11
196.13
21
-103.471
0
LINE
8
BLACK
6
CONTINUOUS
10
196.13
20
-103.471
11
196.12
21
-103.441
0
LINE
8
BLACK
6
CONTINUOUS
10
196.12
20
-103.441
11
196.12
21
-103.409
0
LINE
8
BLACK
6
CONTINUOUS
10
196.12
20
-103.409
11
196.116
21
-103.378
0
LINE
8
BLACK
6
CONTINUOUS
10
196.116
20
-103.378
11
196.116
21
-99.7437
0
LINE
8
BLACK
6
CONTINUOUS
10
196.116
20
-99.7437
11
194.134
21
-97.7624
0
LINE
8
BLACK
6
CONTINUOUS
10
194.134
20
-97.7624
11
191.692
21
-97.7624
0
LINE
8
BLACK
6
CONTINUOUS
10
191.692
20
-97.7624
11
186.297
21
-103.157
0
LINE
8
BLACK
6
CONTINUOUS
10
186.297
20
-103.157
11
186.297
21
-104.636
0
LINE
8
BLACK
6
CONTINUOUS
10
186.297
20
-104.636
11
184.797
21
-104.636
0
LINE
8
BLACK
6
CONTINUOUS
10
184.797
20
-104.636
11
184.797
21
-103.702
0
LINE
8
BLACK
6
CONTINUOUS
10
184.797
20
-103.702
11
181.063
21
-99.968
0
LINE
8
BLACK
6
CONTINUOUS
10
181.063
20
-99.968
11
180.115
21
-99.968
0
LINE
8
BLACK
6
CONTINUOUS
10
180.115
20
-99.968
11
180.054
21
-100.017
0
LINE
8
BLACK
6
CONTINUOUS
10
180.054
20
-100.017
11
179.923
21
-100.074
0
LINE
8
BLACK
6
CONTINUOUS
10
179.923
20
-100.074
11
179.782
21
-100.093
0
LINE
8
BLACK
6
CONTINUOUS
10
179.782
20
-100.093
11
179.332
21
-100.093
0
LINE
8
BLACK
6
CONTINUOUS
10
179.332
20
-100.093
11
179.255
21
-100.087
0
LINE
8
BLACK
6
CONTINUOUS
10
179.255
20
-100.087
11
179.118
21
-100.048
0
LINE
8
BLACK
6
CONTINUOUS
10
179.118
20
-100.048
11
178.997
21
-99.9725
0
LINE
8
BLACK
6
CONTINUOUS
10
178.997
20
-99.9725
11
178.901
21
-99.8676
0
LINE
8
BLACK
6
CONTINUOUS
10
178.901
20
-99.8676
11
178.836
21
-99.7407
0
LINE
8
BLACK
6
CONTINUOUS
10
178.836
20
-99.7407
11
178.808
21
-99.601
0
LINE
8
BLACK
6
CONTINUOUS
10
178.808
20
-99.601
11
178.818
21
-99.4588
0
LINE
8
BLACK
6
CONTINUOUS
10
178.818
20
-99.4588
11
178.867
21
-99.3248
0
LINE
8
BLACK
6
CONTINUOUS
10
178.867
20
-99.3248
11
178.949
21
-99.2086
0
LINE
8
BLACK
6
CONTINUOUS
10
178.949
20
-99.2086
11
179.06
21
-99.1189
0
LINE
8
BLACK
6
CONTINUOUS
10
179.06
20
-99.1189
11
179.191
21
-99.0623
0
LINE
8
BLACK
6
CONTINUOUS
10
179.191
20
-99.0623
11
179.332
21
-99.043
0
LINE
8
BLACK
6
CONTINUOUS
10
179.332
20
-99.043
11
179.782
21
-99.043
0
LINE
8
BLACK
6
CONTINUOUS
10
179.782
20
-99.043
11
179.859
21
-99.0486
0
LINE
8
BLACK
6
CONTINUOUS
10
179.859
20
-99.0486
11
179.996
21
-99.0884
0
LINE
8
BLACK
6
CONTINUOUS
10
179.996
20
-99.0884
11
180.117
21
-99.1635
0
LINE
8
BLACK
6
CONTINUOUS
10
180.117
20
-99.1635
11
180.121
21
-99.168
0
LINE
8
BLACK
6
CONTINUOUS
10
180.121
20
-99.168
11
181.229
21
-99.168
0
LINE
8
BLACK
6
CONTINUOUS
10
181.229
20
-99.168
11
181.26
21
-99.1729
0
LINE
8
BLACK
6
CONTINUOUS
10
181.26
20
-99.1729
11
181.292
21
-99.1729
0
LINE
8
BLACK
6
CONTINUOUS
10
181.292
20
-99.1729
11
181.322
21
-99.1827
0
LINE
8
BLACK
6
CONTINUOUS
10
181.322
20
-99.1827
11
181.353
21
-99.1876
0
LINE
8
BLACK
6
CONTINUOUS
10
181.353
20
-99.1876
11
181.381
21
-99.2019
0
LINE
8
BLACK
6
CONTINUOUS
10
181.381
20
-99.2019
11
181.411
21
-99.2116
0
LINE
8
BLACK
6
CONTINUOUS
10
181.411
20
-99.2116
11
181.436
21
-99.2301
0
LINE
8
BLACK
6
CONTINUOUS
10
181.436
20
-99.2301
11
181.464
21
-99.2444
0
LINE
8
BLACK
6
CONTINUOUS
10
181.464
20
-99.2444
11
181.486
21
-99.2667
0
LINE
8
BLACK
6
CONTINUOUS
10
181.486
20
-99.2667
11
181.512
21
-99.2852
0
LINE
8
BLACK
6
CONTINUOUS
10
181.512
20
-99.2852
11
185.275
21
-103.048
0
LINE
8
BLACK
6
CONTINUOUS
10
185.275
20
-103.048
11
191.243
21
-97.0796
0
LINE
8
BLACK
6
CONTINUOUS
10
191.243
20
-97.0796
11
191.269
21
-97.0611
0
LINE
8
BLACK
6
CONTINUOUS
10
191.269
20
-97.0611
11
191.291
21
-97.0388
0
LINE
8
BLACK
6
CONTINUOUS
10
191.291
20
-97.0388
11
191.319
21
-97.0245
0
LINE
8
BLACK
6
CONTINUOUS
10
191.319
20
-97.0245
11
191.344
21
-97.006
0
LINE
8
BLACK
6
CONTINUOUS
10
191.344
20
-97.006
11
191.374
21
-96.9963
0
LINE
8
BLACK
6
CONTINUOUS
10
191.374
20
-96.9963
11
191.402
21
-96.982
0
LINE
8
BLACK
6
CONTINUOUS
10
191.402
20
-96.982
11
191.433
21
-96.9771
0
LINE
8
BLACK
6
CONTINUOUS
10
191.433
20
-96.9771
11
191.463
21
-96.9674
0
LINE
8
BLACK
6
CONTINUOUS
10
191.463
20
-96.9674
11
191.495
21
-96.9674
0
LINE
8
BLACK
6
CONTINUOUS
10
191.495
20
-96.9674
11
191.526
21
-96.9624
0
LINE
8
BLACK
6
CONTINUOUS
10
191.526
20
-96.9624
11
194.3
21
-96.9624
0
LINE
8
BLACK
6
CONTINUOUS
10
194.3
20
-96.9624
11
194.331
21
-96.9674
0
LINE
8
BLACK
6
CONTINUOUS
10
167.95
20
-100.059
11
168.118
21
-100.119
0
LINE
8
BLACK
6
CONTINUOUS
10
168.118
20
-100.119
11
168.268
21
-100.215
0
LINE
8
BLACK
6
CONTINUOUS
10
168.268
20
-100.215
11
168.394
21
-100.341
0
LINE
8
BLACK
6
CONTINUOUS
10
168.394
20
-100.341
11
168.488
21
-100.492
0
LINE
8
BLACK
6
CONTINUOUS
10
168.488
20
-100.492
11
168.547
21
-100.661
0
LINE
8
BLACK
6
CONTINUOUS
10
168.547
20
-100.661
11
168.567
21
-100.838
0
LINE
8
BLACK
6
CONTINUOUS
10
168.567
20
-100.838
11
168.567
21
-100.86
0
LINE
8
BLACK
6
CONTINUOUS
10
168.567
20
-100.86
11
168.542
21
-101.037
0
LINE
8
BLACK
6
CONTINUOUS
10
168.542
20
-101.037
11
168.479
21
-101.204
0
LINE
8
BLACK
6
CONTINUOUS
10
168.479
20
-101.204
11
168.38
21
-101.352
0
LINE
8
BLACK
6
CONTINUOUS
10
168.38
20
-101.352
11
168.251
21
-101.475
0
LINE
8
BLACK
6
CONTINUOUS
10
168.251
20
-101.475
11
168.097
21
-101.567
0
LINE
8
BLACK
6
CONTINUOUS
10
168.097
20
-101.567
11
167.928
21
-101.622
0
LINE
8
BLACK
6
CONTINUOUS
10
167.928
20
-101.622
11
167.75
21
-101.638
0
LINE
8
BLACK
6
CONTINUOUS
10
167.75
20
-101.638
11
167.573
21
-101.614
0
LINE
8
BLACK
6
CONTINUOUS
10
167.573
20
-101.614
11
167.561
21
-101.61
0
LINE
8
BLACK
6
CONTINUOUS
10
167.561
20
-101.61
11
166.389
21
-102.782
0
LINE
8
BLACK
6
CONTINUOUS
10
166.389
20
-102.782
11
166.363
21
-102.8
0
LINE
8
BLACK
6
CONTINUOUS
10
166.363
20
-102.8
11
166.341
21
-102.823
0
LINE
8
BLACK
6
CONTINUOUS
10
166.341
20
-102.823
11
166.313
21
-102.837
0
LINE
8
BLACK
6
CONTINUOUS
10
166.313
20
-102.837
11
166.288
21
-102.855
0
LINE
8
BLACK
6
CONTINUOUS
10
166.288
20
-102.855
11
166.258
21
-102.865
0
LINE
8
BLACK
6
CONTINUOUS
10
166.258
20
-102.865
11
166.23
21
-102.879
0
LINE
8
BLACK
6
CONTINUOUS
10
166.23
20
-102.879
11
166.199
21
-102.884
0
LINE
8
BLACK
6
CONTINUOUS
10
166.199
20
-102.884
11
166.169
21
-102.894
0
LINE
8
BLACK
6
CONTINUOUS
10
166.169
20
-102.894
11
166.137
21
-102.894
0
LINE
8
BLACK
6
CONTINUOUS
10
166.137
20
-102.894
11
166.106
21
-102.899
0
LINE
8
BLACK
6
CONTINUOUS
10
166.106
20
-102.899
11
162.878
21
-102.899
0
LINE
8
BLACK
6
CONTINUOUS
10
162.878
20
-102.899
11
162.802
21
-103.013
0
LINE
8
BLACK
6
CONTINUOUS
10
162.802
20
-103.013
11
162.673
21
-103.136
0
LINE
8
BLACK
6
CONTINUOUS
10
162.673
20
-103.136
11
162.519
21
-103.228
0
LINE
8
BLACK
6
CONTINUOUS
10
162.519
20
-103.228
11
162.35
21
-103.283
0
LINE
8
BLACK
6
CONTINUOUS
10
162.35
20
-103.283
11
162.172
21
-103.299
0
LINE
8
BLACK
6
CONTINUOUS
10
162.172
20
-103.299
11
161.995
21
-103.275
0
LINE
8
BLACK
6
CONTINUOUS
10
161.995
20
-103.275
11
161.828
21
-103.213
0
LINE
8
BLACK
6
CONTINUOUS
10
161.828
20
-103.213
11
161.679
21
-103.115
0
LINE
8
BLACK
6
CONTINUOUS
10
161.679
20
-103.115
11
161.555
21
-102.987
0
LINE
8
BLACK
6
CONTINUOUS
10
161.555
20
-102.987
11
161.463
21
-102.835
0
LINE
8
BLACK
6
CONTINUOUS
10
161.463
20
-102.835
11
161.406
21
-102.665
0
LINE
8
BLACK
6
CONTINUOUS
10
161.406
20
-102.665
11
161.389
21
-102.488
0
LINE
8
BLACK
6
CONTINUOUS
10
161.389
20
-102.488
11
161.411
21
-102.311
0
LINE
8
BLACK
6
CONTINUOUS
10
161.411
20
-102.311
11
161.472
21
-102.143
0
LINE
8
BLACK
6
CONTINUOUS
10
161.472
20
-102.143
11
161.569
21
-101.993
0
LINE
8
BLACK
6
CONTINUOUS
10
161.569
20
-101.993
11
161.696
21
-101.869
0
LINE
8
BLACK
6
CONTINUOUS
10
161.696
20
-101.869
11
161.848
21
-101.775
0
LINE
8
BLACK
6
CONTINUOUS
10
161.848
20
-101.775
11
162.017
21
-101.718
0
LINE
8
BLACK
6
CONTINUOUS
10
162.017
20
-101.718
11
162.195
21
-101.699
0
LINE
8
BLACK
6
CONTINUOUS
10
162.195
20
-101.699
11
162.372
21
-101.72
0
LINE
8
BLACK
6
CONTINUOUS
10
162.372
20
-101.72
11
162.54
21
-101.78
0
LINE
8
BLACK
6
CONTINUOUS
10
162.54
20
-101.78
11
162.69
21
-101.876
0
LINE
8
BLACK
6
CONTINUOUS
10
162.69
20
-101.876
11
162.816
21
-102.002
0
LINE
8
BLACK
6
CONTINUOUS
10
162.816
20
-102.002
11
162.877
21
-102.099
0
LINE
8
BLACK
6
CONTINUOUS
10
162.877
20
-102.099
11
165.94
21
-102.099
0
LINE
8
BLACK
6
CONTINUOUS
10
165.94
20
-102.099
11
166.997
21
-101.042
0
LINE
8
BLACK
6
CONTINUOUS
10
166.997
20
-101.042
11
166.984
21
-101.004
0
LINE
8
BLACK
6
CONTINUOUS
10
166.984
20
-101.004
11
166.967
21
-100.827
0
LINE
8
BLACK
6
CONTINUOUS
10
166.967
20
-100.827
11
166.989
21
-100.65
0
LINE
8
BLACK
6
CONTINUOUS
10
166.989
20
-100.65
11
167.05
21
-100.482
0
LINE
8
BLACK
6
CONTINUOUS
10
167.05
20
-100.482
11
167.147
21
-100.332
0
LINE
8
BLACK
6
CONTINUOUS
10
167.147
20
-100.332
11
167.274
21
-100.208
0
LINE
8
BLACK
6
CONTINUOUS
10
167.274
20
-100.208
11
167.426
21
-100.114
0
LINE
8
BLACK
6
CONTINUOUS
10
167.426
20
-100.114
11
167.595
21
-100.057
0
LINE
8
BLACK
6
CONTINUOUS
10
167.595
20
-100.057
11
167.773
21
-100.038
0
LINE
8
BLACK
6
CONTINUOUS
10
167.773
20
-100.038
11
167.95
21
-100.059
0
LINE
8
BLACK
6
CONTINUOUS
10
139.847
20
-100.653
11
140.036
21
-100.692
0
LINE
8
BLACK
6
CONTINUOUS
10
140.036
20
-100.692
11
140.212
21
-100.769
0
LINE
8
BLACK
6
CONTINUOUS
10
140.212
20
-100.769
11
140.37
21
-100.879
0
LINE
8
BLACK
6
CONTINUOUS
10
140.37
20
-100.879
11
140.502
21
-101.019
0
LINE
8
BLACK
6
CONTINUOUS
10
140.502
20
-101.019
11
140.604
21
-101.182
0
LINE
8
BLACK
6
CONTINUOUS
10
140.604
20
-101.182
11
140.67
21
-101.363
0
LINE
8
BLACK
6
CONTINUOUS
10
140.67
20
-101.363
11
140.699
21
-101.553
0
LINE
8
BLACK
6
CONTINUOUS
10
140.699
20
-101.553
11
140.689
21
-101.746
0
LINE
8
BLACK
6
CONTINUOUS
10
140.689
20
-101.746
11
140.64
21
-101.932
0
LINE
8
BLACK
6
CONTINUOUS
10
140.64
20
-101.932
11
140.555
21
-102.105
0
LINE
8
BLACK
6
CONTINUOUS
10
140.555
20
-102.105
11
140.437
21
-102.257
0
LINE
8
BLACK
6
CONTINUOUS
10
140.437
20
-102.257
11
140.291
21
-102.382
0
LINE
8
BLACK
6
CONTINUOUS
10
140.291
20
-102.382
11
140.123
21
-102.475
0
LINE
8
BLACK
6
CONTINUOUS
10
140.123
20
-102.475
11
139.939
21
-102.533
0
LINE
8
BLACK
6
CONTINUOUS
10
139.939
20
-102.533
11
139.748
21
-102.552
0
LINE
8
BLACK
6
CONTINUOUS
10
139.748
20
-102.552
11
139.653
21
-102.552
0
LINE
8
BLACK
6
CONTINUOUS
10
139.653
20
-102.552
11
139.553
21
-102.547
0
LINE
8
BLACK
6
CONTINUOUS
10
139.553
20
-102.547
11
139.364
21
-102.508
0
LINE
8
BLACK
6
CONTINUOUS
10
139.364
20
-102.508
11
139.188
21
-102.431
0
LINE
8
BLACK
6
CONTINUOUS
10
139.188
20
-102.431
11
139.03
21
-102.321
0
LINE
8
BLACK
6
CONTINUOUS
10
139.03
20
-102.321
11
138.898
21
-102.181
0
LINE
8
BLACK
6
CONTINUOUS
10
138.898
20
-102.181
11
138.796
21
-102.018
0
LINE
8
BLACK
6
CONTINUOUS
10
138.796
20
-102.018
11
138.73
21
-101.837
0
LINE
8
BLACK
6
CONTINUOUS
10
138.73
20
-101.837
11
138.701
21
-101.647
0
LINE
8
BLACK
6
CONTINUOUS
10
138.701
20
-101.647
11
138.711
21
-101.454
0
LINE
8
BLACK
6
CONTINUOUS
10
138.711
20
-101.454
11
138.76
21
-101.268
0
LINE
8
BLACK
6
CONTINUOUS
10
138.76
20
-101.268
11
138.845
21
-101.095
0
LINE
8
BLACK
6
CONTINUOUS
10
138.845
20
-101.095
11
138.963
21
-100.943
0
LINE
8
BLACK
6
CONTINUOUS
10
138.963
20
-100.943
11
139.109
21
-100.818
0
LINE
8
BLACK
6
CONTINUOUS
10
139.109
20
-100.818
11
139.277
21
-100.725
0
LINE
8
BLACK
6
CONTINUOUS
10
139.277
20
-100.725
11
139.461
21
-100.667
0
LINE
8
BLACK
6
CONTINUOUS
10
139.461
20
-100.667
11
139.653
21
-100.647
0
LINE
8
BLACK
6
CONTINUOUS
10
139.653
20
-100.647
11
139.748
21
-100.647
0
LINE
8
BLACK
6
CONTINUOUS
10
139.748
20
-100.647
11
139.847
21
-100.653
0
LINE
8
BLACK
6
CONTINUOUS
10
129.803
20
-100.792
11
129.965
21
-100.864
0
LINE
8
BLACK
6
CONTINUOUS
10
129.965
20
-100.864
11
130.109
21
-100.968
0
LINE
8
BLACK
6
CONTINUOUS
10
130.109
20
-100.968
11
130.228
21
-101.1
0
LINE
8
BLACK
6
CONTINUOUS
10
130.228
20
-101.1
11
130.317
21
-101.254
0
LINE
8
BLACK
6
CONTINUOUS
10
130.317
20
-101.254
11
130.371
21
-101.423
0
LINE
8
BLACK
6
CONTINUOUS
10
130.371
20
-101.423
11
130.39
21
-101.6
0
LINE
8
BLACK
6
CONTINUOUS
10
130.39
20
-101.6
11
130.371
21
-101.777
0
LINE
8
BLACK
6
CONTINUOUS
10
130.371
20
-101.777
11
130.317
21
-101.946
0
LINE
8
BLACK
6
CONTINUOUS
10
130.317
20
-101.946
11
130.228
21
-102.1
0
LINE
8
BLACK
6
CONTINUOUS
10
130.228
20
-102.1
11
130.109
21
-102.232
0
LINE
8
BLACK
6
CONTINUOUS
10
130.109
20
-102.232
11
129.965
21
-102.336
0
LINE
8
BLACK
6
CONTINUOUS
10
129.965
20
-102.336
11
129.803
21
-102.408
0
LINE
8
BLACK
6
CONTINUOUS
10
129.803
20
-102.408
11
129.629
21
-102.445
0
LINE
8
BLACK
6
CONTINUOUS
10
129.629
20
-102.445
11
129.451
21
-102.445
0
LINE
8
BLACK
6
CONTINUOUS
10
129.451
20
-102.445
11
129.277
21
-102.408
0
LINE
8
BLACK
6
CONTINUOUS
10
129.277
20
-102.408
11
129.115
21
-102.336
0
LINE
8
BLACK
6
CONTINUOUS
10
129.115
20
-102.336
11
128.971
21
-102.232
0
LINE
8
BLACK
6
CONTINUOUS
10
128.971
20
-102.232
11
128.852
21
-102.1
0
LINE
8
BLACK
6
CONTINUOUS
10
128.852
20
-102.1
11
128.763
21
-101.946
0
LINE
8
BLACK
6
CONTINUOUS
10
128.763
20
-101.946
11
128.709
21
-101.777
0
LINE
8
BLACK
6
CONTINUOUS
10
128.709
20
-101.777
11
128.69
21
-101.6
0
LINE
8
BLACK
6
CONTINUOUS
10
128.69
20
-101.6
11
128.709
21
-101.423
0
LINE
8
BLACK
6
CONTINUOUS
10
128.709
20
-101.423
11
128.763
21
-101.254
0
LINE
8
BLACK
6
CONTINUOUS
10
128.763
20
-101.254
11
128.852
21
-101.1
0
LINE
8
BLACK
6
CONTINUOUS
10
128.852
20
-101.1
11
128.971
21
-100.968
0
LINE
8
BLACK
6
CONTINUOUS
10
128.971
20
-100.968
11
129.115
21
-100.864
0
LINE
8
BLACK
6
CONTINUOUS
10
129.115
20
-100.864
11
129.277
21
-100.792
0
LINE
8
BLACK
6
CONTINUOUS
10
129.277
20
-100.792
11
129.451
21
-100.755
0
LINE
8
BLACK
6
CONTINUOUS
10
129.451
20
-100.755
11
129.629
21
-100.755
0
LINE
8
BLACK
6
CONTINUOUS
10
129.629
20
-100.755
11
129.803
21
-100.792
0
LINE
8
BLACK
6
CONTINUOUS
10
175.57
20
-100.059
11
175.738
21
-100.119
0
LINE
8
BLACK
6
CONTINUOUS
10
175.738
20
-100.119
11
175.888
21
-100.215
0
LINE
8
BLACK
6
CONTINUOUS
10
175.888
20
-100.215
11
176.014
21
-100.341
0
LINE
8
BLACK
6
CONTINUOUS
10
176.014
20
-100.341
11
176.075
21
-100.438
0
LINE
8
BLACK
6
CONTINUOUS
10
176.075
20
-100.438
11
178.999
21
-100.438
0
LINE
8
BLACK
6
CONTINUOUS
10
178.999
20
-100.438
11
179.06
21
-100.389
0
LINE
8
BLACK
6
CONTINUOUS
10
179.06
20
-100.389
11
179.191
21
-100.332
0
LINE
8
BLACK
6
CONTINUOUS
10
179.191
20
-100.332
11
179.332
21
-100.313
0
LINE
8
BLACK
6
CONTINUOUS
10
179.332
20
-100.313
11
179.782
21
-100.313
0
LINE
8
BLACK
6
CONTINUOUS
10
179.782
20
-100.313
11
179.859
21
-100.319
0
LINE
8
BLACK
6
CONTINUOUS
10
179.859
20
-100.319
11
179.996
21
-100.358
0
LINE
8
BLACK
6
CONTINUOUS
10
179.996
20
-100.358
11
180.117
21
-100.433
0
LINE
8
BLACK
6
CONTINUOUS
10
180.117
20
-100.433
11
180.213
21
-100.538
0
LINE
8
BLACK
6
CONTINUOUS
10
180.213
20
-100.538
11
180.278
21
-100.665
0
LINE
8
BLACK
6
CONTINUOUS
10
180.278
20
-100.665
11
180.306
21
-100.805
0
LINE
8
BLACK
6
CONTINUOUS
10
180.306
20
-100.805
11
180.296
21
-100.947
0
LINE
8
BLACK
6
CONTINUOUS
10
180.296
20
-100.947
11
180.247
21
-101.081
0
LINE
8
BLACK
6
CONTINUOUS
10
180.247
20
-101.081
11
180.165
21
-101.197
0
LINE
8
BLACK
6
CONTINUOUS
10
180.165
20
-101.197
11
180.054
21
-101.287
0
LINE
8
BLACK
6
CONTINUOUS
10
180.054
20
-101.287
11
179.923
21
-101.344
0
LINE
8
BLACK
6
CONTINUOUS
10
179.923
20
-101.344
11
179.782
21
-101.363
0
LINE
8
BLACK
6
CONTINUOUS
10
179.782
20
-101.363
11
179.332
21
-101.363
0
LINE
8
BLACK
6
CONTINUOUS
10
179.332
20
-101.363
11
179.255
21
-101.357
0
LINE
8
BLACK
6
CONTINUOUS
10
179.255
20
-101.357
11
179.118
21
-101.318
0
LINE
8
BLACK
6
CONTINUOUS
10
179.118
20
-101.318
11
178.997
21
-101.243
0
LINE
8
BLACK
6
CONTINUOUS
10
178.997
20
-101.243
11
178.993
21
-101.238
0
LINE
8
BLACK
6
CONTINUOUS
10
178.993
20
-101.238
11
176.076
21
-101.238
0
LINE
8
BLACK
6
CONTINUOUS
10
176.076
20
-101.238
11
176
21
-101.352
0
LINE
8
BLACK
6
CONTINUOUS
10
176
20
-101.352
11
175.871
21
-101.475
0
LINE
8
BLACK
6
CONTINUOUS
10
175.871
20
-101.475
11
175.717
21
-101.567
0
LINE
8
BLACK
6
CONTINUOUS
10
175.717
20
-101.567
11
175.548
21
-101.622
0
LINE
8
BLACK
6
CONTINUOUS
10
175.548
20
-101.622
11
175.37
21
-101.638
0
LINE
8
BLACK
6
CONTINUOUS
10
175.37
20
-101.638
11
175.193
21
-101.614
0
LINE
8
BLACK
6
CONTINUOUS
10
175.193
20
-101.614
11
175.026
21
-101.552
0
LINE
8
BLACK
6
CONTINUOUS
10
175.026
20
-101.552
11
174.877
21
-101.454
0
LINE
8
BLACK
6
CONTINUOUS
10
174.877
20
-101.454
11
174.753
21
-101.326
0
LINE
8
BLACK
6
CONTINUOUS
10
174.753
20
-101.326
11
174.661
21
-101.174
0
LINE
8
BLACK
6
CONTINUOUS
10
174.661
20
-101.174
11
174.604
21
-101.004
0
LINE
8
BLACK
6
CONTINUOUS
10
174.604
20
-101.004
11
174.587
21
-100.827
0
LINE
8
BLACK
6
CONTINUOUS
10
174.587
20
-100.827
11
174.609
21
-100.65
0
LINE
8
BLACK
6
CONTINUOUS
10
174.609
20
-100.65
11
174.67
21
-100.482
0
LINE
8
BLACK
6
CONTINUOUS
10
174.67
20
-100.482
11
174.767
21
-100.332
0
LINE
8
BLACK
6
CONTINUOUS
10
174.767
20
-100.332
11
174.894
21
-100.208
0
LINE
8
BLACK
6
CONTINUOUS
10
174.894
20
-100.208
11
175.046
21
-100.114
0
LINE
8
BLACK
6
CONTINUOUS
10
175.046
20
-100.114
11
175.215
21
-100.057
0
LINE
8
BLACK
6
CONTINUOUS
10
175.215
20
-100.057
11
175.393
21
-100.038
0
LINE
8
BLACK
6
CONTINUOUS
10
175.393
20
-100.038
11
175.57
21
-100.059
0
LINE
8
BLACK
6
CONTINUOUS
10
179.478
20
-92.8256
11
179.615
21
-92.8654
0
LINE
8
BLACK
6
CONTINUOUS
10
179.615
20
-92.8654
11
179.736
21
-92.9405
0
LINE
8
BLACK
6
CONTINUOUS
10
179.736
20
-92.9405
11
179.74
21
-92.945
0
LINE
8
BLACK
6
CONTINUOUS
10
179.74
20
-92.945
11
180.726
21
-92.945
0
LINE
8
BLACK
6
CONTINUOUS
10
180.726
20
-92.945
11
180.757
21
-92.9499
0
LINE
8
BLACK
6
CONTINUOUS
10
180.757
20
-92.9499
11
180.789
21
-92.9499
0
LINE
8
BLACK
6
CONTINUOUS
10
180.789
20
-92.9499
11
180.819
21
-92.9597
0
LINE
8
BLACK
6
CONTINUOUS
10
180.819
20
-92.9597
11
180.85
21
-92.9646
0
LINE
8
BLACK
6
CONTINUOUS
10
180.85
20
-92.9646
11
180.878
21
-92.9789
0
LINE
8
BLACK
6
CONTINUOUS
10
180.878
20
-92.9789
11
180.908
21
-92.9886
0
LINE
8
BLACK
6
CONTINUOUS
10
180.908
20
-92.9886
11
180.933
21
-93.0071
0
LINE
8
BLACK
6
CONTINUOUS
10
180.933
20
-93.0071
11
180.961
21
-93.0214
0
LINE
8
BLACK
6
CONTINUOUS
10
180.961
20
-93.0214
11
180.983
21
-93.0437
0
LINE
8
BLACK
6
CONTINUOUS
10
180.983
20
-93.0437
11
181.009
21
-93.0622
0
LINE
8
BLACK
6
CONTINUOUS
10
181.009
20
-93.0622
11
185.576
21
-97.6292
0
LINE
8
BLACK
6
CONTINUOUS
10
185.576
20
-97.6292
11
185.594
21
-97.6546
0
LINE
8
BLACK
6
CONTINUOUS
10
185.594
20
-97.6546
11
185.617
21
-97.6769
0
LINE
8
BLACK
6
CONTINUOUS
10
185.617
20
-97.6769
11
185.631
21
-97.7049
0
LINE
8
BLACK
6
CONTINUOUS
10
185.631
20
-97.7049
11
185.649
21
-97.7304
0
LINE
8
BLACK
6
CONTINUOUS
10
185.649
20
-97.7304
11
185.659
21
-97.7603
0
LINE
8
BLACK
6
CONTINUOUS
10
185.659
20
-97.7603
11
185.673
21
-97.7884
0
LINE
8
BLACK
6
CONTINUOUS
10
185.673
20
-97.7884
11
185.678
21
-97.8195
0
LINE
8
BLACK
6
CONTINUOUS
10
185.678
20
-97.8195
11
185.688
21
-97.8494
0
LINE
8
BLACK
6
CONTINUOUS
10
185.688
20
-97.8494
11
185.688
21
-97.8809
0
LINE
8
BLACK
6
CONTINUOUS
10
185.688
20
-97.8809
11
185.693
21
-97.912
0
LINE
8
BLACK
6
CONTINUOUS
10
185.693
20
-97.912
11
185.693
21
-99.7453
0
LINE
8
BLACK
6
CONTINUOUS
10
185.693
20
-99.7453
11
189.358
21
-96.0801
0
LINE
8
BLACK
6
CONTINUOUS
10
189.358
20
-96.0801
11
189.384
21
-96.0616
0
LINE
8
BLACK
6
CONTINUOUS
10
189.384
20
-96.0616
11
189.406
21
-96.0393
0
LINE
8
BLACK
6
CONTINUOUS
10
189.406
20
-96.0393
11
189.434
21
-96.025
0
LINE
8
BLACK
6
CONTINUOUS
10
189.434
20
-96.025
11
189.459
21
-96.0065
0
LINE
8
BLACK
6
CONTINUOUS
10
189.459
20
-96.0065
11
189.489
21
-95.9968
0
LINE
8
BLACK
6
CONTINUOUS
10
189.489
20
-95.9968
11
189.517
21
-95.9825
0
LINE
8
BLACK
6
CONTINUOUS
10
189.517
20
-95.9825
11
189.549
21
-95.9776
0
LINE
8
BLACK
6
CONTINUOUS
10
189.549
20
-95.9776
11
189.578
21
-95.9679
0
LINE
8
BLACK
6
CONTINUOUS
10
189.578
20
-95.9679
11
189.61
21
-95.9679
0
LINE
8
BLACK
6
CONTINUOUS
10
189.61
20
-95.9679
11
189.641
21
-95.9629
0
LINE
8
BLACK
6
CONTINUOUS
10
189.641
20
-95.9629
11
194.788
21
-95.9629
0
LINE
8
BLACK
6
CONTINUOUS
10
194.788
20
-95.9629
11
194.819
21
-95.9679
0
LINE
8
BLACK
6
CONTINUOUS
10
194.819
20
-95.9679
11
194.851
21
-95.9679
0
LINE
8
BLACK
6
CONTINUOUS
10
194.851
20
-95.9679
11
194.88
21
-95.9776
0
LINE
8
BLACK
6
CONTINUOUS
10
194.88
20
-95.9776
11
194.912
21
-95.9825
0
LINE
8
BLACK
6
CONTINUOUS
10
194.912
20
-95.9825
11
194.94
21
-95.9968
0
LINE
8
BLACK
6
CONTINUOUS
10
194.94
20
-95.9968
11
194.97
21
-96.0065
0
LINE
8
BLACK
6
CONTINUOUS
10
194.97
20
-96.0065
11
194.995
21
-96.025
0
LINE
8
BLACK
6
CONTINUOUS
10
194.995
20
-96.025
11
195.023
21
-96.0393
0
LINE
8
BLACK
6
CONTINUOUS
10
195.023
20
-96.0393
11
195.045
21
-96.0616
0
LINE
8
BLACK
6
CONTINUOUS
10
195.045
20
-96.0616
11
195.071
21
-96.0801
0
LINE
8
BLACK
6
CONTINUOUS
10
195.071
20
-96.0801
11
198.636
21
-99.6451
0
LINE
8
BLACK
6
CONTINUOUS
10
198.636
20
-99.6451
11
198.793
21
-99.6117
0
LINE
8
BLACK
6
CONTINUOUS
10
198.793
20
-99.6117
11
198.971
21
-99.6117
0
LINE
8
BLACK
6
CONTINUOUS
10
198.971
20
-99.6117
11
199.145
21
-99.6486
0
LINE
8
BLACK
6
CONTINUOUS
10
199.145
20
-99.6486
11
199.307
21
-99.7209
0
LINE
8
BLACK
6
CONTINUOUS
10
199.307
20
-99.7209
11
199.451
21
-99.8253
0
LINE
8
BLACK
6
CONTINUOUS
10
199.451
20
-99.8253
11
199.57
21
-99.9574
0
LINE
8
BLACK
6
CONTINUOUS
10
199.57
20
-99.9574
11
199.659
21
-100.111
0
LINE
8
BLACK
6
CONTINUOUS
10
199.659
20
-100.111
11
199.713
21
-100.28
0
LINE
8
BLACK
6
CONTINUOUS
10
199.713
20
-100.28
11
199.732
21
-100.457
0
LINE
8
BLACK
6
CONTINUOUS
10
199.732
20
-100.457
11
199.713
21
-100.634
0
LINE
8
BLACK
6
CONTINUOUS
10
199.713
20
-100.634
11
199.659
21
-100.803
0
LINE
8
BLACK
6
CONTINUOUS
10
199.659
20
-100.803
11
199.57
21
-100.957
0
LINE
8
BLACK
6
CONTINUOUS
10
199.57
20
-100.957
11
199.451
21
-101.089
0
LINE
8
BLACK
6
CONTINUOUS
10
199.451
20
-101.089
11
199.307
21
-101.193
0
LINE
8
BLACK
6
CONTINUOUS
10
199.307
20
-101.193
11
199.145
21
-101.265
0
LINE
8
BLACK
6
CONTINUOUS
10
199.145
20
-101.265
11
198.971
21
-101.302
0
LINE
8
BLACK
6
CONTINUOUS
10
198.971
20
-101.302
11
198.793
21
-101.302
0
LINE
8
BLACK
6
CONTINUOUS
10
198.793
20
-101.302
11
198.619
21
-101.265
0
LINE
8
BLACK
6
CONTINUOUS
10
198.619
20
-101.265
11
198.457
21
-101.193
0
LINE
8
BLACK
6
CONTINUOUS
10
198.457
20
-101.193
11
198.313
21
-101.089
0
LINE
8
BLACK
6
CONTINUOUS
10
198.313
20
-101.089
11
198.194
21
-100.957
0
LINE
8
BLACK
6
CONTINUOUS
10
198.194
20
-100.957
11
198.105
21
-100.803
0
LINE
8
BLACK
6
CONTINUOUS
10
198.105
20
-100.803
11
198.051
21
-100.634
0
LINE
8
BLACK
6
CONTINUOUS
10
198.051
20
-100.634
11
198.032
21
-100.457
0
LINE
8
BLACK
6
CONTINUOUS
10
198.032
20
-100.457
11
198.051
21
-100.28
0
LINE
8
BLACK
6
CONTINUOUS
10
198.051
20
-100.28
11
198.072
21
-100.213
0
LINE
8
BLACK
6
CONTINUOUS
10
198.072
20
-100.213
11
194.622
21
-96.7629
0
LINE
8
BLACK
6
CONTINUOUS
10
194.622
20
-96.7629
11
189.807
21
-96.7629
0
LINE
8
BLACK
6
CONTINUOUS
10
189.807
20
-96.7629
11
186.043
21
-100.527
0
LINE
8
BLACK
6
CONTINUOUS
10
186.043
20
-100.527
11
186.043
21
-101.461
0
LINE
8
BLACK
6
CONTINUOUS
10
186.043
20
-101.461
11
184.543
21
-101.461
0
LINE
8
BLACK
6
CONTINUOUS
10
184.543
20
-101.461
11
184.543
21
-99.961
0
LINE
8
BLACK
6
CONTINUOUS
10
184.543
20
-99.961
11
184.893
21
-99.961
0
LINE
8
BLACK
6
CONTINUOUS
10
184.893
20
-99.961
11
184.893
21
-98.0777
0
LINE
8
BLACK
6
CONTINUOUS
10
184.893
20
-98.0777
11
180.56
21
-93.745
0
LINE
8
BLACK
6
CONTINUOUS
10
180.56
20
-93.745
11
179.734
21
-93.745
0
LINE
8
BLACK
6
CONTINUOUS
10
179.734
20
-93.745
11
179.673
21
-93.7941
0
LINE
8
BLACK
6
CONTINUOUS
10
179.673
20
-93.7941
11
179.542
21
-93.8507
0
LINE
8
BLACK
6
CONTINUOUS
10
179.542
20
-93.8507
11
179.401
21
-93.87
0
LINE
8
BLACK
6
CONTINUOUS
10
179.401
20
-93.87
11
178.951
21
-93.87
0
LINE
8
BLACK
6
CONTINUOUS
10
178.951
20
-93.87
11
178.874
21
-93.8644
0
LINE
8
BLACK
6
CONTINUOUS
10
178.874
20
-93.8644
11
178.737
21
-93.8246
0
LINE
8
BLACK
6
CONTINUOUS
10
178.737
20
-93.8246
11
178.616
21
-93.7495
0
LINE
8
BLACK
6
CONTINUOUS
10
178.616
20
-93.7495
11
178.52
21
-93.6446
0
LINE
8
BLACK
6
CONTINUOUS
10
178.52
20
-93.6446
11
178.455
21
-93.5177
0
LINE
8
BLACK
6
CONTINUOUS
10
178.455
20
-93.5177
11
178.427
21
-93.378
0
LINE
8
BLACK
6
CONTINUOUS
10
178.427
20
-93.378
11
178.437
21
-93.2358
0
LINE
8
BLACK
6
CONTINUOUS
10
178.437
20
-93.2358
11
178.486
21
-93.1018
0
LINE
8
BLACK
6
CONTINUOUS
10
178.486
20
-93.1018
11
178.568
21
-92.9856
0
LINE
8
BLACK
6
CONTINUOUS
10
178.568
20
-92.9856
11
178.679
21
-92.8959
0
LINE
8
BLACK
6
CONTINUOUS
10
178.679
20
-92.8959
11
178.81
21
-92.8393
0
LINE
8
BLACK
6
CONTINUOUS
10
178.81
20
-92.8393
11
178.951
21
-92.82
0
LINE
8
BLACK
6
CONTINUOUS
10
178.951
20
-92.82
11
179.401
21
-92.82
0
LINE
8
BLACK
6
CONTINUOUS
10
179.401
20
-92.82
11
179.478
21
-92.8256
0
LINE
8
BLACK
6
CONTINUOUS
10
154.752
20
-99.1801
11
154.92
21
-99.24
0
LINE
8
BLACK
6
CONTINUOUS
10
154.92
20
-99.24
11
155.07
21
-99.3355
0
LINE
8
BLACK
6
CONTINUOUS
10
155.07
20
-99.3355
11
155.196
21
-99.4621
0
LINE
8
BLACK
6
CONTINUOUS
10
155.196
20
-99.4621
11
155.29
21
-99.6133
0
LINE
8
BLACK
6
CONTINUOUS
10
155.29
20
-99.6133
11
155.349
21
-99.7818
0
LINE
8
BLACK
6
CONTINUOUS
10
155.349
20
-99.7818
11
155.369
21
-99.959
0
LINE
8
BLACK
6
CONTINUOUS
10
155.369
20
-99.959
11
155.369
21
-99.9813
0
LINE
8
BLACK
6
CONTINUOUS
10
155.369
20
-99.9813
11
155.344
21
-100.158
0
LINE
8
BLACK
6
CONTINUOUS
10
155.344
20
-100.158
11
155.281
21
-100.325
0
LINE
8
BLACK
6
CONTINUOUS
10
155.281
20
-100.325
11
155.182
21
-100.473
0
LINE
8
BLACK
6
CONTINUOUS
10
155.182
20
-100.473
11
155.053
21
-100.596
0
LINE
8
BLACK
6
CONTINUOUS
10
155.053
20
-100.596
11
154.899
21
-100.688
0
LINE
8
BLACK
6
CONTINUOUS
10
154.899
20
-100.688
11
154.73
21
-100.743
0
LINE
8
BLACK
6
CONTINUOUS
10
154.73
20
-100.743
11
154.552
21
-100.759
0
LINE
8
BLACK
6
CONTINUOUS
10
154.552
20
-100.759
11
154.375
21
-100.735
0
LINE
8
BLACK
6
CONTINUOUS
10
154.375
20
-100.735
11
154.208
21
-100.673
0
LINE
8
BLACK
6
CONTINUOUS
10
154.208
20
-100.673
11
154.059
21
-100.575
0
LINE
8
BLACK
6
CONTINUOUS
10
154.059
20
-100.575
11
153.935
21
-100.447
0
LINE
8
BLACK
6
CONTINUOUS
10
153.935
20
-100.447
11
153.843
21
-100.295
0
LINE
8
BLACK
6
CONTINUOUS
10
153.843
20
-100.295
11
153.786
21
-100.125
0
LINE
8
BLACK
6
CONTINUOUS
10
153.786
20
-100.125
11
153.769
21
-99.9478
0
LINE
8
BLACK
6
CONTINUOUS
10
153.769
20
-99.9478
11
153.791
21
-99.7709
0
LINE
8
BLACK
6
CONTINUOUS
10
153.791
20
-99.7709
11
153.852
21
-99.6033
0
LINE
8
BLACK
6
CONTINUOUS
10
153.852
20
-99.6033
11
153.949
21
-99.4534
0
LINE
8
BLACK
6
CONTINUOUS
10
153.949
20
-99.4534
11
154.076
21
-99.3286
0
LINE
8
BLACK
6
CONTINUOUS
10
154.076
20
-99.3286
11
154.228
21
-99.2351
0
LINE
8
BLACK
6
CONTINUOUS
10
154.228
20
-99.2351
11
154.397
21
-99.1777
0
LINE
8
BLACK
6
CONTINUOUS
10
154.397
20
-99.1777
11
154.575
21
-99.159
0
LINE
8
BLACK
6
CONTINUOUS
10
154.575
20
-99.159
11
154.752
21
-99.1801
0
LINE
8
BLACK
6
CONTINUOUS
10
167.696
20
-93.8361
11
167.864
21
-93.896
0
LINE
8
BLACK
6
CONTINUOUS
10
167.864
20
-93.896
11
168.014
21
-93.9915
0
LINE
8
BLACK
6
CONTINUOUS
10
168.014
20
-93.9915
11
168.14
21
-94.1181
0
LINE
8
BLACK
6
CONTINUOUS
10
168.14
20
-94.1181
11
168.234
21
-94.2693
0
LINE
8
BLACK
6
CONTINUOUS
10
168.234
20
-94.2693
11
168.293
21
-94.4378
0
LINE
8
BLACK
6
CONTINUOUS
10
168.293
20
-94.4378
11
168.313
21
-94.615
0
LINE
8
BLACK
6
CONTINUOUS
10
168.313
20
-94.615
11
168.313
21
-94.6373
0
LINE
8
BLACK
6
CONTINUOUS
10
168.313
20
-94.6373
11
168.288
21
-94.814
0
LINE
8
BLACK
6
CONTINUOUS
10
168.288
20
-94.814
11
168.225
21
-94.9807
0
LINE
8
BLACK
6
CONTINUOUS
10
168.225
20
-94.9807
11
168.126
21
-95.1292
0
LINE
8
BLACK
6
CONTINUOUS
10
168.126
20
-95.1292
11
167.997
21
-95.2522
0
LINE
8
BLACK
6
CONTINUOUS
10
167.997
20
-95.2522
11
167.843
21
-95.3435
0
LINE
8
BLACK
6
CONTINUOUS
10
167.843
20
-95.3435
11
167.674
21
-95.3987
0
LINE
8
BLACK
6
CONTINUOUS
10
167.674
20
-95.3987
11
167.496
21
-95.4148
0
LINE
8
BLACK
6
CONTINUOUS
10
167.496
20
-95.4148
11
167.319
21
-95.3912
0
LINE
8
BLACK
6
CONTINUOUS
10
167.319
20
-95.3912
11
167.307
21
-95.3866
0
LINE
8
BLACK
6
CONTINUOUS
10
167.307
20
-95.3866
11
162.954
21
-99.7393
0
LINE
8
BLACK
6
CONTINUOUS
10
162.954
20
-99.7393
11
162.969
21
-99.7818
0
LINE
8
BLACK
6
CONTINUOUS
10
162.969
20
-99.7818
11
162.989
21
-99.959
0
LINE
8
BLACK
6
CONTINUOUS
10
162.989
20
-99.959
11
162.989
21
-99.9813
0
LINE
8
BLACK
6
CONTINUOUS
10
162.989
20
-99.9813
11
162.964
21
-100.158
0
LINE
8
BLACK
6
CONTINUOUS
10
162.964
20
-100.158
11
162.901
21
-100.325
0
LINE
8
BLACK
6
CONTINUOUS
10
162.901
20
-100.325
11
162.802
21
-100.473
0
LINE
8
BLACK
6
CONTINUOUS
10
162.802
20
-100.473
11
162.673
21
-100.596
0
LINE
8
BLACK
6
CONTINUOUS
10
162.673
20
-100.596
11
162.519
21
-100.688
0
LINE
8
BLACK
6
CONTINUOUS
10
162.519
20
-100.688
11
162.35
21
-100.743
0
LINE
8
BLACK
6
CONTINUOUS
10
162.35
20
-100.743
11
162.172
21
-100.759
0
LINE
8
BLACK
6
CONTINUOUS
10
162.172
20
-100.759
11
161.995
21
-100.735
0
LINE
8
BLACK
6
CONTINUOUS
10
161.995
20
-100.735
11
161.828
21
-100.673
0
LINE
8
BLACK
6
CONTINUOUS
10
161.828
20
-100.673
11
161.679
21
-100.575
0
LINE
8
BLACK
6
CONTINUOUS
10
161.679
20
-100.575
11
161.555
21
-100.447
0
LINE
8
BLACK
6
CONTINUOUS
10
161.555
20
-100.447
11
161.463
21
-100.295
0
LINE
8
BLACK
6
CONTINUOUS
10
161.463
20
-100.295
11
161.406
21
-100.125
0
LINE
8
BLACK
6
CONTINUOUS
10
161.406
20
-100.125
11
161.389
21
-99.9478
0
LINE
8
BLACK
6
CONTINUOUS
10
161.389
20
-99.9478
11
161.411
21
-99.7709
0
LINE
8
BLACK
6
CONTINUOUS
10
161.411
20
-99.7709
11
161.472
21
-99.6033
0
LINE
8
BLACK
6
CONTINUOUS
10
161.472
20
-99.6033
11
161.569
21
-99.4534
0
LINE
8
BLACK
6
CONTINUOUS
10
161.569
20
-99.4534
11
161.696
21
-99.3286
0
LINE
8
BLACK
6
CONTINUOUS
10
161.696
20
-99.3286
11
161.848
21
-99.2351
0
LINE
8
BLACK
6
CONTINUOUS
10
161.848
20
-99.2351
11
162.017
21
-99.1777
0
LINE
8
BLACK
6
CONTINUOUS
10
162.017
20
-99.1777
11
162.195
21
-99.159
0
LINE
8
BLACK
6
CONTINUOUS
10
162.195
20
-99.159
11
162.372
21
-99.1801
0
LINE
8
BLACK
6
CONTINUOUS
10
162.372
20
-99.1801
11
162.379
21
-99.1829
0
LINE
8
BLACK
6
CONTINUOUS
10
162.379
20
-99.1829
11
166.743
21
-94.8192
0
LINE
8
BLACK
6
CONTINUOUS
10
166.743
20
-94.8192
11
166.73
21
-94.7813
0
LINE
8
BLACK
6
CONTINUOUS
10
166.73
20
-94.7813
11
166.713
21
-94.6038
0
LINE
8
BLACK
6
CONTINUOUS
10
166.713
20
-94.6038
11
166.735
21
-94.4269
0
LINE
8
BLACK
6
CONTINUOUS
10
166.735
20
-94.4269
11
166.796
21
-94.2593
0
LINE
8
BLACK
6
CONTINUOUS
10
166.796
20
-94.2593
11
166.893
21
-94.1094
0
LINE
8
BLACK
6
CONTINUOUS
10
166.893
20
-94.1094
11
167.02
21
-93.9846
0
LINE
8
BLACK
6
CONTINUOUS
10
167.02
20
-93.9846
11
167.172
21
-93.8911
0
LINE
8
BLACK
6
CONTINUOUS
10
167.172
20
-93.8911
11
167.341
21
-93.8337
0
LINE
8
BLACK
6
CONTINUOUS
10
167.341
20
-93.8337
11
167.519
21
-93.815
0
LINE
8
BLACK
6
CONTINUOUS
10
167.519
20
-93.815
11
167.696
21
-93.8361
0
LINE
8
BLACK
6
CONTINUOUS
10
139.847
20
-98.1127
11
140.036
21
-98.1521
0
LINE
8
BLACK
6
CONTINUOUS
10
140.036
20
-98.1521
11
140.212
21
-98.2285
0
LINE
8
BLACK
6
CONTINUOUS
10
140.212
20
-98.2285
11
140.37
21
-98.339
0
LINE
8
BLACK
6
CONTINUOUS
10
140.37
20
-98.339
11
140.502
21
-98.4788
0
LINE
8
BLACK
6
CONTINUOUS
10
140.502
20
-98.4788
11
140.604
21
-98.6425
0
LINE
8
BLACK
6
CONTINUOUS
10
140.604
20
-98.6425
11
140.67
21
-98.8231
0
LINE
8
BLACK
6
CONTINUOUS
10
140.67
20
-98.8231
11
140.699
21
-99.0135
0
LINE
8
BLACK
6
CONTINUOUS
10
140.699
20
-99.0135
11
140.689
21
-99.2057
0
LINE
8
BLACK
6
CONTINUOUS
10
140.689
20
-99.2057
11
140.64
21
-99.392
0
LINE
8
BLACK
6
CONTINUOUS
10
140.64
20
-99.392
11
140.555
21
-99.5647
0
LINE
8
BLACK
6
CONTINUOUS
10
140.555
20
-99.5647
11
140.437
21
-99.7169
0
LINE
8
BLACK
6
CONTINUOUS
10
140.437
20
-99.7169
11
140.291
21
-99.8421
0
LINE
8
BLACK
6
CONTINUOUS
10
140.291
20
-99.8421
11
140.123
21
-99.9355
0
LINE
8
BLACK
6
CONTINUOUS
10
140.123
20
-99.9355
11
139.939
21
-99.993
0
LINE
8
BLACK
6
CONTINUOUS
10
139.939
20
-99.993
11
139.748
21
-100.012
0
LINE
8
BLACK
6
CONTINUOUS
10
139.748
20
-100.012
11
139.653
21
-100.012
0
LINE
8
BLACK
6
CONTINUOUS
10
139.653
20
-100.012
11
139.553
21
-100.007
0
LINE
8
BLACK
6
CONTINUOUS
10
139.553
20
-100.007
11
139.364
21
-99.9679
0
LINE
8
BLACK
6
CONTINUOUS
10
139.364
20
-99.9679
11
139.188
21
-99.8915
0
LINE
8
BLACK
6
CONTINUOUS
10
139.188
20
-99.8915
11
139.03
21
-99.781
0
LINE
8
BLACK
6
CONTINUOUS
10
139.03
20
-99.781
11
138.898
21
-99.6412
0
LINE
8
BLACK
6
CONTINUOUS
10
138.898
20
-99.6412
11
138.796
21
-99.4775
0
LINE
8
BLACK
6
CONTINUOUS
10
138.796
20
-99.4775
11
138.73
21
-99.2969
0
LINE
8
BLACK
6
CONTINUOUS
10
138.73
20
-99.2969
11
138.701
21
-99.1065
0
LINE
8
BLACK
6
CONTINUOUS
10
138.701
20
-99.1065
11
138.711
21
-98.9143
0
LINE
8
BLACK
6
CONTINUOUS
10
138.711
20
-98.9143
11
138.76
21
-98.728
0
LINE
8
BLACK
6
CONTINUOUS
10
138.76
20
-98.728
11
138.845
21
-98.5553
0
LINE
8
BLACK
6
CONTINUOUS
10
138.845
20
-98.5553
11
138.963
21
-98.4031
0
LINE
8
BLACK
6
CONTINUOUS
10
138.963
20
-98.4031
11
139.109
21
-98.2779
0
LINE
8
BLACK
6
CONTINUOUS
10
139.109
20
-98.2779
11
139.277
21
-98.1845
0
LINE
8
BLACK
6
CONTINUOUS
10
139.277
20
-98.1845
11
139.461
21
-98.127
0
LINE
8
BLACK
6
CONTINUOUS
10
139.461
20
-98.127
11
139.653
21
-98.1075
0
LINE
8
BLACK
6
CONTINUOUS
10
139.653
20
-98.1075
11
139.748
21
-98.1075
0
LINE
8
BLACK
6
CONTINUOUS
10
139.748
20
-98.1075
11
139.847
21
-98.1127
0
LINE
8
BLACK
6
CONTINUOUS
10
129.803
20
-98.2516
11
129.965
21
-98.3239
0
LINE
8
BLACK
6
CONTINUOUS
10
129.965
20
-98.3239
11
130.109
21
-98.4283
0
LINE
8
BLACK
6
CONTINUOUS
10
130.109
20
-98.4283
11
130.228
21
-98.5604
0
LINE
8
BLACK
6
CONTINUOUS
10
130.228
20
-98.5604
11
130.317
21
-98.7143
0
LINE
8
BLACK
6
CONTINUOUS
10
130.317
20
-98.7143
11
130.371
21
-98.8833
0
LINE
8
BLACK
6
CONTINUOUS
10
130.371
20
-98.8833
11
130.39
21
-99.06
0
LINE
8
BLACK
6
CONTINUOUS
10
130.39
20
-99.06
11
130.371
21
-99.2367
0
LINE
8
BLACK
6
CONTINUOUS
10
130.371
20
-99.2367
11
130.317
21
-99.4057
0
LINE
8
BLACK
6
CONTINUOUS
10
130.317
20
-99.4057
11
130.228
21
-99.5596
0
LINE
8
BLACK
6
CONTINUOUS
10
130.228
20
-99.5596
11
130.109
21
-99.6917
0
LINE
8
BLACK
6
CONTINUOUS
10
130.109
20
-99.6917
11
129.965
21
-99.7961
0
LINE
8
BLACK
6
CONTINUOUS
10
129.965
20
-99.7961
11
129.803
21
-99.8684
0
LINE
8
BLACK
6
CONTINUOUS
10
129.803
20
-99.8684
11
129.629
21
-99.9053
0
LINE
8
BLACK
6
CONTINUOUS
10
129.629
20
-99.9053
11
129.451
21
-99.9053
0
LINE
8
BLACK
6
CONTINUOUS
10
129.451
20
-99.9053
11
129.277
21
-99.8684
0
LINE
8
BLACK
6
CONTINUOUS
10
129.277
20
-99.8684
11
129.115
21
-99.7961
0
LINE
8
BLACK
6
CONTINUOUS
10
129.115
20
-99.7961
11
128.971
21
-99.6917
0
LINE
8
BLACK
6
CONTINUOUS
10
128.971
20
-99.6917
11
128.852
21
-99.5596
0
LINE
8
BLACK
6
CONTINUOUS
10
128.852
20
-99.5596
11
128.763
21
-99.4057
0
LINE
8
BLACK
6
CONTINUOUS
10
128.763
20
-99.4057
11
128.709
21
-99.2367
0
LINE
8
BLACK
6
CONTINUOUS
10
128.709
20
-99.2367
11
128.69
21
-99.06
0
LINE
8
BLACK
6
CONTINUOUS
10
128.69
20
-99.06
11
128.709
21
-98.8833
0
LINE
8
BLACK
6
CONTINUOUS
10
128.709
20
-98.8833
11
128.763
21
-98.7143
0
LINE
8
BLACK
6
CONTINUOUS
10
128.763
20
-98.7143
11
128.852
21
-98.5604
0
LINE
8
BLACK
6
CONTINUOUS
10
128.852
20
-98.5604
11
128.971
21
-98.4283
0
LINE
8
BLACK
6
CONTINUOUS
10
128.971
20
-98.4283
11
129.115
21
-98.3239
0
LINE
8
BLACK
6
CONTINUOUS
10
129.115
20
-98.3239
11
129.277
21
-98.2516
0
LINE
8
BLACK
6
CONTINUOUS
10
129.277
20
-98.2516
11
129.451
21
-98.2147
0
LINE
8
BLACK
6
CONTINUOUS
10
129.451
20
-98.2147
11
129.629
21
-98.2147
0
LINE
8
BLACK
6
CONTINUOUS
10
129.629
20
-98.2147
11
129.803
21
-98.2516
0
LINE
8
BLACK
6
CONTINUOUS
10
129.803
20
-95.7116
11
129.965
21
-95.7839
0
LINE
8
BLACK
6
CONTINUOUS
10
129.965
20
-95.7839
11
130.109
21
-95.8883
0
LINE
8
BLACK
6
CONTINUOUS
10
130.109
20
-95.8883
11
130.228
21
-96.0204
0
LINE
8
BLACK
6
CONTINUOUS
10
130.228
20
-96.0204
11
130.317
21
-96.1743
0
LINE
8
BLACK
6
CONTINUOUS
10
130.317
20
-96.1743
11
130.371
21
-96.3433
0
LINE
8
BLACK
6
CONTINUOUS
10
130.371
20
-96.3433
11
130.39
21
-96.52
0
LINE
8
BLACK
6
CONTINUOUS
10
130.39
20
-96.52
11
130.371
21
-96.6967
0
LINE
8
BLACK
6
CONTINUOUS
10
130.371
20
-96.6967
11
130.317
21
-96.8657
0
LINE
8
BLACK
6
CONTINUOUS
10
130.317
20
-96.8657
11
130.228
21
-97.0196
0
LINE
8
BLACK
6
CONTINUOUS
10
130.228
20
-97.0196
11
130.109
21
-97.1517
0
LINE
8
BLACK
6
CONTINUOUS
10
130.109
20
-97.1517
11
129.965
21
-97.2561
0
LINE
8
BLACK
6
CONTINUOUS
10
129.965
20
-97.2561
11
129.803
21
-97.3284
0
LINE
8
BLACK
6
CONTINUOUS
10
129.803
20
-97.3284
11
129.629
21
-97.3653
0
LINE
8
BLACK
6
CONTINUOUS
10
129.629
20
-97.3653
11
129.451
21
-97.3653
0
LINE
8
BLACK
6
CONTINUOUS
10
129.451
20
-97.3653
11
129.277
21
-97.3284
0
LINE
8
BLACK
6
CONTINUOUS
10
129.277
20
-97.3284
11
129.115
21
-97.2561
0
LINE
8
BLACK
6
CONTINUOUS
10
129.115
20
-97.2561
11
128.971
21
-97.1517
0
LINE
8
BLACK
6
CONTINUOUS
10
128.971
20
-97.1517
11
128.852
21
-97.0196
0
LINE
8
BLACK
6
CONTINUOUS
10
128.852
20
-97.0196
11
128.763
21
-96.8657
0
LINE
8
BLACK
6
CONTINUOUS
10
128.763
20
-96.8657
11
128.709
21
-96.6967
0
LINE
8
BLACK
6
CONTINUOUS
10
128.709
20
-96.6967
11
128.69
21
-96.52
0
LINE
8
BLACK
6
CONTINUOUS
10
128.69
20
-96.52
11
128.709
21
-96.3433
0
LINE
8
BLACK
6
CONTINUOUS
10
128.709
20
-96.3433
11
128.763
21
-96.1743
0
LINE
8
BLACK
6
CONTINUOUS
10
128.763
20
-96.1743
11
128.852
21
-96.0204
0
LINE
8
BLACK
6
CONTINUOUS
10
128.852
20
-96.0204
11
128.971
21
-95.8883
0
LINE
8
BLACK
6
CONTINUOUS
10
128.971
20
-95.8883
11
129.115
21
-95.7839
0
LINE
8
BLACK
6
CONTINUOUS
10
129.115
20
-95.7839
11
129.277
21
-95.7116
0
LINE
8
BLACK
6
CONTINUOUS
10
129.277
20
-95.7116
11
129.451
21
-95.6747
0
LINE
8
BLACK
6
CONTINUOUS
10
129.451
20
-95.6747
11
129.629
21
-95.6747
0
LINE
8
BLACK
6
CONTINUOUS
10
129.629
20
-95.6747
11
129.803
21
-95.7116
0
LINE
8
BLACK
6
CONTINUOUS
10
175.316
20
-93.8361
11
175.484
21
-93.896
0
LINE
8
BLACK
6
CONTINUOUS
10
175.484
20
-93.896
11
175.634
21
-93.9915
0
LINE
8
BLACK
6
CONTINUOUS
10
175.634
20
-93.9915
11
175.76
21
-94.1181
0
LINE
8
BLACK
6
CONTINUOUS
10
175.76
20
-94.1181
11
175.821
21
-94.215
0
LINE
8
BLACK
6
CONTINUOUS
10
175.821
20
-94.215
11
178.618
21
-94.215
0
LINE
8
BLACK
6
CONTINUOUS
10
178.618
20
-94.215
11
178.679
21
-94.1659
0
LINE
8
BLACK
6
CONTINUOUS
10
178.679
20
-94.1659
11
178.81
21
-94.1093
0
LINE
8
BLACK
6
CONTINUOUS
10
178.81
20
-94.1093
11
178.951
21
-94.09
0
LINE
8
BLACK
6
CONTINUOUS
10
178.951
20
-94.09
11
179.401
21
-94.09
0
LINE
8
BLACK
6
CONTINUOUS
10
179.401
20
-94.09
11
179.478
21
-94.0956
0
LINE
8
BLACK
6
CONTINUOUS
10
179.478
20
-94.0956
11
179.615
21
-94.1354
0
LINE
8
BLACK
6
CONTINUOUS
10
179.615
20
-94.1354
11
179.736
21
-94.2105
0
LINE
8
BLACK
6
CONTINUOUS
10
179.736
20
-94.2105
11
179.832
21
-94.3154
0
LINE
8
BLACK
6
CONTINUOUS
10
179.832
20
-94.3154
11
179.897
21
-94.4423
0
LINE
8
BLACK
6
CONTINUOUS
10
179.897
20
-94.4423
11
179.925
21
-94.582
0
LINE
8
BLACK
6
CONTINUOUS
10
179.925
20
-94.582
11
179.915
21
-94.7242
0
LINE
8
BLACK
6
CONTINUOUS
10
179.915
20
-94.7242
11
179.866
21
-94.8582
0
LINE
8
BLACK
6
CONTINUOUS
10
179.866
20
-94.8582
11
179.784
21
-94.9744
0
LINE
8
BLACK
6
CONTINUOUS
10
179.784
20
-94.9744
11
179.673
21
-95.0641
0
LINE
8
BLACK
6
CONTINUOUS
10
179.673
20
-95.0641
11
179.542
21
-95.1207
0
LINE
8
BLACK
6
CONTINUOUS
10
179.542
20
-95.1207
11
179.401
21
-95.14
0
LINE
8
BLACK
6
CONTINUOUS
10
179.401
20
-95.14
11
178.951
21
-95.14
0
LINE
8
BLACK
6
CONTINUOUS
10
178.951
20
-95.14
11
178.874
21
-95.1344
0
LINE
8
BLACK
6
CONTINUOUS
10
178.874
20
-95.1344
11
178.737
21
-95.0946
0
LINE
8
BLACK
6
CONTINUOUS
10
178.737
20
-95.0946
11
178.616
21
-95.0195
0
LINE
8
BLACK
6
CONTINUOUS
10
178.616
20
-95.0195
11
178.612
21
-95.015
0
LINE
8
BLACK
6
CONTINUOUS
10
178.612
20
-95.015
11
175.822
21
-95.015
0
LINE
8
BLACK
6
CONTINUOUS
10
175.822
20
-95.015
11
175.746
21
-95.1292
0
LINE
8
BLACK
6
CONTINUOUS
10
175.746
20
-95.1292
11
175.617
21
-95.2522
0
LINE
8
BLACK
6
CONTINUOUS
10
175.617
20
-95.2522
11
175.463
21
-95.3435
0
LINE
8
BLACK
6
CONTINUOUS
10
175.463
20
-95.3435
11
175.294
21
-95.3987
0
LINE
8
BLACK
6
CONTINUOUS
10
175.294
20
-95.3987
11
175.116
21
-95.4148
0
LINE
8
BLACK
6
CONTINUOUS
10
175.116
20
-95.4148
11
174.939
21
-95.3912
0
LINE
8
BLACK
6
CONTINUOUS
10
174.939
20
-95.3912
11
174.772
21
-95.3291
0
LINE
8
BLACK
6
CONTINUOUS
10
174.772
20
-95.3291
11
174.623
21
-95.2314
0
LINE
8
BLACK
6
CONTINUOUS
10
174.623
20
-95.2314
11
174.499
21
-95.1031
0
LINE
8
BLACK
6
CONTINUOUS
10
174.499
20
-95.1031
11
174.407
21
-94.9506
0
LINE
8
BLACK
6
CONTINUOUS
10
174.407
20
-94.9506
11
174.35
21
-94.7813
0
LINE
8
BLACK
6
CONTINUOUS
10
174.35
20
-94.7813
11
174.333
21
-94.6038
0
LINE
8
BLACK
6
CONTINUOUS
10
174.333
20
-94.6038
11
174.355
21
-94.4269
0
LINE
8
BLACK
6
CONTINUOUS
10
174.355
20
-94.4269
11
174.416
21
-94.2593
0
LINE
8
BLACK
6
CONTINUOUS
10
174.416
20
-94.2593
11
174.513
21
-94.1094
0
LINE
8
BLACK
6
CONTINUOUS
10
174.513
20
-94.1094
11
174.64
21
-93.9846
0
LINE
8
BLACK
6
CONTINUOUS
10
174.64
20
-93.9846
11
174.792
21
-93.8911
0
LINE
8
BLACK
6
CONTINUOUS
10
174.792
20
-93.8911
11
174.961
21
-93.8337
0
LINE
8
BLACK
6
CONTINUOUS
10
174.961
20
-93.8337
11
175.139
21
-93.815
0
LINE
8
BLACK
6
CONTINUOUS
10
175.139
20
-93.815
11
175.316
21
-93.8361
0
LINE
8
BLACK
6
CONTINUOUS
10
130.39
20
-94.83
11
128.69
21
-94.83
0
LINE
8
BLACK
6
CONTINUOUS
10
128.69
20
-94.83
11
128.69
21
-93.13
0
LINE
8
BLACK
6
CONTINUOUS
10
128.69
20
-93.13
11
130.39
21
-93.13
0
LINE
8
BLACK
6
CONTINUOUS
10
130.39
20
-93.13
11
130.39
21
-94.83
  0
ENDSEC
  0
EOF
