%TF.GenerationSoftware,KiCad,Pcbnew,6.0.10-86aedd382b~118~ubuntu20.04.1*%
%TF.CreationDate,2023-01-04T17:25:00+02:00*%
%TF.ProjectId,PSU controller,50535520-636f-46e7-9472-6f6c6c65722e,rev?*%
%TF.SameCoordinates,Original*%
%TF.FileFunction,Copper,L1,Top*%
%TF.FilePolarity,Positive*%
%FSLAX46Y46*%
G04 Gerber Fmt 4.6, Leading zero omitted, Abs format (unit mm)*
G04 Created by KiCad (PCBNEW 6.0.10-86aedd382b~118~ubuntu20.04.1) date 2023-01-04 17:25:00*
%MOMM*%
%LPD*%
G01*
G04 APERTURE LIST*
%TA.AperFunction,Profile*%
%ADD10C,0.100000*%
%TD*%
%TA.AperFunction,ComponentPad*%
%ADD11O,1.500000X1.500000*%
%TD*%
%TA.AperFunction,ComponentPad*%
%ADD12R,1.500000X1.500000*%
%TD*%
%TA.AperFunction,ComponentPad*%
%ADD13C,2.500000*%
%TD*%
%TA.AperFunction,ComponentPad*%
%ADD14C,3.000000*%
%TD*%
%TA.AperFunction,ComponentPad*%
%ADD15O,1.050000X1.500000*%
%TD*%
%TA.AperFunction,ComponentPad*%
%ADD16R,1.050000X1.500000*%
%TD*%
%TA.AperFunction,ComponentPad*%
%ADD17O,1.700000X1.700000*%
%TD*%
%TA.AperFunction,ComponentPad*%
%ADD18R,1.700000X1.700000*%
%TD*%
%TA.AperFunction,ComponentPad*%
%ADD19R,3.000000X3.000000*%
%TD*%
%TA.AperFunction,ComponentPad*%
%ADD20O,1.600000X1.600000*%
%TD*%
%TA.AperFunction,ComponentPad*%
%ADD21C,1.600000*%
%TD*%
%TA.AperFunction,ComponentPad*%
%ADD22R,1.600000X1.600000*%
%TD*%
%TA.AperFunction,ComponentPad*%
%ADD23O,1.800000X1.800000*%
%TD*%
%TA.AperFunction,ComponentPad*%
%ADD24R,1.800000X1.800000*%
%TD*%
%TA.AperFunction,Conductor*%
%ADD25C,1.500000*%
%TD*%
%TA.AperFunction,Conductor*%
%ADD26C,0.800000*%
%TD*%
G04 APERTURE END LIST*
D10*
X0Y32385000D02*
X47625000Y32385000D01*
X47625000Y15240000D02*
X47625000Y0D01*
X47625000Y32385000D02*
X47625000Y15875000D01*
X0Y0D02*
X0Y32385000D01*
X47625000Y15875000D02*
X47625000Y15240000D01*
X47625000Y0D02*
X0Y0D01*
D11*
X42545000Y24125000D03*
D12*
X42545000Y16505000D03*
D13*
X16110000Y26235000D03*
D14*
X16160000Y13985000D03*
X4110000Y14035000D03*
D13*
X4110000Y26235000D03*
D14*
X10160000Y28185000D03*
D15*
X41165424Y27305000D03*
X39895424Y27305000D03*
D16*
X38625424Y27305000D03*
D18*
X42535000Y5055000D03*
D14*
X15875000Y4445000D03*
D19*
X20955000Y4445000D03*
D20*
X45085000Y24130000D03*
D21*
X45085000Y16510000D03*
D20*
X37465000Y24130000D03*
D21*
X37465000Y16510000D03*
D20*
X40005000Y16510000D03*
D21*
X40005000Y24130000D03*
X40025000Y8255000D03*
X42525000Y8255000D03*
X38640000Y12700000D03*
D22*
X40640000Y12700000D03*
D23*
X44958000Y10824000D03*
D24*
X44958000Y13364000D03*
D14*
X10160000Y4445000D03*
D19*
X5080000Y4445000D03*
D13*
X33890000Y26235000D03*
D14*
X33940000Y13985000D03*
X21890000Y14035000D03*
D13*
X21890000Y26235000D03*
D14*
X27940000Y28185000D03*
D25*
X27940000Y28185000D02*
X27940000Y11430000D01*
X27940000Y11430000D02*
X20955000Y4445000D01*
X10160000Y28185000D02*
X1660000Y19685000D01*
X3085000Y1995000D02*
X13425000Y1995000D01*
X1660000Y3420000D02*
X3085000Y1995000D01*
X1660000Y19685000D02*
X1660000Y3420000D01*
X13425000Y1995000D02*
X15875000Y4445000D01*
X4110000Y14035000D02*
X4110000Y5415000D01*
X4110000Y5415000D02*
X5080000Y4445000D01*
X19750000Y14035000D02*
X10160000Y4445000D01*
X21890000Y14035000D02*
X19750000Y14035000D01*
D26*
X29840000Y30285000D02*
X20160000Y30285000D01*
X44958000Y10688000D02*
X42525000Y8255000D01*
X42535000Y5055000D02*
X39385000Y1905000D01*
X40640000Y10140000D02*
X42525000Y8255000D01*
X30114999Y4665787D02*
X30114999Y22459999D01*
X40640000Y12700000D02*
X40640000Y10140000D01*
X39385000Y1905000D02*
X32875786Y1905000D01*
X40640000Y14600000D02*
X40640000Y12700000D01*
X42535000Y5070000D02*
X42545000Y5080000D01*
X32875786Y1905000D02*
X30114999Y4665787D01*
X44958000Y10824000D02*
X44958000Y10688000D01*
X42545000Y16505000D02*
X40640000Y14600000D01*
X30114999Y22459999D02*
X33890000Y26235000D01*
X20160000Y30285000D02*
X16110000Y26235000D01*
X42525000Y5100000D02*
X42525000Y8255000D01*
X33890000Y26235000D02*
X29840000Y30285000D01*
X42535000Y5055000D02*
X42535000Y5070000D01*
X42525000Y8255000D02*
X42545000Y8255000D01*
X42545000Y5080000D02*
X42525000Y5100000D01*
X37455000Y5055000D02*
X35575000Y3175000D01*
X33020000Y3175000D02*
X31115000Y5080000D01*
X38640000Y9640000D02*
X40025000Y8255000D01*
X36195000Y24130000D02*
X37465000Y24130000D01*
X35575000Y3175000D02*
X33020000Y3175000D01*
X37455000Y5055000D02*
X39995000Y5055000D01*
X39995000Y8225000D02*
X40025000Y8255000D01*
X37465000Y26144576D02*
X38625424Y27305000D01*
X39995000Y5055000D02*
X39995000Y8225000D01*
X38640000Y12700000D02*
X38640000Y9640000D01*
X31115000Y5080000D02*
X31115000Y19050000D01*
X37465000Y24130000D02*
X37465000Y26144576D01*
X31115000Y19050000D02*
X36195000Y24130000D01*
X36830000Y8890000D02*
X34915000Y6975000D01*
X34915000Y6975000D02*
X34915000Y5055000D01*
X40005000Y16510000D02*
X36830000Y13335000D01*
X36830000Y13335000D02*
X36830000Y8890000D01*
X41165424Y27305000D02*
X41165424Y25504576D01*
X15598704Y24130000D02*
X19785000Y24130000D01*
X16045001Y31285001D02*
X14260000Y29500000D01*
X19785000Y24130000D02*
X21890000Y26235000D01*
X41165424Y25504576D02*
X42545000Y24125000D01*
X16045001Y31285001D02*
X9160001Y31285001D01*
X14260000Y25468704D02*
X15598704Y24130000D01*
X9160001Y31285001D02*
X4110000Y26235000D01*
X41165424Y27305000D02*
X41165424Y28855000D01*
X41165424Y28855000D02*
X38735423Y31285001D01*
X38735423Y31285001D02*
X16045001Y31285001D01*
X14260000Y29500000D02*
X14260000Y25468704D01*
X42545000Y24125000D02*
X45080000Y24125000D01*
X45080000Y24125000D02*
X45085000Y24130000D01*
X45085000Y16510000D02*
X45085000Y13491000D01*
X45085000Y13491000D02*
X44958000Y13364000D01*
X37465000Y21590000D02*
X40005000Y24130000D01*
X37465000Y16510000D02*
X37465000Y21590000D01*
X40005000Y24130000D02*
X40005000Y27195424D01*
X40005000Y27195424D02*
X39895424Y27305000D01*
M02*
