%TF.GenerationSoftware,KiCad,Pcbnew,6.0.10-86aedd382b~118~ubuntu20.04.1*%
%TF.CreationDate,2023-01-05T00:51:07+02:00*%
%TF.ProjectId,PSU controller,50535520-636f-46e7-9472-6f6c6c65722e,rev?*%
%TF.SameCoordinates,Original*%
%TF.FileFunction,Copper,L1,Top*%
%TF.FilePolarity,Positive*%
%FSLAX46Y46*%
G04 Gerber Fmt 4.6, Leading zero omitted, Abs format (unit mm)*
G04 Created by KiCad (PCBNEW 6.0.10-86aedd382b~118~ubuntu20.04.1) date 2023-01-05 00:51:07*
%MOMM*%
%LPD*%
G01*
G04 APERTURE LIST*
%TA.AperFunction,Profile*%
%ADD10C,0.100000*%
%TD*%
%TA.AperFunction,ComponentPad*%
%ADD11O,1.500000X1.500000*%
%TD*%
%TA.AperFunction,ComponentPad*%
%ADD12R,1.500000X1.500000*%
%TD*%
%TA.AperFunction,ComponentPad*%
%ADD13C,2.500000*%
%TD*%
%TA.AperFunction,ComponentPad*%
%ADD14C,3.000000*%
%TD*%
%TA.AperFunction,ComponentPad*%
%ADD15O,1.050000X1.500000*%
%TD*%
%TA.AperFunction,ComponentPad*%
%ADD16R,1.050000X1.500000*%
%TD*%
%TA.AperFunction,ComponentPad*%
%ADD17O,1.700000X1.700000*%
%TD*%
%TA.AperFunction,ComponentPad*%
%ADD18R,1.700000X1.700000*%
%TD*%
%TA.AperFunction,ComponentPad*%
%ADD19R,3.000000X3.000000*%
%TD*%
%TA.AperFunction,ComponentPad*%
%ADD20O,1.600000X1.600000*%
%TD*%
%TA.AperFunction,ComponentPad*%
%ADD21C,1.600000*%
%TD*%
%TA.AperFunction,ComponentPad*%
%ADD22R,1.600000X1.600000*%
%TD*%
%TA.AperFunction,ComponentPad*%
%ADD23O,1.800000X1.800000*%
%TD*%
%TA.AperFunction,ComponentPad*%
%ADD24R,1.800000X1.800000*%
%TD*%
%TA.AperFunction,Conductor*%
%ADD25C,1.500000*%
%TD*%
%TA.AperFunction,Conductor*%
%ADD26C,0.800000*%
%TD*%
G04 APERTURE END LIST*
D10*
X5000000Y37385000D02*
X52625000Y37385000D01*
X52625000Y20240000D02*
X52625000Y5000000D01*
X52625000Y37385000D02*
X52625000Y20875000D01*
X5000000Y5000000D02*
X5000000Y37385000D01*
X52625000Y20875000D02*
X52625000Y20240000D01*
X52625000Y5000000D02*
X5000000Y5000000D01*
D11*
X47545000Y29125000D03*
D12*
X47545000Y21505000D03*
D13*
X21110000Y31235000D03*
D14*
X21160000Y18985000D03*
X9110000Y19035000D03*
D13*
X9110000Y31235000D03*
D14*
X15160000Y33185000D03*
D15*
X46165424Y32305000D03*
X44895424Y32305000D03*
D16*
X43625424Y32305000D03*
D17*
X39915000Y10055000D03*
X42455000Y10055000D03*
X44995000Y10055000D03*
D18*
X47535000Y10055000D03*
D14*
X20875000Y9445000D03*
D19*
X25955000Y9445000D03*
D20*
X50085000Y29130000D03*
D21*
X50085000Y21510000D03*
D20*
X42465000Y29130000D03*
D21*
X42465000Y21510000D03*
D20*
X45005000Y21510000D03*
D21*
X45005000Y29130000D03*
X45025000Y13255000D03*
X47525000Y13255000D03*
X43640000Y17700000D03*
D22*
X45640000Y17700000D03*
D23*
X49958000Y15824000D03*
D24*
X49958000Y18364000D03*
D14*
X15160000Y9445000D03*
D19*
X10080000Y9445000D03*
D13*
X38890000Y31235000D03*
D14*
X38940000Y18985000D03*
X26890000Y19035000D03*
D13*
X26890000Y31235000D03*
D14*
X32940000Y33185000D03*
D25*
X32940000Y33185000D02*
X32940000Y16430000D01*
X32940000Y16430000D02*
X25955000Y9445000D01*
X15160000Y33185000D02*
X6660000Y24685000D01*
X8085000Y6995000D02*
X18425000Y6995000D01*
X6660000Y8420000D02*
X8085000Y6995000D01*
X6660000Y24685000D02*
X6660000Y8420000D01*
X18425000Y6995000D02*
X20875000Y9445000D01*
X9110000Y19035000D02*
X9110000Y10415000D01*
X9110000Y10415000D02*
X10080000Y9445000D01*
X24750000Y19035000D02*
X15160000Y9445000D01*
X26890000Y19035000D02*
X24750000Y19035000D01*
D26*
X34840000Y35285000D02*
X25160000Y35285000D01*
X49958000Y15688000D02*
X47525000Y13255000D01*
X47535000Y10055000D02*
X44385000Y6905000D01*
X45640000Y15140000D02*
X47525000Y13255000D01*
X35114999Y9665787D02*
X35114999Y27459999D01*
X45640000Y17700000D02*
X45640000Y15140000D01*
X44385000Y6905000D02*
X37875786Y6905000D01*
X45640000Y19600000D02*
X45640000Y17700000D01*
X47535000Y10070000D02*
X47545000Y10080000D01*
X37875786Y6905000D02*
X35114999Y9665787D01*
X49958000Y15824000D02*
X49958000Y15688000D01*
X47545000Y21505000D02*
X45640000Y19600000D01*
X35114999Y27459999D02*
X38890000Y31235000D01*
X25160000Y35285000D02*
X21110000Y31235000D01*
X47525000Y10100000D02*
X47525000Y13255000D01*
X38890000Y31235000D02*
X34840000Y35285000D01*
X47535000Y10055000D02*
X47535000Y10070000D01*
X47525000Y13255000D02*
X47545000Y13255000D01*
X47545000Y10080000D02*
X47525000Y10100000D01*
X42455000Y10055000D02*
X40575000Y8175000D01*
X38020000Y8175000D02*
X36115000Y10080000D01*
X43640000Y14640000D02*
X45025000Y13255000D01*
X41195000Y29130000D02*
X42465000Y29130000D01*
X40575000Y8175000D02*
X38020000Y8175000D01*
X42455000Y10055000D02*
X44995000Y10055000D01*
X44995000Y13225000D02*
X45025000Y13255000D01*
X42465000Y31144576D02*
X43625424Y32305000D01*
X44995000Y10055000D02*
X44995000Y13225000D01*
X43640000Y17700000D02*
X43640000Y14640000D01*
X36115000Y10080000D02*
X36115000Y24050000D01*
X42465000Y29130000D02*
X42465000Y31144576D01*
X36115000Y24050000D02*
X41195000Y29130000D01*
X41830000Y13890000D02*
X39915000Y11975000D01*
X39915000Y11975000D02*
X39915000Y10055000D01*
X45005000Y21510000D02*
X41830000Y18335000D01*
X41830000Y18335000D02*
X41830000Y13890000D01*
X46165424Y32305000D02*
X46165424Y30504576D01*
X20598704Y29130000D02*
X24785000Y29130000D01*
X21045001Y36285001D02*
X19260000Y34500000D01*
X24785000Y29130000D02*
X26890000Y31235000D01*
X46165424Y30504576D02*
X47545000Y29125000D01*
X21045001Y36285001D02*
X14160001Y36285001D01*
X19260000Y30468704D02*
X20598704Y29130000D01*
X14160001Y36285001D02*
X9110000Y31235000D01*
X46165424Y32305000D02*
X46165424Y33855000D01*
X46165424Y33855000D02*
X43735423Y36285001D01*
X43735423Y36285001D02*
X21045001Y36285001D01*
X19260000Y34500000D02*
X19260000Y30468704D01*
X47545000Y29125000D02*
X50080000Y29125000D01*
X50080000Y29125000D02*
X50085000Y29130000D01*
X50085000Y21510000D02*
X50085000Y18491000D01*
X50085000Y18491000D02*
X49958000Y18364000D01*
X42465000Y26590000D02*
X45005000Y29130000D01*
X42465000Y21510000D02*
X42465000Y26590000D01*
X45005000Y29130000D02*
X45005000Y32195424D01*
X45005000Y32195424D02*
X44895424Y32305000D01*
M02*
