%TF.GenerationSoftware,KiCad,Pcbnew,6.0.10-86aedd382b~118~ubuntu20.04.1*%
%TF.CreationDate,2023-01-05T00:51:07+02:00*%
%TF.ProjectId,PSU controller,50535520-636f-46e7-9472-6f6c6c65722e,rev?*%
%TF.SameCoordinates,Original*%
%TF.FileFunction,Copper,L1,Top*%
%TF.FilePolarity,Positive*%
%FSLAX46Y46*%
G04 Gerber Fmt 4.6, Leading zero omitted, Abs format (unit mm)*
G04 Created by KiCad (PCBNEW 6.0.10-86aedd382b~118~ubuntu20.04.1) date 2023-01-05 00:51:07*
%MOMM*%
%LPD*%
G01*
G04 APERTURE LIST*
%TA.AperFunction,Profile*%
%ADD10C,0.100000*%
%TD*%
%TA.AperFunction,ComponentPad*%
%ADD11O,1.500000X1.500000*%
%TD*%
%TA.AperFunction,ComponentPad*%
%ADD12R,1.500000X1.500000*%
%TD*%
%TA.AperFunction,ComponentPad*%
%ADD13C,2.500000*%
%TD*%
%TA.AperFunction,ComponentPad*%
%ADD14C,3.000000*%
%TD*%
%TA.AperFunction,ComponentPad*%
%ADD15O,1.050000X1.500000*%
%TD*%
%TA.AperFunction,ComponentPad*%
%ADD16R,1.050000X1.500000*%
%TD*%
%TA.AperFunction,ComponentPad*%
%ADD17O,1.700000X1.700000*%
%TD*%
%TA.AperFunction,ComponentPad*%
%ADD18R,1.700000X1.700000*%
%TD*%
%TA.AperFunction,ComponentPad*%
%ADD19R,3.000000X3.000000*%
%TD*%
%TA.AperFunction,ComponentPad*%
%ADD20O,1.600000X1.600000*%
%TD*%
%TA.AperFunction,ComponentPad*%
%ADD21C,1.600000*%
%TD*%
%TA.AperFunction,ComponentPad*%
%ADD22R,1.600000X1.600000*%
%TD*%
%TA.AperFunction,ComponentPad*%
%ADD23O,1.800000X1.800000*%
%TD*%
%TA.AperFunction,ComponentPad*%
%ADD24R,1.800000X1.800000*%
%TD*%
%TA.AperFunction,Conductor*%
%ADD25C,1.500000*%
%TD*%
%TA.AperFunction,Conductor*%
%ADD26C,0.800000*%
%TD*%
G04 APERTURE END LIST*
D10*
X3000000Y38385000D02*
X50625000Y38385000D01*
X50625000Y21240000D02*
X50625000Y6000000D01*
X50625000Y38385000D02*
X50625000Y21875000D01*
X3000000Y6000000D02*
X3000000Y38385000D01*
X50625000Y21875000D02*
X50625000Y21240000D01*
X50625000Y6000000D02*
X3000000Y6000000D01*
D11*
X45545000Y30125000D03*
D12*
X45545000Y22505000D03*
D13*
X19110000Y32235000D03*
D14*
X19160000Y19985000D03*
X7110000Y20035000D03*
D13*
X7110000Y32235000D03*
D14*
X13160000Y34185000D03*
D15*
X44165424Y33305000D03*
X42895424Y33305000D03*
D16*
X41625424Y33305000D03*
D17*
X37915000Y11055000D03*
X40455000Y11055000D03*
X42995000Y11055000D03*
D18*
X45535000Y11055000D03*
D14*
X18875000Y10445000D03*
D19*
X23955000Y10445000D03*
D20*
X48085000Y30130000D03*
D21*
X48085000Y22510000D03*
D20*
X40465000Y30130000D03*
D21*
X40465000Y22510000D03*
D20*
X43005000Y22510000D03*
D21*
X43005000Y30130000D03*
X43025000Y14255000D03*
X45525000Y14255000D03*
X41640000Y18700000D03*
D22*
X43640000Y18700000D03*
D23*
X47958000Y16824000D03*
D24*
X47958000Y19364000D03*
D14*
X13160000Y10445000D03*
D19*
X8080000Y10445000D03*
D13*
X36890000Y32235000D03*
D14*
X36940000Y19985000D03*
X24890000Y20035000D03*
D13*
X24890000Y32235000D03*
D14*
X30940000Y34185000D03*
D25*
X30940000Y34185000D02*
X30940000Y17430000D01*
X30940000Y17430000D02*
X23955000Y10445000D01*
X13160000Y34185000D02*
X4660000Y25685000D01*
X6085000Y7995000D02*
X16425000Y7995000D01*
X4660000Y9420000D02*
X6085000Y7995000D01*
X4660000Y25685000D02*
X4660000Y9420000D01*
X16425000Y7995000D02*
X18875000Y10445000D01*
X7110000Y20035000D02*
X7110000Y11415000D01*
X7110000Y11415000D02*
X8080000Y10445000D01*
X22750000Y20035000D02*
X13160000Y10445000D01*
X24890000Y20035000D02*
X22750000Y20035000D01*
D26*
X32840000Y36285000D02*
X23160000Y36285000D01*
X47958000Y16688000D02*
X45525000Y14255000D01*
X45535000Y11055000D02*
X42385000Y7905000D01*
X43640000Y16140000D02*
X45525000Y14255000D01*
X33114999Y10665787D02*
X33114999Y28459999D01*
X43640000Y18700000D02*
X43640000Y16140000D01*
X42385000Y7905000D02*
X35875786Y7905000D01*
X43640000Y20600000D02*
X43640000Y18700000D01*
X45535000Y11070000D02*
X45545000Y11080000D01*
X35875786Y7905000D02*
X33114999Y10665787D01*
X47958000Y16824000D02*
X47958000Y16688000D01*
X45545000Y22505000D02*
X43640000Y20600000D01*
X33114999Y28459999D02*
X36890000Y32235000D01*
X23160000Y36285000D02*
X19110000Y32235000D01*
X45525000Y11100000D02*
X45525000Y14255000D01*
X36890000Y32235000D02*
X32840000Y36285000D01*
X45535000Y11055000D02*
X45535000Y11070000D01*
X45525000Y14255000D02*
X45545000Y14255000D01*
X45545000Y11080000D02*
X45525000Y11100000D01*
X40455000Y11055000D02*
X38575000Y9175000D01*
X36020000Y9175000D02*
X34115000Y11080000D01*
X41640000Y15640000D02*
X43025000Y14255000D01*
X39195000Y30130000D02*
X40465000Y30130000D01*
X38575000Y9175000D02*
X36020000Y9175000D01*
X40455000Y11055000D02*
X42995000Y11055000D01*
X42995000Y14225000D02*
X43025000Y14255000D01*
X40465000Y32144576D02*
X41625424Y33305000D01*
X42995000Y11055000D02*
X42995000Y14225000D01*
X41640000Y18700000D02*
X41640000Y15640000D01*
X34115000Y11080000D02*
X34115000Y25050000D01*
X40465000Y30130000D02*
X40465000Y32144576D01*
X34115000Y25050000D02*
X39195000Y30130000D01*
X39830000Y14890000D02*
X37915000Y12975000D01*
X37915000Y12975000D02*
X37915000Y11055000D01*
X43005000Y22510000D02*
X39830000Y19335000D01*
X39830000Y19335000D02*
X39830000Y14890000D01*
X44165424Y33305000D02*
X44165424Y31504576D01*
X18598704Y30130000D02*
X22785000Y30130000D01*
X19045001Y37285001D02*
X17260000Y35500000D01*
X22785000Y30130000D02*
X24890000Y32235000D01*
X44165424Y31504576D02*
X45545000Y30125000D01*
X19045001Y37285001D02*
X12160001Y37285001D01*
X17260000Y31468704D02*
X18598704Y30130000D01*
X12160001Y37285001D02*
X7110000Y32235000D01*
X44165424Y33305000D02*
X44165424Y34855000D01*
X44165424Y34855000D02*
X41735423Y37285001D01*
X41735423Y37285001D02*
X19045001Y37285001D01*
X17260000Y35500000D02*
X17260000Y31468704D01*
X45545000Y30125000D02*
X48080000Y30125000D01*
X48080000Y30125000D02*
X48085000Y30130000D01*
X48085000Y22510000D02*
X48085000Y19491000D01*
X48085000Y19491000D02*
X47958000Y19364000D01*
X40465000Y27590000D02*
X43005000Y30130000D01*
X40465000Y22510000D02*
X40465000Y27590000D01*
X43005000Y30130000D02*
X43005000Y33195424D01*
X43005000Y33195424D02*
X42895424Y33305000D01*
M02*
