M48
; DRILL file {KiCad 6.0.10-86aedd382b~118~ubuntu20.04.1} date Wed 04 Jan 2023 14:33:24 EET
; FORMAT={-:-/ absolute / metric / decimal}
; #@! TF.CreationDate,2023-01-04T14:33:24+02:00
; #@! TF.GenerationSoftware,Kicad,Pcbnew,6.0.10-86aedd382b~118~ubuntu20.04.1
; #@! TF.FileFunction,Plated,1,2,PTH
FMAT,2
METRIC
; #@! TA.AperFunction,Plated,PTH,ComponentDrill
T1C0.750
; #@! TA.AperFunction,Plated,PTH,ComponentDrill
T2C0.800
; #@! TA.AperFunction,Plated,PTH,ComponentDrill
T3C0.900
; #@! TA.AperFunction,Plated,PTH,ComponentDrill
T4C1.000
; #@! TA.AperFunction,Plated,PTH,ComponentDrill
T5C1.300
; #@! TA.AperFunction,Plated,PTH,ComponentDrill
T6C1.520
%
G90
G05
T1
X163.085Y114.3
X164.355Y114.3
X165.625Y114.3
X167.005Y117.48
X167.005Y125.1
T2
X161.925Y117.475
X161.925Y125.095
X163.1Y128.905
X164.465Y117.475
X164.465Y125.095
X164.485Y133.35
X165.1Y128.905
X166.985Y133.35
X169.545Y117.475
X169.545Y125.095
T3
X169.418Y128.241
X169.418Y130.781
T4
X128.57Y115.37
X140.57Y115.37
X146.35Y115.37
X158.35Y115.37
X159.375Y136.55
X161.915Y136.55
X164.455Y136.55
X166.995Y136.55
T5
X128.57Y127.57
X134.62Y113.42
X140.62Y127.62
X146.35Y127.57
X152.4Y113.42
X158.4Y127.62
T6
X129.54Y137.16
X134.62Y137.16
X140.335Y137.16
X145.415Y137.16
T0
M30
