%TF.GenerationSoftware,KiCad,Pcbnew,6.0.10-86aedd382b~118~ubuntu20.04.1*%
%TF.CreationDate,2023-01-04T14:32:27+02:00*%
%TF.ProjectId,PSU controller,50535520-636f-46e7-9472-6f6c6c65722e,rev?*%
%TF.SameCoordinates,Original*%
%TF.FileFunction,Drillmap*%
%TF.FilePolarity,Positive*%
%FSLAX45Y45*%
G04 Gerber Fmt 4.5, Leading zero omitted, Abs format (unit mm)*
G04 Created by KiCad (PCBNEW 6.0.10-86aedd382b~118~ubuntu20.04.1) date 2023-01-04 14:32:27*
%MOMM*%
%LPD*%
G01*
G04 APERTURE LIST*
%ADD10C,0.100000*%
%ADD11C,0.200000*%
%ADD12C,0.075000*%
%ADD13C,0.080000*%
%ADD14C,0.090000*%
%ADD15C,0.130000*%
%ADD16C,0.152000*%
G04 APERTURE END LIST*
D10*
X12446000Y-10922000D02*
X17208500Y-10922000D01*
X17208500Y-12636500D02*
X17208500Y-14160500D01*
X17208500Y-10922000D02*
X17208500Y-12573000D01*
X12446000Y-14160500D02*
X12446000Y-10922000D01*
X17208500Y-12573000D02*
X17208500Y-12636500D01*
X17208500Y-14160500D02*
X12446000Y-14160500D01*
D11*
D12*
X16271042Y-11392500D02*
X16346042Y-11467500D01*
X16346042Y-11392500D02*
X16271042Y-11467500D01*
X16398042Y-11392500D02*
X16473042Y-11467500D01*
X16473042Y-11392500D02*
X16398042Y-11467500D01*
X16525042Y-11392500D02*
X16600042Y-11467500D01*
X16600042Y-11392500D02*
X16525042Y-11467500D01*
X16663000Y-11710500D02*
X16738000Y-11785500D01*
X16738000Y-11710500D02*
X16663000Y-11785500D01*
X16663000Y-12472500D02*
X16738000Y-12547500D01*
X16738000Y-12472500D02*
X16663000Y-12547500D01*
D13*
X16232500Y-11747500D02*
G75*
G03*
X16232500Y-11747500I-40000J0D01*
G01*
X16232500Y-12509500D02*
G75*
G03*
X16232500Y-12509500I-40000J0D01*
G01*
X16350000Y-12890500D02*
G75*
G03*
X16350000Y-12890500I-40000J0D01*
G01*
X16486500Y-11747500D02*
G75*
G03*
X16486500Y-11747500I-40000J0D01*
G01*
X16486500Y-12509500D02*
G75*
G03*
X16486500Y-12509500I-40000J0D01*
G01*
X16488500Y-13335000D02*
G75*
G03*
X16488500Y-13335000I-40000J0D01*
G01*
X16550000Y-12890500D02*
G75*
G03*
X16550000Y-12890500I-40000J0D01*
G01*
X16738500Y-13335000D02*
G75*
G03*
X16738500Y-13335000I-40000J0D01*
G01*
X16994500Y-11747500D02*
G75*
G03*
X16994500Y-11747500I-40000J0D01*
G01*
X16994500Y-12509500D02*
G75*
G03*
X16994500Y-12509500I-40000J0D01*
G01*
D14*
X16941800Y-12779100D02*
X16941800Y-12869100D01*
X16896800Y-12824100D02*
X16986800Y-12824100D01*
X16941800Y-13033100D02*
X16941800Y-13123100D01*
X16896800Y-13078100D02*
X16986800Y-13078100D01*
D10*
X12892356Y-11572356D02*
X12892356Y-11501644D01*
X12821644Y-11501644D01*
X12821644Y-11572356D01*
X12892356Y-11572356D01*
X14092356Y-11572356D02*
X14092356Y-11501644D01*
X14021644Y-11501644D01*
X14021644Y-11572356D01*
X14092356Y-11572356D01*
X14670356Y-11572356D02*
X14670356Y-11501644D01*
X14599644Y-11501644D01*
X14599644Y-11572356D01*
X14670356Y-11572356D01*
X15870356Y-11572356D02*
X15870356Y-11501644D01*
X15799644Y-11501644D01*
X15799644Y-11572356D01*
X15870356Y-11572356D01*
X15972856Y-13690356D02*
X15972856Y-13619644D01*
X15902144Y-13619644D01*
X15902144Y-13690356D01*
X15972856Y-13690356D01*
X16226856Y-13690356D02*
X16226856Y-13619644D01*
X16156144Y-13619644D01*
X16156144Y-13690356D01*
X16226856Y-13690356D01*
X16480856Y-13690356D02*
X16480856Y-13619644D01*
X16410144Y-13619644D01*
X16410144Y-13690356D01*
X16480856Y-13690356D01*
X16734856Y-13690356D02*
X16734856Y-13619644D01*
X16664144Y-13619644D01*
X16664144Y-13690356D01*
X16734856Y-13690356D01*
D15*
X12857000Y-12822000D02*
X12922000Y-12757000D01*
X12857000Y-12692000D01*
X12792000Y-12757000D01*
X12857000Y-12822000D01*
X13462000Y-11407000D02*
X13527000Y-11342000D01*
X13462000Y-11277000D01*
X13397000Y-11342000D01*
X13462000Y-11407000D01*
X14062000Y-12827000D02*
X14127000Y-12762000D01*
X14062000Y-12697000D01*
X13997000Y-12762000D01*
X14062000Y-12827000D01*
X14635000Y-12822000D02*
X14700000Y-12757000D01*
X14635000Y-12692000D01*
X14570000Y-12757000D01*
X14635000Y-12822000D01*
X15240000Y-11407000D02*
X15305000Y-11342000D01*
X15240000Y-11277000D01*
X15175000Y-11342000D01*
X15240000Y-11407000D01*
X15840000Y-12827000D02*
X15905000Y-12762000D01*
X15840000Y-12697000D01*
X15775000Y-12762000D01*
X15840000Y-12827000D01*
D16*
X12878000Y-13640000D02*
X13030000Y-13792000D01*
X13030000Y-13640000D02*
X12878000Y-13792000D01*
X13030000Y-13716000D02*
G75*
G03*
X13030000Y-13716000I-76000J0D01*
G01*
X13386000Y-13640000D02*
X13538000Y-13792000D01*
X13538000Y-13640000D02*
X13386000Y-13792000D01*
X13538000Y-13716000D02*
G75*
G03*
X13538000Y-13716000I-76000J0D01*
G01*
X13957500Y-13640000D02*
X14109500Y-13792000D01*
X14109500Y-13640000D02*
X13957500Y-13792000D01*
X14109500Y-13716000D02*
G75*
G03*
X14109500Y-13716000I-76000J0D01*
G01*
X14465500Y-13640000D02*
X14617500Y-13792000D01*
X14617500Y-13640000D02*
X14465500Y-13792000D01*
X14617500Y-13716000D02*
G75*
G03*
X14617500Y-13716000I-76000J0D01*
G01*
D11*
X12698619Y-14475976D02*
X12698619Y-14275976D01*
X12746238Y-14275976D01*
X12774809Y-14285500D01*
X12793857Y-14304548D01*
X12803381Y-14323595D01*
X12812905Y-14361690D01*
X12812905Y-14390262D01*
X12803381Y-14428357D01*
X12793857Y-14447405D01*
X12774809Y-14466452D01*
X12746238Y-14475976D01*
X12698619Y-14475976D01*
X12898619Y-14475976D02*
X12898619Y-14342643D01*
X12898619Y-14380738D02*
X12908143Y-14361690D01*
X12917667Y-14352167D01*
X12936714Y-14342643D01*
X12955762Y-14342643D01*
X13022428Y-14475976D02*
X13022428Y-14342643D01*
X13022428Y-14275976D02*
X13012905Y-14285500D01*
X13022428Y-14295024D01*
X13031952Y-14285500D01*
X13022428Y-14275976D01*
X13022428Y-14295024D01*
X13146238Y-14475976D02*
X13127190Y-14466452D01*
X13117667Y-14447405D01*
X13117667Y-14275976D01*
X13251000Y-14475976D02*
X13231952Y-14466452D01*
X13222428Y-14447405D01*
X13222428Y-14275976D01*
X13479571Y-14475976D02*
X13479571Y-14275976D01*
X13546238Y-14418833D01*
X13612905Y-14275976D01*
X13612905Y-14475976D01*
X13793857Y-14475976D02*
X13793857Y-14371214D01*
X13784333Y-14352167D01*
X13765286Y-14342643D01*
X13727190Y-14342643D01*
X13708143Y-14352167D01*
X13793857Y-14466452D02*
X13774809Y-14475976D01*
X13727190Y-14475976D01*
X13708143Y-14466452D01*
X13698619Y-14447405D01*
X13698619Y-14428357D01*
X13708143Y-14409309D01*
X13727190Y-14399786D01*
X13774809Y-14399786D01*
X13793857Y-14390262D01*
X13889095Y-14342643D02*
X13889095Y-14542643D01*
X13889095Y-14352167D02*
X13908143Y-14342643D01*
X13946238Y-14342643D01*
X13965286Y-14352167D01*
X13974809Y-14361690D01*
X13984333Y-14380738D01*
X13984333Y-14437881D01*
X13974809Y-14456928D01*
X13965286Y-14466452D01*
X13946238Y-14475976D01*
X13908143Y-14475976D01*
X13889095Y-14466452D01*
X14070048Y-14456928D02*
X14079571Y-14466452D01*
X14070048Y-14475976D01*
X14060524Y-14466452D01*
X14070048Y-14456928D01*
X14070048Y-14475976D01*
X14070048Y-14352167D02*
X14079571Y-14361690D01*
X14070048Y-14371214D01*
X14060524Y-14361690D01*
X14070048Y-14352167D01*
X14070048Y-14371214D01*
D12*
X12366000Y-14768000D02*
X12441000Y-14843000D01*
X12441000Y-14768000D02*
X12366000Y-14843000D01*
D11*
X12736714Y-14695976D02*
X12755762Y-14695976D01*
X12774809Y-14705500D01*
X12784333Y-14715024D01*
X12793857Y-14734071D01*
X12803381Y-14772167D01*
X12803381Y-14819786D01*
X12793857Y-14857881D01*
X12784333Y-14876928D01*
X12774809Y-14886452D01*
X12755762Y-14895976D01*
X12736714Y-14895976D01*
X12717667Y-14886452D01*
X12708143Y-14876928D01*
X12698619Y-14857881D01*
X12689095Y-14819786D01*
X12689095Y-14772167D01*
X12698619Y-14734071D01*
X12708143Y-14715024D01*
X12717667Y-14705500D01*
X12736714Y-14695976D01*
X12889095Y-14876928D02*
X12898619Y-14886452D01*
X12889095Y-14895976D01*
X12879571Y-14886452D01*
X12889095Y-14876928D01*
X12889095Y-14895976D01*
X12965286Y-14695976D02*
X13098619Y-14695976D01*
X13012905Y-14895976D01*
X13270048Y-14695976D02*
X13174809Y-14695976D01*
X13165286Y-14791214D01*
X13174809Y-14781690D01*
X13193857Y-14772167D01*
X13241476Y-14772167D01*
X13260524Y-14781690D01*
X13270048Y-14791214D01*
X13279571Y-14810262D01*
X13279571Y-14857881D01*
X13270048Y-14876928D01*
X13260524Y-14886452D01*
X13241476Y-14895976D01*
X13193857Y-14895976D01*
X13174809Y-14886452D01*
X13165286Y-14876928D01*
X13403381Y-14695976D02*
X13422428Y-14695976D01*
X13441476Y-14705500D01*
X13451000Y-14715024D01*
X13460524Y-14734071D01*
X13470048Y-14772167D01*
X13470048Y-14819786D01*
X13460524Y-14857881D01*
X13451000Y-14876928D01*
X13441476Y-14886452D01*
X13422428Y-14895976D01*
X13403381Y-14895976D01*
X13384333Y-14886452D01*
X13374809Y-14876928D01*
X13365286Y-14857881D01*
X13355762Y-14819786D01*
X13355762Y-14772167D01*
X13365286Y-14734071D01*
X13374809Y-14715024D01*
X13384333Y-14705500D01*
X13403381Y-14695976D01*
X13555762Y-14895976D02*
X13555762Y-14762643D01*
X13555762Y-14781690D02*
X13565286Y-14772167D01*
X13584333Y-14762643D01*
X13612905Y-14762643D01*
X13631952Y-14772167D01*
X13641476Y-14791214D01*
X13641476Y-14895976D01*
X13641476Y-14791214D02*
X13651000Y-14772167D01*
X13670048Y-14762643D01*
X13698619Y-14762643D01*
X13717667Y-14772167D01*
X13727190Y-14791214D01*
X13727190Y-14895976D01*
X13822428Y-14895976D02*
X13822428Y-14762643D01*
X13822428Y-14781690D02*
X13831952Y-14772167D01*
X13851000Y-14762643D01*
X13879571Y-14762643D01*
X13898619Y-14772167D01*
X13908143Y-14791214D01*
X13908143Y-14895976D01*
X13908143Y-14791214D02*
X13917667Y-14772167D01*
X13936714Y-14762643D01*
X13965286Y-14762643D01*
X13984333Y-14772167D01*
X13993857Y-14791214D01*
X13993857Y-14895976D01*
X14384333Y-14686452D02*
X14212905Y-14943595D01*
X14641476Y-14695976D02*
X14660524Y-14695976D01*
X14679571Y-14705500D01*
X14689095Y-14715024D01*
X14698619Y-14734071D01*
X14708143Y-14772167D01*
X14708143Y-14819786D01*
X14698619Y-14857881D01*
X14689095Y-14876928D01*
X14679571Y-14886452D01*
X14660524Y-14895976D01*
X14641476Y-14895976D01*
X14622428Y-14886452D01*
X14612905Y-14876928D01*
X14603381Y-14857881D01*
X14593857Y-14819786D01*
X14593857Y-14772167D01*
X14603381Y-14734071D01*
X14612905Y-14715024D01*
X14622428Y-14705500D01*
X14641476Y-14695976D01*
X14793857Y-14876928D02*
X14803381Y-14886452D01*
X14793857Y-14895976D01*
X14784333Y-14886452D01*
X14793857Y-14876928D01*
X14793857Y-14895976D01*
X14927190Y-14695976D02*
X14946238Y-14695976D01*
X14965286Y-14705500D01*
X14974809Y-14715024D01*
X14984333Y-14734071D01*
X14993857Y-14772167D01*
X14993857Y-14819786D01*
X14984333Y-14857881D01*
X14974809Y-14876928D01*
X14965286Y-14886452D01*
X14946238Y-14895976D01*
X14927190Y-14895976D01*
X14908143Y-14886452D01*
X14898619Y-14876928D01*
X14889095Y-14857881D01*
X14879571Y-14819786D01*
X14879571Y-14772167D01*
X14889095Y-14734071D01*
X14898619Y-14715024D01*
X14908143Y-14705500D01*
X14927190Y-14695976D01*
X15070048Y-14715024D02*
X15079571Y-14705500D01*
X15098619Y-14695976D01*
X15146238Y-14695976D01*
X15165286Y-14705500D01*
X15174809Y-14715024D01*
X15184333Y-14734071D01*
X15184333Y-14753119D01*
X15174809Y-14781690D01*
X15060524Y-14895976D01*
X15184333Y-14895976D01*
X15279571Y-14895976D02*
X15317667Y-14895976D01*
X15336714Y-14886452D01*
X15346238Y-14876928D01*
X15365286Y-14848357D01*
X15374809Y-14810262D01*
X15374809Y-14734071D01*
X15365286Y-14715024D01*
X15355762Y-14705500D01*
X15336714Y-14695976D01*
X15298619Y-14695976D01*
X15279571Y-14705500D01*
X15270048Y-14715024D01*
X15260524Y-14734071D01*
X15260524Y-14781690D01*
X15270048Y-14800738D01*
X15279571Y-14810262D01*
X15298619Y-14819786D01*
X15336714Y-14819786D01*
X15355762Y-14810262D01*
X15365286Y-14800738D01*
X15374809Y-14781690D01*
X15555762Y-14695976D02*
X15460524Y-14695976D01*
X15451000Y-14791214D01*
X15460524Y-14781690D01*
X15479571Y-14772167D01*
X15527190Y-14772167D01*
X15546238Y-14781690D01*
X15555762Y-14791214D01*
X15565286Y-14810262D01*
X15565286Y-14857881D01*
X15555762Y-14876928D01*
X15546238Y-14886452D01*
X15527190Y-14895976D01*
X15479571Y-14895976D01*
X15460524Y-14886452D01*
X15451000Y-14876928D01*
X15641476Y-14695976D02*
X15641476Y-14734071D01*
X15717667Y-14695976D02*
X15717667Y-14734071D01*
X16012905Y-14972167D02*
X16003381Y-14962643D01*
X15984333Y-14934071D01*
X15974809Y-14915024D01*
X15965286Y-14886452D01*
X15955762Y-14838833D01*
X15955762Y-14800738D01*
X15965286Y-14753119D01*
X15974809Y-14724548D01*
X15984333Y-14705500D01*
X16003381Y-14676928D01*
X16012905Y-14667405D01*
X16184333Y-14695976D02*
X16089095Y-14695976D01*
X16079571Y-14791214D01*
X16089095Y-14781690D01*
X16108143Y-14772167D01*
X16155762Y-14772167D01*
X16174809Y-14781690D01*
X16184333Y-14791214D01*
X16193857Y-14810262D01*
X16193857Y-14857881D01*
X16184333Y-14876928D01*
X16174809Y-14886452D01*
X16155762Y-14895976D01*
X16108143Y-14895976D01*
X16089095Y-14886452D01*
X16079571Y-14876928D01*
X16431952Y-14895976D02*
X16431952Y-14695976D01*
X16517667Y-14895976D02*
X16517667Y-14791214D01*
X16508143Y-14772167D01*
X16489095Y-14762643D01*
X16460524Y-14762643D01*
X16441476Y-14772167D01*
X16431952Y-14781690D01*
X16641476Y-14895976D02*
X16622428Y-14886452D01*
X16612905Y-14876928D01*
X16603381Y-14857881D01*
X16603381Y-14800738D01*
X16612905Y-14781690D01*
X16622428Y-14772167D01*
X16641476Y-14762643D01*
X16670048Y-14762643D01*
X16689095Y-14772167D01*
X16698619Y-14781690D01*
X16708143Y-14800738D01*
X16708143Y-14857881D01*
X16698619Y-14876928D01*
X16689095Y-14886452D01*
X16670048Y-14895976D01*
X16641476Y-14895976D01*
X16822429Y-14895976D02*
X16803381Y-14886452D01*
X16793857Y-14867405D01*
X16793857Y-14695976D01*
X16974810Y-14886452D02*
X16955762Y-14895976D01*
X16917667Y-14895976D01*
X16898619Y-14886452D01*
X16889095Y-14867405D01*
X16889095Y-14791214D01*
X16898619Y-14772167D01*
X16917667Y-14762643D01*
X16955762Y-14762643D01*
X16974810Y-14772167D01*
X16984333Y-14791214D01*
X16984333Y-14810262D01*
X16889095Y-14829309D01*
X17060524Y-14886452D02*
X17079571Y-14895976D01*
X17117667Y-14895976D01*
X17136714Y-14886452D01*
X17146238Y-14867405D01*
X17146238Y-14857881D01*
X17136714Y-14838833D01*
X17117667Y-14829309D01*
X17089095Y-14829309D01*
X17070048Y-14819786D01*
X17060524Y-14800738D01*
X17060524Y-14791214D01*
X17070048Y-14772167D01*
X17089095Y-14762643D01*
X17117667Y-14762643D01*
X17136714Y-14772167D01*
X17212905Y-14972167D02*
X17222429Y-14962643D01*
X17241476Y-14934071D01*
X17251000Y-14915024D01*
X17260524Y-14886452D01*
X17270048Y-14838833D01*
X17270048Y-14800738D01*
X17260524Y-14753119D01*
X17251000Y-14724548D01*
X17241476Y-14705500D01*
X17222429Y-14676928D01*
X17212905Y-14667405D01*
D13*
X12441000Y-15069500D02*
G75*
G03*
X12441000Y-15069500I-40000J0D01*
G01*
D11*
X12736714Y-14959976D02*
X12755762Y-14959976D01*
X12774809Y-14969500D01*
X12784333Y-14979024D01*
X12793857Y-14998071D01*
X12803381Y-15036167D01*
X12803381Y-15083786D01*
X12793857Y-15121881D01*
X12784333Y-15140928D01*
X12774809Y-15150452D01*
X12755762Y-15159976D01*
X12736714Y-15159976D01*
X12717667Y-15150452D01*
X12708143Y-15140928D01*
X12698619Y-15121881D01*
X12689095Y-15083786D01*
X12689095Y-15036167D01*
X12698619Y-14998071D01*
X12708143Y-14979024D01*
X12717667Y-14969500D01*
X12736714Y-14959976D01*
X12889095Y-15140928D02*
X12898619Y-15150452D01*
X12889095Y-15159976D01*
X12879571Y-15150452D01*
X12889095Y-15140928D01*
X12889095Y-15159976D01*
X13012905Y-15045690D02*
X12993857Y-15036167D01*
X12984333Y-15026643D01*
X12974809Y-15007595D01*
X12974809Y-14998071D01*
X12984333Y-14979024D01*
X12993857Y-14969500D01*
X13012905Y-14959976D01*
X13051000Y-14959976D01*
X13070048Y-14969500D01*
X13079571Y-14979024D01*
X13089095Y-14998071D01*
X13089095Y-15007595D01*
X13079571Y-15026643D01*
X13070048Y-15036167D01*
X13051000Y-15045690D01*
X13012905Y-15045690D01*
X12993857Y-15055214D01*
X12984333Y-15064738D01*
X12974809Y-15083786D01*
X12974809Y-15121881D01*
X12984333Y-15140928D01*
X12993857Y-15150452D01*
X13012905Y-15159976D01*
X13051000Y-15159976D01*
X13070048Y-15150452D01*
X13079571Y-15140928D01*
X13089095Y-15121881D01*
X13089095Y-15083786D01*
X13079571Y-15064738D01*
X13070048Y-15055214D01*
X13051000Y-15045690D01*
X13212905Y-14959976D02*
X13231952Y-14959976D01*
X13251000Y-14969500D01*
X13260524Y-14979024D01*
X13270048Y-14998071D01*
X13279571Y-15036167D01*
X13279571Y-15083786D01*
X13270048Y-15121881D01*
X13260524Y-15140928D01*
X13251000Y-15150452D01*
X13231952Y-15159976D01*
X13212905Y-15159976D01*
X13193857Y-15150452D01*
X13184333Y-15140928D01*
X13174809Y-15121881D01*
X13165286Y-15083786D01*
X13165286Y-15036167D01*
X13174809Y-14998071D01*
X13184333Y-14979024D01*
X13193857Y-14969500D01*
X13212905Y-14959976D01*
X13403381Y-14959976D02*
X13422428Y-14959976D01*
X13441476Y-14969500D01*
X13451000Y-14979024D01*
X13460524Y-14998071D01*
X13470048Y-15036167D01*
X13470048Y-15083786D01*
X13460524Y-15121881D01*
X13451000Y-15140928D01*
X13441476Y-15150452D01*
X13422428Y-15159976D01*
X13403381Y-15159976D01*
X13384333Y-15150452D01*
X13374809Y-15140928D01*
X13365286Y-15121881D01*
X13355762Y-15083786D01*
X13355762Y-15036167D01*
X13365286Y-14998071D01*
X13374809Y-14979024D01*
X13384333Y-14969500D01*
X13403381Y-14959976D01*
X13555762Y-15159976D02*
X13555762Y-15026643D01*
X13555762Y-15045690D02*
X13565286Y-15036167D01*
X13584333Y-15026643D01*
X13612905Y-15026643D01*
X13631952Y-15036167D01*
X13641476Y-15055214D01*
X13641476Y-15159976D01*
X13641476Y-15055214D02*
X13651000Y-15036167D01*
X13670048Y-15026643D01*
X13698619Y-15026643D01*
X13717667Y-15036167D01*
X13727190Y-15055214D01*
X13727190Y-15159976D01*
X13822428Y-15159976D02*
X13822428Y-15026643D01*
X13822428Y-15045690D02*
X13831952Y-15036167D01*
X13851000Y-15026643D01*
X13879571Y-15026643D01*
X13898619Y-15036167D01*
X13908143Y-15055214D01*
X13908143Y-15159976D01*
X13908143Y-15055214D02*
X13917667Y-15036167D01*
X13936714Y-15026643D01*
X13965286Y-15026643D01*
X13984333Y-15036167D01*
X13993857Y-15055214D01*
X13993857Y-15159976D01*
X14384333Y-14950452D02*
X14212905Y-15207595D01*
X14641476Y-14959976D02*
X14660524Y-14959976D01*
X14679571Y-14969500D01*
X14689095Y-14979024D01*
X14698619Y-14998071D01*
X14708143Y-15036167D01*
X14708143Y-15083786D01*
X14698619Y-15121881D01*
X14689095Y-15140928D01*
X14679571Y-15150452D01*
X14660524Y-15159976D01*
X14641476Y-15159976D01*
X14622428Y-15150452D01*
X14612905Y-15140928D01*
X14603381Y-15121881D01*
X14593857Y-15083786D01*
X14593857Y-15036167D01*
X14603381Y-14998071D01*
X14612905Y-14979024D01*
X14622428Y-14969500D01*
X14641476Y-14959976D01*
X14793857Y-15140928D02*
X14803381Y-15150452D01*
X14793857Y-15159976D01*
X14784333Y-15150452D01*
X14793857Y-15140928D01*
X14793857Y-15159976D01*
X14927190Y-14959976D02*
X14946238Y-14959976D01*
X14965286Y-14969500D01*
X14974809Y-14979024D01*
X14984333Y-14998071D01*
X14993857Y-15036167D01*
X14993857Y-15083786D01*
X14984333Y-15121881D01*
X14974809Y-15140928D01*
X14965286Y-15150452D01*
X14946238Y-15159976D01*
X14927190Y-15159976D01*
X14908143Y-15150452D01*
X14898619Y-15140928D01*
X14889095Y-15121881D01*
X14879571Y-15083786D01*
X14879571Y-15036167D01*
X14889095Y-14998071D01*
X14898619Y-14979024D01*
X14908143Y-14969500D01*
X14927190Y-14959976D01*
X15060524Y-14959976D02*
X15184333Y-14959976D01*
X15117667Y-15036167D01*
X15146238Y-15036167D01*
X15165286Y-15045690D01*
X15174809Y-15055214D01*
X15184333Y-15074262D01*
X15184333Y-15121881D01*
X15174809Y-15140928D01*
X15165286Y-15150452D01*
X15146238Y-15159976D01*
X15089095Y-15159976D01*
X15070048Y-15150452D01*
X15060524Y-15140928D01*
X15374809Y-15159976D02*
X15260524Y-15159976D01*
X15317667Y-15159976D02*
X15317667Y-14959976D01*
X15298619Y-14988548D01*
X15279571Y-15007595D01*
X15260524Y-15017119D01*
X15555762Y-14959976D02*
X15460524Y-14959976D01*
X15451000Y-15055214D01*
X15460524Y-15045690D01*
X15479571Y-15036167D01*
X15527190Y-15036167D01*
X15546238Y-15045690D01*
X15555762Y-15055214D01*
X15565286Y-15074262D01*
X15565286Y-15121881D01*
X15555762Y-15140928D01*
X15546238Y-15150452D01*
X15527190Y-15159976D01*
X15479571Y-15159976D01*
X15460524Y-15150452D01*
X15451000Y-15140928D01*
X15641476Y-14959976D02*
X15641476Y-14998071D01*
X15717667Y-14959976D02*
X15717667Y-14998071D01*
X16012905Y-15236167D02*
X16003381Y-15226643D01*
X15984333Y-15198071D01*
X15974809Y-15179024D01*
X15965286Y-15150452D01*
X15955762Y-15102833D01*
X15955762Y-15064738D01*
X15965286Y-15017119D01*
X15974809Y-14988548D01*
X15984333Y-14969500D01*
X16003381Y-14940928D01*
X16012905Y-14931405D01*
X16193857Y-15159976D02*
X16079571Y-15159976D01*
X16136714Y-15159976D02*
X16136714Y-14959976D01*
X16117667Y-14988548D01*
X16098619Y-15007595D01*
X16079571Y-15017119D01*
X16317667Y-14959976D02*
X16336714Y-14959976D01*
X16355762Y-14969500D01*
X16365286Y-14979024D01*
X16374809Y-14998071D01*
X16384333Y-15036167D01*
X16384333Y-15083786D01*
X16374809Y-15121881D01*
X16365286Y-15140928D01*
X16355762Y-15150452D01*
X16336714Y-15159976D01*
X16317667Y-15159976D01*
X16298619Y-15150452D01*
X16289095Y-15140928D01*
X16279571Y-15121881D01*
X16270048Y-15083786D01*
X16270048Y-15036167D01*
X16279571Y-14998071D01*
X16289095Y-14979024D01*
X16298619Y-14969500D01*
X16317667Y-14959976D01*
X16622428Y-15159976D02*
X16622428Y-14959976D01*
X16708143Y-15159976D02*
X16708143Y-15055214D01*
X16698619Y-15036167D01*
X16679571Y-15026643D01*
X16651000Y-15026643D01*
X16631952Y-15036167D01*
X16622428Y-15045690D01*
X16831952Y-15159976D02*
X16812905Y-15150452D01*
X16803381Y-15140928D01*
X16793857Y-15121881D01*
X16793857Y-15064738D01*
X16803381Y-15045690D01*
X16812905Y-15036167D01*
X16831952Y-15026643D01*
X16860524Y-15026643D01*
X16879571Y-15036167D01*
X16889095Y-15045690D01*
X16898619Y-15064738D01*
X16898619Y-15121881D01*
X16889095Y-15140928D01*
X16879571Y-15150452D01*
X16860524Y-15159976D01*
X16831952Y-15159976D01*
X17012905Y-15159976D02*
X16993857Y-15150452D01*
X16984333Y-15131405D01*
X16984333Y-14959976D01*
X17165286Y-15150452D02*
X17146238Y-15159976D01*
X17108143Y-15159976D01*
X17089095Y-15150452D01*
X17079571Y-15131405D01*
X17079571Y-15055214D01*
X17089095Y-15036167D01*
X17108143Y-15026643D01*
X17146238Y-15026643D01*
X17165286Y-15036167D01*
X17174810Y-15055214D01*
X17174810Y-15074262D01*
X17079571Y-15093309D01*
X17251000Y-15150452D02*
X17270048Y-15159976D01*
X17308143Y-15159976D01*
X17327190Y-15150452D01*
X17336714Y-15131405D01*
X17336714Y-15121881D01*
X17327190Y-15102833D01*
X17308143Y-15093309D01*
X17279571Y-15093309D01*
X17260524Y-15083786D01*
X17251000Y-15064738D01*
X17251000Y-15055214D01*
X17260524Y-15036167D01*
X17279571Y-15026643D01*
X17308143Y-15026643D01*
X17327190Y-15036167D01*
X17403381Y-15236167D02*
X17412905Y-15226643D01*
X17431952Y-15198071D01*
X17441476Y-15179024D01*
X17451000Y-15150452D01*
X17460524Y-15102833D01*
X17460524Y-15064738D01*
X17451000Y-15017119D01*
X17441476Y-14988548D01*
X17431952Y-14969500D01*
X17412905Y-14940928D01*
X17403381Y-14931405D01*
D14*
X12396000Y-15288500D02*
X12396000Y-15378500D01*
X12351000Y-15333500D02*
X12441000Y-15333500D01*
D11*
X12736714Y-15223976D02*
X12755762Y-15223976D01*
X12774809Y-15233500D01*
X12784333Y-15243024D01*
X12793857Y-15262071D01*
X12803381Y-15300167D01*
X12803381Y-15347786D01*
X12793857Y-15385881D01*
X12784333Y-15404928D01*
X12774809Y-15414452D01*
X12755762Y-15423976D01*
X12736714Y-15423976D01*
X12717667Y-15414452D01*
X12708143Y-15404928D01*
X12698619Y-15385881D01*
X12689095Y-15347786D01*
X12689095Y-15300167D01*
X12698619Y-15262071D01*
X12708143Y-15243024D01*
X12717667Y-15233500D01*
X12736714Y-15223976D01*
X12889095Y-15404928D02*
X12898619Y-15414452D01*
X12889095Y-15423976D01*
X12879571Y-15414452D01*
X12889095Y-15404928D01*
X12889095Y-15423976D01*
X12993857Y-15423976D02*
X13031952Y-15423976D01*
X13051000Y-15414452D01*
X13060524Y-15404928D01*
X13079571Y-15376357D01*
X13089095Y-15338262D01*
X13089095Y-15262071D01*
X13079571Y-15243024D01*
X13070048Y-15233500D01*
X13051000Y-15223976D01*
X13012905Y-15223976D01*
X12993857Y-15233500D01*
X12984333Y-15243024D01*
X12974809Y-15262071D01*
X12974809Y-15309690D01*
X12984333Y-15328738D01*
X12993857Y-15338262D01*
X13012905Y-15347786D01*
X13051000Y-15347786D01*
X13070048Y-15338262D01*
X13079571Y-15328738D01*
X13089095Y-15309690D01*
X13212905Y-15223976D02*
X13231952Y-15223976D01*
X13251000Y-15233500D01*
X13260524Y-15243024D01*
X13270048Y-15262071D01*
X13279571Y-15300167D01*
X13279571Y-15347786D01*
X13270048Y-15385881D01*
X13260524Y-15404928D01*
X13251000Y-15414452D01*
X13231952Y-15423976D01*
X13212905Y-15423976D01*
X13193857Y-15414452D01*
X13184333Y-15404928D01*
X13174809Y-15385881D01*
X13165286Y-15347786D01*
X13165286Y-15300167D01*
X13174809Y-15262071D01*
X13184333Y-15243024D01*
X13193857Y-15233500D01*
X13212905Y-15223976D01*
X13403381Y-15223976D02*
X13422428Y-15223976D01*
X13441476Y-15233500D01*
X13451000Y-15243024D01*
X13460524Y-15262071D01*
X13470048Y-15300167D01*
X13470048Y-15347786D01*
X13460524Y-15385881D01*
X13451000Y-15404928D01*
X13441476Y-15414452D01*
X13422428Y-15423976D01*
X13403381Y-15423976D01*
X13384333Y-15414452D01*
X13374809Y-15404928D01*
X13365286Y-15385881D01*
X13355762Y-15347786D01*
X13355762Y-15300167D01*
X13365286Y-15262071D01*
X13374809Y-15243024D01*
X13384333Y-15233500D01*
X13403381Y-15223976D01*
X13555762Y-15423976D02*
X13555762Y-15290643D01*
X13555762Y-15309690D02*
X13565286Y-15300167D01*
X13584333Y-15290643D01*
X13612905Y-15290643D01*
X13631952Y-15300167D01*
X13641476Y-15319214D01*
X13641476Y-15423976D01*
X13641476Y-15319214D02*
X13651000Y-15300167D01*
X13670048Y-15290643D01*
X13698619Y-15290643D01*
X13717667Y-15300167D01*
X13727190Y-15319214D01*
X13727190Y-15423976D01*
X13822428Y-15423976D02*
X13822428Y-15290643D01*
X13822428Y-15309690D02*
X13831952Y-15300167D01*
X13851000Y-15290643D01*
X13879571Y-15290643D01*
X13898619Y-15300167D01*
X13908143Y-15319214D01*
X13908143Y-15423976D01*
X13908143Y-15319214D02*
X13917667Y-15300167D01*
X13936714Y-15290643D01*
X13965286Y-15290643D01*
X13984333Y-15300167D01*
X13993857Y-15319214D01*
X13993857Y-15423976D01*
X14384333Y-15214452D02*
X14212905Y-15471595D01*
X14641476Y-15223976D02*
X14660524Y-15223976D01*
X14679571Y-15233500D01*
X14689095Y-15243024D01*
X14698619Y-15262071D01*
X14708143Y-15300167D01*
X14708143Y-15347786D01*
X14698619Y-15385881D01*
X14689095Y-15404928D01*
X14679571Y-15414452D01*
X14660524Y-15423976D01*
X14641476Y-15423976D01*
X14622428Y-15414452D01*
X14612905Y-15404928D01*
X14603381Y-15385881D01*
X14593857Y-15347786D01*
X14593857Y-15300167D01*
X14603381Y-15262071D01*
X14612905Y-15243024D01*
X14622428Y-15233500D01*
X14641476Y-15223976D01*
X14793857Y-15404928D02*
X14803381Y-15414452D01*
X14793857Y-15423976D01*
X14784333Y-15414452D01*
X14793857Y-15404928D01*
X14793857Y-15423976D01*
X14927190Y-15223976D02*
X14946238Y-15223976D01*
X14965286Y-15233500D01*
X14974809Y-15243024D01*
X14984333Y-15262071D01*
X14993857Y-15300167D01*
X14993857Y-15347786D01*
X14984333Y-15385881D01*
X14974809Y-15404928D01*
X14965286Y-15414452D01*
X14946238Y-15423976D01*
X14927190Y-15423976D01*
X14908143Y-15414452D01*
X14898619Y-15404928D01*
X14889095Y-15385881D01*
X14879571Y-15347786D01*
X14879571Y-15300167D01*
X14889095Y-15262071D01*
X14898619Y-15243024D01*
X14908143Y-15233500D01*
X14927190Y-15223976D01*
X15060524Y-15223976D02*
X15184333Y-15223976D01*
X15117667Y-15300167D01*
X15146238Y-15300167D01*
X15165286Y-15309690D01*
X15174809Y-15319214D01*
X15184333Y-15338262D01*
X15184333Y-15385881D01*
X15174809Y-15404928D01*
X15165286Y-15414452D01*
X15146238Y-15423976D01*
X15089095Y-15423976D01*
X15070048Y-15414452D01*
X15060524Y-15404928D01*
X15365286Y-15223976D02*
X15270048Y-15223976D01*
X15260524Y-15319214D01*
X15270048Y-15309690D01*
X15289095Y-15300167D01*
X15336714Y-15300167D01*
X15355762Y-15309690D01*
X15365286Y-15319214D01*
X15374809Y-15338262D01*
X15374809Y-15385881D01*
X15365286Y-15404928D01*
X15355762Y-15414452D01*
X15336714Y-15423976D01*
X15289095Y-15423976D01*
X15270048Y-15414452D01*
X15260524Y-15404928D01*
X15546238Y-15290643D02*
X15546238Y-15423976D01*
X15498619Y-15214452D02*
X15451000Y-15357309D01*
X15574809Y-15357309D01*
X15641476Y-15223976D02*
X15641476Y-15262071D01*
X15717667Y-15223976D02*
X15717667Y-15262071D01*
X16012905Y-15500167D02*
X16003381Y-15490643D01*
X15984333Y-15462071D01*
X15974809Y-15443024D01*
X15965286Y-15414452D01*
X15955762Y-15366833D01*
X15955762Y-15328738D01*
X15965286Y-15281119D01*
X15974809Y-15252548D01*
X15984333Y-15233500D01*
X16003381Y-15204928D01*
X16012905Y-15195405D01*
X16079571Y-15243024D02*
X16089095Y-15233500D01*
X16108143Y-15223976D01*
X16155762Y-15223976D01*
X16174809Y-15233500D01*
X16184333Y-15243024D01*
X16193857Y-15262071D01*
X16193857Y-15281119D01*
X16184333Y-15309690D01*
X16070048Y-15423976D01*
X16193857Y-15423976D01*
X16431952Y-15423976D02*
X16431952Y-15223976D01*
X16517667Y-15423976D02*
X16517667Y-15319214D01*
X16508143Y-15300167D01*
X16489095Y-15290643D01*
X16460524Y-15290643D01*
X16441476Y-15300167D01*
X16431952Y-15309690D01*
X16641476Y-15423976D02*
X16622428Y-15414452D01*
X16612905Y-15404928D01*
X16603381Y-15385881D01*
X16603381Y-15328738D01*
X16612905Y-15309690D01*
X16622428Y-15300167D01*
X16641476Y-15290643D01*
X16670048Y-15290643D01*
X16689095Y-15300167D01*
X16698619Y-15309690D01*
X16708143Y-15328738D01*
X16708143Y-15385881D01*
X16698619Y-15404928D01*
X16689095Y-15414452D01*
X16670048Y-15423976D01*
X16641476Y-15423976D01*
X16822429Y-15423976D02*
X16803381Y-15414452D01*
X16793857Y-15395405D01*
X16793857Y-15223976D01*
X16974810Y-15414452D02*
X16955762Y-15423976D01*
X16917667Y-15423976D01*
X16898619Y-15414452D01*
X16889095Y-15395405D01*
X16889095Y-15319214D01*
X16898619Y-15300167D01*
X16917667Y-15290643D01*
X16955762Y-15290643D01*
X16974810Y-15300167D01*
X16984333Y-15319214D01*
X16984333Y-15338262D01*
X16889095Y-15357309D01*
X17060524Y-15414452D02*
X17079571Y-15423976D01*
X17117667Y-15423976D01*
X17136714Y-15414452D01*
X17146238Y-15395405D01*
X17146238Y-15385881D01*
X17136714Y-15366833D01*
X17117667Y-15357309D01*
X17089095Y-15357309D01*
X17070048Y-15347786D01*
X17060524Y-15328738D01*
X17060524Y-15319214D01*
X17070048Y-15300167D01*
X17089095Y-15290643D01*
X17117667Y-15290643D01*
X17136714Y-15300167D01*
X17212905Y-15500167D02*
X17222429Y-15490643D01*
X17241476Y-15462071D01*
X17251000Y-15443024D01*
X17260524Y-15414452D01*
X17270048Y-15366833D01*
X17270048Y-15328738D01*
X17260524Y-15281119D01*
X17251000Y-15252548D01*
X17241476Y-15233500D01*
X17222429Y-15204928D01*
X17212905Y-15195405D01*
D10*
X12426356Y-15632856D02*
X12426356Y-15562144D01*
X12355644Y-15562144D01*
X12355644Y-15632856D01*
X12426356Y-15632856D01*
D11*
X12803381Y-15687976D02*
X12689095Y-15687976D01*
X12746238Y-15687976D02*
X12746238Y-15487976D01*
X12727190Y-15516548D01*
X12708143Y-15535595D01*
X12689095Y-15545119D01*
X12889095Y-15668928D02*
X12898619Y-15678452D01*
X12889095Y-15687976D01*
X12879571Y-15678452D01*
X12889095Y-15668928D01*
X12889095Y-15687976D01*
X13022428Y-15487976D02*
X13041476Y-15487976D01*
X13060524Y-15497500D01*
X13070048Y-15507024D01*
X13079571Y-15526071D01*
X13089095Y-15564167D01*
X13089095Y-15611786D01*
X13079571Y-15649881D01*
X13070048Y-15668928D01*
X13060524Y-15678452D01*
X13041476Y-15687976D01*
X13022428Y-15687976D01*
X13003381Y-15678452D01*
X12993857Y-15668928D01*
X12984333Y-15649881D01*
X12974809Y-15611786D01*
X12974809Y-15564167D01*
X12984333Y-15526071D01*
X12993857Y-15507024D01*
X13003381Y-15497500D01*
X13022428Y-15487976D01*
X13212905Y-15487976D02*
X13231952Y-15487976D01*
X13251000Y-15497500D01*
X13260524Y-15507024D01*
X13270048Y-15526071D01*
X13279571Y-15564167D01*
X13279571Y-15611786D01*
X13270048Y-15649881D01*
X13260524Y-15668928D01*
X13251000Y-15678452D01*
X13231952Y-15687976D01*
X13212905Y-15687976D01*
X13193857Y-15678452D01*
X13184333Y-15668928D01*
X13174809Y-15649881D01*
X13165286Y-15611786D01*
X13165286Y-15564167D01*
X13174809Y-15526071D01*
X13184333Y-15507024D01*
X13193857Y-15497500D01*
X13212905Y-15487976D01*
X13403381Y-15487976D02*
X13422428Y-15487976D01*
X13441476Y-15497500D01*
X13451000Y-15507024D01*
X13460524Y-15526071D01*
X13470048Y-15564167D01*
X13470048Y-15611786D01*
X13460524Y-15649881D01*
X13451000Y-15668928D01*
X13441476Y-15678452D01*
X13422428Y-15687976D01*
X13403381Y-15687976D01*
X13384333Y-15678452D01*
X13374809Y-15668928D01*
X13365286Y-15649881D01*
X13355762Y-15611786D01*
X13355762Y-15564167D01*
X13365286Y-15526071D01*
X13374809Y-15507024D01*
X13384333Y-15497500D01*
X13403381Y-15487976D01*
X13555762Y-15687976D02*
X13555762Y-15554643D01*
X13555762Y-15573690D02*
X13565286Y-15564167D01*
X13584333Y-15554643D01*
X13612905Y-15554643D01*
X13631952Y-15564167D01*
X13641476Y-15583214D01*
X13641476Y-15687976D01*
X13641476Y-15583214D02*
X13651000Y-15564167D01*
X13670048Y-15554643D01*
X13698619Y-15554643D01*
X13717667Y-15564167D01*
X13727190Y-15583214D01*
X13727190Y-15687976D01*
X13822428Y-15687976D02*
X13822428Y-15554643D01*
X13822428Y-15573690D02*
X13831952Y-15564167D01*
X13851000Y-15554643D01*
X13879571Y-15554643D01*
X13898619Y-15564167D01*
X13908143Y-15583214D01*
X13908143Y-15687976D01*
X13908143Y-15583214D02*
X13917667Y-15564167D01*
X13936714Y-15554643D01*
X13965286Y-15554643D01*
X13984333Y-15564167D01*
X13993857Y-15583214D01*
X13993857Y-15687976D01*
X14384333Y-15478452D02*
X14212905Y-15735595D01*
X14641476Y-15487976D02*
X14660524Y-15487976D01*
X14679571Y-15497500D01*
X14689095Y-15507024D01*
X14698619Y-15526071D01*
X14708143Y-15564167D01*
X14708143Y-15611786D01*
X14698619Y-15649881D01*
X14689095Y-15668928D01*
X14679571Y-15678452D01*
X14660524Y-15687976D01*
X14641476Y-15687976D01*
X14622428Y-15678452D01*
X14612905Y-15668928D01*
X14603381Y-15649881D01*
X14593857Y-15611786D01*
X14593857Y-15564167D01*
X14603381Y-15526071D01*
X14612905Y-15507024D01*
X14622428Y-15497500D01*
X14641476Y-15487976D01*
X14793857Y-15668928D02*
X14803381Y-15678452D01*
X14793857Y-15687976D01*
X14784333Y-15678452D01*
X14793857Y-15668928D01*
X14793857Y-15687976D01*
X14927190Y-15487976D02*
X14946238Y-15487976D01*
X14965286Y-15497500D01*
X14974809Y-15507024D01*
X14984333Y-15526071D01*
X14993857Y-15564167D01*
X14993857Y-15611786D01*
X14984333Y-15649881D01*
X14974809Y-15668928D01*
X14965286Y-15678452D01*
X14946238Y-15687976D01*
X14927190Y-15687976D01*
X14908143Y-15678452D01*
X14898619Y-15668928D01*
X14889095Y-15649881D01*
X14879571Y-15611786D01*
X14879571Y-15564167D01*
X14889095Y-15526071D01*
X14898619Y-15507024D01*
X14908143Y-15497500D01*
X14927190Y-15487976D01*
X15060524Y-15487976D02*
X15184333Y-15487976D01*
X15117667Y-15564167D01*
X15146238Y-15564167D01*
X15165286Y-15573690D01*
X15174809Y-15583214D01*
X15184333Y-15602262D01*
X15184333Y-15649881D01*
X15174809Y-15668928D01*
X15165286Y-15678452D01*
X15146238Y-15687976D01*
X15089095Y-15687976D01*
X15070048Y-15678452D01*
X15060524Y-15668928D01*
X15279571Y-15687976D02*
X15317667Y-15687976D01*
X15336714Y-15678452D01*
X15346238Y-15668928D01*
X15365286Y-15640357D01*
X15374809Y-15602262D01*
X15374809Y-15526071D01*
X15365286Y-15507024D01*
X15355762Y-15497500D01*
X15336714Y-15487976D01*
X15298619Y-15487976D01*
X15279571Y-15497500D01*
X15270048Y-15507024D01*
X15260524Y-15526071D01*
X15260524Y-15573690D01*
X15270048Y-15592738D01*
X15279571Y-15602262D01*
X15298619Y-15611786D01*
X15336714Y-15611786D01*
X15355762Y-15602262D01*
X15365286Y-15592738D01*
X15374809Y-15573690D01*
X15546238Y-15554643D02*
X15546238Y-15687976D01*
X15498619Y-15478452D02*
X15451000Y-15621309D01*
X15574809Y-15621309D01*
X15641476Y-15487976D02*
X15641476Y-15526071D01*
X15717667Y-15487976D02*
X15717667Y-15526071D01*
X16012905Y-15764167D02*
X16003381Y-15754643D01*
X15984333Y-15726071D01*
X15974809Y-15707024D01*
X15965286Y-15678452D01*
X15955762Y-15630833D01*
X15955762Y-15592738D01*
X15965286Y-15545119D01*
X15974809Y-15516548D01*
X15984333Y-15497500D01*
X16003381Y-15468928D01*
X16012905Y-15459405D01*
X16117667Y-15573690D02*
X16098619Y-15564167D01*
X16089095Y-15554643D01*
X16079571Y-15535595D01*
X16079571Y-15526071D01*
X16089095Y-15507024D01*
X16098619Y-15497500D01*
X16117667Y-15487976D01*
X16155762Y-15487976D01*
X16174809Y-15497500D01*
X16184333Y-15507024D01*
X16193857Y-15526071D01*
X16193857Y-15535595D01*
X16184333Y-15554643D01*
X16174809Y-15564167D01*
X16155762Y-15573690D01*
X16117667Y-15573690D01*
X16098619Y-15583214D01*
X16089095Y-15592738D01*
X16079571Y-15611786D01*
X16079571Y-15649881D01*
X16089095Y-15668928D01*
X16098619Y-15678452D01*
X16117667Y-15687976D01*
X16155762Y-15687976D01*
X16174809Y-15678452D01*
X16184333Y-15668928D01*
X16193857Y-15649881D01*
X16193857Y-15611786D01*
X16184333Y-15592738D01*
X16174809Y-15583214D01*
X16155762Y-15573690D01*
X16431952Y-15687976D02*
X16431952Y-15487976D01*
X16517667Y-15687976D02*
X16517667Y-15583214D01*
X16508143Y-15564167D01*
X16489095Y-15554643D01*
X16460524Y-15554643D01*
X16441476Y-15564167D01*
X16431952Y-15573690D01*
X16641476Y-15687976D02*
X16622428Y-15678452D01*
X16612905Y-15668928D01*
X16603381Y-15649881D01*
X16603381Y-15592738D01*
X16612905Y-15573690D01*
X16622428Y-15564167D01*
X16641476Y-15554643D01*
X16670048Y-15554643D01*
X16689095Y-15564167D01*
X16698619Y-15573690D01*
X16708143Y-15592738D01*
X16708143Y-15649881D01*
X16698619Y-15668928D01*
X16689095Y-15678452D01*
X16670048Y-15687976D01*
X16641476Y-15687976D01*
X16822429Y-15687976D02*
X16803381Y-15678452D01*
X16793857Y-15659405D01*
X16793857Y-15487976D01*
X16974810Y-15678452D02*
X16955762Y-15687976D01*
X16917667Y-15687976D01*
X16898619Y-15678452D01*
X16889095Y-15659405D01*
X16889095Y-15583214D01*
X16898619Y-15564167D01*
X16917667Y-15554643D01*
X16955762Y-15554643D01*
X16974810Y-15564167D01*
X16984333Y-15583214D01*
X16984333Y-15602262D01*
X16889095Y-15621309D01*
X17060524Y-15678452D02*
X17079571Y-15687976D01*
X17117667Y-15687976D01*
X17136714Y-15678452D01*
X17146238Y-15659405D01*
X17146238Y-15649881D01*
X17136714Y-15630833D01*
X17117667Y-15621309D01*
X17089095Y-15621309D01*
X17070048Y-15611786D01*
X17060524Y-15592738D01*
X17060524Y-15583214D01*
X17070048Y-15564167D01*
X17089095Y-15554643D01*
X17117667Y-15554643D01*
X17136714Y-15564167D01*
X17212905Y-15764167D02*
X17222429Y-15754643D01*
X17241476Y-15726071D01*
X17251000Y-15707024D01*
X17260524Y-15678452D01*
X17270048Y-15630833D01*
X17270048Y-15592738D01*
X17260524Y-15545119D01*
X17251000Y-15516548D01*
X17241476Y-15497500D01*
X17222429Y-15468928D01*
X17212905Y-15459405D01*
D15*
X12376000Y-15926500D02*
X12441000Y-15861500D01*
X12376000Y-15796500D01*
X12311000Y-15861500D01*
X12376000Y-15926500D01*
D11*
X12803381Y-15951976D02*
X12689095Y-15951976D01*
X12746238Y-15951976D02*
X12746238Y-15751976D01*
X12727190Y-15780548D01*
X12708143Y-15799595D01*
X12689095Y-15809119D01*
X12889095Y-15932928D02*
X12898619Y-15942452D01*
X12889095Y-15951976D01*
X12879571Y-15942452D01*
X12889095Y-15932928D01*
X12889095Y-15951976D01*
X12965286Y-15751976D02*
X13089095Y-15751976D01*
X13022428Y-15828167D01*
X13051000Y-15828167D01*
X13070048Y-15837690D01*
X13079571Y-15847214D01*
X13089095Y-15866262D01*
X13089095Y-15913881D01*
X13079571Y-15932928D01*
X13070048Y-15942452D01*
X13051000Y-15951976D01*
X12993857Y-15951976D01*
X12974809Y-15942452D01*
X12965286Y-15932928D01*
X13212905Y-15751976D02*
X13231952Y-15751976D01*
X13251000Y-15761500D01*
X13260524Y-15771024D01*
X13270048Y-15790071D01*
X13279571Y-15828167D01*
X13279571Y-15875786D01*
X13270048Y-15913881D01*
X13260524Y-15932928D01*
X13251000Y-15942452D01*
X13231952Y-15951976D01*
X13212905Y-15951976D01*
X13193857Y-15942452D01*
X13184333Y-15932928D01*
X13174809Y-15913881D01*
X13165286Y-15875786D01*
X13165286Y-15828167D01*
X13174809Y-15790071D01*
X13184333Y-15771024D01*
X13193857Y-15761500D01*
X13212905Y-15751976D01*
X13403381Y-15751976D02*
X13422428Y-15751976D01*
X13441476Y-15761500D01*
X13451000Y-15771024D01*
X13460524Y-15790071D01*
X13470048Y-15828167D01*
X13470048Y-15875786D01*
X13460524Y-15913881D01*
X13451000Y-15932928D01*
X13441476Y-15942452D01*
X13422428Y-15951976D01*
X13403381Y-15951976D01*
X13384333Y-15942452D01*
X13374809Y-15932928D01*
X13365286Y-15913881D01*
X13355762Y-15875786D01*
X13355762Y-15828167D01*
X13365286Y-15790071D01*
X13374809Y-15771024D01*
X13384333Y-15761500D01*
X13403381Y-15751976D01*
X13555762Y-15951976D02*
X13555762Y-15818643D01*
X13555762Y-15837690D02*
X13565286Y-15828167D01*
X13584333Y-15818643D01*
X13612905Y-15818643D01*
X13631952Y-15828167D01*
X13641476Y-15847214D01*
X13641476Y-15951976D01*
X13641476Y-15847214D02*
X13651000Y-15828167D01*
X13670048Y-15818643D01*
X13698619Y-15818643D01*
X13717667Y-15828167D01*
X13727190Y-15847214D01*
X13727190Y-15951976D01*
X13822428Y-15951976D02*
X13822428Y-15818643D01*
X13822428Y-15837690D02*
X13831952Y-15828167D01*
X13851000Y-15818643D01*
X13879571Y-15818643D01*
X13898619Y-15828167D01*
X13908143Y-15847214D01*
X13908143Y-15951976D01*
X13908143Y-15847214D02*
X13917667Y-15828167D01*
X13936714Y-15818643D01*
X13965286Y-15818643D01*
X13984333Y-15828167D01*
X13993857Y-15847214D01*
X13993857Y-15951976D01*
X14384333Y-15742452D02*
X14212905Y-15999595D01*
X14641476Y-15751976D02*
X14660524Y-15751976D01*
X14679571Y-15761500D01*
X14689095Y-15771024D01*
X14698619Y-15790071D01*
X14708143Y-15828167D01*
X14708143Y-15875786D01*
X14698619Y-15913881D01*
X14689095Y-15932928D01*
X14679571Y-15942452D01*
X14660524Y-15951976D01*
X14641476Y-15951976D01*
X14622428Y-15942452D01*
X14612905Y-15932928D01*
X14603381Y-15913881D01*
X14593857Y-15875786D01*
X14593857Y-15828167D01*
X14603381Y-15790071D01*
X14612905Y-15771024D01*
X14622428Y-15761500D01*
X14641476Y-15751976D01*
X14793857Y-15932928D02*
X14803381Y-15942452D01*
X14793857Y-15951976D01*
X14784333Y-15942452D01*
X14793857Y-15932928D01*
X14793857Y-15951976D01*
X14927190Y-15751976D02*
X14946238Y-15751976D01*
X14965286Y-15761500D01*
X14974809Y-15771024D01*
X14984333Y-15790071D01*
X14993857Y-15828167D01*
X14993857Y-15875786D01*
X14984333Y-15913881D01*
X14974809Y-15932928D01*
X14965286Y-15942452D01*
X14946238Y-15951976D01*
X14927190Y-15951976D01*
X14908143Y-15942452D01*
X14898619Y-15932928D01*
X14889095Y-15913881D01*
X14879571Y-15875786D01*
X14879571Y-15828167D01*
X14889095Y-15790071D01*
X14898619Y-15771024D01*
X14908143Y-15761500D01*
X14927190Y-15751976D01*
X15174809Y-15751976D02*
X15079571Y-15751976D01*
X15070048Y-15847214D01*
X15079571Y-15837690D01*
X15098619Y-15828167D01*
X15146238Y-15828167D01*
X15165286Y-15837690D01*
X15174809Y-15847214D01*
X15184333Y-15866262D01*
X15184333Y-15913881D01*
X15174809Y-15932928D01*
X15165286Y-15942452D01*
X15146238Y-15951976D01*
X15098619Y-15951976D01*
X15079571Y-15942452D01*
X15070048Y-15932928D01*
X15374809Y-15951976D02*
X15260524Y-15951976D01*
X15317667Y-15951976D02*
X15317667Y-15751976D01*
X15298619Y-15780548D01*
X15279571Y-15799595D01*
X15260524Y-15809119D01*
X15451000Y-15771024D02*
X15460524Y-15761500D01*
X15479571Y-15751976D01*
X15527190Y-15751976D01*
X15546238Y-15761500D01*
X15555762Y-15771024D01*
X15565286Y-15790071D01*
X15565286Y-15809119D01*
X15555762Y-15837690D01*
X15441476Y-15951976D01*
X15565286Y-15951976D01*
X15641476Y-15751976D02*
X15641476Y-15790071D01*
X15717667Y-15751976D02*
X15717667Y-15790071D01*
X16012905Y-16028167D02*
X16003381Y-16018643D01*
X15984333Y-15990071D01*
X15974809Y-15971024D01*
X15965286Y-15942452D01*
X15955762Y-15894833D01*
X15955762Y-15856738D01*
X15965286Y-15809119D01*
X15974809Y-15780548D01*
X15984333Y-15761500D01*
X16003381Y-15732928D01*
X16012905Y-15723405D01*
X16174809Y-15751976D02*
X16136714Y-15751976D01*
X16117667Y-15761500D01*
X16108143Y-15771024D01*
X16089095Y-15799595D01*
X16079571Y-15837690D01*
X16079571Y-15913881D01*
X16089095Y-15932928D01*
X16098619Y-15942452D01*
X16117667Y-15951976D01*
X16155762Y-15951976D01*
X16174809Y-15942452D01*
X16184333Y-15932928D01*
X16193857Y-15913881D01*
X16193857Y-15866262D01*
X16184333Y-15847214D01*
X16174809Y-15837690D01*
X16155762Y-15828167D01*
X16117667Y-15828167D01*
X16098619Y-15837690D01*
X16089095Y-15847214D01*
X16079571Y-15866262D01*
X16431952Y-15951976D02*
X16431952Y-15751976D01*
X16517667Y-15951976D02*
X16517667Y-15847214D01*
X16508143Y-15828167D01*
X16489095Y-15818643D01*
X16460524Y-15818643D01*
X16441476Y-15828167D01*
X16431952Y-15837690D01*
X16641476Y-15951976D02*
X16622428Y-15942452D01*
X16612905Y-15932928D01*
X16603381Y-15913881D01*
X16603381Y-15856738D01*
X16612905Y-15837690D01*
X16622428Y-15828167D01*
X16641476Y-15818643D01*
X16670048Y-15818643D01*
X16689095Y-15828167D01*
X16698619Y-15837690D01*
X16708143Y-15856738D01*
X16708143Y-15913881D01*
X16698619Y-15932928D01*
X16689095Y-15942452D01*
X16670048Y-15951976D01*
X16641476Y-15951976D01*
X16822429Y-15951976D02*
X16803381Y-15942452D01*
X16793857Y-15923405D01*
X16793857Y-15751976D01*
X16974810Y-15942452D02*
X16955762Y-15951976D01*
X16917667Y-15951976D01*
X16898619Y-15942452D01*
X16889095Y-15923405D01*
X16889095Y-15847214D01*
X16898619Y-15828167D01*
X16917667Y-15818643D01*
X16955762Y-15818643D01*
X16974810Y-15828167D01*
X16984333Y-15847214D01*
X16984333Y-15866262D01*
X16889095Y-15885309D01*
X17060524Y-15942452D02*
X17079571Y-15951976D01*
X17117667Y-15951976D01*
X17136714Y-15942452D01*
X17146238Y-15923405D01*
X17146238Y-15913881D01*
X17136714Y-15894833D01*
X17117667Y-15885309D01*
X17089095Y-15885309D01*
X17070048Y-15875786D01*
X17060524Y-15856738D01*
X17060524Y-15847214D01*
X17070048Y-15828167D01*
X17089095Y-15818643D01*
X17117667Y-15818643D01*
X17136714Y-15828167D01*
X17212905Y-16028167D02*
X17222429Y-16018643D01*
X17241476Y-15990071D01*
X17251000Y-15971024D01*
X17260524Y-15942452D01*
X17270048Y-15894833D01*
X17270048Y-15856738D01*
X17260524Y-15809119D01*
X17251000Y-15780548D01*
X17241476Y-15761500D01*
X17222429Y-15732928D01*
X17212905Y-15723405D01*
D16*
X12289000Y-16049500D02*
X12441000Y-16201500D01*
X12441000Y-16049500D02*
X12289000Y-16201500D01*
X12441000Y-16125500D02*
G75*
G03*
X12441000Y-16125500I-76000J0D01*
G01*
D11*
X12803381Y-16215976D02*
X12689095Y-16215976D01*
X12746238Y-16215976D02*
X12746238Y-16015976D01*
X12727190Y-16044548D01*
X12708143Y-16063595D01*
X12689095Y-16073119D01*
X12889095Y-16196928D02*
X12898619Y-16206452D01*
X12889095Y-16215976D01*
X12879571Y-16206452D01*
X12889095Y-16196928D01*
X12889095Y-16215976D01*
X13079571Y-16015976D02*
X12984333Y-16015976D01*
X12974809Y-16111214D01*
X12984333Y-16101690D01*
X13003381Y-16092167D01*
X13051000Y-16092167D01*
X13070048Y-16101690D01*
X13079571Y-16111214D01*
X13089095Y-16130262D01*
X13089095Y-16177881D01*
X13079571Y-16196928D01*
X13070048Y-16206452D01*
X13051000Y-16215976D01*
X13003381Y-16215976D01*
X12984333Y-16206452D01*
X12974809Y-16196928D01*
X13165286Y-16035024D02*
X13174809Y-16025500D01*
X13193857Y-16015976D01*
X13241476Y-16015976D01*
X13260524Y-16025500D01*
X13270048Y-16035024D01*
X13279571Y-16054071D01*
X13279571Y-16073119D01*
X13270048Y-16101690D01*
X13155762Y-16215976D01*
X13279571Y-16215976D01*
X13403381Y-16015976D02*
X13422428Y-16015976D01*
X13441476Y-16025500D01*
X13451000Y-16035024D01*
X13460524Y-16054071D01*
X13470048Y-16092167D01*
X13470048Y-16139786D01*
X13460524Y-16177881D01*
X13451000Y-16196928D01*
X13441476Y-16206452D01*
X13422428Y-16215976D01*
X13403381Y-16215976D01*
X13384333Y-16206452D01*
X13374809Y-16196928D01*
X13365286Y-16177881D01*
X13355762Y-16139786D01*
X13355762Y-16092167D01*
X13365286Y-16054071D01*
X13374809Y-16035024D01*
X13384333Y-16025500D01*
X13403381Y-16015976D01*
X13555762Y-16215976D02*
X13555762Y-16082643D01*
X13555762Y-16101690D02*
X13565286Y-16092167D01*
X13584333Y-16082643D01*
X13612905Y-16082643D01*
X13631952Y-16092167D01*
X13641476Y-16111214D01*
X13641476Y-16215976D01*
X13641476Y-16111214D02*
X13651000Y-16092167D01*
X13670048Y-16082643D01*
X13698619Y-16082643D01*
X13717667Y-16092167D01*
X13727190Y-16111214D01*
X13727190Y-16215976D01*
X13822428Y-16215976D02*
X13822428Y-16082643D01*
X13822428Y-16101690D02*
X13831952Y-16092167D01*
X13851000Y-16082643D01*
X13879571Y-16082643D01*
X13898619Y-16092167D01*
X13908143Y-16111214D01*
X13908143Y-16215976D01*
X13908143Y-16111214D02*
X13917667Y-16092167D01*
X13936714Y-16082643D01*
X13965286Y-16082643D01*
X13984333Y-16092167D01*
X13993857Y-16111214D01*
X13993857Y-16215976D01*
X14384333Y-16006452D02*
X14212905Y-16263595D01*
X14641476Y-16015976D02*
X14660524Y-16015976D01*
X14679571Y-16025500D01*
X14689095Y-16035024D01*
X14698619Y-16054071D01*
X14708143Y-16092167D01*
X14708143Y-16139786D01*
X14698619Y-16177881D01*
X14689095Y-16196928D01*
X14679571Y-16206452D01*
X14660524Y-16215976D01*
X14641476Y-16215976D01*
X14622428Y-16206452D01*
X14612905Y-16196928D01*
X14603381Y-16177881D01*
X14593857Y-16139786D01*
X14593857Y-16092167D01*
X14603381Y-16054071D01*
X14612905Y-16035024D01*
X14622428Y-16025500D01*
X14641476Y-16015976D01*
X14793857Y-16196928D02*
X14803381Y-16206452D01*
X14793857Y-16215976D01*
X14784333Y-16206452D01*
X14793857Y-16196928D01*
X14793857Y-16215976D01*
X14927190Y-16015976D02*
X14946238Y-16015976D01*
X14965286Y-16025500D01*
X14974809Y-16035024D01*
X14984333Y-16054071D01*
X14993857Y-16092167D01*
X14993857Y-16139786D01*
X14984333Y-16177881D01*
X14974809Y-16196928D01*
X14965286Y-16206452D01*
X14946238Y-16215976D01*
X14927190Y-16215976D01*
X14908143Y-16206452D01*
X14898619Y-16196928D01*
X14889095Y-16177881D01*
X14879571Y-16139786D01*
X14879571Y-16092167D01*
X14889095Y-16054071D01*
X14898619Y-16035024D01*
X14908143Y-16025500D01*
X14927190Y-16015976D01*
X15174809Y-16015976D02*
X15079571Y-16015976D01*
X15070048Y-16111214D01*
X15079571Y-16101690D01*
X15098619Y-16092167D01*
X15146238Y-16092167D01*
X15165286Y-16101690D01*
X15174809Y-16111214D01*
X15184333Y-16130262D01*
X15184333Y-16177881D01*
X15174809Y-16196928D01*
X15165286Y-16206452D01*
X15146238Y-16215976D01*
X15098619Y-16215976D01*
X15079571Y-16206452D01*
X15070048Y-16196928D01*
X15279571Y-16215976D02*
X15317667Y-16215976D01*
X15336714Y-16206452D01*
X15346238Y-16196928D01*
X15365286Y-16168357D01*
X15374809Y-16130262D01*
X15374809Y-16054071D01*
X15365286Y-16035024D01*
X15355762Y-16025500D01*
X15336714Y-16015976D01*
X15298619Y-16015976D01*
X15279571Y-16025500D01*
X15270048Y-16035024D01*
X15260524Y-16054071D01*
X15260524Y-16101690D01*
X15270048Y-16120738D01*
X15279571Y-16130262D01*
X15298619Y-16139786D01*
X15336714Y-16139786D01*
X15355762Y-16130262D01*
X15365286Y-16120738D01*
X15374809Y-16101690D01*
X15489095Y-16101690D02*
X15470048Y-16092167D01*
X15460524Y-16082643D01*
X15451000Y-16063595D01*
X15451000Y-16054071D01*
X15460524Y-16035024D01*
X15470048Y-16025500D01*
X15489095Y-16015976D01*
X15527190Y-16015976D01*
X15546238Y-16025500D01*
X15555762Y-16035024D01*
X15565286Y-16054071D01*
X15565286Y-16063595D01*
X15555762Y-16082643D01*
X15546238Y-16092167D01*
X15527190Y-16101690D01*
X15489095Y-16101690D01*
X15470048Y-16111214D01*
X15460524Y-16120738D01*
X15451000Y-16139786D01*
X15451000Y-16177881D01*
X15460524Y-16196928D01*
X15470048Y-16206452D01*
X15489095Y-16215976D01*
X15527190Y-16215976D01*
X15546238Y-16206452D01*
X15555762Y-16196928D01*
X15565286Y-16177881D01*
X15565286Y-16139786D01*
X15555762Y-16120738D01*
X15546238Y-16111214D01*
X15527190Y-16101690D01*
X15641476Y-16015976D02*
X15641476Y-16054071D01*
X15717667Y-16015976D02*
X15717667Y-16054071D01*
X16012905Y-16292167D02*
X16003381Y-16282643D01*
X15984333Y-16254071D01*
X15974809Y-16235024D01*
X15965286Y-16206452D01*
X15955762Y-16158833D01*
X15955762Y-16120738D01*
X15965286Y-16073119D01*
X15974809Y-16044548D01*
X15984333Y-16025500D01*
X16003381Y-15996928D01*
X16012905Y-15987405D01*
X16174809Y-16082643D02*
X16174809Y-16215976D01*
X16127190Y-16006452D02*
X16079571Y-16149309D01*
X16203381Y-16149309D01*
X16431952Y-16215976D02*
X16431952Y-16015976D01*
X16517667Y-16215976D02*
X16517667Y-16111214D01*
X16508143Y-16092167D01*
X16489095Y-16082643D01*
X16460524Y-16082643D01*
X16441476Y-16092167D01*
X16431952Y-16101690D01*
X16641476Y-16215976D02*
X16622428Y-16206452D01*
X16612905Y-16196928D01*
X16603381Y-16177881D01*
X16603381Y-16120738D01*
X16612905Y-16101690D01*
X16622428Y-16092167D01*
X16641476Y-16082643D01*
X16670048Y-16082643D01*
X16689095Y-16092167D01*
X16698619Y-16101690D01*
X16708143Y-16120738D01*
X16708143Y-16177881D01*
X16698619Y-16196928D01*
X16689095Y-16206452D01*
X16670048Y-16215976D01*
X16641476Y-16215976D01*
X16822429Y-16215976D02*
X16803381Y-16206452D01*
X16793857Y-16187405D01*
X16793857Y-16015976D01*
X16974810Y-16206452D02*
X16955762Y-16215976D01*
X16917667Y-16215976D01*
X16898619Y-16206452D01*
X16889095Y-16187405D01*
X16889095Y-16111214D01*
X16898619Y-16092167D01*
X16917667Y-16082643D01*
X16955762Y-16082643D01*
X16974810Y-16092167D01*
X16984333Y-16111214D01*
X16984333Y-16130262D01*
X16889095Y-16149309D01*
X17060524Y-16206452D02*
X17079571Y-16215976D01*
X17117667Y-16215976D01*
X17136714Y-16206452D01*
X17146238Y-16187405D01*
X17146238Y-16177881D01*
X17136714Y-16158833D01*
X17117667Y-16149309D01*
X17089095Y-16149309D01*
X17070048Y-16139786D01*
X17060524Y-16120738D01*
X17060524Y-16111214D01*
X17070048Y-16092167D01*
X17089095Y-16082643D01*
X17117667Y-16082643D01*
X17136714Y-16092167D01*
X17212905Y-16292167D02*
X17222429Y-16282643D01*
X17241476Y-16254071D01*
X17251000Y-16235024D01*
X17260524Y-16206452D01*
X17270048Y-16158833D01*
X17270048Y-16120738D01*
X17260524Y-16073119D01*
X17251000Y-16044548D01*
X17241476Y-16025500D01*
X17222429Y-15996928D01*
X17212905Y-15987405D01*
M02*
