%TF.GenerationSoftware,KiCad,Pcbnew,7.0.10-7.0.10~ubuntu22.04.1*%
%TF.CreationDate,2024-01-10T11:04:38+02:00*%
%TF.ProjectId,limit_switch,6c696d69-745f-4737-9769-7463682e6b69,rev?*%
%TF.SameCoordinates,Original*%
%TF.FileFunction,Copper,L1,Top*%
%TF.FilePolarity,Positive*%
%FSLAX46Y46*%
G04 Gerber Fmt 4.6, Leading zero omitted, Abs format (unit mm)*
G04 Created by KiCad (PCBNEW 7.0.10-7.0.10~ubuntu22.04.1) date 2024-01-10 11:04:38*
%MOMM*%
%LPD*%
G01*
G04 APERTURE LIST*
G04 Aperture macros list*
%AMRoundRect*
0 Rectangle with rounded corners*
0 $1 Rounding radius*
0 $2 $3 $4 $5 $6 $7 $8 $9 X,Y pos of 4 corners*
0 Add a 4 corners polygon primitive as box body*
4,1,4,$2,$3,$4,$5,$6,$7,$8,$9,$2,$3,0*
0 Add four circle primitives for the rounded corners*
1,1,$1+$1,$2,$3*
1,1,$1+$1,$4,$5*
1,1,$1+$1,$6,$7*
1,1,$1+$1,$8,$9*
0 Add four rect primitives between the rounded corners*
20,1,$1+$1,$2,$3,$4,$5,0*
20,1,$1+$1,$4,$5,$6,$7,0*
20,1,$1+$1,$6,$7,$8,$9,0*
20,1,$1+$1,$8,$9,$2,$3,0*%
G04 Aperture macros list end*
%TA.AperFunction,ComponentPad*%
%ADD10RoundRect,0.250000X0.600000X0.725000X-0.600000X0.725000X-0.600000X-0.725000X0.600000X-0.725000X0*%
%TD*%
%TA.AperFunction,ComponentPad*%
%ADD11O,1.700000X1.950000*%
%TD*%
%TA.AperFunction,ComponentPad*%
%ADD12C,1.600000*%
%TD*%
%TA.AperFunction,ComponentPad*%
%ADD13O,1.600000X1.600000*%
%TD*%
%TA.AperFunction,ComponentPad*%
%ADD14RoundRect,0.250000X-0.600000X-0.750000X0.600000X-0.750000X0.600000X0.750000X-0.600000X0.750000X0*%
%TD*%
%TA.AperFunction,ComponentPad*%
%ADD15O,1.700000X2.000000*%
%TD*%
%TA.AperFunction,ComponentPad*%
%ADD16RoundRect,0.250000X0.750000X-0.600000X0.750000X0.600000X-0.750000X0.600000X-0.750000X-0.600000X0*%
%TD*%
%TA.AperFunction,ComponentPad*%
%ADD17O,2.000000X1.700000*%
%TD*%
%TA.AperFunction,ComponentPad*%
%ADD18R,1.600000X1.600000*%
%TD*%
%TA.AperFunction,ComponentPad*%
%ADD19RoundRect,0.250000X0.600000X0.750000X-0.600000X0.750000X-0.600000X-0.750000X0.600000X-0.750000X0*%
%TD*%
%TA.AperFunction,Conductor*%
%ADD20C,0.800000*%
%TD*%
%TA.AperFunction,Profile*%
%ADD21C,0.100000*%
%TD*%
G04 APERTURE END LIST*
D10*
X179429000Y-122035000D03*
D11*
X176929000Y-122035000D03*
X174429000Y-122035000D03*
D12*
X171929000Y-114785000D03*
X166929000Y-114785000D03*
X183828000Y-91624000D03*
D13*
X183828000Y-99244000D03*
D14*
X168429000Y-88402500D03*
D15*
X170929000Y-88402500D03*
D14*
X176929000Y-88435000D03*
D15*
X179429000Y-88435000D03*
D12*
X171929000Y-111785000D03*
X166929000Y-111785000D03*
D14*
X185429000Y-88535000D03*
D15*
X187929000Y-88535000D03*
D16*
X172656500Y-96035000D03*
D17*
X172656500Y-93535000D03*
D18*
X178245000Y-101413000D03*
D13*
X175705000Y-101413000D03*
X175705000Y-109033000D03*
X178245000Y-109033000D03*
D12*
X186429000Y-118785000D03*
D13*
X186429000Y-111165000D03*
D12*
X174429000Y-118785000D03*
D13*
X174429000Y-111165000D03*
D12*
X178875000Y-91624000D03*
D13*
X178875000Y-99244000D03*
D12*
X171929000Y-117785000D03*
X166929000Y-117785000D03*
X177429000Y-118785000D03*
D13*
X177429000Y-111165000D03*
D12*
X189429000Y-118785000D03*
D13*
X189429000Y-111165000D03*
D19*
X187929000Y-122035000D03*
D15*
X185429000Y-122035000D03*
D18*
X183833000Y-101413000D03*
D13*
X181293000Y-101413000D03*
X181293000Y-109033000D03*
X183833000Y-109033000D03*
D12*
X189416000Y-91624000D03*
D13*
X189416000Y-99244000D03*
D12*
X180429000Y-118785000D03*
D13*
X180429000Y-111165000D03*
D18*
X189421000Y-101413000D03*
D13*
X186881000Y-101413000D03*
X186881000Y-109033000D03*
X189421000Y-109033000D03*
D12*
X183429000Y-118785000D03*
D13*
X183429000Y-111165000D03*
D20*
X172656500Y-93535000D02*
X172715510Y-93535000D01*
X172715510Y-93535000D02*
X175705000Y-96524490D01*
X175705000Y-96524490D02*
X175705000Y-101413000D01*
X172656500Y-96035000D02*
X172461500Y-96035000D01*
X172461500Y-96035000D02*
X168429000Y-92002500D01*
X181854000Y-125610000D02*
X185429000Y-122035000D01*
X169681000Y-109033000D02*
X166929000Y-111785000D01*
X182693000Y-107633000D02*
X177105000Y-107633000D01*
X172999962Y-125610000D02*
X181854000Y-125610000D01*
X166929000Y-119539038D02*
X172999962Y-125610000D01*
X175705000Y-109033000D02*
X169681000Y-109033000D01*
X166929000Y-114785000D02*
X166929000Y-117785000D01*
X166929000Y-111785000D02*
X166929000Y-114785000D01*
X177105000Y-107633000D02*
X175705000Y-109033000D01*
X166929000Y-117785000D02*
X166929000Y-119539038D01*
X186881000Y-109033000D02*
X185481000Y-107633000D01*
X185481000Y-107633000D02*
X182693000Y-107633000D01*
X182693000Y-107633000D02*
X181293000Y-109033000D01*
X183828000Y-91624000D02*
X189416000Y-91624000D01*
X178875000Y-91624000D02*
X183828000Y-91624000D01*
X189416000Y-90022000D02*
X187929000Y-88535000D01*
X189416000Y-91624000D02*
X189416000Y-90022000D01*
X180429000Y-118785000D02*
X183429000Y-118785000D01*
X180429000Y-118785000D02*
X177429000Y-118785000D01*
X177429000Y-118785000D02*
X174429000Y-118785000D01*
X189429000Y-118785000D02*
X189429000Y-120535000D01*
X189429000Y-120535000D02*
X187929000Y-122035000D01*
X186429000Y-118785000D02*
X189429000Y-118785000D01*
X183429000Y-118785000D02*
X186429000Y-118785000D01*
X179429000Y-89090101D02*
X179429000Y-88435000D01*
X184407899Y-97844000D02*
X186881000Y-100317101D01*
X177475000Y-92581002D02*
X182737998Y-97844000D01*
X177475000Y-91044101D02*
X179429000Y-89090101D01*
X177475000Y-92581002D02*
X177475000Y-91044101D01*
X182737998Y-97844000D02*
X184407899Y-97844000D01*
X186881000Y-100317101D02*
X186881000Y-101413000D01*
X170929000Y-89318101D02*
X181293000Y-99682101D01*
X181293000Y-99682101D02*
X181293000Y-101413000D01*
X170929000Y-88402500D02*
X170929000Y-89318101D01*
X172461500Y-93535000D02*
X172520510Y-93535000D01*
X189421000Y-101413000D02*
X189421000Y-99249000D01*
X189421000Y-99249000D02*
X189416000Y-99244000D01*
X183833000Y-99249000D02*
X183828000Y-99244000D01*
X183828000Y-99244000D02*
X183828000Y-101408000D01*
X183828000Y-101408000D02*
X183833000Y-101413000D01*
X178875000Y-99244000D02*
X178875000Y-100783000D01*
X178875000Y-100783000D02*
X178245000Y-101413000D01*
X189429000Y-109041000D02*
X189421000Y-109033000D01*
X173479000Y-116235000D02*
X171929000Y-117785000D01*
X189429000Y-111165000D02*
X189429000Y-109041000D01*
X181359000Y-116235000D02*
X173479000Y-116235000D01*
X189416000Y-109038000D02*
X189421000Y-109033000D01*
X186429000Y-111165000D02*
X181359000Y-116235000D01*
X171929000Y-117785000D02*
X171929000Y-119535000D01*
X186429000Y-111165000D02*
X189429000Y-111165000D01*
X171929000Y-119535000D02*
X174429000Y-122035000D01*
X173828390Y-123610000D02*
X175354000Y-123610000D01*
X180429000Y-114285000D02*
X179929000Y-114785000D01*
X183828000Y-109038000D02*
X183833000Y-109033000D01*
X183833000Y-109033000D02*
X183833000Y-110761000D01*
X179929000Y-114785000D02*
X171929000Y-114785000D01*
X180429000Y-111165000D02*
X180429000Y-114285000D01*
X183429000Y-111165000D02*
X180429000Y-111165000D01*
X175354000Y-123610000D02*
X176929000Y-122035000D01*
X170529000Y-120310610D02*
X173828390Y-123610000D01*
X171929000Y-114785000D02*
X170529000Y-116185000D01*
X170529000Y-116185000D02*
X170529000Y-120310610D01*
X183833000Y-110761000D02*
X183429000Y-111165000D01*
X177429000Y-111165000D02*
X174429000Y-111165000D01*
X174429000Y-111165000D02*
X172549000Y-111165000D01*
X169528999Y-120724823D02*
X173414176Y-124610000D01*
X178245000Y-110349000D02*
X177429000Y-111165000D01*
X169529000Y-114185000D02*
X169528999Y-120724823D01*
X178245000Y-109033000D02*
X178245000Y-110349000D01*
X172549000Y-111165000D02*
X171929000Y-111785000D01*
X176854000Y-124610000D02*
X179429000Y-122035000D01*
X173414176Y-124610000D02*
X176854000Y-124610000D01*
X171929000Y-111785000D02*
X169529000Y-114185000D01*
X185429000Y-88535000D02*
X183729000Y-86835000D01*
X183729000Y-86835000D02*
X178529000Y-86835000D01*
X178496500Y-86802500D02*
X170029000Y-86802500D01*
X178529000Y-86835000D02*
X176929000Y-88435000D01*
X168429000Y-88402500D02*
X168429000Y-92002500D01*
X170029000Y-86802500D02*
X168429000Y-88402500D01*
X178529000Y-86835000D02*
X178496500Y-86802500D01*
D21*
X165679000Y-129535000D02*
X165679000Y-81035000D01*
X191067000Y-81035000D02*
X191029000Y-129535000D01*
X191067000Y-81035000D02*
X165679000Y-81035000D01*
X191029000Y-129535000D02*
X165679000Y-129535000D01*
M02*
