%TF.GenerationSoftware,KiCad,Pcbnew,7.0.10-7.0.10~ubuntu22.04.1*%
%TF.CreationDate,2024-02-16T15:51:51+02:00*%
%TF.ProjectId,limit_switch,6c696d69-745f-4737-9769-7463682e6b69,rev?*%
%TF.SameCoordinates,Original*%
%TF.FileFunction,Copper,L1,Top*%
%TF.FilePolarity,Positive*%
%FSLAX46Y46*%
G04 Gerber Fmt 4.6, Leading zero omitted, Abs format (unit mm)*
G04 Created by KiCad (PCBNEW 7.0.10-7.0.10~ubuntu22.04.1) date 2024-02-16 15:51:51*
%MOMM*%
%LPD*%
G01*
G04 APERTURE LIST*
G04 Aperture macros list*
%AMRoundRect*
0 Rectangle with rounded corners*
0 $1 Rounding radius*
0 $2 $3 $4 $5 $6 $7 $8 $9 X,Y pos of 4 corners*
0 Add a 4 corners polygon primitive as box body*
4,1,4,$2,$3,$4,$5,$6,$7,$8,$9,$2,$3,0*
0 Add four circle primitives for the rounded corners*
1,1,$1+$1,$2,$3*
1,1,$1+$1,$4,$5*
1,1,$1+$1,$6,$7*
1,1,$1+$1,$8,$9*
0 Add four rect primitives between the rounded corners*
20,1,$1+$1,$2,$3,$4,$5,0*
20,1,$1+$1,$4,$5,$6,$7,0*
20,1,$1+$1,$6,$7,$8,$9,0*
20,1,$1+$1,$8,$9,$2,$3,0*%
G04 Aperture macros list end*
%TA.AperFunction,ComponentPad*%
%ADD10O,1.950000X1.700000*%
%TD*%
%TA.AperFunction,ComponentPad*%
%ADD11RoundRect,0.250000X-0.725000X0.600000X-0.725000X-0.600000X0.725000X-0.600000X0.725000X0.600000X0*%
%TD*%
%TA.AperFunction,ComponentPad*%
%ADD12C,1.600000*%
%TD*%
%TA.AperFunction,ComponentPad*%
%ADD13O,1.600000X1.600000*%
%TD*%
%TA.AperFunction,ComponentPad*%
%ADD14O,2.000000X1.700000*%
%TD*%
%TA.AperFunction,ComponentPad*%
%ADD15RoundRect,0.250000X0.750000X-0.600000X0.750000X0.600000X-0.750000X0.600000X-0.750000X-0.600000X0*%
%TD*%
%TA.AperFunction,ComponentPad*%
%ADD16O,1.700000X2.000000*%
%TD*%
%TA.AperFunction,ComponentPad*%
%ADD17RoundRect,0.250000X0.600000X0.750000X-0.600000X0.750000X-0.600000X-0.750000X0.600000X-0.750000X0*%
%TD*%
%TA.AperFunction,ComponentPad*%
%ADD18R,1.600000X1.600000*%
%TD*%
%TA.AperFunction,ComponentPad*%
%ADD19RoundRect,0.250000X-0.750000X0.600000X-0.750000X-0.600000X0.750000X-0.600000X0.750000X0.600000X0*%
%TD*%
%TA.AperFunction,Conductor*%
%ADD20C,0.800000*%
%TD*%
%TA.AperFunction,Profile*%
%ADD21C,0.100000*%
%TD*%
G04 APERTURE END LIST*
D10*
X195867000Y-100029000D03*
X195867000Y-97529000D03*
D11*
X195867000Y-95029000D03*
D12*
X188617000Y-107529000D03*
X188617000Y-102529000D03*
D13*
X173076000Y-90630000D03*
D12*
X165456000Y-90630000D03*
D14*
X162234500Y-103529000D03*
D15*
X162234500Y-106029000D03*
D14*
X162267000Y-95029000D03*
D15*
X162267000Y-97529000D03*
D12*
X185617000Y-107529000D03*
X185617000Y-102529000D03*
D14*
X162367000Y-86529000D03*
D15*
X162367000Y-89029000D03*
D16*
X167367000Y-101801500D03*
D17*
X169867000Y-101801500D03*
D13*
X182865000Y-96213000D03*
X182865000Y-98753000D03*
X175245000Y-98753000D03*
D18*
X175245000Y-96213000D03*
D13*
X184997000Y-88029000D03*
D12*
X192617000Y-88029000D03*
D13*
X184997000Y-100029000D03*
D12*
X192617000Y-100029000D03*
D13*
X173076000Y-95583000D03*
D12*
X165456000Y-95583000D03*
X191617000Y-107529000D03*
X191617000Y-102529000D03*
D13*
X184997000Y-97029000D03*
D12*
X192617000Y-97029000D03*
D13*
X184997000Y-85029000D03*
D12*
X192617000Y-85029000D03*
D14*
X195867000Y-89029000D03*
D19*
X195867000Y-86529000D03*
D13*
X182865000Y-90625000D03*
X182865000Y-93165000D03*
X175245000Y-93165000D03*
D18*
X175245000Y-90625000D03*
D13*
X173076000Y-85042000D03*
D12*
X165456000Y-85042000D03*
D13*
X184997000Y-94029000D03*
D12*
X192617000Y-94029000D03*
D13*
X182865000Y-85037000D03*
X182865000Y-87577000D03*
X175245000Y-87577000D03*
D18*
X175245000Y-85037000D03*
D13*
X184997000Y-91029000D03*
D12*
X192617000Y-91029000D03*
D20*
X199442000Y-92604000D02*
X195867000Y-89029000D01*
X182865000Y-104777000D02*
X185617000Y-107529000D01*
X181465000Y-91765000D02*
X181465000Y-97353000D01*
X199442000Y-101458038D02*
X199442000Y-92604000D01*
X193371038Y-107529000D02*
X199442000Y-101458038D01*
X182865000Y-98753000D02*
X182865000Y-104777000D01*
X188617000Y-107529000D02*
X191617000Y-107529000D01*
X185617000Y-107529000D02*
X188617000Y-107529000D01*
X181465000Y-97353000D02*
X182865000Y-98753000D01*
X191617000Y-107529000D02*
X193371038Y-107529000D01*
X182865000Y-87577000D02*
X181465000Y-88977000D01*
X181465000Y-88977000D02*
X181465000Y-91765000D01*
X181465000Y-91765000D02*
X182865000Y-93165000D01*
X165456000Y-90630000D02*
X165456000Y-85042000D01*
X165456000Y-95583000D02*
X165456000Y-90630000D01*
X163854000Y-85042000D02*
X162367000Y-86529000D01*
X165456000Y-85042000D02*
X163854000Y-85042000D01*
X192617000Y-94029000D02*
X192617000Y-91029000D01*
X192617000Y-94029000D02*
X192617000Y-97029000D01*
X192617000Y-97029000D02*
X192617000Y-100029000D01*
X192617000Y-85029000D02*
X194367000Y-85029000D01*
X194367000Y-85029000D02*
X195867000Y-86529000D01*
X192617000Y-88029000D02*
X192617000Y-85029000D01*
X192617000Y-91029000D02*
X192617000Y-88029000D01*
X162922101Y-95029000D02*
X162267000Y-95029000D01*
X171676000Y-90050101D02*
X174149101Y-87577000D01*
X166413002Y-96983000D02*
X171676000Y-91720002D01*
X164876101Y-96983000D02*
X162922101Y-95029000D01*
X166413002Y-96983000D02*
X164876101Y-96983000D01*
X171676000Y-91720002D02*
X171676000Y-90050101D01*
X174149101Y-87577000D02*
X175245000Y-87577000D01*
X163150101Y-103529000D02*
X173514101Y-93165000D01*
X173514101Y-93165000D02*
X175245000Y-93165000D01*
X162234500Y-103529000D02*
X163150101Y-103529000D01*
X167367000Y-101996500D02*
X167367000Y-101937490D01*
X167367000Y-101801500D02*
X167367000Y-101742490D01*
X167367000Y-101742490D02*
X170356490Y-98753000D01*
X170356490Y-98753000D02*
X175245000Y-98753000D01*
X175245000Y-85037000D02*
X173081000Y-85037000D01*
X173081000Y-85037000D02*
X173076000Y-85042000D01*
X173081000Y-90625000D02*
X173076000Y-90630000D01*
X173076000Y-90630000D02*
X175240000Y-90630000D01*
X175240000Y-90630000D02*
X175245000Y-90625000D01*
X173076000Y-95583000D02*
X174615000Y-95583000D01*
X174615000Y-95583000D02*
X175245000Y-96213000D01*
X182873000Y-85029000D02*
X182865000Y-85037000D01*
X190067000Y-100979000D02*
X191617000Y-102529000D01*
X184997000Y-85029000D02*
X182873000Y-85029000D01*
X190067000Y-93099000D02*
X190067000Y-100979000D01*
X182870000Y-85042000D02*
X182865000Y-85037000D01*
X184997000Y-88029000D02*
X190067000Y-93099000D01*
X191617000Y-102529000D02*
X193367000Y-102529000D01*
X184997000Y-88029000D02*
X184997000Y-85029000D01*
X193367000Y-102529000D02*
X195867000Y-100029000D01*
X197442000Y-100629610D02*
X197442000Y-99104000D01*
X188117000Y-94029000D02*
X188617000Y-94529000D01*
X182870000Y-90630000D02*
X182865000Y-90625000D01*
X182865000Y-90625000D02*
X184593000Y-90625000D01*
X188617000Y-94529000D02*
X188617000Y-102529000D01*
X184997000Y-94029000D02*
X188117000Y-94029000D01*
X184997000Y-91029000D02*
X184997000Y-94029000D01*
X197442000Y-99104000D02*
X195867000Y-97529000D01*
X194142610Y-103929000D02*
X197442000Y-100629610D01*
X188617000Y-102529000D02*
X190017000Y-103929000D01*
X190017000Y-103929000D02*
X194142610Y-103929000D01*
X184593000Y-90625000D02*
X184997000Y-91029000D01*
X184997000Y-97029000D02*
X184997000Y-100029000D01*
X184997000Y-100029000D02*
X184997000Y-101909000D01*
X194556823Y-104929001D02*
X198442000Y-101043824D01*
X184181000Y-96213000D02*
X184997000Y-97029000D01*
X188017000Y-104929000D02*
X194556823Y-104929001D01*
X182865000Y-96213000D02*
X184181000Y-96213000D01*
X184997000Y-101909000D02*
X185617000Y-102529000D01*
X198442000Y-97604000D02*
X195867000Y-95029000D01*
X198442000Y-101043824D02*
X198442000Y-97604000D01*
X185617000Y-102529000D02*
X188017000Y-104929000D01*
X162367000Y-89029000D02*
X160667000Y-90729000D01*
X160667000Y-90729000D02*
X160667000Y-95929000D01*
X169867000Y-101996500D02*
X165834500Y-106029000D01*
X160634500Y-95961500D02*
X160634500Y-104429000D01*
X160667000Y-95929000D02*
X162267000Y-97529000D01*
X162234500Y-106029000D02*
X165834500Y-106029000D01*
X160634500Y-104429000D02*
X162234500Y-106029000D01*
X160667000Y-95929000D02*
X160634500Y-95961500D01*
X169867000Y-101801500D02*
X169867000Y-101996500D01*
D21*
X203367000Y-108779000D02*
X154867000Y-108779000D01*
X154867000Y-83391000D02*
X203367000Y-83429000D01*
X154867000Y-83391000D02*
X154867000Y-108779000D01*
X203367000Y-83429000D02*
X203367000Y-108779000D01*
M02*
