%TF.GenerationSoftware,KiCad,Pcbnew,7.0.9-7.0.9~ubuntu22.04.1*%
%TF.CreationDate,2023-11-29T11:42:34+02:00*%
%TF.ProjectId,limit_switch,6c696d69-745f-4737-9769-7463682e6b69,rev?*%
%TF.SameCoordinates,Original*%
%TF.FileFunction,Copper,L1,Top*%
%TF.FilePolarity,Positive*%
%FSLAX46Y46*%
G04 Gerber Fmt 4.6, Leading zero omitted, Abs format (unit mm)*
G04 Created by KiCad (PCBNEW 7.0.9-7.0.9~ubuntu22.04.1) date 2023-11-29 11:42:34*
%MOMM*%
%LPD*%
G01*
G04 APERTURE LIST*
%TA.AperFunction,ComponentPad*%
%ADD10C,1.600000*%
%TD*%
%TA.AperFunction,ComponentPad*%
%ADD11O,1.600000X1.600000*%
%TD*%
%TA.AperFunction,ComponentPad*%
%ADD12R,1.700000X1.700000*%
%TD*%
%TA.AperFunction,ComponentPad*%
%ADD13O,1.700000X1.700000*%
%TD*%
%TA.AperFunction,ComponentPad*%
%ADD14R,1.600000X1.600000*%
%TD*%
%TA.AperFunction,Conductor*%
%ADD15C,0.800000*%
%TD*%
%TA.AperFunction,Profile*%
%ADD16C,0.100000*%
%TD*%
G04 APERTURE END LIST*
D10*
X15550000Y10000000D03*
D11*
X23170000Y10000000D03*
D10*
X15550000Y16000000D03*
D11*
X23170000Y16000000D03*
X23170000Y22000000D03*
D10*
X15550000Y22000000D03*
X15550000Y13000000D03*
D11*
X23170000Y13000000D03*
D10*
X15550000Y19000000D03*
D11*
X23170000Y19000000D03*
X23170000Y25000000D03*
D10*
X15550000Y25000000D03*
X13300000Y4000000D03*
X8300000Y4000000D03*
X13300000Y7000000D03*
X8300000Y7000000D03*
X8300000Y10000000D03*
X13300000Y10000000D03*
D12*
X12700000Y13400000D03*
D13*
X12700000Y15940000D03*
X12700000Y18480000D03*
X12700000Y24640000D03*
D12*
X12700000Y22100000D03*
D13*
X45550000Y16127000D03*
D12*
X45550000Y18667000D03*
D14*
X32922000Y13816000D03*
D11*
X32922000Y11276000D03*
X25302000Y11276000D03*
X25302000Y13816000D03*
X35091000Y19399000D03*
D10*
X42711000Y19399000D03*
D13*
X45550000Y10069000D03*
D12*
X45550000Y12609000D03*
D11*
X35091000Y14446000D03*
D10*
X42711000Y14446000D03*
D13*
X45550000Y3935000D03*
D12*
X45550000Y6475000D03*
D13*
X45550000Y22223000D03*
D12*
X45550000Y24763000D03*
D11*
X25302000Y19404000D03*
X25302000Y16864000D03*
X32922000Y16864000D03*
D14*
X32922000Y19404000D03*
D11*
X35091000Y24987000D03*
D10*
X42711000Y24987000D03*
D14*
X32922000Y24992000D03*
D11*
X32922000Y22452000D03*
X25302000Y22452000D03*
X25302000Y24992000D03*
D15*
X13190000Y24640000D02*
X13550000Y25000000D01*
X12700000Y24640000D02*
X13190000Y24640000D01*
X13550000Y25000000D02*
X15550000Y25000000D01*
X15550000Y22000000D02*
X15550000Y25000000D01*
X15550000Y19000000D02*
X15550000Y22000000D01*
X15550000Y16000000D02*
X15550000Y19000000D01*
X15550000Y13000000D02*
X15550000Y16000000D01*
X15550000Y10000000D02*
X15550000Y13000000D01*
X18100000Y10640101D02*
X18100000Y16930000D01*
X18100000Y16930000D02*
X23170000Y22000000D01*
X23170000Y16000000D02*
X21200000Y16000000D01*
X21200000Y16000000D02*
X19700000Y14500000D01*
X23170000Y10000000D02*
X17170000Y4000000D01*
X17170000Y4000000D02*
X13300000Y4000000D01*
X23170000Y13000000D02*
X23170000Y10000000D01*
X25302000Y13816000D02*
X23986000Y13816000D01*
X23986000Y13816000D02*
X23170000Y13000000D01*
X23170000Y19000000D02*
X23170000Y16000000D01*
X25302000Y19404000D02*
X23574000Y19404000D01*
X23574000Y19404000D02*
X23170000Y19000000D01*
X23170000Y25000000D02*
X23170000Y22000000D01*
X25302000Y24992000D02*
X23178000Y24992000D01*
X23178000Y24992000D02*
X23170000Y25000000D01*
X15480000Y16030000D02*
X15490000Y16040000D01*
X32922000Y11276000D02*
X34535899Y11276000D01*
X34535899Y11276000D02*
X41876899Y3935000D01*
X45550000Y10069000D02*
X41447899Y10069000D01*
X41447899Y10069000D02*
X34652899Y16864000D01*
X34652899Y16864000D02*
X32922000Y16864000D01*
X35091000Y14446000D02*
X33552000Y14446000D01*
X33552000Y14446000D02*
X32922000Y13816000D01*
X35091000Y19399000D02*
X32927000Y19399000D01*
X32927000Y19399000D02*
X32922000Y19404000D01*
X45550000Y16127000D02*
X45550000Y15305101D01*
X45550000Y15305101D02*
X43290899Y13046000D01*
X43290899Y13046000D02*
X41753998Y13046000D01*
X36491000Y19978899D02*
X34017899Y22452000D01*
X41753998Y13046000D02*
X36491000Y18308998D01*
X36491000Y18308998D02*
X36491000Y19978899D01*
X34017899Y22452000D02*
X32922000Y22452000D01*
X8300000Y4000000D02*
X9700000Y2600000D01*
X9700000Y2600000D02*
X17757370Y2600000D01*
X17757370Y2600000D02*
X25302000Y10144630D01*
X25302000Y10144630D02*
X25302000Y11276000D01*
X12700000Y22100000D02*
X8300000Y17700000D01*
X8300000Y17700000D02*
X8300000Y10000000D01*
X8300000Y7000000D02*
X8300000Y10000000D01*
X8300000Y4000000D02*
X8300000Y7000000D01*
X13300000Y4000000D02*
X10250000Y7050000D01*
X10250000Y7050000D02*
X10250000Y16030000D01*
X10250000Y16030000D02*
X12700000Y18480000D01*
X13300000Y7000000D02*
X11250000Y9050000D01*
X11250000Y9050000D02*
X11250000Y14600000D01*
X11250000Y14600000D02*
X12590000Y15940000D01*
X12590000Y15940000D02*
X12700000Y15940000D01*
X12700000Y13400000D02*
X12700000Y10600000D01*
X12700000Y10600000D02*
X13300000Y10000000D01*
X19700000Y14500000D02*
X19700000Y10825887D01*
X15874113Y7000000D02*
X13300000Y7000000D01*
X19700000Y10825887D02*
X15874113Y7000000D01*
X18100000Y10640101D02*
X16059899Y8600000D01*
X16059899Y8600000D02*
X14700000Y8600000D01*
X14700000Y8600000D02*
X13300000Y10000000D01*
X26702000Y18264000D02*
X26702000Y12676000D01*
X26702000Y12676000D02*
X25302000Y11276000D01*
X25302000Y22452000D02*
X26702000Y21052000D01*
X26702000Y21052000D02*
X26702000Y18264000D01*
X26702000Y18264000D02*
X25302000Y16864000D01*
X23150000Y16080000D02*
X23110000Y16040000D01*
X25297000Y19399000D02*
X25302000Y19404000D01*
X23118000Y24992000D02*
X23110000Y25000000D01*
X42711000Y19399000D02*
X42711000Y24987000D01*
X45326000Y24987000D02*
X45550000Y24763000D01*
X42711000Y14446000D02*
X42711000Y19399000D01*
X42711000Y24987000D02*
X45326000Y24987000D01*
X41876899Y3935000D02*
X45550000Y3935000D01*
X32922000Y24992000D02*
X35086000Y24992000D01*
X35086000Y24992000D02*
X35091000Y24987000D01*
X35086000Y19404000D02*
X35091000Y19399000D01*
X25297000Y24987000D02*
X25302000Y24992000D01*
X45550000Y18667000D02*
X47000000Y17217000D01*
X47000000Y14059000D02*
X45550000Y12609000D01*
X45550000Y22223000D02*
X45550000Y18667000D01*
X47000000Y11159000D02*
X47000000Y7925000D01*
X47000000Y7925000D02*
X45550000Y6475000D01*
X47000000Y17217000D02*
X47000000Y14059000D01*
X45550000Y12609000D02*
X47000000Y11159000D01*
D16*
X56300000Y2000000D02*
X2000000Y2000000D01*
X2000000Y26600000D02*
X2000000Y2000000D01*
X56300000Y2000000D02*
X56300000Y26638000D01*
M02*
