%TF.GenerationSoftware,KiCad,Pcbnew,7.0.10-7.0.10~ubuntu22.04.1*%
%TF.CreationDate,2024-01-10T04:42:18+02:00*%
%TF.ProjectId,PWM_Multiplexer,50574d5f-4d75-46c7-9469-706c65786572,rev?*%
%TF.SameCoordinates,Original*%
%TF.FileFunction,Copper,L1,Top*%
%TF.FilePolarity,Positive*%
%FSLAX46Y46*%
G04 Gerber Fmt 4.6, Leading zero omitted, Abs format (unit mm)*
G04 Created by KiCad (PCBNEW 7.0.10-7.0.10~ubuntu22.04.1) date 2024-01-10 04:42:18*
%MOMM*%
%LPD*%
G01*
G04 APERTURE LIST*
G04 Aperture macros list*
%AMRoundRect*
0 Rectangle with rounded corners*
0 $1 Rounding radius*
0 $2 $3 $4 $5 $6 $7 $8 $9 X,Y pos of 4 corners*
0 Add a 4 corners polygon primitive as box body*
4,1,4,$2,$3,$4,$5,$6,$7,$8,$9,$2,$3,0*
0 Add four circle primitives for the rounded corners*
1,1,$1+$1,$2,$3*
1,1,$1+$1,$4,$5*
1,1,$1+$1,$6,$7*
1,1,$1+$1,$8,$9*
0 Add four rect primitives between the rounded corners*
20,1,$1+$1,$2,$3,$4,$5,0*
20,1,$1+$1,$4,$5,$6,$7,0*
20,1,$1+$1,$6,$7,$8,$9,0*
20,1,$1+$1,$8,$9,$2,$3,0*%
G04 Aperture macros list end*
%TA.AperFunction,ComponentPad*%
%ADD10R,1.600000X1.600000*%
%TD*%
%TA.AperFunction,ComponentPad*%
%ADD11O,1.600000X1.600000*%
%TD*%
%TA.AperFunction,ComponentPad*%
%ADD12RoundRect,0.250000X-0.600000X-0.725000X0.600000X-0.725000X0.600000X0.725000X-0.600000X0.725000X0*%
%TD*%
%TA.AperFunction,ComponentPad*%
%ADD13O,1.700000X1.950000*%
%TD*%
%TA.AperFunction,ComponentPad*%
%ADD14C,1.600000*%
%TD*%
%TA.AperFunction,ComponentPad*%
%ADD15RoundRect,0.250000X-0.725000X0.600000X-0.725000X-0.600000X0.725000X-0.600000X0.725000X0.600000X0*%
%TD*%
%TA.AperFunction,ComponentPad*%
%ADD16O,1.950000X1.700000*%
%TD*%
%TA.AperFunction,ComponentPad*%
%ADD17R,1.050000X1.500000*%
%TD*%
%TA.AperFunction,ComponentPad*%
%ADD18O,1.050000X1.500000*%
%TD*%
%TA.AperFunction,ComponentPad*%
%ADD19RoundRect,0.250000X0.600000X0.750000X-0.600000X0.750000X-0.600000X-0.750000X0.600000X-0.750000X0*%
%TD*%
%TA.AperFunction,ComponentPad*%
%ADD20O,1.700000X2.000000*%
%TD*%
%TA.AperFunction,ComponentPad*%
%ADD21R,1.905000X2.000000*%
%TD*%
%TA.AperFunction,ComponentPad*%
%ADD22O,1.905000X2.000000*%
%TD*%
%TA.AperFunction,ComponentPad*%
%ADD23R,2.400000X1.600000*%
%TD*%
%TA.AperFunction,ComponentPad*%
%ADD24O,2.400000X1.600000*%
%TD*%
%TA.AperFunction,ComponentPad*%
%ADD25RoundRect,0.250000X0.600000X0.725000X-0.600000X0.725000X-0.600000X-0.725000X0.600000X-0.725000X0*%
%TD*%
%TA.AperFunction,Conductor*%
%ADD26C,1.500000*%
%TD*%
%TA.AperFunction,Conductor*%
%ADD27C,0.800000*%
%TD*%
%TA.AperFunction,Profile*%
%ADD28C,0.100000*%
%TD*%
G04 APERTURE END LIST*
D10*
X108979800Y-105040600D03*
D11*
X111519800Y-105040600D03*
X111519800Y-97420600D03*
X108979800Y-97420600D03*
D12*
X155832800Y-57708800D03*
D13*
X158332800Y-57708800D03*
X160832800Y-57708800D03*
D14*
X106496000Y-95179600D03*
D11*
X106496000Y-87559600D03*
D15*
X156616400Y-106872400D03*
D16*
X156616400Y-109372400D03*
X156616400Y-111872400D03*
D15*
X156616400Y-73801600D03*
D16*
X156616400Y-76301600D03*
X156616400Y-78801600D03*
D14*
X126034800Y-76377800D03*
D11*
X136194800Y-76377800D03*
D14*
X143500000Y-104038400D03*
D11*
X151120000Y-104038400D03*
D14*
X97402800Y-95179600D03*
D11*
X97402800Y-87559600D03*
D14*
X125720000Y-123088400D03*
D11*
X135880000Y-123088400D03*
D14*
X110759400Y-72806400D03*
D11*
X118379400Y-72806400D03*
D17*
X120954800Y-90652600D03*
D18*
X122224800Y-90652600D03*
X123494800Y-90652600D03*
D14*
X143500000Y-113588800D03*
D11*
X151120000Y-113588800D03*
D14*
X110759400Y-75854400D03*
D11*
X118379400Y-75854400D03*
D19*
X110114400Y-124416700D03*
D20*
X107614400Y-124416700D03*
D21*
X144424400Y-76454000D03*
D22*
X146964400Y-76454000D03*
X149504400Y-76454000D03*
D21*
X112268000Y-117297200D03*
D22*
X109728000Y-117297200D03*
X107188000Y-117297200D03*
D14*
X125984000Y-62103000D03*
D11*
X136144000Y-62103000D03*
D10*
X97551800Y-105040600D03*
D11*
X100091800Y-105040600D03*
X100091800Y-97420600D03*
X97551800Y-97420600D03*
D17*
X120954800Y-62077600D03*
D18*
X122224800Y-62077600D03*
X123494800Y-62077600D03*
D10*
X114909600Y-128727200D03*
D14*
X117409600Y-128727200D03*
X143560800Y-96012000D03*
D11*
X151180800Y-96012000D03*
D21*
X144424400Y-91313000D03*
D22*
X146964400Y-91313000D03*
X149504400Y-91313000D03*
D14*
X126034800Y-90601800D03*
D11*
X136194800Y-90601800D03*
D14*
X125720000Y-94538800D03*
D11*
X135880000Y-94538800D03*
D14*
X143500000Y-118287800D03*
D11*
X151120000Y-118287800D03*
D21*
X144424400Y-81407000D03*
D22*
X146964400Y-81407000D03*
X149504400Y-81407000D03*
D14*
X100404800Y-95185400D03*
D11*
X100404800Y-87565400D03*
D10*
X91834800Y-105040600D03*
D11*
X94374800Y-105040600D03*
X94374800Y-97420600D03*
X91834800Y-97420600D03*
D17*
X120954800Y-71581600D03*
D18*
X122224800Y-71581600D03*
X123494800Y-71581600D03*
D14*
X125720000Y-108813600D03*
D11*
X135880000Y-108813600D03*
D14*
X125720000Y-99263200D03*
D11*
X135880000Y-99263200D03*
D23*
X114757200Y-96215200D03*
D24*
X114757200Y-98755200D03*
X114757200Y-101295200D03*
X114757200Y-103835200D03*
X114757200Y-106375200D03*
X114757200Y-108915200D03*
X114757200Y-111455200D03*
X114757200Y-113995200D03*
X122377200Y-113995200D03*
X122377200Y-111455200D03*
X122377200Y-108915200D03*
X122377200Y-106375200D03*
X122377200Y-103835200D03*
X122377200Y-101295200D03*
X122377200Y-98755200D03*
X122377200Y-96215200D03*
D14*
X110759400Y-84998400D03*
D11*
X118379400Y-84998400D03*
D14*
X125720000Y-118364000D03*
D11*
X135880000Y-118364000D03*
D14*
X143500000Y-123088400D03*
D11*
X151120000Y-123088400D03*
D14*
X110759400Y-69758400D03*
D11*
X118379400Y-69758400D03*
D14*
X143500000Y-99263200D03*
D11*
X151120000Y-99263200D03*
D14*
X125720000Y-104038400D03*
D11*
X135880000Y-104038400D03*
D21*
X144424400Y-66548000D03*
D22*
X146964400Y-66548000D03*
X149504400Y-66548000D03*
D23*
X100482400Y-65405000D03*
D24*
X100482400Y-67945000D03*
X100482400Y-70485000D03*
X100482400Y-73025000D03*
X100482400Y-75565000D03*
X100482400Y-78105000D03*
X100482400Y-80645000D03*
X100482400Y-83185000D03*
X108102400Y-83185000D03*
X108102400Y-80645000D03*
X108102400Y-78105000D03*
X108102400Y-75565000D03*
X108102400Y-73025000D03*
X108102400Y-70485000D03*
X108102400Y-67945000D03*
X108102400Y-65405000D03*
D14*
X126034800Y-71602600D03*
D11*
X136194800Y-71602600D03*
D14*
X114777200Y-123952000D03*
X117277200Y-123952000D03*
D15*
X156616400Y-95848800D03*
D16*
X156616400Y-98348800D03*
X156616400Y-100848800D03*
D14*
X143500000Y-108813600D03*
D11*
X151120000Y-108813600D03*
D17*
X120954800Y-81127600D03*
D18*
X122224800Y-81127600D03*
X123494800Y-81127600D03*
D14*
X126034800Y-85877400D03*
D11*
X136194800Y-85877400D03*
D14*
X103448000Y-95179600D03*
D11*
X103448000Y-87559600D03*
D14*
X110759400Y-81950400D03*
D11*
X118379400Y-81950400D03*
D21*
X144424400Y-86360000D03*
D22*
X146964400Y-86360000D03*
X149504400Y-86360000D03*
D15*
X156616400Y-117896000D03*
D16*
X156616400Y-120396000D03*
X156616400Y-122896000D03*
D14*
X126034800Y-66827400D03*
D11*
X136194800Y-66827400D03*
D15*
X156616400Y-62778000D03*
D16*
X156616400Y-65278000D03*
X156616400Y-67778000D03*
D17*
X120954800Y-85902800D03*
D18*
X122224800Y-85902800D03*
X123494800Y-85902800D03*
D14*
X126034800Y-81153000D03*
D11*
X136194800Y-81153000D03*
D17*
X120954800Y-66827400D03*
D18*
X122224800Y-66827400D03*
X123494800Y-66827400D03*
D14*
X125720000Y-113588800D03*
D11*
X135880000Y-113588800D03*
D15*
X156616400Y-84825200D03*
D16*
X156616400Y-87325200D03*
X156616400Y-89825200D03*
D14*
X110759400Y-66710400D03*
D11*
X118379400Y-66710400D03*
D25*
X101570800Y-124416700D03*
D13*
X99070800Y-124416700D03*
X96570800Y-124416700D03*
X94070800Y-124416700D03*
X91570800Y-124416700D03*
D10*
X103264800Y-105040600D03*
D11*
X105804800Y-105040600D03*
X105804800Y-97420600D03*
X103264800Y-97420600D03*
D21*
X144424400Y-71501000D03*
D22*
X146964400Y-71501000D03*
X149504400Y-71501000D03*
D17*
X120954800Y-76377800D03*
D18*
X122224800Y-76377800D03*
X123494800Y-76377800D03*
D21*
X144424400Y-61595000D03*
D22*
X146964400Y-61595000D03*
X149504400Y-61595000D03*
D14*
X110759400Y-78902400D03*
D11*
X118379400Y-78902400D03*
D17*
X140960000Y-99283800D03*
D18*
X139690000Y-99283800D03*
X138420000Y-99283800D03*
D17*
X140960000Y-104038000D03*
D18*
X139690000Y-104038000D03*
X138420000Y-104038000D03*
D17*
X140952400Y-123088400D03*
D18*
X139682400Y-123088400D03*
X138412400Y-123088400D03*
D17*
X140960000Y-108809200D03*
D18*
X139690000Y-108809200D03*
X138420000Y-108809200D03*
D17*
X140952400Y-118338600D03*
D18*
X139682400Y-118338600D03*
X138412400Y-118338600D03*
D17*
X140960000Y-113584400D03*
D18*
X139690000Y-113584400D03*
X138420000Y-113584400D03*
D17*
X140960000Y-94534000D03*
D18*
X139690000Y-94534000D03*
X138420000Y-94534000D03*
D26*
X112268000Y-122263100D02*
X110114400Y-124416700D01*
X110114400Y-124416700D02*
X114312500Y-124416700D01*
X114312500Y-124416700D02*
X114777200Y-123952000D01*
X155832800Y-61994400D02*
X156616400Y-62778000D01*
X155832800Y-57708800D02*
X155832800Y-61994400D01*
X112268000Y-117297200D02*
X112268000Y-122263100D01*
D27*
X164207200Y-125903729D02*
X164236400Y-125932929D01*
X142380600Y-97863200D02*
X140960000Y-99283800D01*
X144900000Y-117715014D02*
X144072786Y-116887800D01*
X106547598Y-115698423D02*
X108129223Y-115698423D01*
X144072786Y-97863200D02*
X142380600Y-97863200D01*
D26*
X109728000Y-119733204D02*
X107614400Y-121846804D01*
D27*
X116979400Y-69185614D02*
X118054614Y-68110400D01*
X142403200Y-116887800D02*
X140952400Y-118338600D01*
X104464400Y-117781621D02*
X106547598Y-115698423D01*
X114757200Y-114795200D02*
X124450400Y-124488400D01*
X128422400Y-122358786D02*
X128422400Y-99974400D01*
X142355600Y-112188800D02*
X140960000Y-113584400D01*
X110119800Y-98820600D02*
X111519800Y-97420600D01*
X119938800Y-77393800D02*
X120954800Y-76377800D01*
X100482400Y-75565000D02*
X100482400Y-73025000D01*
D26*
X117277200Y-123952000D02*
X117277200Y-122662000D01*
D27*
X101682400Y-73025000D02*
X104282401Y-70424999D01*
X107492800Y-86410800D02*
X104267000Y-83185000D01*
X117806614Y-80550400D02*
X120377600Y-80550400D01*
X102733227Y-61855599D02*
X98354845Y-61855599D01*
D26*
X107614400Y-121846804D02*
X107614400Y-124416700D01*
D27*
X135102600Y-93294200D02*
X134947200Y-93138800D01*
X102526300Y-125991700D02*
X104376799Y-124141201D01*
X126813516Y-124488400D02*
X126292786Y-124488400D01*
X116979400Y-66053000D02*
X116979400Y-69367400D01*
X152187326Y-53702998D02*
X152187326Y-53656392D01*
X144072786Y-116887800D02*
X142403200Y-116887800D01*
X116979400Y-78765400D02*
X116979400Y-75281614D01*
X100091800Y-97420600D02*
X101491800Y-98820600D01*
X144900000Y-113016014D02*
X144900000Y-108240814D01*
X140960000Y-93844228D02*
X139300995Y-92185223D01*
X116979400Y-75281614D02*
X116979400Y-69367400D01*
D26*
X109728000Y-117297200D02*
X109728000Y-119733204D01*
D27*
X116979400Y-81377614D02*
X116979400Y-78765400D01*
X119766258Y-93001800D02*
X113175258Y-86410800D01*
X112957200Y-105635200D02*
X114757200Y-103835200D01*
X88434798Y-123452343D02*
X90974155Y-125991700D01*
X124450400Y-124488400D02*
X126292786Y-124488400D01*
X144055586Y-94534000D02*
X144983200Y-95461614D01*
X144900000Y-103465614D02*
X144900000Y-98690414D01*
X116557200Y-95166672D02*
X116205728Y-94815200D01*
X119080000Y-74206400D02*
X120954800Y-72331600D01*
X120954800Y-62077600D02*
X120954800Y-61535502D01*
X117760400Y-83598400D02*
X118952186Y-83598400D01*
X164207200Y-58911555D02*
X164207200Y-125903729D01*
D26*
X117277200Y-122662000D02*
X114757200Y-120142000D01*
D27*
X144900000Y-117715014D02*
X144900000Y-113016014D01*
X116979400Y-69367400D02*
X116979400Y-69185614D01*
X108129223Y-115698423D02*
X109728000Y-117297200D01*
X114757200Y-103835200D02*
X116557200Y-102035200D01*
X136211577Y-92185223D02*
X135102600Y-93294200D01*
D26*
X117277200Y-123952000D02*
X117277200Y-128594800D01*
D27*
X144072786Y-112188800D02*
X142355600Y-112188800D01*
X92682399Y-67528045D02*
X92682400Y-83236144D01*
X113175258Y-86410800D02*
X107492800Y-86410800D01*
X117915214Y-77393800D02*
X119938800Y-77393800D01*
X144900000Y-103465614D02*
X144072786Y-102638400D01*
X142359600Y-102638400D02*
X140960000Y-104038000D01*
X140960000Y-94534000D02*
X144055586Y-94534000D01*
X133833116Y-131508000D02*
X126813516Y-124488400D01*
X118952186Y-83598400D02*
X120954800Y-85601014D01*
X91002799Y-91971171D02*
X88434798Y-94539172D01*
X119671800Y-68110400D02*
X120954800Y-66827400D01*
D26*
X114757200Y-120142000D02*
X114757200Y-113995200D01*
D27*
X104282401Y-70424999D02*
X104282400Y-63404772D01*
X120954800Y-90652600D02*
X116979400Y-86677200D01*
X104464400Y-121310400D02*
X104464400Y-117781621D01*
X104282400Y-63404772D02*
X102733227Y-61855599D01*
X158952037Y-53656392D02*
X164207200Y-58911555D01*
X128422400Y-99974400D02*
X135102600Y-93294200D01*
X121180970Y-93001800D02*
X119766258Y-93001800D01*
X144900000Y-98690414D02*
X144072786Y-97863200D01*
X116205728Y-94815200D02*
X113308672Y-94815200D01*
X140960000Y-94534000D02*
X140960000Y-93844228D01*
X104376799Y-124141201D02*
X104376799Y-121398001D01*
X113308672Y-94815200D02*
X111519800Y-96604072D01*
X118054614Y-74206400D02*
X119080000Y-74206400D01*
X158661327Y-131508002D02*
X133833116Y-131508000D01*
X114757200Y-113995200D02*
X114757200Y-114795200D01*
X144983200Y-98607214D02*
X144900000Y-98690414D01*
X144072786Y-102638400D02*
X142359600Y-102638400D01*
X144072786Y-107413600D02*
X142355600Y-107413600D01*
X116979400Y-81377614D02*
X117806614Y-80550400D01*
X112957200Y-112195200D02*
X112957200Y-105635200D01*
X116979400Y-78329614D02*
X117915214Y-77393800D01*
D26*
X117277200Y-128594800D02*
X117409600Y-128727200D01*
D27*
X116557200Y-102035200D02*
X116557200Y-95166672D01*
X116979400Y-86677200D02*
X116979400Y-84379400D01*
D26*
X112033670Y-113995200D02*
X114757200Y-113995200D01*
D27*
X92682400Y-83236144D02*
X91002798Y-84915746D01*
X121317970Y-93138800D02*
X121180970Y-93001800D01*
X120377600Y-80550400D02*
X120954800Y-81127600D01*
X144900000Y-113016014D02*
X144072786Y-112188800D01*
X94374800Y-97420600D02*
X95774800Y-98820600D01*
X116979400Y-75281614D02*
X118054614Y-74206400D01*
X120954800Y-85601014D02*
X120954800Y-85902800D01*
X144900000Y-119140800D02*
X144900000Y-117715014D01*
X116979400Y-78765400D02*
X116979400Y-78329614D01*
X144983200Y-95461614D02*
X144983200Y-98607214D01*
X120954800Y-61535502D02*
X128787304Y-53702998D01*
X120954800Y-62077600D02*
X116979400Y-66053000D01*
X88434798Y-94539172D02*
X88434798Y-123452343D01*
X101491800Y-98820600D02*
X107204800Y-98820600D01*
X98354845Y-61855599D02*
X92682399Y-67528045D01*
X152187326Y-53656392D02*
X158952037Y-53656392D01*
X91002798Y-84915746D02*
X91002799Y-91971171D01*
X111519800Y-96604072D02*
X111519800Y-97420600D01*
X104267000Y-83185000D02*
X100482400Y-83185000D01*
X118054614Y-68110400D02*
X119671800Y-68110400D01*
X134947200Y-93138800D02*
X121317970Y-93138800D01*
X100482400Y-73025000D02*
X101682400Y-73025000D01*
X126292786Y-124488400D02*
X128422400Y-122358786D01*
X164236400Y-125932929D02*
X158661327Y-131508002D01*
X95774800Y-98820600D02*
X101491800Y-98820600D01*
X104376799Y-121398001D02*
X104464400Y-121310400D01*
X90974155Y-125991700D02*
X102526300Y-125991700D01*
X140952400Y-123088400D02*
X144900000Y-119140800D01*
X116979400Y-84379400D02*
X116979400Y-81377614D01*
X139300995Y-92185223D02*
X136211577Y-92185223D01*
X110119800Y-98820600D02*
X107204800Y-98820600D01*
X107204800Y-98820600D02*
X105804800Y-97420600D01*
X114757200Y-113995200D02*
X112957200Y-112195200D01*
X116979400Y-84379400D02*
X117760400Y-83598400D01*
X120954800Y-72331600D02*
X120954800Y-71581600D01*
D26*
X109728000Y-116300870D02*
X112033670Y-113995200D01*
X109728000Y-117297200D02*
X109728000Y-116300870D01*
D27*
X142355600Y-107413600D02*
X140960000Y-108809200D01*
X128787304Y-53702998D02*
X152187326Y-53702998D01*
X144900000Y-108240814D02*
X144900000Y-103465614D01*
X144900000Y-108240814D02*
X144072786Y-107413600D01*
X91834800Y-105040600D02*
X91834800Y-120576400D01*
X91834800Y-120576400D02*
X91570800Y-120840400D01*
X91570800Y-120840400D02*
X91570800Y-124416700D01*
X94925200Y-121126800D02*
X94925200Y-110560800D01*
X94925200Y-110560800D02*
X97551800Y-107934200D01*
X97551800Y-107934200D02*
X97551800Y-105040600D01*
X94070800Y-121981200D02*
X94070800Y-124416700D01*
X94925200Y-121126800D02*
X94070800Y-121981200D01*
X97465200Y-121126800D02*
X97465200Y-113710400D01*
X103264800Y-107910800D02*
X103264800Y-105040600D01*
X97465200Y-113710400D02*
X103264800Y-107910800D01*
X96570800Y-122021200D02*
X96570800Y-124416700D01*
X97465200Y-121126800D02*
X96570800Y-122021200D01*
X100005200Y-121126800D02*
X99070800Y-122061200D01*
X108979800Y-106971000D02*
X108979800Y-105040600D01*
X99070800Y-122061200D02*
X99070800Y-124416700D01*
X100005200Y-115945600D02*
X108979800Y-106971000D01*
X100005200Y-121126800D02*
X100005200Y-115945600D01*
X95774800Y-103640600D02*
X98691800Y-103640600D01*
X101570800Y-122101200D02*
X101570800Y-124416700D01*
X98691800Y-103640600D02*
X100091800Y-105040600D01*
X111519800Y-105040600D02*
X110119800Y-103640600D01*
X102545200Y-121126800D02*
X102545200Y-116758400D01*
X111519800Y-107783800D02*
X111519800Y-105040600D01*
X102545200Y-121126800D02*
X101570800Y-122101200D01*
X102545200Y-116758400D02*
X111519800Y-107783800D01*
X98691800Y-103640600D02*
X104404800Y-103640600D01*
X104404800Y-103640600D02*
X110119800Y-103640600D01*
X94374800Y-105040600D02*
X95774800Y-103640600D01*
X104404800Y-103640600D02*
X105804800Y-105040600D01*
X146947800Y-96012000D02*
X144469799Y-93533999D01*
X151120000Y-123088400D02*
X151120000Y-99263200D01*
X139296600Y-90601800D02*
X136194800Y-90601800D01*
X106496000Y-87559600D02*
X112909844Y-87559600D01*
X97940631Y-60855599D02*
X91682399Y-67113831D01*
X151120000Y-99263200D02*
X151120000Y-96072800D01*
X98682400Y-79905000D02*
X98682400Y-83442400D01*
X106496000Y-87559600D02*
X97402800Y-87559600D01*
X98682400Y-83442400D02*
X98704400Y-83464400D01*
X136194800Y-90601800D02*
X134794800Y-92001800D01*
D26*
X105814400Y-125372400D02*
X109169200Y-128727200D01*
D27*
X134794800Y-92001800D02*
X120180472Y-92001800D01*
X106302400Y-73529600D02*
X101727000Y-78105000D01*
X101727000Y-78105000D02*
X100482400Y-78105000D01*
X98704400Y-83464400D02*
X98704400Y-85865000D01*
D26*
X107188000Y-117297200D02*
X105814400Y-118670800D01*
D27*
X142228800Y-93534000D02*
X139296600Y-90601800D01*
X104195100Y-126991700D02*
X105814400Y-125372400D01*
X115979399Y-87800727D02*
X115979400Y-69957614D01*
X87434798Y-123866557D02*
X90559941Y-126991700D01*
X144469799Y-93533999D02*
X142228800Y-93534000D01*
X98704400Y-85865000D02*
X100404800Y-87565400D01*
X110699185Y-64677399D02*
X108830001Y-64677399D01*
D26*
X105814400Y-118670800D02*
X105814400Y-123139200D01*
D27*
X91682399Y-67113831D02*
X91682400Y-82821930D01*
X112909844Y-87559600D02*
X121565444Y-96215200D01*
D26*
X109169200Y-128727200D02*
X114909600Y-128727200D01*
D27*
X136144000Y-62103000D02*
X136144000Y-90551000D01*
X105376800Y-123576800D02*
X105814400Y-123139200D01*
X100482400Y-78105000D02*
X98682400Y-79905000D01*
X90002799Y-91556957D02*
X87434797Y-94124959D01*
X106302400Y-67205000D02*
X106302400Y-73529600D01*
X103552999Y-60855599D02*
X97940631Y-60855599D01*
X115979400Y-69957614D02*
X110699185Y-64677399D01*
X108102400Y-65405000D02*
X106302400Y-67205000D01*
X151120000Y-96072800D02*
X151180800Y-96012000D01*
X90002798Y-84501532D02*
X90002799Y-91556957D01*
X108102400Y-65405000D02*
X103552999Y-60855599D01*
X91682400Y-82821930D02*
X90002798Y-84501532D01*
X151180800Y-96012000D02*
X146947800Y-96012000D01*
D26*
X105814400Y-123139200D02*
X105814400Y-125372400D01*
D27*
X136144000Y-90551000D02*
X136194800Y-90601800D01*
X108830001Y-64677399D02*
X108102400Y-65405000D01*
X120180472Y-92001800D02*
X115979399Y-87800727D01*
X87434797Y-94124959D02*
X87434798Y-123866557D01*
X121565444Y-96215200D02*
X122377200Y-96215200D01*
X90559941Y-126991700D02*
X104195100Y-126991700D01*
D26*
X158332800Y-56737542D02*
X158332800Y-57708800D01*
X157379058Y-55783800D02*
X158332800Y-56737542D01*
X146964400Y-60598670D02*
X151779270Y-55783800D01*
X146964400Y-61595000D02*
X146964400Y-60598670D01*
X151779270Y-55783800D02*
X157379058Y-55783800D01*
D27*
X137286414Y-95884000D02*
X129457599Y-103712815D01*
X139537600Y-95884000D02*
X137286414Y-95884000D01*
X142232000Y-96012000D02*
X142104000Y-95884000D01*
X160832800Y-60970800D02*
X160832800Y-57708800D01*
X143560800Y-96012000D02*
X142232000Y-96012000D01*
X139537600Y-95884000D02*
X138850800Y-95884000D01*
X158247113Y-130508002D02*
X163207200Y-125547915D01*
X163207200Y-125547915D02*
X163207200Y-63345200D01*
X129457599Y-103712815D02*
X129457599Y-125718269D01*
X134247330Y-130508000D02*
X158247113Y-130508002D01*
X129457599Y-125718269D02*
X134247330Y-130508000D01*
X142104000Y-95884000D02*
X139537600Y-95884000D01*
X138850800Y-95884000D02*
X138420000Y-95453200D01*
X138420000Y-95453200D02*
X138420000Y-94534000D01*
X163207200Y-63345200D02*
X160832800Y-60970800D01*
D26*
X148719024Y-64599223D02*
X146964400Y-66353847D01*
X146964400Y-66353847D02*
X146964400Y-66548000D01*
X155937623Y-64599223D02*
X148719024Y-64599223D01*
X156616400Y-65278000D02*
X155937623Y-64599223D01*
D27*
X138420000Y-99829358D02*
X138420000Y-99283800D01*
X162207200Y-73368800D02*
X156616400Y-67778000D01*
X162207200Y-125133701D02*
X162207200Y-73368800D01*
X130457599Y-125304055D02*
X134661544Y-129508000D01*
X139224442Y-100633800D02*
X137311814Y-100633800D01*
X139224442Y-100633800D02*
X138420000Y-99829358D01*
X142129400Y-100633800D02*
X139224442Y-100633800D01*
X130457599Y-107488015D02*
X130457599Y-125304055D01*
X134661544Y-129508000D02*
X157832901Y-129508000D01*
X137311814Y-100633800D02*
X130457599Y-107488015D01*
X157832901Y-129508000D02*
X162207200Y-125133701D01*
X143500000Y-99263200D02*
X142129400Y-100633800D01*
D26*
X149954577Y-73449777D02*
X148715568Y-73449777D01*
X146964400Y-71698609D02*
X146964400Y-71501000D01*
X152806400Y-76301600D02*
X149954577Y-73449777D01*
X148715568Y-73449777D02*
X146964400Y-71698609D01*
X156616400Y-76301600D02*
X152806400Y-76301600D01*
D27*
X139210800Y-105388000D02*
X138420000Y-104597200D01*
X161207200Y-83392400D02*
X156616400Y-78801600D01*
X131457599Y-111263215D02*
X131457599Y-124889841D01*
X131457599Y-124889841D02*
X135075758Y-128508000D01*
X135075758Y-128508000D02*
X157418687Y-128508000D01*
X139210800Y-105388000D02*
X137332814Y-105388000D01*
X143500000Y-104038400D02*
X142150400Y-105388000D01*
X157418687Y-128508000D02*
X161207200Y-124719487D01*
X138420000Y-104597200D02*
X138420000Y-104038000D01*
X137332814Y-105388000D02*
X131457599Y-111263215D01*
X161207200Y-124719487D02*
X161207200Y-83392400D01*
X142150400Y-105388000D02*
X139210800Y-105388000D01*
D26*
X151406900Y-80508477D02*
X149301200Y-78402777D01*
X148715568Y-78402777D02*
X146964400Y-76651609D01*
X151406900Y-83086958D02*
X151406900Y-80508477D01*
X149301200Y-78402777D02*
X148715568Y-78402777D01*
X146964400Y-76651609D02*
X146964400Y-76454000D01*
X155645142Y-87325200D02*
X151406900Y-83086958D01*
X156616400Y-87325200D02*
X155645142Y-87325200D01*
D27*
X139224442Y-110159200D02*
X137336814Y-110159200D01*
X138420000Y-109354758D02*
X138420000Y-108809200D01*
X137336814Y-110159200D02*
X132457599Y-115038415D01*
X132457599Y-115038415D02*
X132457599Y-124475627D01*
X132457599Y-124475627D02*
X135489972Y-127508000D01*
X142154400Y-110159200D02*
X139224442Y-110159200D01*
X143500000Y-108813600D02*
X142154400Y-110159200D01*
X160207200Y-124305273D02*
X160207200Y-93416000D01*
X160207200Y-93416000D02*
X156616400Y-89825200D01*
X139224442Y-110159200D02*
X138420000Y-109354758D01*
X135489972Y-127508000D02*
X157004473Y-127508000D01*
X157004473Y-127508000D02*
X160207200Y-124305273D01*
D26*
X158541400Y-94736600D02*
X151406900Y-87602100D01*
X158541400Y-97395058D02*
X158541400Y-94736600D01*
X151406900Y-87602100D02*
X151406900Y-85524891D01*
X146964400Y-82403330D02*
X146964400Y-81407000D01*
X149295609Y-83413600D02*
X147974670Y-83413600D01*
X156616400Y-98348800D02*
X157587658Y-98348800D01*
X157587658Y-98348800D02*
X158541400Y-97395058D01*
X147974670Y-83413600D02*
X146964400Y-82403330D01*
X151406900Y-85524891D02*
X149295609Y-83413600D01*
D27*
X133457599Y-118813615D02*
X133457599Y-124061413D01*
X139224442Y-114934400D02*
X137336814Y-114934400D01*
X142154400Y-114934400D02*
X139224442Y-114934400D01*
X156609858Y-126488401D02*
X159207200Y-123891059D01*
X135884586Y-126488400D02*
X156609858Y-126488401D01*
X143500000Y-113588800D02*
X142154400Y-114934400D01*
X159207200Y-123891059D02*
X159207200Y-103439600D01*
X159207200Y-103439600D02*
X156616400Y-100848800D01*
X138420000Y-114129958D02*
X138420000Y-113584400D01*
X137336814Y-114934400D02*
X133457599Y-118813615D01*
X139224442Y-114934400D02*
X138420000Y-114129958D01*
X133457599Y-124061413D02*
X135884586Y-126488400D01*
D26*
X154604003Y-93542403D02*
X154604003Y-94541839D01*
X146964400Y-87356330D02*
X148965270Y-89357200D01*
X148965270Y-89357200D02*
X150418800Y-89357200D01*
X154604003Y-94541839D02*
X154630800Y-94568637D01*
X146964400Y-86360000D02*
X146964400Y-87356330D01*
X154630800Y-94568637D02*
X154630800Y-108358058D01*
X155645142Y-109372400D02*
X156616400Y-109372400D01*
X154630800Y-108358058D02*
X155645142Y-109372400D01*
X150418800Y-89357200D02*
X154604003Y-93542403D01*
D27*
X156195645Y-125488400D02*
X158191400Y-123492645D01*
X134457600Y-123647200D02*
X136298800Y-125488400D01*
X137307014Y-119688600D02*
X134457600Y-122538014D01*
X158191400Y-113447400D02*
X156616400Y-111872400D01*
X158191400Y-123492645D02*
X158191400Y-113447400D01*
X134457600Y-122538014D02*
X134457600Y-123647200D01*
X136298800Y-125488400D02*
X156195645Y-125488400D01*
X142099200Y-119688600D02*
X139216842Y-119688600D01*
X138412400Y-118884158D02*
X138412400Y-118338600D01*
X139216842Y-119688600D02*
X137307014Y-119688600D01*
X143500000Y-118287800D02*
X142099200Y-119688600D01*
X139216842Y-119688600D02*
X138412400Y-118884158D01*
D26*
X155645142Y-120396000D02*
X156616400Y-120396000D01*
X152930800Y-117681658D02*
X155645142Y-120396000D01*
X146964400Y-91510609D02*
X149715791Y-94262000D01*
X152930800Y-95272800D02*
X152930800Y-117681658D01*
X146964400Y-91313000D02*
X146964400Y-91510609D01*
X151920000Y-94262000D02*
X152930800Y-95272800D01*
X149715791Y-94262000D02*
X151920000Y-94262000D01*
D27*
X143500000Y-123088400D02*
X144900000Y-124488400D01*
X138412400Y-123633958D02*
X138412400Y-123088400D01*
X143500000Y-123088400D02*
X142150000Y-124438400D01*
X142150000Y-124438400D02*
X139216842Y-124438400D01*
X155024000Y-124488400D02*
X156616400Y-122896000D01*
X142150000Y-124438400D02*
X142200000Y-124488400D01*
X139216842Y-124438400D02*
X138412400Y-123633958D01*
X144900000Y-124488400D02*
X155024000Y-124488400D01*
X139690000Y-93988442D02*
X139690000Y-94534000D01*
X137233576Y-93185224D02*
X138886782Y-93185224D01*
X135880000Y-94538800D02*
X137233576Y-93185224D01*
X138886782Y-93185224D02*
X139690000Y-93988442D01*
X137208176Y-97935024D02*
X139014824Y-97935024D01*
X139690000Y-98610200D02*
X139690000Y-99283800D01*
X139014824Y-97935024D02*
X139690000Y-98610200D01*
X135880000Y-99263200D02*
X137208176Y-97935024D01*
X139087549Y-102689224D02*
X139690000Y-103291675D01*
X137229176Y-102689224D02*
X139087549Y-102689224D01*
X135880000Y-104038400D02*
X137229176Y-102689224D01*
X139690000Y-103291675D02*
X139690000Y-104038000D01*
X139087549Y-107460424D02*
X139690000Y-108062875D01*
X139690000Y-108062875D02*
X139690000Y-108809200D01*
X137233176Y-107460424D02*
X139087549Y-107460424D01*
X135880000Y-108813600D02*
X137233176Y-107460424D01*
X135880000Y-113588800D02*
X137233176Y-112235624D01*
X139690000Y-113038842D02*
X139690000Y-113584400D01*
X137233176Y-112235624D02*
X138886782Y-112235624D01*
X138886782Y-112235624D02*
X139690000Y-113038842D01*
X139682400Y-117793042D02*
X139682400Y-118338600D01*
X138879182Y-116989824D02*
X139682400Y-117793042D01*
X137254176Y-116989824D02*
X138879182Y-116989824D01*
X135880000Y-118364000D02*
X137254176Y-116989824D01*
X135880000Y-123088400D02*
X137228776Y-121739624D01*
X138879182Y-121739624D02*
X139682400Y-122542842D01*
X139682400Y-122542842D02*
X139682400Y-123088400D01*
X137228776Y-121739624D02*
X138879182Y-121739624D01*
X118379400Y-66710400D02*
X119612400Y-65477400D01*
X119612400Y-65477400D02*
X120222000Y-65477400D01*
X120222000Y-65477400D02*
X122224800Y-63474600D01*
X122224800Y-63474600D02*
X122224800Y-62077600D01*
X125984000Y-62103000D02*
X125984000Y-61804930D01*
X123494800Y-62077600D02*
X125958600Y-62077600D01*
X139202067Y-54702997D02*
X144424400Y-59925330D01*
X144424400Y-59925330D02*
X144424400Y-61595000D01*
X133085932Y-54702998D02*
X139202067Y-54702997D01*
X125958600Y-62077600D02*
X125984000Y-62103000D01*
X125984000Y-61804930D02*
X133085932Y-54702998D01*
X118941529Y-69196271D02*
X120709457Y-69196271D01*
X120709457Y-69196271D02*
X122224800Y-67680928D01*
X122224800Y-67680928D02*
X122224800Y-66827400D01*
X118379400Y-69758400D02*
X118941529Y-69196271D01*
X129467600Y-63394600D02*
X129467600Y-59735544D01*
X133500146Y-55702998D02*
X138787854Y-55702998D01*
X126034800Y-66827400D02*
X129467600Y-63394600D01*
X142748000Y-64871600D02*
X144424400Y-66548000D01*
X142748000Y-59663144D02*
X142748000Y-64871600D01*
X138787854Y-55702998D02*
X142748000Y-59663144D01*
X123494800Y-66827400D02*
X126034800Y-66827400D01*
X129467600Y-59735544D02*
X133500146Y-55702998D01*
X121728328Y-70231600D02*
X120181272Y-70231600D01*
X120181272Y-70231600D02*
X118379400Y-72033472D01*
X122224800Y-70728072D02*
X121728328Y-70231600D01*
X122224800Y-71581600D02*
X122224800Y-70728072D01*
X118379400Y-72033472D02*
X118379400Y-72806400D01*
X133914360Y-56702998D02*
X138373640Y-56702998D01*
X138373640Y-56702998D02*
X141649200Y-59978558D01*
X123494800Y-71581600D02*
X126013800Y-71581600D01*
X130467600Y-67169800D02*
X130467600Y-60149758D01*
X126013800Y-71581600D02*
X126034800Y-71602600D01*
X126034800Y-71602600D02*
X130467600Y-67169800D01*
X141649200Y-68725800D02*
X144424400Y-71501000D01*
X141649200Y-59978558D02*
X141649200Y-68725800D01*
X130467600Y-60149758D02*
X133914360Y-56702998D01*
X120006000Y-75027800D02*
X119179400Y-75854400D01*
X122224800Y-76377800D02*
X122224800Y-75524272D01*
X122224800Y-75524272D02*
X121728328Y-75027800D01*
X121728328Y-75027800D02*
X120006000Y-75027800D01*
X119179400Y-75854400D02*
X118379400Y-75854400D01*
X137959427Y-57702999D02*
X140649200Y-60392772D01*
X131467600Y-70945000D02*
X131467600Y-60563972D01*
X131467600Y-60563972D02*
X134328572Y-57703000D01*
X140649200Y-60392772D02*
X140649200Y-72678800D01*
X140649200Y-72678800D02*
X144424400Y-76454000D01*
X126034800Y-76377800D02*
X131467600Y-70945000D01*
X123494800Y-76377800D02*
X126034800Y-76377800D01*
X134328572Y-57703000D02*
X137959427Y-57702999D01*
X120853128Y-78902400D02*
X118379400Y-78902400D01*
X122224800Y-81127600D02*
X122224800Y-80274072D01*
X122224800Y-80274072D02*
X120853128Y-78902400D01*
X126034800Y-81153000D02*
X132467600Y-74720200D01*
X126009400Y-81127600D02*
X126034800Y-81153000D01*
X137545214Y-58703000D02*
X139649200Y-60806986D01*
X139649200Y-60806986D02*
X139649200Y-76631800D01*
X139649200Y-76631800D02*
X144424400Y-81407000D01*
X132467600Y-60978186D02*
X134742786Y-58703000D01*
X134742786Y-58703000D02*
X137545214Y-58703000D01*
X132467600Y-74720200D02*
X132467600Y-60978186D01*
X123494800Y-81127600D02*
X126009400Y-81127600D01*
X119773928Y-82598400D02*
X119027400Y-82598400D01*
X119027400Y-82598400D02*
X118379400Y-81950400D01*
X122224800Y-85902800D02*
X122224800Y-85049272D01*
X122224800Y-85049272D02*
X119773928Y-82598400D01*
X137131000Y-59703000D02*
X138594800Y-61166800D01*
X144424400Y-86360000D02*
X138594800Y-80530400D01*
X138594800Y-80530400D02*
X138594800Y-61166800D01*
X126034800Y-85877400D02*
X133467600Y-78444600D01*
X133467600Y-61392400D02*
X135157000Y-59703000D01*
X135157000Y-59703000D02*
X137131000Y-59703000D01*
X126009400Y-85902800D02*
X126034800Y-85877400D01*
X123494800Y-85902800D02*
X126009400Y-85902800D01*
X133467600Y-78444600D02*
X133467600Y-61392400D01*
X118379400Y-85798400D02*
X122224800Y-89643800D01*
X118379400Y-84998400D02*
X118379400Y-85798400D01*
X122224800Y-89643800D02*
X122224800Y-90652600D01*
X126034800Y-90601800D02*
X127457200Y-90601800D01*
X135571214Y-60703000D02*
X136716786Y-60703000D01*
X136716786Y-60703000D02*
X137594800Y-61581014D01*
X134467600Y-83591400D02*
X134467600Y-61806614D01*
X127457200Y-90601800D02*
X134467600Y-83591400D01*
X123494800Y-90652600D02*
X125984000Y-90652600D01*
X137594800Y-61581014D02*
X137594800Y-84483400D01*
X134467600Y-61806614D02*
X135571214Y-60703000D01*
X137594800Y-84483400D02*
X144424400Y-91313000D01*
X125984000Y-90652600D02*
X126034800Y-90601800D01*
X111151800Y-99820600D02*
X114757200Y-96215200D01*
X95682400Y-70205000D02*
X95682400Y-84478786D01*
X95682400Y-84478786D02*
X94002800Y-86158386D01*
X94002800Y-86158386D02*
X94002799Y-91779599D01*
X94002799Y-91779599D02*
X97402800Y-95179600D01*
X91834800Y-97420600D02*
X94075800Y-95179600D01*
X94234801Y-99820601D02*
X111151800Y-99820600D01*
X94075800Y-95179600D02*
X97402800Y-95179600D01*
X100482400Y-65405000D02*
X95682400Y-70205000D01*
X91834800Y-97420600D02*
X94234801Y-99820601D01*
X99787000Y-95185400D02*
X97551800Y-97420600D01*
X101682400Y-67945000D02*
X102282400Y-67345000D01*
X96682400Y-84893000D02*
X96682400Y-71745000D01*
X112691800Y-100820600D02*
X114757200Y-98755200D01*
X100404800Y-93948600D02*
X95002799Y-88546599D01*
X94682400Y-84064572D02*
X93002799Y-85744173D01*
X102282400Y-67345000D02*
X102282400Y-64356472D01*
X90434800Y-98004000D02*
X93251401Y-100820601D01*
X101781528Y-63855600D02*
X99183272Y-63855600D01*
X90434800Y-95367598D02*
X90434800Y-98004000D01*
X93002799Y-85744173D02*
X93002799Y-92799599D01*
X100404800Y-95185400D02*
X99787000Y-95185400D01*
X100404800Y-95185400D02*
X100404800Y-93948600D01*
X102282400Y-64356472D02*
X101781528Y-63855600D01*
X99183272Y-63855600D02*
X94682400Y-68356472D01*
X96682400Y-71745000D02*
X100482400Y-67945000D01*
X94682400Y-68356472D02*
X94682400Y-84064572D01*
X93002799Y-92799599D02*
X90434800Y-95367598D01*
X95002800Y-86572600D02*
X96682400Y-84893000D01*
X95002799Y-88546599D02*
X95002800Y-86572600D01*
X93251401Y-100820601D02*
X112691800Y-100820600D01*
X100482400Y-67945000D02*
X101682400Y-67945000D01*
X97682400Y-73285000D02*
X97682400Y-85307214D01*
X101682400Y-70485000D02*
X100482400Y-70485000D01*
X103448000Y-95179600D02*
X103448000Y-97237400D01*
X89434799Y-98418213D02*
X89434799Y-94953385D01*
X102319014Y-62855600D02*
X103282400Y-63818986D01*
X92837186Y-101820600D02*
X89434799Y-98418213D01*
X103282400Y-63818986D02*
X103282400Y-68885000D01*
X103282400Y-68885000D02*
X101682400Y-70485000D01*
X103050014Y-95179600D02*
X103448000Y-95179600D01*
X114231800Y-101820600D02*
X92837186Y-101820600D01*
X97682400Y-85307214D02*
X96002800Y-86986814D01*
X96002800Y-88132386D02*
X103050014Y-95179600D01*
X96002800Y-86986814D02*
X96002800Y-88132386D01*
X92002799Y-92385385D02*
X92002799Y-85329959D01*
X98769059Y-62855599D02*
X102319014Y-62855600D01*
X103448000Y-97237400D02*
X103264800Y-97420600D01*
X100482400Y-70485000D02*
X97682400Y-73285000D01*
X93682400Y-67942258D02*
X98769059Y-62855599D01*
X93682400Y-83650358D02*
X93682400Y-67942258D01*
X92002799Y-85329959D02*
X93682400Y-83650358D01*
X89434799Y-94953385D02*
X92002799Y-92385385D01*
X114757200Y-101295200D02*
X114231800Y-101820600D01*
X117557200Y-106115200D02*
X117557201Y-94752459D01*
X106496000Y-95179600D02*
X106738800Y-95179600D01*
X117557201Y-94752459D02*
X116584342Y-93779600D01*
X114757200Y-108915200D02*
X117557200Y-106115200D01*
X116584342Y-93779600D02*
X107896000Y-93779600D01*
X106738800Y-95179600D02*
X108979800Y-97420600D01*
X107896000Y-93779600D02*
X106496000Y-95179600D01*
X124177200Y-96081600D02*
X125720000Y-94538800D01*
X124177200Y-99495200D02*
X124177200Y-96081600D01*
X122377200Y-101295200D02*
X124177200Y-99495200D01*
X125720000Y-99263200D02*
X125720000Y-100492400D01*
X125720000Y-100492400D02*
X122377200Y-103835200D01*
X124714000Y-104038400D02*
X122377200Y-106375200D01*
X125720000Y-104038400D02*
X124714000Y-104038400D01*
X122478800Y-108813600D02*
X122377200Y-108915200D01*
X125720000Y-108813600D02*
X122478800Y-108813600D01*
X125720000Y-113588800D02*
X124510800Y-113588800D01*
X124510800Y-113588800D02*
X122377200Y-111455200D01*
X122377200Y-113995200D02*
X122377200Y-115021200D01*
X122377200Y-115021200D02*
X125720000Y-118364000D01*
X114757200Y-111455200D02*
X125720000Y-122418000D01*
X125720000Y-122418000D02*
X125720000Y-123088400D01*
X110759400Y-67785614D02*
X108102400Y-70442614D01*
X108102400Y-70442614D02*
X108102400Y-70485000D01*
X110759400Y-66710400D02*
X110759400Y-67785614D01*
X110759400Y-70368000D02*
X108102400Y-73025000D01*
X110759400Y-69758400D02*
X110759400Y-70368000D01*
X110759400Y-72908000D02*
X108102400Y-75565000D01*
X110759400Y-72806400D02*
X110759400Y-72908000D01*
X110353000Y-75854400D02*
X108102400Y-78105000D01*
X110759400Y-75854400D02*
X110353000Y-75854400D01*
X110759400Y-78902400D02*
X109845000Y-78902400D01*
X109845000Y-78902400D02*
X108102400Y-80645000D01*
X109337000Y-81950400D02*
X108102400Y-83185000D01*
X110759400Y-81950400D02*
X109337000Y-81950400D01*
X107494614Y-84998400D02*
X103141214Y-80645000D01*
X110759400Y-84998400D02*
X107494614Y-84998400D01*
X103141214Y-80645000D02*
X100482400Y-80645000D01*
D28*
X154330400Y-132232400D02*
X86817200Y-132232400D01*
X167030400Y-115011200D02*
X167030400Y-132232400D01*
X167030400Y-115011200D02*
X167081200Y-52984400D01*
X86817200Y-96723200D02*
X86817200Y-52984400D01*
X167081200Y-52984400D02*
X167081200Y-52984400D01*
X139192000Y-52984400D02*
X167081200Y-52984400D01*
X139192000Y-52984400D02*
X86817200Y-52984400D01*
X86817200Y-96723200D02*
X86817200Y-132232400D01*
X154330400Y-132232400D02*
X167030400Y-132232400D01*
M02*
