%TF.GenerationSoftware,KiCad,Pcbnew,7.0.9-7.0.9~ubuntu22.04.1*%
%TF.CreationDate,2023-11-30T12:34:48+02:00*%
%TF.ProjectId,DC_Motor_Driver,44435f4d-6f74-46f7-925f-447269766572,rev?*%
%TF.SameCoordinates,Original*%
%TF.FileFunction,Copper,L1,Top*%
%TF.FilePolarity,Positive*%
%FSLAX46Y46*%
G04 Gerber Fmt 4.6, Leading zero omitted, Abs format (unit mm)*
G04 Created by KiCad (PCBNEW 7.0.9-7.0.9~ubuntu22.04.1) date 2023-11-30 12:34:48*
%MOMM*%
%LPD*%
G01*
G04 APERTURE LIST*
%TA.AperFunction,ComponentPad*%
%ADD10R,1.600000X1.600000*%
%TD*%
%TA.AperFunction,ComponentPad*%
%ADD11C,1.600000*%
%TD*%
%TA.AperFunction,ComponentPad*%
%ADD12R,1.700000X1.700000*%
%TD*%
%TA.AperFunction,ComponentPad*%
%ADD13O,1.700000X1.700000*%
%TD*%
%TA.AperFunction,ComponentPad*%
%ADD14O,1.600000X1.600000*%
%TD*%
%TA.AperFunction,ComponentPad*%
%ADD15R,1.500000X1.050000*%
%TD*%
%TA.AperFunction,ComponentPad*%
%ADD16O,1.500000X1.050000*%
%TD*%
%TA.AperFunction,ComponentPad*%
%ADD17R,1.050000X1.500000*%
%TD*%
%TA.AperFunction,ComponentPad*%
%ADD18O,1.050000X1.500000*%
%TD*%
%TA.AperFunction,ComponentPad*%
%ADD19R,3.000000X3.000000*%
%TD*%
%TA.AperFunction,ComponentPad*%
%ADD20C,3.000000*%
%TD*%
%TA.AperFunction,ComponentPad*%
%ADD21O,2.000000X1.905000*%
%TD*%
%TA.AperFunction,ComponentPad*%
%ADD22R,2.000000X1.905000*%
%TD*%
%TA.AperFunction,ComponentPad*%
%ADD23R,2.400000X2.400000*%
%TD*%
%TA.AperFunction,ComponentPad*%
%ADD24O,2.400000X2.400000*%
%TD*%
%TA.AperFunction,Conductor*%
%ADD25C,0.800000*%
%TD*%
%TA.AperFunction,Conductor*%
%ADD26C,1.000000*%
%TD*%
%TA.AperFunction,Conductor*%
%ADD27C,1.500000*%
%TD*%
%TA.AperFunction,Profile*%
%ADD28C,0.100000*%
%TD*%
G04 APERTURE END LIST*
D10*
X24384000Y17326448D03*
D11*
X24384000Y14826448D03*
D12*
X20529000Y16876000D03*
D13*
X20529000Y14336000D03*
X20529000Y11796000D03*
D11*
X31750000Y17272000D03*
D14*
X39370000Y17272000D03*
D15*
X45000000Y11938000D03*
D16*
X45000000Y10668000D03*
X45000000Y9398000D03*
D17*
X38354000Y9948000D03*
D18*
X39624000Y9948000D03*
X40894000Y9948000D03*
D17*
X32766000Y9948000D03*
D18*
X34036000Y9948000D03*
X35306000Y9948000D03*
D19*
X62992000Y16256000D03*
D20*
X62992000Y11176000D03*
D21*
X49347000Y10668000D03*
X49347000Y13208000D03*
D22*
X49347000Y15748000D03*
D11*
X22606000Y11684000D03*
D14*
X30226000Y11684000D03*
D11*
X31750000Y14224000D03*
D14*
X39370000Y14224000D03*
D16*
X44916000Y17526000D03*
X44916000Y16256000D03*
D15*
X44916000Y14986000D03*
D23*
X55880000Y17018000D03*
D24*
X55880000Y4318000D03*
D11*
X28956000Y17506000D03*
X28956000Y15006000D03*
D25*
X41614000Y10668000D02*
X45000000Y10668000D01*
D26*
X20529000Y14336000D02*
X19326919Y14336000D01*
X19326919Y14336000D02*
X18500000Y13509081D01*
D25*
X37586000Y9948000D02*
X38354000Y9948000D01*
X32766000Y9948000D02*
X30586000Y9948000D01*
X35306000Y9948000D02*
X35306000Y10414000D01*
X35306000Y10414000D02*
X36576000Y11684000D01*
X34036000Y9948000D02*
X34036000Y11153000D01*
X24384000Y14826448D02*
X28776448Y14826448D01*
X28776448Y14826448D02*
X28956000Y15006000D01*
X24384000Y14826448D02*
X24384000Y10478000D01*
X24384000Y10478000D02*
X27750000Y7112000D01*
X44916000Y17526000D02*
X49022000Y17526000D01*
X49022000Y17526000D02*
X50800000Y19304000D01*
D27*
X50800000Y19304000D02*
X21304000Y19304000D01*
X55880000Y17018000D02*
X53086000Y17018000D01*
X53086000Y17018000D02*
X50800000Y19304000D01*
D25*
X24384000Y17326448D02*
X23281552Y17326448D01*
X23281552Y17326448D02*
X21304000Y19304000D01*
X28956000Y17506000D02*
X24563552Y17506000D01*
X24563552Y17506000D02*
X24384000Y17326448D01*
X31750000Y17272000D02*
X29190000Y17272000D01*
X29190000Y17272000D02*
X28956000Y17506000D01*
D27*
X45791000Y7112000D02*
X42000000Y7112000D01*
X27750000Y7112000D02*
X34750000Y7112000D01*
X34750000Y7112000D02*
X42000000Y7112000D01*
D25*
X37586000Y9948000D02*
X34750000Y7112000D01*
X30586000Y9948000D02*
X27750000Y7112000D01*
D27*
X22667415Y7112000D02*
X27750000Y7112000D01*
X18500000Y13509081D02*
X18500000Y11279415D01*
X18500000Y11279415D02*
X22667415Y7112000D01*
D25*
X31750000Y14224000D02*
X31750000Y17272000D01*
X44286000Y9398000D02*
X42000000Y7112000D01*
X41614000Y15028000D02*
X42483000Y15028000D01*
X42483000Y15028000D02*
X43711000Y16256000D01*
X43711000Y16256000D02*
X44916000Y16256000D01*
X41614000Y10668000D02*
X41614000Y15028000D01*
X41614000Y15028000D02*
X39370000Y17272000D01*
X44286000Y9398000D02*
X45000000Y9398000D01*
X39370000Y11938000D02*
X39370000Y14224000D01*
D27*
X49347000Y10668000D02*
X45791000Y7112000D01*
D25*
X39370000Y11938000D02*
X39116000Y11684000D01*
X44916000Y14986000D02*
X48585000Y14986000D01*
X44916000Y14986000D02*
X44916000Y12022000D01*
X44916000Y12022000D02*
X45000000Y11938000D01*
X44916000Y17526000D02*
X44778000Y17526000D01*
D27*
X20529000Y16876000D02*
X20529000Y18529000D01*
X20529000Y18529000D02*
X21304000Y19304000D01*
D25*
X28776448Y17326448D02*
X28956000Y17506000D01*
D27*
X62992000Y16256000D02*
X56642000Y16256000D01*
X56642000Y16256000D02*
X55880000Y17018000D01*
X55880000Y9652000D02*
X55880000Y4318000D01*
X57404000Y11176000D02*
X62992000Y11176000D01*
X49347000Y13208000D02*
X52324000Y13208000D01*
X52324000Y13208000D02*
X55880000Y9652000D01*
X55880000Y9652000D02*
X57404000Y11176000D01*
D25*
X33505000Y11684000D02*
X34036000Y11153000D01*
X30226000Y11684000D02*
X33505000Y11684000D01*
X39624000Y11176000D02*
X39624000Y9948000D01*
X36576000Y11684000D02*
X39116000Y11684000D01*
X39116000Y11684000D02*
X39624000Y11176000D01*
X40894000Y9948000D02*
X41614000Y10668000D01*
X48585000Y14986000D02*
X49347000Y15748000D01*
X22606000Y11684000D02*
X20641000Y11684000D01*
X20641000Y11684000D02*
X20529000Y11796000D01*
D28*
X67564000Y20320000D02*
X67564000Y2667000D01*
X67564000Y2667000D02*
X10033000Y2603500D01*
X10033000Y20256500D02*
X67564000Y20320000D01*
X10033000Y2603500D02*
X10033000Y20256500D01*
M02*
