%TF.GenerationSoftware,KiCad,Pcbnew,7.0.10-7.0.10~ubuntu22.04.1*%
%TF.CreationDate,2024-01-10T05:34:27+02:00*%
%TF.ProjectId,DC_Motor_Driver,44435f4d-6f74-46f7-925f-447269766572,rev?*%
%TF.SameCoordinates,Original*%
%TF.FileFunction,Copper,L1,Top*%
%TF.FilePolarity,Positive*%
%FSLAX46Y46*%
G04 Gerber Fmt 4.6, Leading zero omitted, Abs format (unit mm)*
G04 Created by KiCad (PCBNEW 7.0.10-7.0.10~ubuntu22.04.1) date 2024-01-10 05:34:27*
%MOMM*%
%LPD*%
G01*
G04 APERTURE LIST*
G04 Aperture macros list*
%AMRoundRect*
0 Rectangle with rounded corners*
0 $1 Rounding radius*
0 $2 $3 $4 $5 $6 $7 $8 $9 X,Y pos of 4 corners*
0 Add a 4 corners polygon primitive as box body*
4,1,4,$2,$3,$4,$5,$6,$7,$8,$9,$2,$3,0*
0 Add four circle primitives for the rounded corners*
1,1,$1+$1,$2,$3*
1,1,$1+$1,$4,$5*
1,1,$1+$1,$6,$7*
1,1,$1+$1,$8,$9*
0 Add four rect primitives between the rounded corners*
20,1,$1+$1,$2,$3,$4,$5,0*
20,1,$1+$1,$4,$5,$6,$7,0*
20,1,$1+$1,$6,$7,$8,$9,0*
20,1,$1+$1,$8,$9,$2,$3,0*%
G04 Aperture macros list end*
%TA.AperFunction,ComponentPad*%
%ADD10C,1.600000*%
%TD*%
%TA.AperFunction,ComponentPad*%
%ADD11RoundRect,0.250000X0.725000X-0.600000X0.725000X0.600000X-0.725000X0.600000X-0.725000X-0.600000X0*%
%TD*%
%TA.AperFunction,ComponentPad*%
%ADD12O,1.950000X1.700000*%
%TD*%
%TA.AperFunction,ComponentPad*%
%ADD13R,2.000000X1.905000*%
%TD*%
%TA.AperFunction,ComponentPad*%
%ADD14O,2.000000X1.905000*%
%TD*%
%TA.AperFunction,ComponentPad*%
%ADD15R,2.400000X2.400000*%
%TD*%
%TA.AperFunction,ComponentPad*%
%ADD16O,2.400000X2.400000*%
%TD*%
%TA.AperFunction,ComponentPad*%
%ADD17R,1.500000X1.050000*%
%TD*%
%TA.AperFunction,ComponentPad*%
%ADD18O,1.500000X1.050000*%
%TD*%
%TA.AperFunction,ComponentPad*%
%ADD19O,1.600000X1.600000*%
%TD*%
%TA.AperFunction,ComponentPad*%
%ADD20R,1.050000X1.500000*%
%TD*%
%TA.AperFunction,ComponentPad*%
%ADD21O,1.050000X1.500000*%
%TD*%
%TA.AperFunction,ComponentPad*%
%ADD22R,3.000000X3.000000*%
%TD*%
%TA.AperFunction,ComponentPad*%
%ADD23C,3.000000*%
%TD*%
%TA.AperFunction,ComponentPad*%
%ADD24R,1.600000X1.600000*%
%TD*%
%TA.AperFunction,Conductor*%
%ADD25C,0.800000*%
%TD*%
%TA.AperFunction,Conductor*%
%ADD26C,1.500000*%
%TD*%
%TA.AperFunction,Profile*%
%ADD27C,0.100000*%
%TD*%
G04 APERTURE END LIST*
D10*
X131000000Y-102500000D03*
X131000000Y-100000000D03*
D11*
X121999500Y-106103500D03*
D12*
X121999500Y-103603500D03*
X121999500Y-101103500D03*
D13*
X151564000Y-101105500D03*
D14*
X151564000Y-103645500D03*
X151564000Y-106185500D03*
D15*
X158467000Y-98003500D03*
D16*
X158467000Y-110703500D03*
D17*
X147217000Y-104915500D03*
D18*
X147217000Y-106185500D03*
X147217000Y-107455500D03*
D10*
X133967000Y-100000000D03*
D19*
X141587000Y-100000000D03*
D20*
X140571000Y-106905500D03*
D21*
X141841000Y-106905500D03*
X143111000Y-106905500D03*
D20*
X134983000Y-106905500D03*
D21*
X136253000Y-106905500D03*
X137523000Y-106905500D03*
D22*
X165209000Y-100597500D03*
D23*
X165209000Y-105677500D03*
D10*
X124823000Y-105500000D03*
D19*
X132443000Y-105500000D03*
D24*
X126750000Y-100044888D03*
D10*
X126750000Y-102544888D03*
X133967000Y-102629500D03*
D19*
X141587000Y-102629500D03*
D17*
X147133000Y-101867500D03*
D18*
X147133000Y-100597500D03*
X147133000Y-99327500D03*
D25*
X140358250Y-103858250D02*
X141587000Y-102629500D01*
X137523000Y-106693500D02*
X140358250Y-103858250D01*
X140358250Y-103858250D02*
X141841000Y-105341000D01*
X141841000Y-105341000D02*
X141841000Y-106905500D01*
X137523000Y-106905500D02*
X137523000Y-106693500D01*
X136253000Y-106905500D02*
X136253000Y-105253000D01*
X136253000Y-105253000D02*
X135750000Y-104750000D01*
X135750000Y-104750000D02*
X133250000Y-104750000D01*
X133250000Y-104750000D02*
X132500000Y-105500000D01*
X132500000Y-105500000D02*
X132443000Y-105500000D01*
D26*
X129967000Y-109741500D02*
X131500000Y-109741500D01*
X131500000Y-109741500D02*
X136967000Y-109741500D01*
D25*
X134983000Y-106905500D02*
X134336000Y-106905500D01*
X134336000Y-106905500D02*
X131500000Y-109741500D01*
X126750000Y-100044888D02*
X126750000Y-99310000D01*
X126750000Y-99310000D02*
X125271500Y-97831500D01*
X126750000Y-102544888D02*
X123058112Y-102544888D01*
X123058112Y-102544888D02*
X121999500Y-103603500D01*
X126750000Y-102544888D02*
X130955112Y-102544888D01*
X130955112Y-102544888D02*
X131000000Y-102500000D01*
X131000000Y-100000000D02*
X126794888Y-100000000D01*
X126794888Y-100000000D02*
X126750000Y-100044888D01*
X121999500Y-106103500D02*
X124219500Y-106103500D01*
X124219500Y-106103500D02*
X124823000Y-105500000D01*
X133967000Y-100000000D02*
X133967000Y-102629500D01*
X131000000Y-100000000D02*
X133967000Y-100000000D01*
X143831000Y-101825500D02*
X143412500Y-101825500D01*
X143412500Y-101825500D02*
X141587000Y-100000000D01*
X125271500Y-98197552D02*
X125271500Y-97831500D01*
D26*
X129967000Y-109741500D02*
X121241500Y-109741500D01*
X121241500Y-109741500D02*
X119750000Y-108250000D01*
X119750000Y-108250000D02*
X119750000Y-104750000D01*
X119750000Y-104750000D02*
X120896500Y-103603500D01*
X120896500Y-103603500D02*
X121999500Y-103603500D01*
X158295000Y-97831500D02*
X147000000Y-97831500D01*
X147000000Y-97831500D02*
X125271500Y-97831500D01*
D25*
X147133000Y-99327500D02*
X147133000Y-97964500D01*
X147133000Y-97964500D02*
X147000000Y-97831500D01*
D26*
X165209000Y-105677500D02*
X160933000Y-105677500D01*
X160933000Y-105677500D02*
X158467000Y-108143500D01*
X151564000Y-103645500D02*
X153969000Y-103645500D01*
X153969000Y-103645500D02*
X158467000Y-108143500D01*
X158467000Y-108143500D02*
X158467000Y-110703500D01*
X158467000Y-98003500D02*
X158295000Y-97831500D01*
X125271500Y-97831500D02*
X121999500Y-101103500D01*
X158467000Y-98003500D02*
X162615000Y-98003500D01*
X162615000Y-98003500D02*
X165209000Y-100597500D01*
D25*
X147133000Y-99327500D02*
X146995000Y-99327500D01*
D26*
X151564000Y-106185500D02*
X148008000Y-109741500D01*
X148008000Y-109741500D02*
X144217000Y-109741500D01*
D25*
X146503000Y-107455500D02*
X147217000Y-107455500D01*
X139803000Y-106905500D02*
X140571000Y-106905500D01*
D26*
X136967000Y-109741500D02*
X144217000Y-109741500D01*
D25*
X146503000Y-107455500D02*
X144217000Y-109741500D01*
X139803000Y-106905500D02*
X136967000Y-109741500D01*
X143831000Y-106185500D02*
X143831000Y-101825500D01*
X145928000Y-100597500D02*
X147133000Y-100597500D01*
X143111000Y-106905500D02*
X143831000Y-106185500D01*
X143831000Y-106185500D02*
X147217000Y-106185500D01*
X143831000Y-101825500D02*
X144700000Y-101825500D01*
X144700000Y-101825500D02*
X145928000Y-100597500D01*
X147133000Y-101867500D02*
X147133000Y-104831500D01*
X150802000Y-101867500D02*
X151564000Y-101105500D01*
X147133000Y-104831500D02*
X147217000Y-104915500D01*
X147133000Y-101867500D02*
X150802000Y-101867500D01*
D27*
X169250000Y-96533500D02*
X169250000Y-112516750D01*
X169250000Y-112516750D02*
X115000000Y-112483250D01*
X115000000Y-96500000D02*
X169250000Y-96533500D01*
X115000000Y-112483250D02*
X115000000Y-96500000D01*
M02*
