%TF.GenerationSoftware,KiCad,Pcbnew,7.0.9-7.0.9~ubuntu22.04.1*%
%TF.CreationDate,2023-11-30T12:19:27+02:00*%
%TF.ProjectId,DC_Motor_Driver,44435f4d-6f74-46f7-925f-447269766572,rev?*%
%TF.SameCoordinates,Original*%
%TF.FileFunction,Copper,L1,Top*%
%TF.FilePolarity,Positive*%
%FSLAX46Y46*%
G04 Gerber Fmt 4.6, Leading zero omitted, Abs format (unit mm)*
G04 Created by KiCad (PCBNEW 7.0.9-7.0.9~ubuntu22.04.1) date 2023-11-30 12:19:27*
%MOMM*%
%LPD*%
G01*
G04 APERTURE LIST*
%TA.AperFunction,ComponentPad*%
%ADD10R,1.600000X1.600000*%
%TD*%
%TA.AperFunction,ComponentPad*%
%ADD11C,1.600000*%
%TD*%
%TA.AperFunction,ComponentPad*%
%ADD12R,1.700000X1.700000*%
%TD*%
%TA.AperFunction,ComponentPad*%
%ADD13O,1.700000X1.700000*%
%TD*%
%TA.AperFunction,ComponentPad*%
%ADD14O,1.600000X1.600000*%
%TD*%
%TA.AperFunction,ComponentPad*%
%ADD15R,1.500000X1.050000*%
%TD*%
%TA.AperFunction,ComponentPad*%
%ADD16O,1.500000X1.050000*%
%TD*%
%TA.AperFunction,ComponentPad*%
%ADD17R,1.050000X1.500000*%
%TD*%
%TA.AperFunction,ComponentPad*%
%ADD18O,1.050000X1.500000*%
%TD*%
%TA.AperFunction,ComponentPad*%
%ADD19R,3.000000X3.000000*%
%TD*%
%TA.AperFunction,ComponentPad*%
%ADD20C,3.000000*%
%TD*%
%TA.AperFunction,ComponentPad*%
%ADD21O,2.000000X1.905000*%
%TD*%
%TA.AperFunction,ComponentPad*%
%ADD22R,2.000000X1.905000*%
%TD*%
%TA.AperFunction,ComponentPad*%
%ADD23R,2.400000X2.400000*%
%TD*%
%TA.AperFunction,ComponentPad*%
%ADD24O,2.400000X2.400000*%
%TD*%
%TA.AperFunction,Conductor*%
%ADD25C,0.800000*%
%TD*%
%TA.AperFunction,Conductor*%
%ADD26C,1.500000*%
%TD*%
%TA.AperFunction,Profile*%
%ADD27C,0.100000*%
%TD*%
G04 APERTURE END LIST*
D10*
X45180000Y16722948D03*
D11*
X45180000Y14222948D03*
D12*
X49035000Y16272500D03*
D13*
X49035000Y13732500D03*
X49035000Y11192500D03*
D11*
X37814000Y16668500D03*
D14*
X30194000Y16668500D03*
D15*
X24564000Y11334500D03*
D16*
X24564000Y10064500D03*
X24564000Y8794500D03*
D17*
X31210000Y9344500D03*
D18*
X29940000Y9344500D03*
X28670000Y9344500D03*
D17*
X36798000Y9344500D03*
D18*
X35528000Y9344500D03*
X34258000Y9344500D03*
D19*
X6572000Y15652500D03*
D20*
X6572000Y10572500D03*
D21*
X20217000Y10064500D03*
X20217000Y12604500D03*
D22*
X20217000Y15144500D03*
D11*
X46958000Y11080500D03*
D14*
X39338000Y11080500D03*
D11*
X37814000Y13620500D03*
D14*
X30194000Y13620500D03*
D16*
X24648000Y16922500D03*
X24648000Y15652500D03*
D15*
X24648000Y14382500D03*
D23*
X13684000Y16414500D03*
D24*
X13684000Y3714500D03*
D11*
X40608000Y16902500D03*
X40608000Y14402500D03*
D25*
X37814000Y16668500D02*
X37814000Y13620500D01*
D26*
X46896585Y6508500D02*
X23773000Y6508500D01*
D25*
X25278000Y8794500D02*
X27564000Y6508500D01*
X31210000Y9344500D02*
X31978000Y9344500D01*
X31978000Y9344500D02*
X34814000Y6508500D01*
X27950000Y14424500D02*
X27081000Y14424500D01*
X27081000Y14424500D02*
X25853000Y15652500D01*
X25853000Y15652500D02*
X24648000Y15652500D01*
X27950000Y10064500D02*
X27950000Y14424500D01*
X27950000Y14424500D02*
X30194000Y16668500D01*
X25278000Y8794500D02*
X24564000Y8794500D01*
X27950000Y10064500D02*
X24564000Y10064500D01*
X38978000Y9344500D02*
X41814000Y6508500D01*
X36798000Y9344500D02*
X38978000Y9344500D01*
X30194000Y11334500D02*
X30194000Y13620500D01*
D26*
X20217000Y10064500D02*
X23773000Y6508500D01*
D25*
X30194000Y11334500D02*
X30448000Y11080500D01*
X24648000Y14382500D02*
X20979000Y14382500D01*
X24648000Y14382500D02*
X24648000Y11418500D01*
X24648000Y11418500D02*
X24564000Y11334500D01*
X35528000Y10549500D02*
X35528000Y9344500D01*
D26*
X48260000Y18700500D02*
X26564000Y18700500D01*
X26564000Y18700500D02*
X18764000Y18700500D01*
D25*
X24648000Y16922500D02*
X24786000Y16922500D01*
X24786000Y16922500D02*
X26564000Y18700500D01*
D26*
X49035000Y16272500D02*
X49035000Y17925500D01*
X49035000Y17925500D02*
X48260000Y18700500D01*
X18764000Y18700500D02*
X16478000Y16414500D01*
X16478000Y16414500D02*
X13684000Y16414500D01*
X50237081Y13732500D02*
X49035000Y13732500D01*
D25*
X49035000Y13732500D02*
X45670448Y13732500D01*
X45670448Y13732500D02*
X45180000Y14222948D01*
X40608000Y14402500D02*
X45000448Y14402500D01*
X45000448Y14402500D02*
X45180000Y14222948D01*
X38048000Y16902500D02*
X37814000Y16668500D01*
X40787552Y16722948D02*
X40608000Y16902500D01*
D26*
X50237081Y13732500D02*
X51064000Y12905581D01*
X51064000Y12905581D02*
X51064000Y10675915D01*
X51064000Y10675915D02*
X46896585Y6508500D01*
X6572000Y15652500D02*
X12922000Y15652500D01*
X12922000Y15652500D02*
X13684000Y16414500D01*
X13684000Y9048500D02*
X13684000Y3714500D01*
X12160000Y10572500D02*
X6572000Y10572500D01*
X20217000Y12604500D02*
X17240000Y12604500D01*
X17240000Y12604500D02*
X13684000Y9048500D01*
X13684000Y9048500D02*
X12160000Y10572500D01*
D25*
X36059000Y11080500D02*
X35528000Y10549500D01*
X39338000Y11080500D02*
X36059000Y11080500D01*
X29940000Y10572500D02*
X29940000Y9344500D01*
X34258000Y9810500D02*
X32988000Y11080500D01*
X34258000Y9344500D02*
X34258000Y9810500D01*
X32988000Y11080500D02*
X30448000Y11080500D01*
X30448000Y11080500D02*
X29940000Y10572500D01*
X28670000Y9344500D02*
X27950000Y10064500D01*
X20979000Y14382500D02*
X20217000Y15144500D01*
X46958000Y11080500D02*
X48923000Y11080500D01*
X48923000Y11080500D02*
X49035000Y11192500D01*
D27*
X2000000Y19716500D02*
X2000000Y2063500D01*
X2000000Y2063500D02*
X59531000Y2000000D01*
X59531000Y19653000D02*
X2000000Y19716500D01*
X59531000Y2000000D02*
X59531000Y19653000D01*
M02*
