  0
SECTION
  2
HEADER
  9
$ANGBASE
  50
0.0
  9
$ANGDIR
  70
1
  9
$MEASUREMENT
  70
1
  0
ENDSEC
  0
SECTION
  2
TABLES
  0
TABLE
  2
LTYPE
  70
4
  0
LTYPE
  5
40F
  2
CONTINUOUS
  70
0
  3
Solid line
  72
65
  73
0
  40
0.0
  0
LTYPE
  5
410
  2
DASHDOT
 70
0
  3
Dash Dot ____ _ ____ _
 72
65
 73
4
 40
2.0
 49
1.25
 49
-0.25
 49
0.25
 49
-0.25
  0
LTYPE
  5
411
  2
DASHED
 70
0
  3
Dashed __ __ __ __ __
 72
65
 73
2
 40
0.75
 49
0.5
 49
-0.25
  0
LTYPE
  5
43B
  2
DOTTED
 70
0
  3
Dotted .  .  .  .
 72
65
 73
2
 40
0.2
 49
0.0
 49
-0.2
  0
ENDTAB
  0
TABLE
  2
STYLE
  70
4
  0
STYLE
  2
KICAD
  70
0
  40
0
  41
1
  42
1
  50
0
  71
0
  3
isocp.shx
  0
STYLE
  2
KICADB
  70
0
  40
0
  41
1
  42
1
  50
0
  71
0
  3
isocp.shx
  0
STYLE
  2
KICADI
  70
0
  40
0
  41
1
  42
1
  50
15
  71
0
  3
isocp.shx
  0
STYLE
  2
KICADBI
  70
0
  40
0
  41
1
  42
1
  50
15
  71
0
  3
isocp.shx
  0
ENDTAB
  0
TABLE
  2
LAYER
  70
1
  0
LAYER
  2
BLACK
  70
0
  62
7
  6
CONTINUOUS
  0
ENDTAB
  0
ENDSEC
  0
SECTION
  2
ENTITIES
0
LINE
8
BLACK
6
CONTINUOUS
10
146.915
20
-138.66
11
143.915
21
-138.66
0
LINE
8
BLACK
6
CONTINUOUS
10
143.915
20
-138.66
11
143.915
21
-135.66
0
LINE
8
BLACK
6
CONTINUOUS
10
143.915
20
-135.66
11
146.915
21
-135.66
0
LINE
8
BLACK
6
CONTINUOUS
10
146.915
20
-135.66
11
146.915
21
-138.66
0
LINE
8
BLACK
6
CONTINUOUS
10
131.04
20
-138.66
11
128.04
21
-138.66
0
LINE
8
BLACK
6
CONTINUOUS
10
128.04
20
-138.66
11
128.04
21
-135.66
0
LINE
8
BLACK
6
CONTINUOUS
10
128.04
20
-135.66
11
131.04
21
-135.66
0
LINE
8
BLACK
6
CONTINUOUS
10
131.04
20
-135.66
11
131.04
21
-138.66
0
LINE
8
BLACK
6
CONTINUOUS
10
140.476
20
-135.667
11
140.718
21
-135.71
0
LINE
8
BLACK
6
CONTINUOUS
10
140.718
20
-135.71
11
140.95
21
-135.792
0
LINE
8
BLACK
6
CONTINUOUS
10
140.95
20
-135.792
11
141.165
21
-135.911
0
LINE
8
BLACK
6
CONTINUOUS
10
141.165
20
-135.911
11
141.358
21
-136.063
0
LINE
8
BLACK
6
CONTINUOUS
10
141.358
20
-136.063
11
141.523
21
-136.245
0
LINE
8
BLACK
6
CONTINUOUS
10
141.523
20
-136.245
11
141.657
21
-136.451
0
LINE
8
BLACK
6
CONTINUOUS
10
141.657
20
-136.451
11
141.755
21
-136.677
0
LINE
8
BLACK
6
CONTINUOUS
10
141.755
20
-136.677
11
141.815
21
-136.915
0
LINE
8
BLACK
6
CONTINUOUS
10
141.815
20
-136.915
11
141.835
21
-137.16
0
LINE
8
BLACK
6
CONTINUOUS
10
141.835
20
-137.16
11
141.833
21
-137.233
0
LINE
8
BLACK
6
CONTINUOUS
10
141.833
20
-137.233
11
141.801
21
-137.477
0
LINE
8
BLACK
6
CONTINUOUS
10
141.801
20
-137.477
11
141.73
21
-137.712
0
LINE
8
BLACK
6
CONTINUOUS
10
141.73
20
-137.712
11
141.621
21
-137.933
0
LINE
8
BLACK
6
CONTINUOUS
10
141.621
20
-137.933
11
141.477
21
-138.132
0
LINE
8
BLACK
6
CONTINUOUS
10
141.477
20
-138.132
11
141.303
21
-138.306
0
LINE
8
BLACK
6
CONTINUOUS
10
141.303
20
-138.306
11
141.103
21
-138.448
0
LINE
8
BLACK
6
CONTINUOUS
10
141.103
20
-138.448
11
140.882
21
-138.557
0
LINE
8
BLACK
6
CONTINUOUS
10
140.882
20
-138.557
11
140.647
21
-138.627
0
LINE
8
BLACK
6
CONTINUOUS
10
140.647
20
-138.627
11
140.403
21
-138.658
0
LINE
8
BLACK
6
CONTINUOUS
10
140.403
20
-138.658
11
140.157
21
-138.649
0
LINE
8
BLACK
6
CONTINUOUS
10
140.157
20
-138.649
11
139.917
21
-138.6
0
LINE
8
BLACK
6
CONTINUOUS
10
139.917
20
-138.6
11
139.687
21
-138.513
0
LINE
8
BLACK
6
CONTINUOUS
10
139.687
20
-138.513
11
139.475
21
-138.389
0
LINE
8
BLACK
6
CONTINUOUS
10
139.475
20
-138.389
11
139.286
21
-138.232
0
LINE
8
BLACK
6
CONTINUOUS
10
139.286
20
-138.232
11
139.125
21
-138.046
0
LINE
8
BLACK
6
CONTINUOUS
10
139.125
20
-138.046
11
138.996
21
-137.836
0
LINE
8
BLACK
6
CONTINUOUS
10
138.996
20
-137.836
11
138.904
21
-137.609
0
LINE
8
BLACK
6
CONTINUOUS
10
138.904
20
-137.609
11
138.85
21
-137.369
0
LINE
8
BLACK
6
CONTINUOUS
10
138.85
20
-137.369
11
138.835
21
-137.123
0
LINE
8
BLACK
6
CONTINUOUS
10
138.835
20
-137.123
11
138.862
21
-136.879
0
LINE
8
BLACK
6
CONTINUOUS
10
138.862
20
-136.879
11
138.927
21
-136.642
0
LINE
8
BLACK
6
CONTINUOUS
10
138.927
20
-136.642
11
139.031
21
-136.419
0
LINE
8
BLACK
6
CONTINUOUS
10
139.031
20
-136.419
11
139.169
21
-136.216
0
LINE
8
BLACK
6
CONTINUOUS
10
139.169
20
-136.216
11
139.339
21
-136.038
0
LINE
8
BLACK
6
CONTINUOUS
10
139.339
20
-136.038
11
139.536
21
-135.891
0
LINE
8
BLACK
6
CONTINUOUS
10
139.536
20
-135.891
11
139.754
21
-135.777
0
LINE
8
BLACK
6
CONTINUOUS
10
139.754
20
-135.777
11
139.987
21
-135.701
0
LINE
8
BLACK
6
CONTINUOUS
10
139.987
20
-135.701
11
140.23
21
-135.664
0
LINE
8
BLACK
6
CONTINUOUS
10
140.23
20
-135.664
11
140.476
21
-135.667
0
LINE
8
BLACK
6
CONTINUOUS
10
134.761
20
-135.667
11
135.003
21
-135.71
0
LINE
8
BLACK
6
CONTINUOUS
10
135.003
20
-135.71
11
135.235
21
-135.792
0
LINE
8
BLACK
6
CONTINUOUS
10
135.235
20
-135.792
11
135.45
21
-135.911
0
LINE
8
BLACK
6
CONTINUOUS
10
135.45
20
-135.911
11
135.643
21
-136.063
0
LINE
8
BLACK
6
CONTINUOUS
10
135.643
20
-136.063
11
135.808
21
-136.245
0
LINE
8
BLACK
6
CONTINUOUS
10
135.808
20
-136.245
11
135.942
21
-136.451
0
LINE
8
BLACK
6
CONTINUOUS
10
135.942
20
-136.451
11
136.04
21
-136.677
0
LINE
8
BLACK
6
CONTINUOUS
10
136.04
20
-136.677
11
136.1
21
-136.915
0
LINE
8
BLACK
6
CONTINUOUS
10
136.1
20
-136.915
11
136.12
21
-137.16
0
LINE
8
BLACK
6
CONTINUOUS
10
136.12
20
-137.16
11
136.118
21
-137.233
0
LINE
8
BLACK
6
CONTINUOUS
10
136.118
20
-137.233
11
136.086
21
-137.477
0
LINE
8
BLACK
6
CONTINUOUS
10
136.086
20
-137.477
11
136.015
21
-137.712
0
LINE
8
BLACK
6
CONTINUOUS
10
136.015
20
-137.712
11
135.906
21
-137.933
0
LINE
8
BLACK
6
CONTINUOUS
10
135.906
20
-137.933
11
135.762
21
-138.132
0
LINE
8
BLACK
6
CONTINUOUS
10
135.762
20
-138.132
11
135.588
21
-138.306
0
LINE
8
BLACK
6
CONTINUOUS
10
135.588
20
-138.306
11
135.388
21
-138.448
0
LINE
8
BLACK
6
CONTINUOUS
10
135.388
20
-138.448
11
135.167
21
-138.557
0
LINE
8
BLACK
6
CONTINUOUS
10
135.167
20
-138.557
11
134.932
21
-138.627
0
LINE
8
BLACK
6
CONTINUOUS
10
134.932
20
-138.627
11
134.688
21
-138.658
0
LINE
8
BLACK
6
CONTINUOUS
10
134.688
20
-138.658
11
134.442
21
-138.649
0
LINE
8
BLACK
6
CONTINUOUS
10
134.442
20
-138.649
11
134.202
21
-138.6
0
LINE
8
BLACK
6
CONTINUOUS
10
134.202
20
-138.6
11
133.972
21
-138.513
0
LINE
8
BLACK
6
CONTINUOUS
10
133.972
20
-138.513
11
133.76
21
-138.389
0
LINE
8
BLACK
6
CONTINUOUS
10
133.76
20
-138.389
11
133.571
21
-138.232
0
LINE
8
BLACK
6
CONTINUOUS
10
133.571
20
-138.232
11
133.41
21
-138.046
0
LINE
8
BLACK
6
CONTINUOUS
10
133.41
20
-138.046
11
133.281
21
-137.836
0
LINE
8
BLACK
6
CONTINUOUS
10
133.281
20
-137.836
11
133.189
21
-137.609
0
LINE
8
BLACK
6
CONTINUOUS
10
133.189
20
-137.609
11
133.135
21
-137.369
0
LINE
8
BLACK
6
CONTINUOUS
10
133.135
20
-137.369
11
133.12
21
-137.123
0
LINE
8
BLACK
6
CONTINUOUS
10
133.12
20
-137.123
11
133.147
21
-136.879
0
LINE
8
BLACK
6
CONTINUOUS
10
133.147
20
-136.879
11
133.212
21
-136.642
0
LINE
8
BLACK
6
CONTINUOUS
10
133.212
20
-136.642
11
133.316
21
-136.419
0
LINE
8
BLACK
6
CONTINUOUS
10
133.316
20
-136.419
11
133.454
21
-136.216
0
LINE
8
BLACK
6
CONTINUOUS
10
133.454
20
-136.216
11
133.624
21
-136.038
0
LINE
8
BLACK
6
CONTINUOUS
10
133.624
20
-136.038
11
133.821
21
-135.891
0
LINE
8
BLACK
6
CONTINUOUS
10
133.821
20
-135.891
11
134.039
21
-135.777
0
LINE
8
BLACK
6
CONTINUOUS
10
134.039
20
-135.777
11
134.272
21
-135.701
0
LINE
8
BLACK
6
CONTINUOUS
10
134.272
20
-135.701
11
134.515
21
-135.664
0
LINE
8
BLACK
6
CONTINUOUS
10
134.515
20
-135.664
11
134.761
21
-135.667
0
LINE
8
BLACK
6
CONTINUOUS
10
167.845
20
-137.4
11
166.145
21
-137.4
0
LINE
8
BLACK
6
CONTINUOUS
10
166.145
20
-137.4
11
166.145
21
-135.7
0
LINE
8
BLACK
6
CONTINUOUS
10
166.145
20
-135.7
11
167.845
21
-135.7
0
LINE
8
BLACK
6
CONTINUOUS
10
167.845
20
-135.7
11
167.845
21
-137.4
0
LINE
8
BLACK
6
CONTINUOUS
10
159.638
20
-135.742
11
159.8
21
-135.814
0
LINE
8
BLACK
6
CONTINUOUS
10
159.8
20
-135.814
11
159.944
21
-135.918
0
LINE
8
BLACK
6
CONTINUOUS
10
159.944
20
-135.918
11
160.063
21
-136.05
0
LINE
8
BLACK
6
CONTINUOUS
10
160.063
20
-136.05
11
160.152
21
-136.204
0
LINE
8
BLACK
6
CONTINUOUS
10
160.152
20
-136.204
11
160.206
21
-136.373
0
LINE
8
BLACK
6
CONTINUOUS
10
160.206
20
-136.373
11
160.225
21
-136.55
0
LINE
8
BLACK
6
CONTINUOUS
10
160.225
20
-136.55
11
160.206
21
-136.727
0
LINE
8
BLACK
6
CONTINUOUS
10
160.206
20
-136.727
11
160.152
21
-136.896
0
LINE
8
BLACK
6
CONTINUOUS
10
160.152
20
-136.896
11
160.063
21
-137.05
0
LINE
8
BLACK
6
CONTINUOUS
10
160.063
20
-137.05
11
159.944
21
-137.182
0
LINE
8
BLACK
6
CONTINUOUS
10
159.944
20
-137.182
11
159.8
21
-137.286
0
LINE
8
BLACK
6
CONTINUOUS
10
159.8
20
-137.286
11
159.638
21
-137.358
0
LINE
8
BLACK
6
CONTINUOUS
10
159.638
20
-137.358
11
159.464
21
-137.395
0
LINE
8
BLACK
6
CONTINUOUS
10
159.464
20
-137.395
11
159.286
21
-137.395
0
LINE
8
BLACK
6
CONTINUOUS
10
159.286
20
-137.395
11
159.112
21
-137.358
0
LINE
8
BLACK
6
CONTINUOUS
10
159.112
20
-137.358
11
158.95
21
-137.286
0
LINE
8
BLACK
6
CONTINUOUS
10
158.95
20
-137.286
11
158.806
21
-137.182
0
LINE
8
BLACK
6
CONTINUOUS
10
158.806
20
-137.182
11
158.687
21
-137.05
0
LINE
8
BLACK
6
CONTINUOUS
10
158.687
20
-137.05
11
158.598
21
-136.896
0
LINE
8
BLACK
6
CONTINUOUS
10
158.598
20
-136.896
11
158.544
21
-136.727
0
LINE
8
BLACK
6
CONTINUOUS
10
158.544
20
-136.727
11
158.525
21
-136.55
0
LINE
8
BLACK
6
CONTINUOUS
10
158.525
20
-136.55
11
158.544
21
-136.373
0
LINE
8
BLACK
6
CONTINUOUS
10
158.544
20
-136.373
11
158.598
21
-136.204
0
LINE
8
BLACK
6
CONTINUOUS
10
158.598
20
-136.204
11
158.687
21
-136.05
0
LINE
8
BLACK
6
CONTINUOUS
10
158.687
20
-136.05
11
158.806
21
-135.918
0
LINE
8
BLACK
6
CONTINUOUS
10
158.806
20
-135.918
11
158.95
21
-135.814
0
LINE
8
BLACK
6
CONTINUOUS
10
158.95
20
-135.814
11
159.112
21
-135.742
0
LINE
8
BLACK
6
CONTINUOUS
10
159.112
20
-135.742
11
159.286
21
-135.705
0
LINE
8
BLACK
6
CONTINUOUS
10
159.286
20
-135.705
11
159.464
21
-135.705
0
LINE
8
BLACK
6
CONTINUOUS
10
159.464
20
-135.705
11
159.638
21
-135.742
0
LINE
8
BLACK
6
CONTINUOUS
10
164.718
20
-135.742
11
164.88
21
-135.814
0
LINE
8
BLACK
6
CONTINUOUS
10
164.88
20
-135.814
11
165.024
21
-135.918
0
LINE
8
BLACK
6
CONTINUOUS
10
165.024
20
-135.918
11
165.143
21
-136.05
0
LINE
8
BLACK
6
CONTINUOUS
10
165.143
20
-136.05
11
165.232
21
-136.204
0
LINE
8
BLACK
6
CONTINUOUS
10
165.232
20
-136.204
11
165.286
21
-136.373
0
LINE
8
BLACK
6
CONTINUOUS
10
165.286
20
-136.373
11
165.305
21
-136.55
0
LINE
8
BLACK
6
CONTINUOUS
10
165.305
20
-136.55
11
165.286
21
-136.727
0
LINE
8
BLACK
6
CONTINUOUS
10
165.286
20
-136.727
11
165.232
21
-136.896
0
LINE
8
BLACK
6
CONTINUOUS
10
165.232
20
-136.896
11
165.143
21
-137.05
0
LINE
8
BLACK
6
CONTINUOUS
10
165.143
20
-137.05
11
165.024
21
-137.182
0
LINE
8
BLACK
6
CONTINUOUS
10
165.024
20
-137.182
11
164.88
21
-137.286
0
LINE
8
BLACK
6
CONTINUOUS
10
164.88
20
-137.286
11
164.718
21
-137.358
0
LINE
8
BLACK
6
CONTINUOUS
10
164.718
20
-137.358
11
164.544
21
-137.395
0
LINE
8
BLACK
6
CONTINUOUS
10
164.544
20
-137.395
11
164.366
21
-137.395
0
LINE
8
BLACK
6
CONTINUOUS
10
164.366
20
-137.395
11
164.192
21
-137.358
0
LINE
8
BLACK
6
CONTINUOUS
10
164.192
20
-137.358
11
164.03
21
-137.286
0
LINE
8
BLACK
6
CONTINUOUS
10
164.03
20
-137.286
11
163.886
21
-137.182
0
LINE
8
BLACK
6
CONTINUOUS
10
163.886
20
-137.182
11
163.767
21
-137.05
0
LINE
8
BLACK
6
CONTINUOUS
10
163.767
20
-137.05
11
163.678
21
-136.896
0
LINE
8
BLACK
6
CONTINUOUS
10
163.678
20
-136.896
11
163.624
21
-136.727
0
LINE
8
BLACK
6
CONTINUOUS
10
163.624
20
-136.727
11
163.605
21
-136.55
0
LINE
8
BLACK
6
CONTINUOUS
10
163.605
20
-136.55
11
163.624
21
-136.373
0
LINE
8
BLACK
6
CONTINUOUS
10
163.624
20
-136.373
11
163.678
21
-136.204
0
LINE
8
BLACK
6
CONTINUOUS
10
163.678
20
-136.204
11
163.767
21
-136.05
0
LINE
8
BLACK
6
CONTINUOUS
10
163.767
20
-136.05
11
163.886
21
-135.918
0
LINE
8
BLACK
6
CONTINUOUS
10
163.886
20
-135.918
11
164.03
21
-135.814
0
LINE
8
BLACK
6
CONTINUOUS
10
164.03
20
-135.814
11
164.192
21
-135.742
0
LINE
8
BLACK
6
CONTINUOUS
10
164.192
20
-135.742
11
164.366
21
-135.705
0
LINE
8
BLACK
6
CONTINUOUS
10
164.366
20
-135.705
11
164.544
21
-135.705
0
LINE
8
BLACK
6
CONTINUOUS
10
164.544
20
-135.705
11
164.718
21
-135.742
0
LINE
8
BLACK
6
CONTINUOUS
10
162.178
20
-135.742
11
162.34
21
-135.814
0
LINE
8
BLACK
6
CONTINUOUS
10
162.34
20
-135.814
11
162.484
21
-135.918
0
LINE
8
BLACK
6
CONTINUOUS
10
162.484
20
-135.918
11
162.603
21
-136.05
0
LINE
8
BLACK
6
CONTINUOUS
10
162.603
20
-136.05
11
162.692
21
-136.204
0
LINE
8
BLACK
6
CONTINUOUS
10
162.692
20
-136.204
11
162.746
21
-136.373
0
LINE
8
BLACK
6
CONTINUOUS
10
162.746
20
-136.373
11
162.765
21
-136.55
0
LINE
8
BLACK
6
CONTINUOUS
10
162.765
20
-136.55
11
162.746
21
-136.727
0
LINE
8
BLACK
6
CONTINUOUS
10
162.746
20
-136.727
11
162.692
21
-136.896
0
LINE
8
BLACK
6
CONTINUOUS
10
162.692
20
-136.896
11
162.603
21
-137.05
0
LINE
8
BLACK
6
CONTINUOUS
10
162.603
20
-137.05
11
162.484
21
-137.182
0
LINE
8
BLACK
6
CONTINUOUS
10
162.484
20
-137.182
11
162.34
21
-137.286
0
LINE
8
BLACK
6
CONTINUOUS
10
162.34
20
-137.286
11
162.178
21
-137.358
0
LINE
8
BLACK
6
CONTINUOUS
10
162.178
20
-137.358
11
162.004
21
-137.395
0
LINE
8
BLACK
6
CONTINUOUS
10
162.004
20
-137.395
11
161.826
21
-137.395
0
LINE
8
BLACK
6
CONTINUOUS
10
161.826
20
-137.395
11
161.652
21
-137.358
0
LINE
8
BLACK
6
CONTINUOUS
10
161.652
20
-137.358
11
161.49
21
-137.286
0
LINE
8
BLACK
6
CONTINUOUS
10
161.49
20
-137.286
11
161.346
21
-137.182
0
LINE
8
BLACK
6
CONTINUOUS
10
161.346
20
-137.182
11
161.227
21
-137.05
0
LINE
8
BLACK
6
CONTINUOUS
10
161.227
20
-137.05
11
161.138
21
-136.896
0
LINE
8
BLACK
6
CONTINUOUS
10
161.138
20
-136.896
11
161.084
21
-136.727
0
LINE
8
BLACK
6
CONTINUOUS
10
161.084
20
-136.727
11
161.065
21
-136.55
0
LINE
8
BLACK
6
CONTINUOUS
10
161.065
20
-136.55
11
161.084
21
-136.373
0
LINE
8
BLACK
6
CONTINUOUS
10
161.084
20
-136.373
11
161.138
21
-136.204
0
LINE
8
BLACK
6
CONTINUOUS
10
161.138
20
-136.204
11
161.227
21
-136.05
0
LINE
8
BLACK
6
CONTINUOUS
10
161.227
20
-136.05
11
161.346
21
-135.918
0
LINE
8
BLACK
6
CONTINUOUS
10
161.346
20
-135.918
11
161.49
21
-135.814
0
LINE
8
BLACK
6
CONTINUOUS
10
161.49
20
-135.814
11
161.652
21
-135.742
0
LINE
8
BLACK
6
CONTINUOUS
10
161.652
20
-135.742
11
161.826
21
-135.705
0
LINE
8
BLACK
6
CONTINUOUS
10
161.826
20
-135.705
11
162.004
21
-135.705
0
LINE
8
BLACK
6
CONTINUOUS
10
162.004
20
-135.705
11
162.178
21
-135.742
0
LINE
8
BLACK
6
CONTINUOUS
10
164.668
20
-132.571
11
164.836
21
-132.631
0
LINE
8
BLACK
6
CONTINUOUS
10
164.836
20
-132.631
11
164.986
21
-132.727
0
LINE
8
BLACK
6
CONTINUOUS
10
164.986
20
-132.727
11
165.112
21
-132.853
0
LINE
8
BLACK
6
CONTINUOUS
10
165.112
20
-132.853
11
165.206
21
-133.004
0
LINE
8
BLACK
6
CONTINUOUS
10
165.206
20
-133.004
11
165.265
21
-133.173
0
LINE
8
BLACK
6
CONTINUOUS
10
165.265
20
-133.173
11
165.285
21
-133.35
0
LINE
8
BLACK
6
CONTINUOUS
10
165.285
20
-133.35
11
165.285
21
-133.372
0
LINE
8
BLACK
6
CONTINUOUS
10
165.285
20
-133.372
11
165.26
21
-133.549
0
LINE
8
BLACK
6
CONTINUOUS
10
165.26
20
-133.549
11
165.197
21
-133.716
0
LINE
8
BLACK
6
CONTINUOUS
10
165.197
20
-133.716
11
165.098
21
-133.864
0
LINE
8
BLACK
6
CONTINUOUS
10
165.098
20
-133.864
11
164.969
21
-133.987
0
LINE
8
BLACK
6
CONTINUOUS
10
164.969
20
-133.987
11
164.815
21
-134.079
0
LINE
8
BLACK
6
CONTINUOUS
10
164.815
20
-134.079
11
164.646
21
-134.134
0
LINE
8
BLACK
6
CONTINUOUS
10
164.646
20
-134.134
11
164.468
21
-134.15
0
LINE
8
BLACK
6
CONTINUOUS
10
164.468
20
-134.15
11
164.291
21
-134.126
0
LINE
8
BLACK
6
CONTINUOUS
10
164.291
20
-134.126
11
164.124
21
-134.064
0
LINE
8
BLACK
6
CONTINUOUS
10
164.124
20
-134.064
11
163.975
21
-133.966
0
LINE
8
BLACK
6
CONTINUOUS
10
163.975
20
-133.966
11
163.851
21
-133.838
0
LINE
8
BLACK
6
CONTINUOUS
10
163.851
20
-133.838
11
163.759
21
-133.686
0
LINE
8
BLACK
6
CONTINUOUS
10
163.759
20
-133.686
11
163.702
21
-133.516
0
LINE
8
BLACK
6
CONTINUOUS
10
163.702
20
-133.516
11
163.685
21
-133.339
0
LINE
8
BLACK
6
CONTINUOUS
10
163.685
20
-133.339
11
163.707
21
-133.162
0
LINE
8
BLACK
6
CONTINUOUS
10
163.707
20
-133.162
11
163.768
21
-132.994
0
LINE
8
BLACK
6
CONTINUOUS
10
163.768
20
-132.994
11
163.865
21
-132.844
0
LINE
8
BLACK
6
CONTINUOUS
10
163.865
20
-132.844
11
163.992
21
-132.72
0
LINE
8
BLACK
6
CONTINUOUS
10
163.992
20
-132.72
11
164.144
21
-132.626
0
LINE
8
BLACK
6
CONTINUOUS
10
164.144
20
-132.626
11
164.313
21
-132.569
0
LINE
8
BLACK
6
CONTINUOUS
10
164.313
20
-132.569
11
164.491
21
-132.55
0
LINE
8
BLACK
6
CONTINUOUS
10
164.491
20
-132.55
11
164.668
21
-132.571
0
LINE
8
BLACK
6
CONTINUOUS
10
167.168
20
-132.571
11
167.336
21
-132.631
0
LINE
8
BLACK
6
CONTINUOUS
10
167.336
20
-132.631
11
167.486
21
-132.727
0
LINE
8
BLACK
6
CONTINUOUS
10
167.486
20
-132.727
11
167.612
21
-132.853
0
LINE
8
BLACK
6
CONTINUOUS
10
167.612
20
-132.853
11
167.706
21
-133.004
0
LINE
8
BLACK
6
CONTINUOUS
10
167.706
20
-133.004
11
167.765
21
-133.173
0
LINE
8
BLACK
6
CONTINUOUS
10
167.765
20
-133.173
11
167.785
21
-133.35
0
LINE
8
BLACK
6
CONTINUOUS
10
167.785
20
-133.35
11
167.785
21
-133.372
0
LINE
8
BLACK
6
CONTINUOUS
10
167.785
20
-133.372
11
167.76
21
-133.549
0
LINE
8
BLACK
6
CONTINUOUS
10
167.76
20
-133.549
11
167.697
21
-133.716
0
LINE
8
BLACK
6
CONTINUOUS
10
167.697
20
-133.716
11
167.598
21
-133.864
0
LINE
8
BLACK
6
CONTINUOUS
10
167.598
20
-133.864
11
167.469
21
-133.987
0
LINE
8
BLACK
6
CONTINUOUS
10
167.469
20
-133.987
11
167.315
21
-134.079
0
LINE
8
BLACK
6
CONTINUOUS
10
167.315
20
-134.079
11
167.146
21
-134.134
0
LINE
8
BLACK
6
CONTINUOUS
10
167.146
20
-134.134
11
166.968
21
-134.15
0
LINE
8
BLACK
6
CONTINUOUS
10
166.968
20
-134.15
11
166.791
21
-134.126
0
LINE
8
BLACK
6
CONTINUOUS
10
166.791
20
-134.126
11
166.624
21
-134.064
0
LINE
8
BLACK
6
CONTINUOUS
10
166.624
20
-134.064
11
166.475
21
-133.966
0
LINE
8
BLACK
6
CONTINUOUS
10
166.475
20
-133.966
11
166.351
21
-133.838
0
LINE
8
BLACK
6
CONTINUOUS
10
166.351
20
-133.838
11
166.259
21
-133.686
0
LINE
8
BLACK
6
CONTINUOUS
10
166.259
20
-133.686
11
166.202
21
-133.516
0
LINE
8
BLACK
6
CONTINUOUS
10
166.202
20
-133.516
11
166.185
21
-133.339
0
LINE
8
BLACK
6
CONTINUOUS
10
166.185
20
-133.339
11
166.207
21
-133.162
0
LINE
8
BLACK
6
CONTINUOUS
10
166.207
20
-133.162
11
166.268
21
-132.994
0
LINE
8
BLACK
6
CONTINUOUS
10
166.268
20
-132.994
11
166.365
21
-132.844
0
LINE
8
BLACK
6
CONTINUOUS
10
166.365
20
-132.844
11
166.492
21
-132.72
0
LINE
8
BLACK
6
CONTINUOUS
10
166.492
20
-132.72
11
166.644
21
-132.626
0
LINE
8
BLACK
6
CONTINUOUS
10
166.644
20
-132.626
11
166.813
21
-132.569
0
LINE
8
BLACK
6
CONTINUOUS
10
166.813
20
-132.569
11
166.991
21
-132.55
0
LINE
8
BLACK
6
CONTINUOUS
10
166.991
20
-132.55
11
167.168
21
-132.571
0
LINE
8
BLACK
6
CONTINUOUS
10
170.458
20
-129.319
11
170.63
21
-129.396
0
LINE
8
BLACK
6
CONTINUOUS
10
170.63
20
-129.396
11
170.782
21
-129.506
0
LINE
8
BLACK
6
CONTINUOUS
10
170.782
20
-129.506
11
170.908
21
-129.646
0
LINE
8
BLACK
6
CONTINUOUS
10
170.908
20
-129.646
11
171.002
21
-129.809
0
LINE
8
BLACK
6
CONTINUOUS
10
171.002
20
-129.809
11
171.06
21
-129.988
0
LINE
8
BLACK
6
CONTINUOUS
10
171.06
20
-129.988
11
171.08
21
-130.175
0
LINE
8
BLACK
6
CONTINUOUS
10
171.08
20
-130.175
11
171.06
21
-130.362
0
LINE
8
BLACK
6
CONTINUOUS
10
171.06
20
-130.362
11
171.002
21
-130.541
0
LINE
8
BLACK
6
CONTINUOUS
10
171.002
20
-130.541
11
170.908
21
-130.704
0
LINE
8
BLACK
6
CONTINUOUS
10
170.908
20
-130.704
11
170.782
21
-130.844
0
LINE
8
BLACK
6
CONTINUOUS
10
170.782
20
-130.844
11
170.63
21
-130.954
0
LINE
8
BLACK
6
CONTINUOUS
10
170.63
20
-130.954
11
170.458
21
-131.031
0
LINE
8
BLACK
6
CONTINUOUS
10
170.458
20
-131.031
11
170.274
21
-131.07
0
LINE
8
BLACK
6
CONTINUOUS
10
170.274
20
-131.07
11
170.086
21
-131.07
0
LINE
8
BLACK
6
CONTINUOUS
10
170.086
20
-131.07
11
169.902
21
-131.031
0
LINE
8
BLACK
6
CONTINUOUS
10
169.902
20
-131.031
11
169.73
21
-130.954
0
LINE
8
BLACK
6
CONTINUOUS
10
169.73
20
-130.954
11
169.578
21
-130.844
0
LINE
8
BLACK
6
CONTINUOUS
10
169.578
20
-130.844
11
169.452
21
-130.704
0
LINE
8
BLACK
6
CONTINUOUS
10
169.452
20
-130.704
11
169.358
21
-130.541
0
LINE
8
BLACK
6
CONTINUOUS
10
169.358
20
-130.541
11
169.3
21
-130.362
0
LINE
8
BLACK
6
CONTINUOUS
10
169.3
20
-130.362
11
169.28
21
-130.175
0
LINE
8
BLACK
6
CONTINUOUS
10
169.28
20
-130.175
11
169.3
21
-129.988
0
LINE
8
BLACK
6
CONTINUOUS
10
169.3
20
-129.988
11
169.358
21
-129.809
0
LINE
8
BLACK
6
CONTINUOUS
10
169.358
20
-129.809
11
169.452
21
-129.646
0
LINE
8
BLACK
6
CONTINUOUS
10
169.452
20
-129.646
11
169.578
21
-129.506
0
LINE
8
BLACK
6
CONTINUOUS
10
169.578
20
-129.506
11
169.73
21
-129.396
0
LINE
8
BLACK
6
CONTINUOUS
10
169.73
20
-129.396
11
169.902
21
-129.319
0
LINE
8
BLACK
6
CONTINUOUS
10
169.902
20
-129.319
11
170.086
21
-129.28
0
LINE
8
BLACK
6
CONTINUOUS
10
170.086
20
-129.28
11
170.274
21
-129.28
0
LINE
8
BLACK
6
CONTINUOUS
10
170.274
20
-129.28
11
170.458
21
-129.319
0
LINE
8
BLACK
6
CONTINUOUS
10
167.49
20
-129.705
11
165.89
21
-129.705
0
LINE
8
BLACK
6
CONTINUOUS
10
165.89
20
-129.705
11
165.89
21
-128.105
0
LINE
8
BLACK
6
CONTINUOUS
10
165.89
20
-128.105
11
167.49
21
-128.105
0
LINE
8
BLACK
6
CONTINUOUS
10
167.49
20
-128.105
11
167.49
21
-129.705
0
LINE
8
BLACK
6
CONTINUOUS
10
164.873
20
-128.126
11
165.041
21
-128.186
0
LINE
8
BLACK
6
CONTINUOUS
10
165.041
20
-128.186
11
165.191
21
-128.282
0
LINE
8
BLACK
6
CONTINUOUS
10
165.191
20
-128.282
11
165.317
21
-128.408
0
LINE
8
BLACK
6
CONTINUOUS
10
165.317
20
-128.408
11
165.412
21
-128.559
0
LINE
8
BLACK
6
CONTINUOUS
10
165.412
20
-128.559
11
165.47
21
-128.728
0
LINE
8
BLACK
6
CONTINUOUS
10
165.47
20
-128.728
11
165.49
21
-128.905
0
LINE
8
BLACK
6
CONTINUOUS
10
165.49
20
-128.905
11
165.49
21
-128.927
0
LINE
8
BLACK
6
CONTINUOUS
10
165.49
20
-128.927
11
165.465
21
-129.104
0
LINE
8
BLACK
6
CONTINUOUS
10
165.465
20
-129.104
11
165.402
21
-129.271
0
LINE
8
BLACK
6
CONTINUOUS
10
165.402
20
-129.271
11
165.303
21
-129.419
0
LINE
8
BLACK
6
CONTINUOUS
10
165.303
20
-129.419
11
165.174
21
-129.542
0
LINE
8
BLACK
6
CONTINUOUS
10
165.174
20
-129.542
11
165.021
21
-129.634
0
LINE
8
BLACK
6
CONTINUOUS
10
165.021
20
-129.634
11
164.851
21
-129.689
0
LINE
8
BLACK
6
CONTINUOUS
10
164.851
20
-129.689
11
164.673
21
-129.705
0
LINE
8
BLACK
6
CONTINUOUS
10
164.673
20
-129.705
11
164.497
21
-129.681
0
LINE
8
BLACK
6
CONTINUOUS
10
164.497
20
-129.681
11
164.329
21
-129.619
0
LINE
8
BLACK
6
CONTINUOUS
10
164.329
20
-129.619
11
164.18
21
-129.521
0
LINE
8
BLACK
6
CONTINUOUS
10
164.18
20
-129.521
11
164.056
21
-129.393
0
LINE
8
BLACK
6
CONTINUOUS
10
164.056
20
-129.393
11
163.964
21
-129.241
0
LINE
8
BLACK
6
CONTINUOUS
10
163.964
20
-129.241
11
163.908
21
-129.071
0
LINE
8
BLACK
6
CONTINUOUS
10
163.908
20
-129.071
11
163.89
21
-128.894
0
LINE
8
BLACK
6
CONTINUOUS
10
163.89
20
-128.894
11
163.913
21
-128.717
0
LINE
8
BLACK
6
CONTINUOUS
10
163.913
20
-128.717
11
163.974
21
-128.549
0
LINE
8
BLACK
6
CONTINUOUS
10
163.974
20
-128.549
11
164.07
21
-128.399
0
LINE
8
BLACK
6
CONTINUOUS
10
164.07
20
-128.399
11
164.198
21
-128.275
0
LINE
8
BLACK
6
CONTINUOUS
10
164.198
20
-128.275
11
164.349
21
-128.181
0
LINE
8
BLACK
6
CONTINUOUS
10
164.349
20
-128.181
11
164.518
21
-128.124
0
LINE
8
BLACK
6
CONTINUOUS
10
164.518
20
-128.124
11
164.696
21
-128.105
0
LINE
8
BLACK
6
CONTINUOUS
10
164.696
20
-128.105
11
164.873
21
-128.126
0
LINE
8
BLACK
6
CONTINUOUS
10
140.761
20
-126.127
11
141.003
21
-126.17
0
LINE
8
BLACK
6
CONTINUOUS
10
141.003
20
-126.17
11
141.235
21
-126.252
0
LINE
8
BLACK
6
CONTINUOUS
10
141.235
20
-126.252
11
141.45
21
-126.371
0
LINE
8
BLACK
6
CONTINUOUS
10
141.45
20
-126.371
11
141.643
21
-126.523
0
LINE
8
BLACK
6
CONTINUOUS
10
141.643
20
-126.523
11
141.808
21
-126.705
0
LINE
8
BLACK
6
CONTINUOUS
10
141.808
20
-126.705
11
141.942
21
-126.911
0
LINE
8
BLACK
6
CONTINUOUS
10
141.942
20
-126.911
11
142.04
21
-127.137
0
LINE
8
BLACK
6
CONTINUOUS
10
142.04
20
-127.137
11
142.1
21
-127.375
0
LINE
8
BLACK
6
CONTINUOUS
10
142.1
20
-127.375
11
142.12
21
-127.62
0
LINE
8
BLACK
6
CONTINUOUS
10
142.12
20
-127.62
11
142.118
21
-127.693
0
LINE
8
BLACK
6
CONTINUOUS
10
142.118
20
-127.693
11
142.086
21
-127.937
0
LINE
8
BLACK
6
CONTINUOUS
10
142.086
20
-127.937
11
142.015
21
-128.172
0
LINE
8
BLACK
6
CONTINUOUS
10
142.015
20
-128.172
11
141.906
21
-128.393
0
LINE
8
BLACK
6
CONTINUOUS
10
141.906
20
-128.393
11
141.762
21
-128.592
0
LINE
8
BLACK
6
CONTINUOUS
10
141.762
20
-128.592
11
141.588
21
-128.766
0
LINE
8
BLACK
6
CONTINUOUS
10
141.588
20
-128.766
11
141.388
21
-128.908
0
LINE
8
BLACK
6
CONTINUOUS
10
141.388
20
-128.908
11
141.167
21
-129.017
0
LINE
8
BLACK
6
CONTINUOUS
10
141.167
20
-129.017
11
140.932
21
-129.087
0
LINE
8
BLACK
6
CONTINUOUS
10
140.932
20
-129.087
11
140.688
21
-129.118
0
LINE
8
BLACK
6
CONTINUOUS
10
140.688
20
-129.118
11
140.442
21
-129.109
0
LINE
8
BLACK
6
CONTINUOUS
10
140.442
20
-129.109
11
140.202
21
-129.06
0
LINE
8
BLACK
6
CONTINUOUS
10
140.202
20
-129.06
11
139.972
21
-128.973
0
LINE
8
BLACK
6
CONTINUOUS
10
139.972
20
-128.973
11
139.76
21
-128.849
0
LINE
8
BLACK
6
CONTINUOUS
10
139.76
20
-128.849
11
139.571
21
-128.692
0
LINE
8
BLACK
6
CONTINUOUS
10
139.571
20
-128.692
11
139.41
21
-128.506
0
LINE
8
BLACK
6
CONTINUOUS
10
139.41
20
-128.506
11
139.281
21
-128.296
0
LINE
8
BLACK
6
CONTINUOUS
10
139.281
20
-128.296
11
139.189
21
-128.069
0
LINE
8
BLACK
6
CONTINUOUS
10
139.189
20
-128.069
11
139.135
21
-127.829
0
LINE
8
BLACK
6
CONTINUOUS
10
139.135
20
-127.829
11
139.12
21
-127.583
0
LINE
8
BLACK
6
CONTINUOUS
10
139.12
20
-127.583
11
139.147
21
-127.339
0
LINE
8
BLACK
6
CONTINUOUS
10
139.147
20
-127.339
11
139.212
21
-127.102
0
LINE
8
BLACK
6
CONTINUOUS
10
139.212
20
-127.102
11
139.316
21
-126.879
0
LINE
8
BLACK
6
CONTINUOUS
10
139.316
20
-126.879
11
139.454
21
-126.676
0
LINE
8
BLACK
6
CONTINUOUS
10
139.454
20
-126.676
11
139.624
21
-126.498
0
LINE
8
BLACK
6
CONTINUOUS
10
139.624
20
-126.498
11
139.821
21
-126.351
0
LINE
8
BLACK
6
CONTINUOUS
10
139.821
20
-126.351
11
140.039
21
-126.237
0
LINE
8
BLACK
6
CONTINUOUS
10
140.039
20
-126.237
11
140.272
21
-126.161
0
LINE
8
BLACK
6
CONTINUOUS
10
140.272
20
-126.161
11
140.515
21
-126.124
0
LINE
8
BLACK
6
CONTINUOUS
10
140.515
20
-126.124
11
140.761
21
-126.127
0
LINE
8
BLACK
6
CONTINUOUS
10
158.541
20
-126.127
11
158.783
21
-126.17
0
LINE
8
BLACK
6
CONTINUOUS
10
158.783
20
-126.17
11
159.015
21
-126.252
0
LINE
8
BLACK
6
CONTINUOUS
10
159.015
20
-126.252
11
159.23
21
-126.371
0
LINE
8
BLACK
6
CONTINUOUS
10
159.23
20
-126.371
11
159.423
21
-126.523
0
LINE
8
BLACK
6
CONTINUOUS
10
159.423
20
-126.523
11
159.588
21
-126.705
0
LINE
8
BLACK
6
CONTINUOUS
10
159.588
20
-126.705
11
159.722
21
-126.911
0
LINE
8
BLACK
6
CONTINUOUS
10
159.722
20
-126.911
11
159.82
21
-127.137
0
LINE
8
BLACK
6
CONTINUOUS
10
159.82
20
-127.137
11
159.88
21
-127.375
0
LINE
8
BLACK
6
CONTINUOUS
10
159.88
20
-127.375
11
159.9
21
-127.62
0
LINE
8
BLACK
6
CONTINUOUS
10
159.9
20
-127.62
11
159.898
21
-127.693
0
LINE
8
BLACK
6
CONTINUOUS
10
159.898
20
-127.693
11
159.866
21
-127.937
0
LINE
8
BLACK
6
CONTINUOUS
10
159.866
20
-127.937
11
159.795
21
-128.172
0
LINE
8
BLACK
6
CONTINUOUS
10
159.795
20
-128.172
11
159.686
21
-128.393
0
LINE
8
BLACK
6
CONTINUOUS
10
159.686
20
-128.393
11
159.542
21
-128.592
0
LINE
8
BLACK
6
CONTINUOUS
10
159.542
20
-128.592
11
159.368
21
-128.766
0
LINE
8
BLACK
6
CONTINUOUS
10
159.368
20
-128.766
11
159.168
21
-128.908
0
LINE
8
BLACK
6
CONTINUOUS
10
159.168
20
-128.908
11
158.947
21
-129.017
0
LINE
8
BLACK
6
CONTINUOUS
10
158.947
20
-129.017
11
158.712
21
-129.087
0
LINE
8
BLACK
6
CONTINUOUS
10
158.712
20
-129.087
11
158.468
21
-129.118
0
LINE
8
BLACK
6
CONTINUOUS
10
158.468
20
-129.118
11
158.222
21
-129.109
0
LINE
8
BLACK
6
CONTINUOUS
10
158.222
20
-129.109
11
157.982
21
-129.06
0
LINE
8
BLACK
6
CONTINUOUS
10
157.982
20
-129.06
11
157.752
21
-128.973
0
LINE
8
BLACK
6
CONTINUOUS
10
157.752
20
-128.973
11
157.54
21
-128.849
0
LINE
8
BLACK
6
CONTINUOUS
10
157.54
20
-128.849
11
157.351
21
-128.692
0
LINE
8
BLACK
6
CONTINUOUS
10
157.351
20
-128.692
11
157.19
21
-128.506
0
LINE
8
BLACK
6
CONTINUOUS
10
157.19
20
-128.506
11
157.061
21
-128.296
0
LINE
8
BLACK
6
CONTINUOUS
10
157.061
20
-128.296
11
156.969
21
-128.069
0
LINE
8
BLACK
6
CONTINUOUS
10
156.969
20
-128.069
11
156.915
21
-127.829
0
LINE
8
BLACK
6
CONTINUOUS
10
156.915
20
-127.829
11
156.9
21
-127.583
0
LINE
8
BLACK
6
CONTINUOUS
10
156.9
20
-127.583
11
156.927
21
-127.339
0
LINE
8
BLACK
6
CONTINUOUS
10
156.927
20
-127.339
11
156.992
21
-127.102
0
LINE
8
BLACK
6
CONTINUOUS
10
156.992
20
-127.102
11
157.096
21
-126.879
0
LINE
8
BLACK
6
CONTINUOUS
10
157.096
20
-126.879
11
157.234
21
-126.676
0
LINE
8
BLACK
6
CONTINUOUS
10
157.234
20
-126.676
11
157.404
21
-126.498
0
LINE
8
BLACK
6
CONTINUOUS
10
157.404
20
-126.498
11
157.601
21
-126.351
0
LINE
8
BLACK
6
CONTINUOUS
10
157.601
20
-126.351
11
157.819
21
-126.237
0
LINE
8
BLACK
6
CONTINUOUS
10
157.819
20
-126.237
11
158.052
21
-126.161
0
LINE
8
BLACK
6
CONTINUOUS
10
158.052
20
-126.161
11
158.295
21
-126.124
0
LINE
8
BLACK
6
CONTINUOUS
10
158.295
20
-126.124
11
158.541
21
-126.127
0
LINE
8
BLACK
6
CONTINUOUS
10
128.711
20
-126.077
11
128.953
21
-126.12
0
LINE
8
BLACK
6
CONTINUOUS
10
128.953
20
-126.12
11
129.185
21
-126.202
0
LINE
8
BLACK
6
CONTINUOUS
10
129.185
20
-126.202
11
129.4
21
-126.321
0
LINE
8
BLACK
6
CONTINUOUS
10
129.4
20
-126.321
11
129.593
21
-126.473
0
LINE
8
BLACK
6
CONTINUOUS
10
129.593
20
-126.473
11
129.758
21
-126.655
0
LINE
8
BLACK
6
CONTINUOUS
10
129.758
20
-126.655
11
129.892
21
-126.861
0
LINE
8
BLACK
6
CONTINUOUS
10
129.892
20
-126.861
11
129.99
21
-127.087
0
LINE
8
BLACK
6
CONTINUOUS
10
129.99
20
-127.087
11
130.05
21
-127.325
0
LINE
8
BLACK
6
CONTINUOUS
10
130.05
20
-127.325
11
130.07
21
-127.57
0
LINE
8
BLACK
6
CONTINUOUS
10
130.07
20
-127.57
11
130.068
21
-127.643
0
LINE
8
BLACK
6
CONTINUOUS
10
130.068
20
-127.643
11
130.036
21
-127.887
0
LINE
8
BLACK
6
CONTINUOUS
10
130.036
20
-127.887
11
129.965
21
-128.122
0
LINE
8
BLACK
6
CONTINUOUS
10
129.965
20
-128.122
11
129.856
21
-128.343
0
LINE
8
BLACK
6
CONTINUOUS
10
129.856
20
-128.343
11
129.712
21
-128.542
0
LINE
8
BLACK
6
CONTINUOUS
10
129.712
20
-128.542
11
129.538
21
-128.716
0
LINE
8
BLACK
6
CONTINUOUS
10
129.538
20
-128.716
11
129.338
21
-128.858
0
LINE
8
BLACK
6
CONTINUOUS
10
129.338
20
-128.858
11
129.117
21
-128.967
0
LINE
8
BLACK
6
CONTINUOUS
10
129.117
20
-128.967
11
128.882
21
-129.037
0
LINE
8
BLACK
6
CONTINUOUS
10
128.882
20
-129.037
11
128.638
21
-129.068
0
LINE
8
BLACK
6
CONTINUOUS
10
128.638
20
-129.068
11
128.392
21
-129.059
0
LINE
8
BLACK
6
CONTINUOUS
10
128.392
20
-129.059
11
128.152
21
-129.01
0
LINE
8
BLACK
6
CONTINUOUS
10
128.152
20
-129.01
11
127.922
21
-128.923
0
LINE
8
BLACK
6
CONTINUOUS
10
127.922
20
-128.923
11
127.71
21
-128.799
0
LINE
8
BLACK
6
CONTINUOUS
10
127.71
20
-128.799
11
127.521
21
-128.642
0
LINE
8
BLACK
6
CONTINUOUS
10
127.521
20
-128.642
11
127.36
21
-128.456
0
LINE
8
BLACK
6
CONTINUOUS
10
127.36
20
-128.456
11
127.231
21
-128.246
0
LINE
8
BLACK
6
CONTINUOUS
10
127.231
20
-128.246
11
127.139
21
-128.019
0
LINE
8
BLACK
6
CONTINUOUS
10
127.139
20
-128.019
11
127.085
21
-127.779
0
LINE
8
BLACK
6
CONTINUOUS
10
127.085
20
-127.779
11
127.07
21
-127.533
0
LINE
8
BLACK
6
CONTINUOUS
10
127.07
20
-127.533
11
127.097
21
-127.289
0
LINE
8
BLACK
6
CONTINUOUS
10
127.097
20
-127.289
11
127.162
21
-127.052
0
LINE
8
BLACK
6
CONTINUOUS
10
127.162
20
-127.052
11
127.266
21
-126.829
0
LINE
8
BLACK
6
CONTINUOUS
10
127.266
20
-126.829
11
127.404
21
-126.626
0
LINE
8
BLACK
6
CONTINUOUS
10
127.404
20
-126.626
11
127.574
21
-126.448
0
LINE
8
BLACK
6
CONTINUOUS
10
127.574
20
-126.448
11
127.771
21
-126.301
0
LINE
8
BLACK
6
CONTINUOUS
10
127.771
20
-126.301
11
127.989
21
-126.187
0
LINE
8
BLACK
6
CONTINUOUS
10
127.989
20
-126.187
11
128.222
21
-126.111
0
LINE
8
BLACK
6
CONTINUOUS
10
128.222
20
-126.111
11
128.465
21
-126.074
0
LINE
8
BLACK
6
CONTINUOUS
10
128.465
20
-126.074
11
128.711
21
-126.077
0
LINE
8
BLACK
6
CONTINUOUS
10
146.491
20
-126.077
11
146.733
21
-126.12
0
LINE
8
BLACK
6
CONTINUOUS
10
146.733
20
-126.12
11
146.965
21
-126.202
0
LINE
8
BLACK
6
CONTINUOUS
10
146.965
20
-126.202
11
147.18
21
-126.321
0
LINE
8
BLACK
6
CONTINUOUS
10
147.18
20
-126.321
11
147.373
21
-126.473
0
LINE
8
BLACK
6
CONTINUOUS
10
147.373
20
-126.473
11
147.538
21
-126.655
0
LINE
8
BLACK
6
CONTINUOUS
10
147.538
20
-126.655
11
147.672
21
-126.861
0
LINE
8
BLACK
6
CONTINUOUS
10
147.672
20
-126.861
11
147.77
21
-127.087
0
LINE
8
BLACK
6
CONTINUOUS
10
147.77
20
-127.087
11
147.83
21
-127.325
0
LINE
8
BLACK
6
CONTINUOUS
10
147.83
20
-127.325
11
147.85
21
-127.57
0
LINE
8
BLACK
6
CONTINUOUS
10
147.85
20
-127.57
11
147.848
21
-127.643
0
LINE
8
BLACK
6
CONTINUOUS
10
147.848
20
-127.643
11
147.816
21
-127.887
0
LINE
8
BLACK
6
CONTINUOUS
10
147.816
20
-127.887
11
147.745
21
-128.122
0
LINE
8
BLACK
6
CONTINUOUS
10
147.745
20
-128.122
11
147.636
21
-128.343
0
LINE
8
BLACK
6
CONTINUOUS
10
147.636
20
-128.343
11
147.492
21
-128.542
0
LINE
8
BLACK
6
CONTINUOUS
10
147.492
20
-128.542
11
147.318
21
-128.716
0
LINE
8
BLACK
6
CONTINUOUS
10
147.318
20
-128.716
11
147.118
21
-128.858
0
LINE
8
BLACK
6
CONTINUOUS
10
147.118
20
-128.858
11
146.897
21
-128.967
0
LINE
8
BLACK
6
CONTINUOUS
10
146.897
20
-128.967
11
146.662
21
-129.037
0
LINE
8
BLACK
6
CONTINUOUS
10
146.662
20
-129.037
11
146.418
21
-129.068
0
LINE
8
BLACK
6
CONTINUOUS
10
146.418
20
-129.068
11
146.172
21
-129.059
0
LINE
8
BLACK
6
CONTINUOUS
10
146.172
20
-129.059
11
145.932
21
-129.01
0
LINE
8
BLACK
6
CONTINUOUS
10
145.932
20
-129.01
11
145.702
21
-128.923
0
LINE
8
BLACK
6
CONTINUOUS
10
145.702
20
-128.923
11
145.49
21
-128.799
0
LINE
8
BLACK
6
CONTINUOUS
10
145.49
20
-128.799
11
145.301
21
-128.642
0
LINE
8
BLACK
6
CONTINUOUS
10
145.301
20
-128.642
11
145.14
21
-128.456
0
LINE
8
BLACK
6
CONTINUOUS
10
145.14
20
-128.456
11
145.011
21
-128.246
0
LINE
8
BLACK
6
CONTINUOUS
10
145.011
20
-128.246
11
144.919
21
-128.019
0
LINE
8
BLACK
6
CONTINUOUS
10
144.919
20
-128.019
11
144.865
21
-127.779
0
LINE
8
BLACK
6
CONTINUOUS
10
144.865
20
-127.779
11
144.85
21
-127.533
0
LINE
8
BLACK
6
CONTINUOUS
10
144.85
20
-127.533
11
144.877
21
-127.289
0
LINE
8
BLACK
6
CONTINUOUS
10
144.877
20
-127.289
11
144.942
21
-127.052
0
LINE
8
BLACK
6
CONTINUOUS
10
144.942
20
-127.052
11
145.046
21
-126.829
0
LINE
8
BLACK
6
CONTINUOUS
10
145.046
20
-126.829
11
145.184
21
-126.626
0
LINE
8
BLACK
6
CONTINUOUS
10
145.184
20
-126.626
11
145.354
21
-126.448
0
LINE
8
BLACK
6
CONTINUOUS
10
145.354
20
-126.448
11
145.551
21
-126.301
0
LINE
8
BLACK
6
CONTINUOUS
10
145.551
20
-126.301
11
145.769
21
-126.187
0
LINE
8
BLACK
6
CONTINUOUS
10
145.769
20
-126.187
11
146.002
21
-126.111
0
LINE
8
BLACK
6
CONTINUOUS
10
146.002
20
-126.111
11
146.245
21
-126.074
0
LINE
8
BLACK
6
CONTINUOUS
10
146.245
20
-126.074
11
146.491
21
-126.077
0
LINE
8
BLACK
6
CONTINUOUS
10
171.08
20
-128.535
11
169.28
21
-128.535
0
LINE
8
BLACK
6
CONTINUOUS
10
169.28
20
-128.535
11
169.28
21
-126.735
0
LINE
8
BLACK
6
CONTINUOUS
10
169.28
20
-126.735
11
171.08
21
-126.735
0
LINE
8
BLACK
6
CONTINUOUS
10
171.08
20
-126.735
11
171.08
21
-128.535
0
LINE
8
BLACK
6
CONTINUOUS
10
169.728
20
-124.316
11
169.896
21
-124.376
0
LINE
8
BLACK
6
CONTINUOUS
10
169.896
20
-124.376
11
170.046
21
-124.472
0
LINE
8
BLACK
6
CONTINUOUS
10
170.046
20
-124.472
11
170.172
21
-124.598
0
LINE
8
BLACK
6
CONTINUOUS
10
170.172
20
-124.598
11
170.266
21
-124.749
0
LINE
8
BLACK
6
CONTINUOUS
10
170.266
20
-124.749
11
170.325
21
-124.918
0
LINE
8
BLACK
6
CONTINUOUS
10
170.325
20
-124.918
11
170.345
21
-125.095
0
LINE
8
BLACK
6
CONTINUOUS
10
170.345
20
-125.095
11
170.345
21
-125.117
0
LINE
8
BLACK
6
CONTINUOUS
10
170.345
20
-125.117
11
170.32
21
-125.294
0
LINE
8
BLACK
6
CONTINUOUS
10
170.32
20
-125.294
11
170.257
21
-125.461
0
LINE
8
BLACK
6
CONTINUOUS
10
170.257
20
-125.461
11
170.158
21
-125.609
0
LINE
8
BLACK
6
CONTINUOUS
10
170.158
20
-125.609
11
170.029
21
-125.732
0
LINE
8
BLACK
6
CONTINUOUS
10
170.029
20
-125.732
11
169.875
21
-125.824
0
LINE
8
BLACK
6
CONTINUOUS
10
169.875
20
-125.824
11
169.706
21
-125.879
0
LINE
8
BLACK
6
CONTINUOUS
10
169.706
20
-125.879
11
169.528
21
-125.895
0
LINE
8
BLACK
6
CONTINUOUS
10
169.528
20
-125.895
11
169.351
21
-125.871
0
LINE
8
BLACK
6
CONTINUOUS
10
169.351
20
-125.871
11
169.184
21
-125.809
0
LINE
8
BLACK
6
CONTINUOUS
10
169.184
20
-125.809
11
169.035
21
-125.711
0
LINE
8
BLACK
6
CONTINUOUS
10
169.035
20
-125.711
11
168.911
21
-125.583
0
LINE
8
BLACK
6
CONTINUOUS
10
168.911
20
-125.583
11
168.819
21
-125.431
0
LINE
8
BLACK
6
CONTINUOUS
10
168.819
20
-125.431
11
168.762
21
-125.261
0
LINE
8
BLACK
6
CONTINUOUS
10
168.762
20
-125.261
11
168.745
21
-125.084
0
LINE
8
BLACK
6
CONTINUOUS
10
168.745
20
-125.084
11
168.767
21
-124.907
0
LINE
8
BLACK
6
CONTINUOUS
10
168.767
20
-124.907
11
168.828
21
-124.739
0
LINE
8
BLACK
6
CONTINUOUS
10
168.828
20
-124.739
11
168.925
21
-124.589
0
LINE
8
BLACK
6
CONTINUOUS
10
168.925
20
-124.589
11
169.052
21
-124.465
0
LINE
8
BLACK
6
CONTINUOUS
10
169.052
20
-124.465
11
169.204
21
-124.371
0
LINE
8
BLACK
6
CONTINUOUS
10
169.204
20
-124.371
11
169.373
21
-124.314
0
LINE
8
BLACK
6
CONTINUOUS
10
169.373
20
-124.314
11
169.551
21
-124.295
0
LINE
8
BLACK
6
CONTINUOUS
10
169.551
20
-124.295
11
169.728
21
-124.316
0
LINE
8
BLACK
6
CONTINUOUS
10
162.108
20
-124.316
11
162.276
21
-124.376
0
LINE
8
BLACK
6
CONTINUOUS
10
162.276
20
-124.376
11
162.426
21
-124.472
0
LINE
8
BLACK
6
CONTINUOUS
10
162.426
20
-124.472
11
162.552
21
-124.598
0
LINE
8
BLACK
6
CONTINUOUS
10
162.552
20
-124.598
11
162.646
21
-124.749
0
LINE
8
BLACK
6
CONTINUOUS
10
162.646
20
-124.749
11
162.705
21
-124.918
0
LINE
8
BLACK
6
CONTINUOUS
10
162.705
20
-124.918
11
162.725
21
-125.095
0
LINE
8
BLACK
6
CONTINUOUS
10
162.725
20
-125.095
11
162.725
21
-125.117
0
LINE
8
BLACK
6
CONTINUOUS
10
162.725
20
-125.117
11
162.7
21
-125.294
0
LINE
8
BLACK
6
CONTINUOUS
10
162.7
20
-125.294
11
162.637
21
-125.461
0
LINE
8
BLACK
6
CONTINUOUS
10
162.637
20
-125.461
11
162.538
21
-125.609
0
LINE
8
BLACK
6
CONTINUOUS
10
162.538
20
-125.609
11
162.409
21
-125.732
0
LINE
8
BLACK
6
CONTINUOUS
10
162.409
20
-125.732
11
162.255
21
-125.824
0
LINE
8
BLACK
6
CONTINUOUS
10
162.255
20
-125.824
11
162.086
21
-125.879
0
LINE
8
BLACK
6
CONTINUOUS
10
162.086
20
-125.879
11
161.908
21
-125.895
0
LINE
8
BLACK
6
CONTINUOUS
10
161.908
20
-125.895
11
161.731
21
-125.871
0
LINE
8
BLACK
6
CONTINUOUS
10
161.731
20
-125.871
11
161.564
21
-125.809
0
LINE
8
BLACK
6
CONTINUOUS
10
161.564
20
-125.809
11
161.415
21
-125.711
0
LINE
8
BLACK
6
CONTINUOUS
10
161.415
20
-125.711
11
161.291
21
-125.583
0
LINE
8
BLACK
6
CONTINUOUS
10
161.291
20
-125.583
11
161.199
21
-125.431
0
LINE
8
BLACK
6
CONTINUOUS
10
161.199
20
-125.431
11
161.142
21
-125.261
0
LINE
8
BLACK
6
CONTINUOUS
10
161.142
20
-125.261
11
161.125
21
-125.084
0
LINE
8
BLACK
6
CONTINUOUS
10
161.125
20
-125.084
11
161.147
21
-124.907
0
LINE
8
BLACK
6
CONTINUOUS
10
161.147
20
-124.907
11
161.208
21
-124.739
0
LINE
8
BLACK
6
CONTINUOUS
10
161.208
20
-124.739
11
161.305
21
-124.589
0
LINE
8
BLACK
6
CONTINUOUS
10
161.305
20
-124.589
11
161.432
21
-124.465
0
LINE
8
BLACK
6
CONTINUOUS
10
161.432
20
-124.465
11
161.584
21
-124.371
0
LINE
8
BLACK
6
CONTINUOUS
10
161.584
20
-124.371
11
161.753
21
-124.314
0
LINE
8
BLACK
6
CONTINUOUS
10
161.753
20
-124.314
11
161.931
21
-124.295
0
LINE
8
BLACK
6
CONTINUOUS
10
161.931
20
-124.295
11
162.108
21
-124.316
0
LINE
8
BLACK
6
CONTINUOUS
10
164.648
20
-124.316
11
164.816
21
-124.376
0
LINE
8
BLACK
6
CONTINUOUS
10
164.816
20
-124.376
11
164.966
21
-124.472
0
LINE
8
BLACK
6
CONTINUOUS
10
164.966
20
-124.472
11
165.092
21
-124.598
0
LINE
8
BLACK
6
CONTINUOUS
10
165.092
20
-124.598
11
165.186
21
-124.749
0
LINE
8
BLACK
6
CONTINUOUS
10
165.186
20
-124.749
11
165.245
21
-124.918
0
LINE
8
BLACK
6
CONTINUOUS
10
165.245
20
-124.918
11
165.265
21
-125.095
0
LINE
8
BLACK
6
CONTINUOUS
10
165.265
20
-125.095
11
165.265
21
-125.117
0
LINE
8
BLACK
6
CONTINUOUS
10
165.265
20
-125.117
11
165.24
21
-125.294
0
LINE
8
BLACK
6
CONTINUOUS
10
165.24
20
-125.294
11
165.177
21
-125.461
0
LINE
8
BLACK
6
CONTINUOUS
10
165.177
20
-125.461
11
165.078
21
-125.609
0
LINE
8
BLACK
6
CONTINUOUS
10
165.078
20
-125.609
11
164.949
21
-125.732
0
LINE
8
BLACK
6
CONTINUOUS
10
164.949
20
-125.732
11
164.795
21
-125.824
0
LINE
8
BLACK
6
CONTINUOUS
10
164.795
20
-125.824
11
164.626
21
-125.879
0
LINE
8
BLACK
6
CONTINUOUS
10
164.626
20
-125.879
11
164.448
21
-125.895
0
LINE
8
BLACK
6
CONTINUOUS
10
164.448
20
-125.895
11
164.271
21
-125.871
0
LINE
8
BLACK
6
CONTINUOUS
10
164.271
20
-125.871
11
164.104
21
-125.809
0
LINE
8
BLACK
6
CONTINUOUS
10
164.104
20
-125.809
11
163.955
21
-125.711
0
LINE
8
BLACK
6
CONTINUOUS
10
163.955
20
-125.711
11
163.831
21
-125.583
0
LINE
8
BLACK
6
CONTINUOUS
10
163.831
20
-125.583
11
163.739
21
-125.431
0
LINE
8
BLACK
6
CONTINUOUS
10
163.739
20
-125.431
11
163.682
21
-125.261
0
LINE
8
BLACK
6
CONTINUOUS
10
163.682
20
-125.261
11
163.665
21
-125.084
0
LINE
8
BLACK
6
CONTINUOUS
10
163.665
20
-125.084
11
163.687
21
-124.907
0
LINE
8
BLACK
6
CONTINUOUS
10
163.687
20
-124.907
11
163.748
21
-124.739
0
LINE
8
BLACK
6
CONTINUOUS
10
163.748
20
-124.739
11
163.845
21
-124.589
0
LINE
8
BLACK
6
CONTINUOUS
10
163.845
20
-124.589
11
163.972
21
-124.465
0
LINE
8
BLACK
6
CONTINUOUS
10
163.972
20
-124.465
11
164.124
21
-124.371
0
LINE
8
BLACK
6
CONTINUOUS
10
164.124
20
-124.371
11
164.293
21
-124.314
0
LINE
8
BLACK
6
CONTINUOUS
10
164.293
20
-124.314
11
164.471
21
-124.295
0
LINE
8
BLACK
6
CONTINUOUS
10
164.471
20
-124.295
11
164.648
21
-124.316
0
LINE
8
BLACK
6
CONTINUOUS
10
167.755
20
-125.85
11
166.255
21
-125.85
0
LINE
8
BLACK
6
CONTINUOUS
10
166.255
20
-125.85
11
166.255
21
-124.35
0
LINE
8
BLACK
6
CONTINUOUS
10
166.255
20
-124.35
11
167.755
21
-124.35
0
LINE
8
BLACK
6
CONTINUOUS
10
167.755
20
-124.35
11
167.755
21
-125.85
0
LINE
8
BLACK
6
CONTINUOUS
10
169.728
20
-116.696
11
169.896
21
-116.756
0
LINE
8
BLACK
6
CONTINUOUS
10
169.896
20
-116.756
11
170.046
21
-116.852
0
LINE
8
BLACK
6
CONTINUOUS
10
170.046
20
-116.852
11
170.172
21
-116.978
0
LINE
8
BLACK
6
CONTINUOUS
10
170.172
20
-116.978
11
170.266
21
-117.129
0
LINE
8
BLACK
6
CONTINUOUS
10
170.266
20
-117.129
11
170.325
21
-117.298
0
LINE
8
BLACK
6
CONTINUOUS
10
170.325
20
-117.298
11
170.345
21
-117.475
0
LINE
8
BLACK
6
CONTINUOUS
10
170.345
20
-117.475
11
170.345
21
-117.497
0
LINE
8
BLACK
6
CONTINUOUS
10
170.345
20
-117.497
11
170.32
21
-117.674
0
LINE
8
BLACK
6
CONTINUOUS
10
170.32
20
-117.674
11
170.257
21
-117.841
0
LINE
8
BLACK
6
CONTINUOUS
10
170.257
20
-117.841
11
170.158
21
-117.989
0
LINE
8
BLACK
6
CONTINUOUS
10
170.158
20
-117.989
11
170.029
21
-118.112
0
LINE
8
BLACK
6
CONTINUOUS
10
170.029
20
-118.112
11
169.875
21
-118.204
0
LINE
8
BLACK
6
CONTINUOUS
10
169.875
20
-118.204
11
169.706
21
-118.259
0
LINE
8
BLACK
6
CONTINUOUS
10
169.706
20
-118.259
11
169.528
21
-118.275
0
LINE
8
BLACK
6
CONTINUOUS
10
169.528
20
-118.275
11
169.351
21
-118.251
0
LINE
8
BLACK
6
CONTINUOUS
10
169.351
20
-118.251
11
169.184
21
-118.189
0
LINE
8
BLACK
6
CONTINUOUS
10
169.184
20
-118.189
11
169.035
21
-118.091
0
LINE
8
BLACK
6
CONTINUOUS
10
169.035
20
-118.091
11
168.911
21
-117.963
0
LINE
8
BLACK
6
CONTINUOUS
10
168.911
20
-117.963
11
168.819
21
-117.811
0
LINE
8
BLACK
6
CONTINUOUS
10
168.819
20
-117.811
11
168.762
21
-117.641
0
LINE
8
BLACK
6
CONTINUOUS
10
168.762
20
-117.641
11
168.745
21
-117.464
0
LINE
8
BLACK
6
CONTINUOUS
10
168.745
20
-117.464
11
168.767
21
-117.287
0
LINE
8
BLACK
6
CONTINUOUS
10
168.767
20
-117.287
11
168.828
21
-117.119
0
LINE
8
BLACK
6
CONTINUOUS
10
168.828
20
-117.119
11
168.925
21
-116.969
0
LINE
8
BLACK
6
CONTINUOUS
10
168.925
20
-116.969
11
169.052
21
-116.845
0
LINE
8
BLACK
6
CONTINUOUS
10
169.052
20
-116.845
11
169.204
21
-116.751
0
LINE
8
BLACK
6
CONTINUOUS
10
169.204
20
-116.751
11
169.373
21
-116.694
0
LINE
8
BLACK
6
CONTINUOUS
10
169.373
20
-116.694
11
169.551
21
-116.675
0
LINE
8
BLACK
6
CONTINUOUS
10
169.551
20
-116.675
11
169.728
21
-116.696
0
LINE
8
BLACK
6
CONTINUOUS
10
162.108
20
-116.696
11
162.276
21
-116.756
0
LINE
8
BLACK
6
CONTINUOUS
10
162.276
20
-116.756
11
162.426
21
-116.852
0
LINE
8
BLACK
6
CONTINUOUS
10
162.426
20
-116.852
11
162.552
21
-116.978
0
LINE
8
BLACK
6
CONTINUOUS
10
162.552
20
-116.978
11
162.646
21
-117.129
0
LINE
8
BLACK
6
CONTINUOUS
10
162.646
20
-117.129
11
162.705
21
-117.298
0
LINE
8
BLACK
6
CONTINUOUS
10
162.705
20
-117.298
11
162.725
21
-117.475
0
LINE
8
BLACK
6
CONTINUOUS
10
162.725
20
-117.475
11
162.725
21
-117.497
0
LINE
8
BLACK
6
CONTINUOUS
10
162.725
20
-117.497
11
162.7
21
-117.674
0
LINE
8
BLACK
6
CONTINUOUS
10
162.7
20
-117.674
11
162.637
21
-117.841
0
LINE
8
BLACK
6
CONTINUOUS
10
162.637
20
-117.841
11
162.538
21
-117.989
0
LINE
8
BLACK
6
CONTINUOUS
10
162.538
20
-117.989
11
162.409
21
-118.112
0
LINE
8
BLACK
6
CONTINUOUS
10
162.409
20
-118.112
11
162.255
21
-118.204
0
LINE
8
BLACK
6
CONTINUOUS
10
162.255
20
-118.204
11
162.086
21
-118.259
0
LINE
8
BLACK
6
CONTINUOUS
10
162.086
20
-118.259
11
161.908
21
-118.275
0
LINE
8
BLACK
6
CONTINUOUS
10
161.908
20
-118.275
11
161.731
21
-118.251
0
LINE
8
BLACK
6
CONTINUOUS
10
161.731
20
-118.251
11
161.564
21
-118.189
0
LINE
8
BLACK
6
CONTINUOUS
10
161.564
20
-118.189
11
161.415
21
-118.091
0
LINE
8
BLACK
6
CONTINUOUS
10
161.415
20
-118.091
11
161.291
21
-117.963
0
LINE
8
BLACK
6
CONTINUOUS
10
161.291
20
-117.963
11
161.199
21
-117.811
0
LINE
8
BLACK
6
CONTINUOUS
10
161.199
20
-117.811
11
161.142
21
-117.641
0
LINE
8
BLACK
6
CONTINUOUS
10
161.142
20
-117.641
11
161.125
21
-117.464
0
LINE
8
BLACK
6
CONTINUOUS
10
161.125
20
-117.464
11
161.147
21
-117.287
0
LINE
8
BLACK
6
CONTINUOUS
10
161.147
20
-117.287
11
161.208
21
-117.119
0
LINE
8
BLACK
6
CONTINUOUS
10
161.208
20
-117.119
11
161.305
21
-116.969
0
LINE
8
BLACK
6
CONTINUOUS
10
161.305
20
-116.969
11
161.432
21
-116.845
0
LINE
8
BLACK
6
CONTINUOUS
10
161.432
20
-116.845
11
161.584
21
-116.751
0
LINE
8
BLACK
6
CONTINUOUS
10
161.584
20
-116.751
11
161.753
21
-116.694
0
LINE
8
BLACK
6
CONTINUOUS
10
161.753
20
-116.694
11
161.931
21
-116.675
0
LINE
8
BLACK
6
CONTINUOUS
10
161.931
20
-116.675
11
162.108
21
-116.696
0
LINE
8
BLACK
6
CONTINUOUS
10
164.648
20
-116.696
11
164.816
21
-116.756
0
LINE
8
BLACK
6
CONTINUOUS
10
164.816
20
-116.756
11
164.966
21
-116.852
0
LINE
8
BLACK
6
CONTINUOUS
10
164.966
20
-116.852
11
165.092
21
-116.978
0
LINE
8
BLACK
6
CONTINUOUS
10
165.092
20
-116.978
11
165.186
21
-117.129
0
LINE
8
BLACK
6
CONTINUOUS
10
165.186
20
-117.129
11
165.245
21
-117.298
0
LINE
8
BLACK
6
CONTINUOUS
10
165.245
20
-117.298
11
165.265
21
-117.475
0
LINE
8
BLACK
6
CONTINUOUS
10
165.265
20
-117.475
11
165.265
21
-117.497
0
LINE
8
BLACK
6
CONTINUOUS
10
165.265
20
-117.497
11
165.24
21
-117.674
0
LINE
8
BLACK
6
CONTINUOUS
10
165.24
20
-117.674
11
165.177
21
-117.841
0
LINE
8
BLACK
6
CONTINUOUS
10
165.177
20
-117.841
11
165.078
21
-117.989
0
LINE
8
BLACK
6
CONTINUOUS
10
165.078
20
-117.989
11
164.949
21
-118.112
0
LINE
8
BLACK
6
CONTINUOUS
10
164.949
20
-118.112
11
164.795
21
-118.204
0
LINE
8
BLACK
6
CONTINUOUS
10
164.795
20
-118.204
11
164.626
21
-118.259
0
LINE
8
BLACK
6
CONTINUOUS
10
164.626
20
-118.259
11
164.448
21
-118.275
0
LINE
8
BLACK
6
CONTINUOUS
10
164.448
20
-118.275
11
164.271
21
-118.251
0
LINE
8
BLACK
6
CONTINUOUS
10
164.271
20
-118.251
11
164.104
21
-118.189
0
LINE
8
BLACK
6
CONTINUOUS
10
164.104
20
-118.189
11
163.955
21
-118.091
0
LINE
8
BLACK
6
CONTINUOUS
10
163.955
20
-118.091
11
163.831
21
-117.963
0
LINE
8
BLACK
6
CONTINUOUS
10
163.831
20
-117.963
11
163.739
21
-117.811
0
LINE
8
BLACK
6
CONTINUOUS
10
163.739
20
-117.811
11
163.682
21
-117.641
0
LINE
8
BLACK
6
CONTINUOUS
10
163.682
20
-117.641
11
163.665
21
-117.464
0
LINE
8
BLACK
6
CONTINUOUS
10
163.665
20
-117.464
11
163.687
21
-117.287
0
LINE
8
BLACK
6
CONTINUOUS
10
163.687
20
-117.287
11
163.748
21
-117.119
0
LINE
8
BLACK
6
CONTINUOUS
10
163.748
20
-117.119
11
163.845
21
-116.969
0
LINE
8
BLACK
6
CONTINUOUS
10
163.845
20
-116.969
11
163.972
21
-116.845
0
LINE
8
BLACK
6
CONTINUOUS
10
163.972
20
-116.845
11
164.124
21
-116.751
0
LINE
8
BLACK
6
CONTINUOUS
10
164.124
20
-116.751
11
164.293
21
-116.694
0
LINE
8
BLACK
6
CONTINUOUS
10
164.293
20
-116.694
11
164.471
21
-116.675
0
LINE
8
BLACK
6
CONTINUOUS
10
164.471
20
-116.675
11
164.648
21
-116.696
0
LINE
8
BLACK
6
CONTINUOUS
10
167.176
20
-116.75
11
167.334
21
-116.806
0
LINE
8
BLACK
6
CONTINUOUS
10
167.334
20
-116.806
11
167.475
21
-116.895
0
LINE
8
BLACK
6
CONTINUOUS
10
167.475
20
-116.895
11
167.593
21
-117.014
0
LINE
8
BLACK
6
CONTINUOUS
10
167.593
20
-117.014
11
167.681
21
-117.156
0
LINE
8
BLACK
6
CONTINUOUS
10
167.681
20
-117.156
11
167.736
21
-117.314
0
LINE
8
BLACK
6
CONTINUOUS
10
167.736
20
-117.314
11
167.755
21
-117.48
0
LINE
8
BLACK
6
CONTINUOUS
10
167.755
20
-117.48
11
167.755
21
-117.501
0
LINE
8
BLACK
6
CONTINUOUS
10
167.755
20
-117.501
11
167.731
21
-117.667
0
LINE
8
BLACK
6
CONTINUOUS
10
167.731
20
-117.667
11
167.672
21
-117.823
0
LINE
8
BLACK
6
CONTINUOUS
10
167.672
20
-117.823
11
167.58
21
-117.962
0
LINE
8
BLACK
6
CONTINUOUS
10
167.58
20
-117.962
11
167.458
21
-118.077
0
LINE
8
BLACK
6
CONTINUOUS
10
167.458
20
-118.077
11
167.315
21
-118.163
0
LINE
8
BLACK
6
CONTINUOUS
10
167.315
20
-118.163
11
167.156
21
-118.215
0
LINE
8
BLACK
6
CONTINUOUS
10
167.156
20
-118.215
11
166.989
21
-118.23
0
LINE
8
BLACK
6
CONTINUOUS
10
166.989
20
-118.23
11
166.824
21
-118.208
0
LINE
8
BLACK
6
CONTINUOUS
10
166.824
20
-118.208
11
166.667
21
-118.149
0
LINE
8
BLACK
6
CONTINUOUS
10
166.667
20
-118.149
11
166.527
21
-118.058
0
LINE
8
BLACK
6
CONTINUOUS
10
166.527
20
-118.058
11
166.411
21
-117.938
0
LINE
8
BLACK
6
CONTINUOUS
10
166.411
20
-117.938
11
166.324
21
-117.795
0
LINE
8
BLACK
6
CONTINUOUS
10
166.324
20
-117.795
11
166.271
21
-117.636
0
LINE
8
BLACK
6
CONTINUOUS
10
166.271
20
-117.636
11
166.255
21
-117.47
0
LINE
8
BLACK
6
CONTINUOUS
10
166.255
20
-117.47
11
166.276
21
-117.304
0
LINE
8
BLACK
6
CONTINUOUS
10
166.276
20
-117.304
11
166.333
21
-117.147
0
LINE
8
BLACK
6
CONTINUOUS
10
166.333
20
-117.147
11
166.424
21
-117.006
0
LINE
8
BLACK
6
CONTINUOUS
10
166.424
20
-117.006
11
166.543
21
-116.889
0
LINE
8
BLACK
6
CONTINUOUS
10
166.543
20
-116.889
11
166.686
21
-116.801
0
LINE
8
BLACK
6
CONTINUOUS
10
166.686
20
-116.801
11
166.844
21
-116.747
0
LINE
8
BLACK
6
CONTINUOUS
10
166.844
20
-116.747
11
167.01
21
-116.73
0
LINE
8
BLACK
6
CONTINUOUS
10
167.01
20
-116.73
11
167.176
21
-116.75
0
LINE
8
BLACK
6
CONTINUOUS
10
140.787
20
-114.139
11
140.998
21
-114.195
0
LINE
8
BLACK
6
CONTINUOUS
10
140.998
20
-114.195
11
141.195
21
-114.287
0
LINE
8
BLACK
6
CONTINUOUS
10
141.195
20
-114.287
11
141.373
21
-114.412
0
LINE
8
BLACK
6
CONTINUOUS
10
141.373
20
-114.412
11
141.528
21
-114.567
0
LINE
8
BLACK
6
CONTINUOUS
10
141.528
20
-114.567
11
141.653
21
-114.745
0
LINE
8
BLACK
6
CONTINUOUS
10
141.653
20
-114.745
11
141.745
21
-114.942
0
LINE
8
BLACK
6
CONTINUOUS
10
141.745
20
-114.942
11
141.801
21
-115.153
0
LINE
8
BLACK
6
CONTINUOUS
10
141.801
20
-115.153
11
141.82
21
-115.37
0
LINE
8
BLACK
6
CONTINUOUS
10
141.82
20
-115.37
11
141.801
21
-115.587
0
LINE
8
BLACK
6
CONTINUOUS
10
141.801
20
-115.587
11
141.745
21
-115.798
0
LINE
8
BLACK
6
CONTINUOUS
10
141.745
20
-115.798
11
141.653
21
-115.995
0
LINE
8
BLACK
6
CONTINUOUS
10
141.653
20
-115.995
11
141.528
21
-116.173
0
LINE
8
BLACK
6
CONTINUOUS
10
141.528
20
-116.173
11
141.373
21
-116.328
0
LINE
8
BLACK
6
CONTINUOUS
10
141.373
20
-116.328
11
141.195
21
-116.453
0
LINE
8
BLACK
6
CONTINUOUS
10
141.195
20
-116.453
11
140.998
21
-116.545
0
LINE
8
BLACK
6
CONTINUOUS
10
140.998
20
-116.545
11
140.787
21
-116.601
0
LINE
8
BLACK
6
CONTINUOUS
10
140.787
20
-116.601
11
140.57
21
-116.62
0
LINE
8
BLACK
6
CONTINUOUS
10
140.57
20
-116.62
11
140.353
21
-116.601
0
LINE
8
BLACK
6
CONTINUOUS
10
140.353
20
-116.601
11
140.142
21
-116.545
0
LINE
8
BLACK
6
CONTINUOUS
10
140.142
20
-116.545
11
139.945
21
-116.453
0
LINE
8
BLACK
6
CONTINUOUS
10
139.945
20
-116.453
11
139.767
21
-116.328
0
LINE
8
BLACK
6
CONTINUOUS
10
139.767
20
-116.328
11
139.612
21
-116.173
0
LINE
8
BLACK
6
CONTINUOUS
10
139.612
20
-116.173
11
139.487
21
-115.995
0
LINE
8
BLACK
6
CONTINUOUS
10
139.487
20
-115.995
11
139.395
21
-115.798
0
LINE
8
BLACK
6
CONTINUOUS
10
139.395
20
-115.798
11
139.339
21
-115.587
0
LINE
8
BLACK
6
CONTINUOUS
10
139.339
20
-115.587
11
139.32
21
-115.37
0
LINE
8
BLACK
6
CONTINUOUS
10
139.32
20
-115.37
11
139.339
21
-115.153
0
LINE
8
BLACK
6
CONTINUOUS
10
139.339
20
-115.153
11
139.395
21
-114.942
0
LINE
8
BLACK
6
CONTINUOUS
10
139.395
20
-114.942
11
139.487
21
-114.745
0
LINE
8
BLACK
6
CONTINUOUS
10
139.487
20
-114.745
11
139.612
21
-114.567
0
LINE
8
BLACK
6
CONTINUOUS
10
139.612
20
-114.567
11
139.767
21
-114.412
0
LINE
8
BLACK
6
CONTINUOUS
10
139.767
20
-114.412
11
139.945
21
-114.287
0
LINE
8
BLACK
6
CONTINUOUS
10
139.945
20
-114.287
11
140.142
21
-114.195
0
LINE
8
BLACK
6
CONTINUOUS
10
140.142
20
-114.195
11
140.353
21
-114.139
0
LINE
8
BLACK
6
CONTINUOUS
10
140.353
20
-114.139
11
140.57
21
-114.12
0
LINE
8
BLACK
6
CONTINUOUS
10
140.57
20
-114.12
11
140.787
21
-114.139
0
LINE
8
BLACK
6
CONTINUOUS
10
146.567
20
-114.139
11
146.778
21
-114.195
0
LINE
8
BLACK
6
CONTINUOUS
10
146.778
20
-114.195
11
146.975
21
-114.287
0
LINE
8
BLACK
6
CONTINUOUS
10
146.975
20
-114.287
11
147.153
21
-114.412
0
LINE
8
BLACK
6
CONTINUOUS
10
147.153
20
-114.412
11
147.308
21
-114.567
0
LINE
8
BLACK
6
CONTINUOUS
10
147.308
20
-114.567
11
147.433
21
-114.745
0
LINE
8
BLACK
6
CONTINUOUS
10
147.433
20
-114.745
11
147.525
21
-114.942
0
LINE
8
BLACK
6
CONTINUOUS
10
147.525
20
-114.942
11
147.581
21
-115.153
0
LINE
8
BLACK
6
CONTINUOUS
10
147.581
20
-115.153
11
147.6
21
-115.37
0
LINE
8
BLACK
6
CONTINUOUS
10
147.6
20
-115.37
11
147.581
21
-115.587
0
LINE
8
BLACK
6
CONTINUOUS
10
147.581
20
-115.587
11
147.525
21
-115.798
0
LINE
8
BLACK
6
CONTINUOUS
10
147.525
20
-115.798
11
147.433
21
-115.995
0
LINE
8
BLACK
6
CONTINUOUS
10
147.433
20
-115.995
11
147.308
21
-116.173
0
LINE
8
BLACK
6
CONTINUOUS
10
147.308
20
-116.173
11
147.153
21
-116.328
0
LINE
8
BLACK
6
CONTINUOUS
10
147.153
20
-116.328
11
146.975
21
-116.453
0
LINE
8
BLACK
6
CONTINUOUS
10
146.975
20
-116.453
11
146.778
21
-116.545
0
LINE
8
BLACK
6
CONTINUOUS
10
146.778
20
-116.545
11
146.567
21
-116.601
0
LINE
8
BLACK
6
CONTINUOUS
10
146.567
20
-116.601
11
146.35
21
-116.62
0
LINE
8
BLACK
6
CONTINUOUS
10
146.35
20
-116.62
11
146.133
21
-116.601
0
LINE
8
BLACK
6
CONTINUOUS
10
146.133
20
-116.601
11
145.922
21
-116.545
0
LINE
8
BLACK
6
CONTINUOUS
10
145.922
20
-116.545
11
145.725
21
-116.453
0
LINE
8
BLACK
6
CONTINUOUS
10
145.725
20
-116.453
11
145.547
21
-116.328
0
LINE
8
BLACK
6
CONTINUOUS
10
145.547
20
-116.328
11
145.392
21
-116.173
0
LINE
8
BLACK
6
CONTINUOUS
10
145.392
20
-116.173
11
145.267
21
-115.995
0
LINE
8
BLACK
6
CONTINUOUS
10
145.267
20
-115.995
11
145.175
21
-115.798
0
LINE
8
BLACK
6
CONTINUOUS
10
145.175
20
-115.798
11
145.119
21
-115.587
0
LINE
8
BLACK
6
CONTINUOUS
10
145.119
20
-115.587
11
145.1
21
-115.37
0
LINE
8
BLACK
6
CONTINUOUS
10
145.1
20
-115.37
11
145.119
21
-115.153
0
LINE
8
BLACK
6
CONTINUOUS
10
145.119
20
-115.153
11
145.175
21
-114.942
0
LINE
8
BLACK
6
CONTINUOUS
10
145.175
20
-114.942
11
145.267
21
-114.745
0
LINE
8
BLACK
6
CONTINUOUS
10
145.267
20
-114.745
11
145.392
21
-114.567
0
LINE
8
BLACK
6
CONTINUOUS
10
145.392
20
-114.567
11
145.547
21
-114.412
0
LINE
8
BLACK
6
CONTINUOUS
10
145.547
20
-114.412
11
145.725
21
-114.287
0
LINE
8
BLACK
6
CONTINUOUS
10
145.725
20
-114.287
11
145.922
21
-114.195
0
LINE
8
BLACK
6
CONTINUOUS
10
145.922
20
-114.195
11
146.133
21
-114.139
0
LINE
8
BLACK
6
CONTINUOUS
10
146.133
20
-114.139
11
146.35
21
-114.12
0
LINE
8
BLACK
6
CONTINUOUS
10
146.35
20
-114.12
11
146.567
21
-114.139
0
LINE
8
BLACK
6
CONTINUOUS
10
128.787
20
-114.139
11
128.998
21
-114.195
0
LINE
8
BLACK
6
CONTINUOUS
10
128.998
20
-114.195
11
129.195
21
-114.287
0
LINE
8
BLACK
6
CONTINUOUS
10
129.195
20
-114.287
11
129.373
21
-114.412
0
LINE
8
BLACK
6
CONTINUOUS
10
129.373
20
-114.412
11
129.528
21
-114.567
0
LINE
8
BLACK
6
CONTINUOUS
10
129.528
20
-114.567
11
129.653
21
-114.745
0
LINE
8
BLACK
6
CONTINUOUS
10
129.653
20
-114.745
11
129.745
21
-114.942
0
LINE
8
BLACK
6
CONTINUOUS
10
129.745
20
-114.942
11
129.801
21
-115.153
0
LINE
8
BLACK
6
CONTINUOUS
10
129.801
20
-115.153
11
129.82
21
-115.37
0
LINE
8
BLACK
6
CONTINUOUS
10
129.82
20
-115.37
11
129.801
21
-115.587
0
LINE
8
BLACK
6
CONTINUOUS
10
129.801
20
-115.587
11
129.745
21
-115.798
0
LINE
8
BLACK
6
CONTINUOUS
10
129.745
20
-115.798
11
129.653
21
-115.995
0
LINE
8
BLACK
6
CONTINUOUS
10
129.653
20
-115.995
11
129.528
21
-116.173
0
LINE
8
BLACK
6
CONTINUOUS
10
129.528
20
-116.173
11
129.373
21
-116.328
0
LINE
8
BLACK
6
CONTINUOUS
10
129.373
20
-116.328
11
129.195
21
-116.453
0
LINE
8
BLACK
6
CONTINUOUS
10
129.195
20
-116.453
11
128.998
21
-116.545
0
LINE
8
BLACK
6
CONTINUOUS
10
128.998
20
-116.545
11
128.787
21
-116.601
0
LINE
8
BLACK
6
CONTINUOUS
10
128.787
20
-116.601
11
128.57
21
-116.62
0
LINE
8
BLACK
6
CONTINUOUS
10
128.57
20
-116.62
11
128.353
21
-116.601
0
LINE
8
BLACK
6
CONTINUOUS
10
128.353
20
-116.601
11
128.142
21
-116.545
0
LINE
8
BLACK
6
CONTINUOUS
10
128.142
20
-116.545
11
127.945
21
-116.453
0
LINE
8
BLACK
6
CONTINUOUS
10
127.945
20
-116.453
11
127.767
21
-116.328
0
LINE
8
BLACK
6
CONTINUOUS
10
127.767
20
-116.328
11
127.612
21
-116.173
0
LINE
8
BLACK
6
CONTINUOUS
10
127.612
20
-116.173
11
127.487
21
-115.995
0
LINE
8
BLACK
6
CONTINUOUS
10
127.487
20
-115.995
11
127.395
21
-115.798
0
LINE
8
BLACK
6
CONTINUOUS
10
127.395
20
-115.798
11
127.339
21
-115.587
0
LINE
8
BLACK
6
CONTINUOUS
10
127.339
20
-115.587
11
127.32
21
-115.37
0
LINE
8
BLACK
6
CONTINUOUS
10
127.32
20
-115.37
11
127.339
21
-115.153
0
LINE
8
BLACK
6
CONTINUOUS
10
127.339
20
-115.153
11
127.395
21
-114.942
0
LINE
8
BLACK
6
CONTINUOUS
10
127.395
20
-114.942
11
127.487
21
-114.745
0
LINE
8
BLACK
6
CONTINUOUS
10
127.487
20
-114.745
11
127.612
21
-114.567
0
LINE
8
BLACK
6
CONTINUOUS
10
127.612
20
-114.567
11
127.767
21
-114.412
0
LINE
8
BLACK
6
CONTINUOUS
10
127.767
20
-114.412
11
127.945
21
-114.287
0
LINE
8
BLACK
6
CONTINUOUS
10
127.945
20
-114.287
11
128.142
21
-114.195
0
LINE
8
BLACK
6
CONTINUOUS
10
128.142
20
-114.195
11
128.353
21
-114.139
0
LINE
8
BLACK
6
CONTINUOUS
10
128.353
20
-114.139
11
128.57
21
-114.12
0
LINE
8
BLACK
6
CONTINUOUS
10
128.57
20
-114.12
11
128.787
21
-114.139
0
LINE
8
BLACK
6
CONTINUOUS
10
158.567
20
-114.139
11
158.778
21
-114.195
0
LINE
8
BLACK
6
CONTINUOUS
10
158.778
20
-114.195
11
158.975
21
-114.287
0
LINE
8
BLACK
6
CONTINUOUS
10
158.975
20
-114.287
11
159.153
21
-114.412
0
LINE
8
BLACK
6
CONTINUOUS
10
159.153
20
-114.412
11
159.308
21
-114.567
0
LINE
8
BLACK
6
CONTINUOUS
10
159.308
20
-114.567
11
159.433
21
-114.745
0
LINE
8
BLACK
6
CONTINUOUS
10
159.433
20
-114.745
11
159.525
21
-114.942
0
LINE
8
BLACK
6
CONTINUOUS
10
159.525
20
-114.942
11
159.581
21
-115.153
0
LINE
8
BLACK
6
CONTINUOUS
10
159.581
20
-115.153
11
159.6
21
-115.37
0
LINE
8
BLACK
6
CONTINUOUS
10
159.6
20
-115.37
11
159.581
21
-115.587
0
LINE
8
BLACK
6
CONTINUOUS
10
159.581
20
-115.587
11
159.525
21
-115.798
0
LINE
8
BLACK
6
CONTINUOUS
10
159.525
20
-115.798
11
159.433
21
-115.995
0
LINE
8
BLACK
6
CONTINUOUS
10
159.433
20
-115.995
11
159.308
21
-116.173
0
LINE
8
BLACK
6
CONTINUOUS
10
159.308
20
-116.173
11
159.153
21
-116.328
0
LINE
8
BLACK
6
CONTINUOUS
10
159.153
20
-116.328
11
158.975
21
-116.453
0
LINE
8
BLACK
6
CONTINUOUS
10
158.975
20
-116.453
11
158.778
21
-116.545
0
LINE
8
BLACK
6
CONTINUOUS
10
158.778
20
-116.545
11
158.567
21
-116.601
0
LINE
8
BLACK
6
CONTINUOUS
10
158.567
20
-116.601
11
158.35
21
-116.62
0
LINE
8
BLACK
6
CONTINUOUS
10
158.35
20
-116.62
11
158.133
21
-116.601
0
LINE
8
BLACK
6
CONTINUOUS
10
158.133
20
-116.601
11
157.922
21
-116.545
0
LINE
8
BLACK
6
CONTINUOUS
10
157.922
20
-116.545
11
157.725
21
-116.453
0
LINE
8
BLACK
6
CONTINUOUS
10
157.725
20
-116.453
11
157.547
21
-116.328
0
LINE
8
BLACK
6
CONTINUOUS
10
157.547
20
-116.328
11
157.392
21
-116.173
0
LINE
8
BLACK
6
CONTINUOUS
10
157.392
20
-116.173
11
157.267
21
-115.995
0
LINE
8
BLACK
6
CONTINUOUS
10
157.267
20
-115.995
11
157.175
21
-115.798
0
LINE
8
BLACK
6
CONTINUOUS
10
157.175
20
-115.798
11
157.119
21
-115.587
0
LINE
8
BLACK
6
CONTINUOUS
10
157.119
20
-115.587
11
157.1
21
-115.37
0
LINE
8
BLACK
6
CONTINUOUS
10
157.1
20
-115.37
11
157.119
21
-115.153
0
LINE
8
BLACK
6
CONTINUOUS
10
157.119
20
-115.153
11
157.175
21
-114.942
0
LINE
8
BLACK
6
CONTINUOUS
10
157.175
20
-114.942
11
157.267
21
-114.745
0
LINE
8
BLACK
6
CONTINUOUS
10
157.267
20
-114.745
11
157.392
21
-114.567
0
LINE
8
BLACK
6
CONTINUOUS
10
157.392
20
-114.567
11
157.547
21
-114.412
0
LINE
8
BLACK
6
CONTINUOUS
10
157.547
20
-114.412
11
157.725
21
-114.287
0
LINE
8
BLACK
6
CONTINUOUS
10
157.725
20
-114.287
11
157.922
21
-114.195
0
LINE
8
BLACK
6
CONTINUOUS
10
157.922
20
-114.195
11
158.133
21
-114.139
0
LINE
8
BLACK
6
CONTINUOUS
10
158.133
20
-114.139
11
158.35
21
-114.12
0
LINE
8
BLACK
6
CONTINUOUS
10
158.35
20
-114.12
11
158.567
21
-114.139
0
LINE
8
BLACK
6
CONTINUOUS
10
163.61
20
-115.05
11
162.56
21
-115.05
0
LINE
8
BLACK
6
CONTINUOUS
10
162.56
20
-115.05
11
162.56
21
-113.55
0
LINE
8
BLACK
6
CONTINUOUS
10
162.56
20
-113.55
11
163.61
21
-113.55
0
LINE
8
BLACK
6
CONTINUOUS
10
163.61
20
-113.55
11
163.61
21
-115.05
0
LINE
8
BLACK
6
CONTINUOUS
10
165.735
20
-113.561
11
165.869
21
-113.61
0
LINE
8
BLACK
6
CONTINUOUS
10
165.869
20
-113.61
11
165.985
21
-113.692
0
LINE
8
BLACK
6
CONTINUOUS
10
165.985
20
-113.692
11
166.074
21
-113.803
0
LINE
8
BLACK
6
CONTINUOUS
10
166.074
20
-113.803
11
166.131
21
-113.934
0
LINE
8
BLACK
6
CONTINUOUS
10
166.131
20
-113.934
11
166.15
21
-114.075
0
LINE
8
BLACK
6
CONTINUOUS
10
166.15
20
-114.075
11
166.15
21
-114.525
0
LINE
8
BLACK
6
CONTINUOUS
10
166.15
20
-114.525
11
166.145
21
-114.602
0
LINE
8
BLACK
6
CONTINUOUS
10
166.145
20
-114.602
11
166.105
21
-114.739
0
LINE
8
BLACK
6
CONTINUOUS
10
166.105
20
-114.739
11
166.03
21
-114.86
0
LINE
8
BLACK
6
CONTINUOUS
10
166.03
20
-114.86
11
165.925
21
-114.956
0
LINE
8
BLACK
6
CONTINUOUS
10
165.925
20
-114.956
11
165.798
21
-115.021
0
LINE
8
BLACK
6
CONTINUOUS
10
165.798
20
-115.021
11
165.658
21
-115.049
0
LINE
8
BLACK
6
CONTINUOUS
10
165.658
20
-115.049
11
165.516
21
-115.039
0
LINE
8
BLACK
6
CONTINUOUS
10
165.516
20
-115.039
11
165.382
21
-114.99
0
LINE
8
BLACK
6
CONTINUOUS
10
165.382
20
-114.99
11
165.266
21
-114.908
0
LINE
8
BLACK
6
CONTINUOUS
10
165.266
20
-114.908
11
165.176
21
-114.797
0
LINE
8
BLACK
6
CONTINUOUS
10
165.176
20
-114.797
11
165.12
21
-114.666
0
LINE
8
BLACK
6
CONTINUOUS
10
165.12
20
-114.666
11
165.1
21
-114.525
0
LINE
8
BLACK
6
CONTINUOUS
10
165.1
20
-114.525
11
165.1
21
-114.075
0
LINE
8
BLACK
6
CONTINUOUS
10
165.1
20
-114.075
11
165.106
21
-113.998
0
LINE
8
BLACK
6
CONTINUOUS
10
165.106
20
-113.998
11
165.146
21
-113.861
0
LINE
8
BLACK
6
CONTINUOUS
10
165.146
20
-113.861
11
165.221
21
-113.74
0
LINE
8
BLACK
6
CONTINUOUS
10
165.221
20
-113.74
11
165.326
21
-113.644
0
LINE
8
BLACK
6
CONTINUOUS
10
165.326
20
-113.644
11
165.453
21
-113.579
0
LINE
8
BLACK
6
CONTINUOUS
10
165.453
20
-113.579
11
165.592
21
-113.551
0
LINE
8
BLACK
6
CONTINUOUS
10
165.592
20
-113.551
11
165.735
21
-113.561
0
LINE
8
BLACK
6
CONTINUOUS
10
164.465
20
-113.561
11
164.599
21
-113.61
0
LINE
8
BLACK
6
CONTINUOUS
10
164.599
20
-113.61
11
164.715
21
-113.692
0
LINE
8
BLACK
6
CONTINUOUS
10
164.715
20
-113.692
11
164.804
21
-113.803
0
LINE
8
BLACK
6
CONTINUOUS
10
164.804
20
-113.803
11
164.861
21
-113.934
0
LINE
8
BLACK
6
CONTINUOUS
10
164.861
20
-113.934
11
164.88
21
-114.075
0
LINE
8
BLACK
6
CONTINUOUS
10
164.88
20
-114.075
11
164.88
21
-114.525
0
LINE
8
BLACK
6
CONTINUOUS
10
164.88
20
-114.525
11
164.875
21
-114.602
0
LINE
8
BLACK
6
CONTINUOUS
10
164.875
20
-114.602
11
164.835
21
-114.739
0
LINE
8
BLACK
6
CONTINUOUS
10
164.835
20
-114.739
11
164.76
21
-114.86
0
LINE
8
BLACK
6
CONTINUOUS
10
164.76
20
-114.86
11
164.655
21
-114.956
0
LINE
8
BLACK
6
CONTINUOUS
10
164.655
20
-114.956
11
164.528
21
-115.021
0
LINE
8
BLACK
6
CONTINUOUS
10
164.528
20
-115.021
11
164.388
21
-115.049
0
LINE
8
BLACK
6
CONTINUOUS
10
164.388
20
-115.049
11
164.246
21
-115.039
0
LINE
8
BLACK
6
CONTINUOUS
10
164.246
20
-115.039
11
164.112
21
-114.99
0
LINE
8
BLACK
6
CONTINUOUS
10
164.112
20
-114.99
11
163.996
21
-114.908
0
LINE
8
BLACK
6
CONTINUOUS
10
163.996
20
-114.908
11
163.906
21
-114.797
0
LINE
8
BLACK
6
CONTINUOUS
10
163.906
20
-114.797
11
163.85
21
-114.666
0
LINE
8
BLACK
6
CONTINUOUS
10
163.85
20
-114.666
11
163.83
21
-114.525
0
LINE
8
BLACK
6
CONTINUOUS
10
163.83
20
-114.525
11
163.83
21
-114.075
0
LINE
8
BLACK
6
CONTINUOUS
10
163.83
20
-114.075
11
163.836
21
-113.998
0
LINE
8
BLACK
6
CONTINUOUS
10
163.836
20
-113.998
11
163.876
21
-113.861
0
LINE
8
BLACK
6
CONTINUOUS
10
163.876
20
-113.861
11
163.951
21
-113.74
0
LINE
8
BLACK
6
CONTINUOUS
10
163.951
20
-113.74
11
164.056
21
-113.644
0
LINE
8
BLACK
6
CONTINUOUS
10
164.056
20
-113.644
11
164.183
21
-113.579
0
LINE
8
BLACK
6
CONTINUOUS
10
164.183
20
-113.579
11
164.322
21
-113.551
0
LINE
8
BLACK
6
CONTINUOUS
10
164.322
20
-113.551
11
164.465
21
-113.561
0
LINE
8
BLACK
6
CONTINUOUS
10
152.541
20
-111.927
11
152.783
21
-111.97
0
LINE
8
BLACK
6
CONTINUOUS
10
152.783
20
-111.97
11
153.015
21
-112.052
0
LINE
8
BLACK
6
CONTINUOUS
10
153.015
20
-112.052
11
153.23
21
-112.171
0
LINE
8
BLACK
6
CONTINUOUS
10
153.23
20
-112.171
11
153.423
21
-112.323
0
LINE
8
BLACK
6
CONTINUOUS
10
153.423
20
-112.323
11
153.588
21
-112.505
0
LINE
8
BLACK
6
CONTINUOUS
10
153.588
20
-112.505
11
153.722
21
-112.711
0
LINE
8
BLACK
6
CONTINUOUS
10
153.722
20
-112.711
11
153.82
21
-112.937
0
LINE
8
BLACK
6
CONTINUOUS
10
153.82
20
-112.937
11
153.88
21
-113.175
0
LINE
8
BLACK
6
CONTINUOUS
10
153.88
20
-113.175
11
153.9
21
-113.42
0
LINE
8
BLACK
6
CONTINUOUS
10
153.9
20
-113.42
11
153.898
21
-113.493
0
LINE
8
BLACK
6
CONTINUOUS
10
153.898
20
-113.493
11
153.866
21
-113.737
0
LINE
8
BLACK
6
CONTINUOUS
10
153.866
20
-113.737
11
153.795
21
-113.972
0
LINE
8
BLACK
6
CONTINUOUS
10
153.795
20
-113.972
11
153.686
21
-114.193
0
LINE
8
BLACK
6
CONTINUOUS
10
153.686
20
-114.193
11
153.542
21
-114.392
0
LINE
8
BLACK
6
CONTINUOUS
10
153.542
20
-114.392
11
153.368
21
-114.566
0
LINE
8
BLACK
6
CONTINUOUS
10
153.368
20
-114.566
11
153.168
21
-114.708
0
LINE
8
BLACK
6
CONTINUOUS
10
153.168
20
-114.708
11
152.947
21
-114.817
0
LINE
8
BLACK
6
CONTINUOUS
10
152.947
20
-114.817
11
152.712
21
-114.887
0
LINE
8
BLACK
6
CONTINUOUS
10
152.712
20
-114.887
11
152.468
21
-114.918
0
LINE
8
BLACK
6
CONTINUOUS
10
152.468
20
-114.918
11
152.222
21
-114.909
0
LINE
8
BLACK
6
CONTINUOUS
10
152.222
20
-114.909
11
151.982
21
-114.86
0
LINE
8
BLACK
6
CONTINUOUS
10
151.982
20
-114.86
11
151.752
21
-114.773
0
LINE
8
BLACK
6
CONTINUOUS
10
151.752
20
-114.773
11
151.54
21
-114.649
0
LINE
8
BLACK
6
CONTINUOUS
10
151.54
20
-114.649
11
151.351
21
-114.492
0
LINE
8
BLACK
6
CONTINUOUS
10
151.351
20
-114.492
11
151.19
21
-114.306
0
LINE
8
BLACK
6
CONTINUOUS
10
151.19
20
-114.306
11
151.061
21
-114.096
0
LINE
8
BLACK
6
CONTINUOUS
10
151.061
20
-114.096
11
150.969
21
-113.869
0
LINE
8
BLACK
6
CONTINUOUS
10
150.969
20
-113.869
11
150.915
21
-113.629
0
LINE
8
BLACK
6
CONTINUOUS
10
150.915
20
-113.629
11
150.9
21
-113.383
0
LINE
8
BLACK
6
CONTINUOUS
10
150.9
20
-113.383
11
150.927
21
-113.139
0
LINE
8
BLACK
6
CONTINUOUS
10
150.927
20
-113.139
11
150.992
21
-112.902
0
LINE
8
BLACK
6
CONTINUOUS
10
150.992
20
-112.902
11
151.096
21
-112.679
0
LINE
8
BLACK
6
CONTINUOUS
10
151.096
20
-112.679
11
151.234
21
-112.476
0
LINE
8
BLACK
6
CONTINUOUS
10
151.234
20
-112.476
11
151.404
21
-112.298
0
LINE
8
BLACK
6
CONTINUOUS
10
151.404
20
-112.298
11
151.601
21
-112.151
0
LINE
8
BLACK
6
CONTINUOUS
10
151.601
20
-112.151
11
151.819
21
-112.037
0
LINE
8
BLACK
6
CONTINUOUS
10
151.819
20
-112.037
11
152.052
21
-111.961
0
LINE
8
BLACK
6
CONTINUOUS
10
152.052
20
-111.961
11
152.295
21
-111.924
0
LINE
8
BLACK
6
CONTINUOUS
10
152.295
20
-111.924
11
152.541
21
-111.927
0
LINE
8
BLACK
6
CONTINUOUS
10
134.761
20
-111.927
11
135.003
21
-111.97
0
LINE
8
BLACK
6
CONTINUOUS
10
135.003
20
-111.97
11
135.235
21
-112.052
0
LINE
8
BLACK
6
CONTINUOUS
10
135.235
20
-112.052
11
135.45
21
-112.171
0
LINE
8
BLACK
6
CONTINUOUS
10
135.45
20
-112.171
11
135.643
21
-112.323
0
LINE
8
BLACK
6
CONTINUOUS
10
135.643
20
-112.323
11
135.808
21
-112.505
0
LINE
8
BLACK
6
CONTINUOUS
10
135.808
20
-112.505
11
135.942
21
-112.711
0
LINE
8
BLACK
6
CONTINUOUS
10
135.942
20
-112.711
11
136.04
21
-112.937
0
LINE
8
BLACK
6
CONTINUOUS
10
136.04
20
-112.937
11
136.1
21
-113.175
0
LINE
8
BLACK
6
CONTINUOUS
10
136.1
20
-113.175
11
136.12
21
-113.42
0
LINE
8
BLACK
6
CONTINUOUS
10
136.12
20
-113.42
11
136.118
21
-113.493
0
LINE
8
BLACK
6
CONTINUOUS
10
136.118
20
-113.493
11
136.086
21
-113.737
0
LINE
8
BLACK
6
CONTINUOUS
10
136.086
20
-113.737
11
136.015
21
-113.972
0
LINE
8
BLACK
6
CONTINUOUS
10
136.015
20
-113.972
11
135.906
21
-114.193
0
LINE
8
BLACK
6
CONTINUOUS
10
135.906
20
-114.193
11
135.762
21
-114.392
0
LINE
8
BLACK
6
CONTINUOUS
10
135.762
20
-114.392
11
135.588
21
-114.566
0
LINE
8
BLACK
6
CONTINUOUS
10
135.588
20
-114.566
11
135.388
21
-114.708
0
LINE
8
BLACK
6
CONTINUOUS
10
135.388
20
-114.708
11
135.167
21
-114.817
0
LINE
8
BLACK
6
CONTINUOUS
10
135.167
20
-114.817
11
134.932
21
-114.887
0
LINE
8
BLACK
6
CONTINUOUS
10
134.932
20
-114.887
11
134.688
21
-114.918
0
LINE
8
BLACK
6
CONTINUOUS
10
134.688
20
-114.918
11
134.442
21
-114.909
0
LINE
8
BLACK
6
CONTINUOUS
10
134.442
20
-114.909
11
134.202
21
-114.86
0
LINE
8
BLACK
6
CONTINUOUS
10
134.202
20
-114.86
11
133.972
21
-114.773
0
LINE
8
BLACK
6
CONTINUOUS
10
133.972
20
-114.773
11
133.76
21
-114.649
0
LINE
8
BLACK
6
CONTINUOUS
10
133.76
20
-114.649
11
133.571
21
-114.492
0
LINE
8
BLACK
6
CONTINUOUS
10
133.571
20
-114.492
11
133.41
21
-114.306
0
LINE
8
BLACK
6
CONTINUOUS
10
133.41
20
-114.306
11
133.281
21
-114.096
0
LINE
8
BLACK
6
CONTINUOUS
10
133.281
20
-114.096
11
133.189
21
-113.869
0
LINE
8
BLACK
6
CONTINUOUS
10
133.189
20
-113.869
11
133.135
21
-113.629
0
LINE
8
BLACK
6
CONTINUOUS
10
133.135
20
-113.629
11
133.12
21
-113.383
0
LINE
8
BLACK
6
CONTINUOUS
10
133.12
20
-113.383
11
133.147
21
-113.139
0
LINE
8
BLACK
6
CONTINUOUS
10
133.147
20
-113.139
11
133.212
21
-112.902
0
LINE
8
BLACK
6
CONTINUOUS
10
133.212
20
-112.902
11
133.316
21
-112.679
0
LINE
8
BLACK
6
CONTINUOUS
10
133.316
20
-112.679
11
133.454
21
-112.476
0
LINE
8
BLACK
6
CONTINUOUS
10
133.454
20
-112.476
11
133.624
21
-112.298
0
LINE
8
BLACK
6
CONTINUOUS
10
133.624
20
-112.298
11
133.821
21
-112.151
0
LINE
8
BLACK
6
CONTINUOUS
10
133.821
20
-112.151
11
134.039
21
-112.037
0
LINE
8
BLACK
6
CONTINUOUS
10
134.039
20
-112.037
11
134.272
21
-111.961
0
LINE
8
BLACK
6
CONTINUOUS
10
134.272
20
-111.961
11
134.515
21
-111.924
0
LINE
8
BLACK
6
CONTINUOUS
10
134.515
20
-111.924
11
134.761
21
-111.927
  0
ENDSEC
  0
EOF
